%TF.GenerationSoftware,KiCad,Pcbnew,(6.0.10)*%
%TF.CreationDate,2023-02-06T20:53:37+00:00*%
%TF.ProjectId,fjol-desktop,666a6f6c-2d64-4657-936b-746f702e6b69,rev?*%
%TF.SameCoordinates,Original*%
%TF.FileFunction,Legend,Top*%
%TF.FilePolarity,Positive*%
%FSLAX46Y46*%
G04 Gerber Fmt 4.6, Leading zero omitted, Abs format (unit mm)*
G04 Created by KiCad (PCBNEW (6.0.10)) date 2023-02-06 20:53:37*
%MOMM*%
%LPD*%
G01*
G04 APERTURE LIST*
G04 Aperture macros list*
%AMRoundRect*
0 Rectangle with rounded corners*
0 $1 Rounding radius*
0 $2 $3 $4 $5 $6 $7 $8 $9 X,Y pos of 4 corners*
0 Add a 4 corners polygon primitive as box body*
4,1,4,$2,$3,$4,$5,$6,$7,$8,$9,$2,$3,0*
0 Add four circle primitives for the rounded corners*
1,1,$1+$1,$2,$3*
1,1,$1+$1,$4,$5*
1,1,$1+$1,$6,$7*
1,1,$1+$1,$8,$9*
0 Add four rect primitives between the rounded corners*
20,1,$1+$1,$2,$3,$4,$5,0*
20,1,$1+$1,$4,$5,$6,$7,0*
20,1,$1+$1,$6,$7,$8,$9,0*
20,1,$1+$1,$8,$9,$2,$3,0*%
G04 Aperture macros list end*
%ADD10C,0.077216*%
%ADD11C,0.081076*%
%ADD12C,0.150000*%
%ADD13C,0.127000*%
%ADD14C,0.203200*%
%ADD15C,0.050800*%
%ADD16C,0.120000*%
%ADD17C,1.853200*%
%ADD18RoundRect,0.101600X-0.825000X0.825000X-0.825000X-0.825000X0.825000X-0.825000X0.825000X0.825000X0*%
%ADD19C,2.997200*%
%ADD20R,1.800000X1.800000*%
%ADD21C,1.800000*%
%ADD22C,1.700000*%
%ADD23O,2.720000X3.240000*%
%ADD24R,2.000000X2.000000*%
%ADD25C,2.000000*%
%ADD26R,2.000000X3.200000*%
%ADD27RoundRect,0.101600X0.825000X-0.825000X0.825000X0.825000X-0.825000X0.825000X-0.825000X-0.825000X0*%
%ADD28C,2.200000*%
%ADD29R,1.600000X1.500000*%
%ADD30C,1.600000*%
%ADD31C,3.000000*%
%ADD32O,1.050000X1.900000*%
%ADD33R,1.700000X1.700000*%
%ADD34C,0.800000*%
G04 APERTURE END LIST*
D10*
%TO.C,CV-PM3*%
X253880965Y-52650533D02*
X253926927Y-52696495D01*
X253972889Y-52834380D01*
X253972889Y-52926304D01*
X253926927Y-53064190D01*
X253835003Y-53156114D01*
X253743079Y-53202076D01*
X253559231Y-53248037D01*
X253421346Y-53248037D01*
X253237498Y-53202076D01*
X253145574Y-53156114D01*
X253053651Y-53064190D01*
X253007689Y-52926304D01*
X253007689Y-52834380D01*
X253053651Y-52696495D01*
X253099612Y-52650533D01*
X253007689Y-52374761D02*
X253972889Y-52053028D01*
X253007689Y-51731295D01*
X253605193Y-51409561D02*
X253605193Y-50674171D01*
X253972889Y-50214552D02*
X253007689Y-50214552D01*
X253007689Y-49846857D01*
X253053651Y-49754933D01*
X253099612Y-49708971D01*
X253191536Y-49663009D01*
X253329422Y-49663009D01*
X253421346Y-49708971D01*
X253467308Y-49754933D01*
X253513270Y-49846857D01*
X253513270Y-50214552D01*
X253972889Y-49249352D02*
X253007689Y-49249352D01*
X253697117Y-48927618D01*
X253007689Y-48605885D01*
X253972889Y-48605885D01*
X253007689Y-48238190D02*
X253007689Y-47640685D01*
X253375384Y-47962418D01*
X253375384Y-47824533D01*
X253421346Y-47732609D01*
X253467308Y-47686647D01*
X253559231Y-47640685D01*
X253789041Y-47640685D01*
X253880965Y-47686647D01*
X253926927Y-47732609D01*
X253972889Y-47824533D01*
X253972889Y-48100304D01*
X253926927Y-48192228D01*
X253880965Y-48238190D01*
%TO.C,CV-CTL2*%
X253893714Y-85462017D02*
X253939676Y-85507979D01*
X253985638Y-85645864D01*
X253985638Y-85737788D01*
X253939676Y-85875674D01*
X253847752Y-85967598D01*
X253755828Y-86013560D01*
X253571980Y-86059521D01*
X253434095Y-86059521D01*
X253250247Y-86013560D01*
X253158323Y-85967598D01*
X253066400Y-85875674D01*
X253020438Y-85737788D01*
X253020438Y-85645864D01*
X253066400Y-85507979D01*
X253112361Y-85462017D01*
X253020438Y-85186245D02*
X253985638Y-84864512D01*
X253020438Y-84542779D01*
X253617942Y-84221045D02*
X253617942Y-83485655D01*
X253893714Y-82474493D02*
X253939676Y-82520455D01*
X253985638Y-82658341D01*
X253985638Y-82750264D01*
X253939676Y-82888150D01*
X253847752Y-82980074D01*
X253755828Y-83026036D01*
X253571980Y-83071998D01*
X253434095Y-83071998D01*
X253250247Y-83026036D01*
X253158323Y-82980074D01*
X253066400Y-82888150D01*
X253020438Y-82750264D01*
X253020438Y-82658341D01*
X253066400Y-82520455D01*
X253112361Y-82474493D01*
X253020438Y-82198721D02*
X253020438Y-81647179D01*
X253985638Y-81922950D02*
X253020438Y-81922950D01*
X253985638Y-80865826D02*
X253985638Y-81325445D01*
X253020438Y-81325445D01*
X253112361Y-80590055D02*
X253066400Y-80544093D01*
X253020438Y-80452169D01*
X253020438Y-80222360D01*
X253066400Y-80130436D01*
X253112361Y-80084474D01*
X253204285Y-80038512D01*
X253296209Y-80038512D01*
X253434095Y-80084474D01*
X253985638Y-80636017D01*
X253985638Y-80038512D01*
%TO.C,mult1*%
X240580298Y-132163916D02*
X240580298Y-131520449D01*
X240580298Y-131612373D02*
X240626260Y-131566411D01*
X240718184Y-131520449D01*
X240856070Y-131520449D01*
X240947993Y-131566411D01*
X240993955Y-131658335D01*
X240993955Y-132163916D01*
X240993955Y-131658335D02*
X241039917Y-131566411D01*
X241131841Y-131520449D01*
X241269727Y-131520449D01*
X241361651Y-131566411D01*
X241407612Y-131658335D01*
X241407612Y-132163916D01*
X242280889Y-131520449D02*
X242280889Y-132163916D01*
X241867232Y-131520449D02*
X241867232Y-132026030D01*
X241913193Y-132117954D01*
X242005117Y-132163916D01*
X242143003Y-132163916D01*
X242234927Y-132117954D01*
X242280889Y-132071992D01*
X242878393Y-132163916D02*
X242786470Y-132117954D01*
X242740508Y-132026030D01*
X242740508Y-131198716D01*
X243108203Y-131520449D02*
X243475898Y-131520449D01*
X243246089Y-131198716D02*
X243246089Y-132026030D01*
X243292051Y-132117954D01*
X243383974Y-132163916D01*
X243475898Y-132163916D01*
X244303212Y-132163916D02*
X243751670Y-132163916D01*
X244027441Y-132163916D02*
X244027441Y-131198716D01*
X243935517Y-131336601D01*
X243843593Y-131428525D01*
X243751670Y-131474487D01*
D11*
%TO.C,FILT-DEC1*%
X143190159Y-131237680D02*
X142852339Y-131237680D01*
X142852339Y-131768540D02*
X142852339Y-130755080D01*
X143334939Y-130755080D01*
X143721019Y-131768540D02*
X143721019Y-130755080D01*
X144686219Y-131768540D02*
X144203619Y-131768540D01*
X144203619Y-130755080D01*
X144879259Y-130755080D02*
X145458379Y-130755080D01*
X145168819Y-131768540D02*
X145168819Y-130755080D01*
X145796199Y-131382460D02*
X146568359Y-131382460D01*
X147050959Y-131768540D02*
X147050959Y-130755080D01*
X147292259Y-130755080D01*
X147437039Y-130803340D01*
X147533559Y-130899860D01*
X147581819Y-130996380D01*
X147630079Y-131189420D01*
X147630079Y-131334200D01*
X147581819Y-131527240D01*
X147533559Y-131623760D01*
X147437039Y-131720280D01*
X147292259Y-131768540D01*
X147050959Y-131768540D01*
X148064419Y-131237680D02*
X148402239Y-131237680D01*
X148547019Y-131768540D02*
X148064419Y-131768540D01*
X148064419Y-130755080D01*
X148547019Y-130755080D01*
X149560479Y-131672020D02*
X149512219Y-131720280D01*
X149367439Y-131768540D01*
X149270919Y-131768540D01*
X149126139Y-131720280D01*
X149029619Y-131623760D01*
X148981359Y-131527240D01*
X148933099Y-131334200D01*
X148933099Y-131189420D01*
X148981359Y-130996380D01*
X149029619Y-130899860D01*
X149126139Y-130803340D01*
X149270919Y-130755080D01*
X149367439Y-130755080D01*
X149512219Y-130803340D01*
X149560479Y-130851600D01*
X150525679Y-131768540D02*
X149946559Y-131768540D01*
X150236119Y-131768540D02*
X150236119Y-130755080D01*
X150139599Y-130899860D01*
X150043079Y-130996380D01*
X149946559Y-131044640D01*
%TO.C,PM3*%
X92177999Y-131705040D02*
X92177999Y-130691580D01*
X92564079Y-130691580D01*
X92660599Y-130739840D01*
X92708859Y-130788100D01*
X92757119Y-130884620D01*
X92757119Y-131029400D01*
X92708859Y-131125920D01*
X92660599Y-131174180D01*
X92564079Y-131222440D01*
X92177999Y-131222440D01*
X93191459Y-131705040D02*
X93191459Y-130691580D01*
X93529279Y-131415480D01*
X93867099Y-130691580D01*
X93867099Y-131705040D01*
X94253179Y-130691580D02*
X94880559Y-130691580D01*
X94542739Y-131077660D01*
X94687519Y-131077660D01*
X94784039Y-131125920D01*
X94832299Y-131174180D01*
X94880559Y-131270700D01*
X94880559Y-131512000D01*
X94832299Y-131608520D01*
X94784039Y-131656780D01*
X94687519Y-131705040D01*
X94397959Y-131705040D01*
X94301439Y-131656780D01*
X94253179Y-131608520D01*
D10*
%TO.C,mult4*%
X254930298Y-142902476D02*
X254930298Y-142259009D01*
X254930298Y-142350933D02*
X254976260Y-142304971D01*
X255068184Y-142259009D01*
X255206070Y-142259009D01*
X255297993Y-142304971D01*
X255343955Y-142396895D01*
X255343955Y-142902476D01*
X255343955Y-142396895D02*
X255389917Y-142304971D01*
X255481841Y-142259009D01*
X255619727Y-142259009D01*
X255711651Y-142304971D01*
X255757612Y-142396895D01*
X255757612Y-142902476D01*
X256630889Y-142259009D02*
X256630889Y-142902476D01*
X256217232Y-142259009D02*
X256217232Y-142764590D01*
X256263193Y-142856514D01*
X256355117Y-142902476D01*
X256493003Y-142902476D01*
X256584927Y-142856514D01*
X256630889Y-142810552D01*
X257228393Y-142902476D02*
X257136470Y-142856514D01*
X257090508Y-142764590D01*
X257090508Y-141937276D01*
X257458203Y-142259009D02*
X257825898Y-142259009D01*
X257596089Y-141937276D02*
X257596089Y-142764590D01*
X257642051Y-142856514D01*
X257733974Y-142902476D01*
X257825898Y-142902476D01*
X258561289Y-142259009D02*
X258561289Y-142902476D01*
X258331479Y-141891314D02*
X258101670Y-142580742D01*
X258699174Y-142580742D01*
%TO.C,pitch1*%
X239162603Y-98585365D02*
X239162603Y-99550565D01*
X239162603Y-98631327D02*
X239254527Y-98585365D01*
X239438374Y-98585365D01*
X239530298Y-98631327D01*
X239576260Y-98677289D01*
X239622222Y-98769213D01*
X239622222Y-99044984D01*
X239576260Y-99136908D01*
X239530298Y-99182870D01*
X239438374Y-99228832D01*
X239254527Y-99228832D01*
X239162603Y-99182870D01*
X240035879Y-99228832D02*
X240035879Y-98585365D01*
X240035879Y-98263632D02*
X239989917Y-98309594D01*
X240035879Y-98355555D01*
X240081841Y-98309594D01*
X240035879Y-98263632D01*
X240035879Y-98355555D01*
X240357612Y-98585365D02*
X240725308Y-98585365D01*
X240495498Y-98263632D02*
X240495498Y-99090946D01*
X240541460Y-99182870D01*
X240633384Y-99228832D01*
X240725308Y-99228832D01*
X241460698Y-99182870D02*
X241368774Y-99228832D01*
X241184927Y-99228832D01*
X241093003Y-99182870D01*
X241047041Y-99136908D01*
X241001079Y-99044984D01*
X241001079Y-98769213D01*
X241047041Y-98677289D01*
X241093003Y-98631327D01*
X241184927Y-98585365D01*
X241368774Y-98585365D01*
X241460698Y-98631327D01*
X241874355Y-99228832D02*
X241874355Y-98263632D01*
X242288012Y-99228832D02*
X242288012Y-98723251D01*
X242242051Y-98631327D01*
X242150127Y-98585365D01*
X242012241Y-98585365D01*
X241920317Y-98631327D01*
X241874355Y-98677289D01*
X243253212Y-99228832D02*
X242701670Y-99228832D01*
X242977441Y-99228832D02*
X242977441Y-98263632D01*
X242885517Y-98401517D01*
X242793593Y-98493441D01*
X242701670Y-98539403D01*
D12*
%TO.C,D11*%
X139189614Y-74977780D02*
X139189614Y-73977780D01*
X139427709Y-73977780D01*
X139570566Y-74025400D01*
X139665804Y-74120638D01*
X139713423Y-74215876D01*
X139761042Y-74406352D01*
X139761042Y-74549209D01*
X139713423Y-74739685D01*
X139665804Y-74834923D01*
X139570566Y-74930161D01*
X139427709Y-74977780D01*
X139189614Y-74977780D01*
X140713423Y-74977780D02*
X140141995Y-74977780D01*
X140427709Y-74977780D02*
X140427709Y-73977780D01*
X140332471Y-74120638D01*
X140237233Y-74215876D01*
X140141995Y-74263495D01*
X141665804Y-74977780D02*
X141094376Y-74977780D01*
X141380090Y-74977780D02*
X141380090Y-73977780D01*
X141284852Y-74120638D01*
X141189614Y-74215876D01*
X141094376Y-74263495D01*
%TO.C,D9*%
X139411804Y-64106580D02*
X139411804Y-63106580D01*
X139649900Y-63106580D01*
X139792757Y-63154200D01*
X139887995Y-63249438D01*
X139935614Y-63344676D01*
X139983233Y-63535152D01*
X139983233Y-63678009D01*
X139935614Y-63868485D01*
X139887995Y-63963723D01*
X139792757Y-64058961D01*
X139649900Y-64106580D01*
X139411804Y-64106580D01*
X140459423Y-64106580D02*
X140649900Y-64106580D01*
X140745138Y-64058961D01*
X140792757Y-64011342D01*
X140887995Y-63868485D01*
X140935614Y-63678009D01*
X140935614Y-63297057D01*
X140887995Y-63201819D01*
X140840376Y-63154200D01*
X140745138Y-63106580D01*
X140554661Y-63106580D01*
X140459423Y-63154200D01*
X140411804Y-63201819D01*
X140364185Y-63297057D01*
X140364185Y-63535152D01*
X140411804Y-63630390D01*
X140459423Y-63678009D01*
X140554661Y-63725628D01*
X140745138Y-63725628D01*
X140840376Y-63678009D01*
X140887995Y-63630390D01*
X140935614Y-63535152D01*
%TO.C,D10*%
X139189614Y-69542180D02*
X139189614Y-68542180D01*
X139427709Y-68542180D01*
X139570566Y-68589800D01*
X139665804Y-68685038D01*
X139713423Y-68780276D01*
X139761042Y-68970752D01*
X139761042Y-69113609D01*
X139713423Y-69304085D01*
X139665804Y-69399323D01*
X139570566Y-69494561D01*
X139427709Y-69542180D01*
X139189614Y-69542180D01*
X140713423Y-69542180D02*
X140141995Y-69542180D01*
X140427709Y-69542180D02*
X140427709Y-68542180D01*
X140332471Y-68685038D01*
X140237233Y-68780276D01*
X140141995Y-68827895D01*
X141332471Y-68542180D02*
X141427709Y-68542180D01*
X141522947Y-68589800D01*
X141570566Y-68637419D01*
X141618185Y-68732657D01*
X141665804Y-68923133D01*
X141665804Y-69161228D01*
X141618185Y-69351704D01*
X141570566Y-69446942D01*
X141522947Y-69494561D01*
X141427709Y-69542180D01*
X141332471Y-69542180D01*
X141237233Y-69494561D01*
X141189614Y-69446942D01*
X141141995Y-69351704D01*
X141094376Y-69161228D01*
X141094376Y-68923133D01*
X141141995Y-68732657D01*
X141189614Y-68637419D01*
X141237233Y-68589800D01*
X141332471Y-68542180D01*
D11*
%TO.C,LFO-AMP1*%
X217621951Y-132007540D02*
X217139351Y-132007540D01*
X217139351Y-130994080D01*
X218297591Y-131476680D02*
X217959771Y-131476680D01*
X217959771Y-132007540D02*
X217959771Y-130994080D01*
X218442371Y-130994080D01*
X219021491Y-130994080D02*
X219214531Y-130994080D01*
X219311051Y-131042340D01*
X219407571Y-131138860D01*
X219455831Y-131331900D01*
X219455831Y-131669720D01*
X219407571Y-131862760D01*
X219311051Y-131959280D01*
X219214531Y-132007540D01*
X219021491Y-132007540D01*
X218924971Y-131959280D01*
X218828451Y-131862760D01*
X218780191Y-131669720D01*
X218780191Y-131331900D01*
X218828451Y-131138860D01*
X218924971Y-131042340D01*
X219021491Y-130994080D01*
X219890171Y-131621460D02*
X220662331Y-131621460D01*
X221096671Y-131717980D02*
X221579271Y-131717980D01*
X221000151Y-132007540D02*
X221337971Y-130994080D01*
X221675791Y-132007540D01*
X222013611Y-132007540D02*
X222013611Y-130994080D01*
X222351431Y-131717980D01*
X222689251Y-130994080D01*
X222689251Y-132007540D01*
X223171851Y-132007540D02*
X223171851Y-130994080D01*
X223557931Y-130994080D01*
X223654451Y-131042340D01*
X223702711Y-131090600D01*
X223750971Y-131187120D01*
X223750971Y-131331900D01*
X223702711Y-131428420D01*
X223654451Y-131476680D01*
X223557931Y-131524940D01*
X223171851Y-131524940D01*
X224716171Y-132007540D02*
X224137051Y-132007540D01*
X224426611Y-132007540D02*
X224426611Y-130994080D01*
X224330091Y-131138860D01*
X224233571Y-131235380D01*
X224137051Y-131283640D01*
D12*
%TO.C,sw-sel1*%
X106801461Y-57679761D02*
X106896699Y-57727380D01*
X107087175Y-57727380D01*
X107182413Y-57679761D01*
X107230033Y-57584523D01*
X107230033Y-57536904D01*
X107182413Y-57441666D01*
X107087175Y-57394047D01*
X106944318Y-57394047D01*
X106849080Y-57346428D01*
X106801461Y-57251190D01*
X106801461Y-57203571D01*
X106849080Y-57108333D01*
X106944318Y-57060714D01*
X107087175Y-57060714D01*
X107182413Y-57108333D01*
X107563366Y-57060714D02*
X107753842Y-57727380D01*
X107944318Y-57251190D01*
X108134794Y-57727380D01*
X108325271Y-57060714D01*
X108706223Y-57346428D02*
X109468128Y-57346428D01*
X109896699Y-57679761D02*
X109991937Y-57727380D01*
X110182413Y-57727380D01*
X110277652Y-57679761D01*
X110325271Y-57584523D01*
X110325271Y-57536904D01*
X110277652Y-57441666D01*
X110182413Y-57394047D01*
X110039556Y-57394047D01*
X109944318Y-57346428D01*
X109896699Y-57251190D01*
X109896699Y-57203571D01*
X109944318Y-57108333D01*
X110039556Y-57060714D01*
X110182413Y-57060714D01*
X110277652Y-57108333D01*
X111134794Y-57679761D02*
X111039556Y-57727380D01*
X110849080Y-57727380D01*
X110753842Y-57679761D01*
X110706223Y-57584523D01*
X110706223Y-57203571D01*
X110753842Y-57108333D01*
X110849080Y-57060714D01*
X111039556Y-57060714D01*
X111134794Y-57108333D01*
X111182413Y-57203571D01*
X111182413Y-57298809D01*
X110706223Y-57394047D01*
X111753842Y-57727380D02*
X111658604Y-57679761D01*
X111610985Y-57584523D01*
X111610985Y-56727380D01*
X112658604Y-57727380D02*
X112087175Y-57727380D01*
X112372890Y-57727380D02*
X112372890Y-56727380D01*
X112277652Y-56870238D01*
X112182413Y-56965476D01*
X112087175Y-57013095D01*
D10*
%TO.C,CV-CTL1*%
X239161714Y-85462017D02*
X239207676Y-85507979D01*
X239253638Y-85645864D01*
X239253638Y-85737788D01*
X239207676Y-85875674D01*
X239115752Y-85967598D01*
X239023828Y-86013560D01*
X238839980Y-86059521D01*
X238702095Y-86059521D01*
X238518247Y-86013560D01*
X238426323Y-85967598D01*
X238334400Y-85875674D01*
X238288438Y-85737788D01*
X238288438Y-85645864D01*
X238334400Y-85507979D01*
X238380361Y-85462017D01*
X238288438Y-85186245D02*
X239253638Y-84864512D01*
X238288438Y-84542779D01*
X238885942Y-84221045D02*
X238885942Y-83485655D01*
X239161714Y-82474493D02*
X239207676Y-82520455D01*
X239253638Y-82658341D01*
X239253638Y-82750264D01*
X239207676Y-82888150D01*
X239115752Y-82980074D01*
X239023828Y-83026036D01*
X238839980Y-83071998D01*
X238702095Y-83071998D01*
X238518247Y-83026036D01*
X238426323Y-82980074D01*
X238334400Y-82888150D01*
X238288438Y-82750264D01*
X238288438Y-82658341D01*
X238334400Y-82520455D01*
X238380361Y-82474493D01*
X238288438Y-82198721D02*
X238288438Y-81647179D01*
X239253638Y-81922950D02*
X238288438Y-81922950D01*
X239253638Y-80865826D02*
X239253638Y-81325445D01*
X238288438Y-81325445D01*
X239253638Y-80038512D02*
X239253638Y-80590055D01*
X239253638Y-80314283D02*
X238288438Y-80314283D01*
X238426323Y-80406207D01*
X238518247Y-80498131D01*
X238564209Y-80590055D01*
D12*
%TO.C,vol1*%
X210950714Y-72197571D02*
X211617380Y-71959476D01*
X210950714Y-71721380D01*
X211617380Y-71197571D02*
X211569761Y-71292809D01*
X211522142Y-71340428D01*
X211426904Y-71388047D01*
X211141190Y-71388047D01*
X211045952Y-71340428D01*
X210998333Y-71292809D01*
X210950714Y-71197571D01*
X210950714Y-71054714D01*
X210998333Y-70959476D01*
X211045952Y-70911857D01*
X211141190Y-70864238D01*
X211426904Y-70864238D01*
X211522142Y-70911857D01*
X211569761Y-70959476D01*
X211617380Y-71054714D01*
X211617380Y-71197571D01*
X211617380Y-70292809D02*
X211569761Y-70388047D01*
X211474523Y-70435666D01*
X210617380Y-70435666D01*
X211617380Y-69388047D02*
X211617380Y-69959476D01*
X211617380Y-69673761D02*
X210617380Y-69673761D01*
X210760238Y-69769000D01*
X210855476Y-69864238D01*
X210903095Y-69959476D01*
D11*
%TO.C,RELEASE1*%
X190801291Y-63012740D02*
X190463471Y-62530140D01*
X190222171Y-63012740D02*
X190222171Y-61999280D01*
X190608251Y-61999280D01*
X190704771Y-62047540D01*
X190753031Y-62095800D01*
X190801291Y-62192320D01*
X190801291Y-62337100D01*
X190753031Y-62433620D01*
X190704771Y-62481880D01*
X190608251Y-62530140D01*
X190222171Y-62530140D01*
X191235631Y-62481880D02*
X191573451Y-62481880D01*
X191718231Y-63012740D02*
X191235631Y-63012740D01*
X191235631Y-61999280D01*
X191718231Y-61999280D01*
X192635171Y-63012740D02*
X192152571Y-63012740D01*
X192152571Y-61999280D01*
X192972991Y-62481880D02*
X193310811Y-62481880D01*
X193455591Y-63012740D02*
X192972991Y-63012740D01*
X192972991Y-61999280D01*
X193455591Y-61999280D01*
X193841671Y-62723180D02*
X194324271Y-62723180D01*
X193745151Y-63012740D02*
X194082971Y-61999280D01*
X194420791Y-63012740D01*
X194710351Y-62964480D02*
X194855131Y-63012740D01*
X195096431Y-63012740D01*
X195192951Y-62964480D01*
X195241211Y-62916220D01*
X195289471Y-62819700D01*
X195289471Y-62723180D01*
X195241211Y-62626660D01*
X195192951Y-62578400D01*
X195096431Y-62530140D01*
X194903391Y-62481880D01*
X194806871Y-62433620D01*
X194758611Y-62385360D01*
X194710351Y-62288840D01*
X194710351Y-62192320D01*
X194758611Y-62095800D01*
X194806871Y-62047540D01*
X194903391Y-61999280D01*
X195144691Y-61999280D01*
X195289471Y-62047540D01*
X195723811Y-62481880D02*
X196061631Y-62481880D01*
X196206411Y-63012740D02*
X195723811Y-63012740D01*
X195723811Y-61999280D01*
X196206411Y-61999280D01*
X197171611Y-63012740D02*
X196592491Y-63012740D01*
X196882051Y-63012740D02*
X196882051Y-61999280D01*
X196785531Y-62144060D01*
X196689011Y-62240580D01*
X196592491Y-62288840D01*
D12*
%TO.C,SW4*%
X125029166Y-61204761D02*
X125172023Y-61252380D01*
X125410119Y-61252380D01*
X125505357Y-61204761D01*
X125552976Y-61157142D01*
X125600595Y-61061904D01*
X125600595Y-60966666D01*
X125552976Y-60871428D01*
X125505357Y-60823809D01*
X125410119Y-60776190D01*
X125219642Y-60728571D01*
X125124404Y-60680952D01*
X125076785Y-60633333D01*
X125029166Y-60538095D01*
X125029166Y-60442857D01*
X125076785Y-60347619D01*
X125124404Y-60300000D01*
X125219642Y-60252380D01*
X125457738Y-60252380D01*
X125600595Y-60300000D01*
X125933928Y-60252380D02*
X126172023Y-61252380D01*
X126362500Y-60538095D01*
X126552976Y-61252380D01*
X126791071Y-60252380D01*
X127600595Y-60585714D02*
X127600595Y-61252380D01*
X127362500Y-60204761D02*
X127124404Y-60919047D01*
X127743452Y-60919047D01*
%TO.C,D12*%
X139138814Y-80464180D02*
X139138814Y-79464180D01*
X139376909Y-79464180D01*
X139519766Y-79511800D01*
X139615004Y-79607038D01*
X139662623Y-79702276D01*
X139710242Y-79892752D01*
X139710242Y-80035609D01*
X139662623Y-80226085D01*
X139615004Y-80321323D01*
X139519766Y-80416561D01*
X139376909Y-80464180D01*
X139138814Y-80464180D01*
X140662623Y-80464180D02*
X140091195Y-80464180D01*
X140376909Y-80464180D02*
X140376909Y-79464180D01*
X140281671Y-79607038D01*
X140186433Y-79702276D01*
X140091195Y-79749895D01*
X141043576Y-79559419D02*
X141091195Y-79511800D01*
X141186433Y-79464180D01*
X141424528Y-79464180D01*
X141519766Y-79511800D01*
X141567385Y-79559419D01*
X141615004Y-79654657D01*
X141615004Y-79749895D01*
X141567385Y-79892752D01*
X140995957Y-80464180D01*
X141615004Y-80464180D01*
D11*
%TO.C,ATTACK2*%
X166054698Y-108464480D02*
X166537298Y-108464480D01*
X165958178Y-108754040D02*
X166295998Y-107740580D01*
X166633818Y-108754040D01*
X166826858Y-107740580D02*
X167405978Y-107740580D01*
X167116418Y-108754040D02*
X167116418Y-107740580D01*
X167599018Y-107740580D02*
X168178138Y-107740580D01*
X167888578Y-108754040D02*
X167888578Y-107740580D01*
X168467698Y-108464480D02*
X168950298Y-108464480D01*
X168371178Y-108754040D02*
X168708998Y-107740580D01*
X169046818Y-108754040D01*
X169963758Y-108657520D02*
X169915498Y-108705780D01*
X169770718Y-108754040D01*
X169674198Y-108754040D01*
X169529418Y-108705780D01*
X169432898Y-108609260D01*
X169384638Y-108512740D01*
X169336378Y-108319700D01*
X169336378Y-108174920D01*
X169384638Y-107981880D01*
X169432898Y-107885360D01*
X169529418Y-107788840D01*
X169674198Y-107740580D01*
X169770718Y-107740580D01*
X169915498Y-107788840D01*
X169963758Y-107837100D01*
X170398098Y-108754040D02*
X170398098Y-107740580D01*
X170977218Y-108754040D02*
X170542878Y-108174920D01*
X170977218Y-107740580D02*
X170398098Y-108319700D01*
X171363298Y-107837100D02*
X171411558Y-107788840D01*
X171508078Y-107740580D01*
X171749378Y-107740580D01*
X171845898Y-107788840D01*
X171894158Y-107837100D01*
X171942418Y-107933620D01*
X171942418Y-108030140D01*
X171894158Y-108174920D01*
X171315038Y-108754040D01*
X171942418Y-108754040D01*
D12*
%TO.C,d+1*%
X170569047Y-49891380D02*
X170569047Y-48891380D01*
X170569047Y-49843761D02*
X170473809Y-49891380D01*
X170283333Y-49891380D01*
X170188095Y-49843761D01*
X170140476Y-49796142D01*
X170092857Y-49700904D01*
X170092857Y-49415190D01*
X170140476Y-49319952D01*
X170188095Y-49272333D01*
X170283333Y-49224714D01*
X170473809Y-49224714D01*
X170569047Y-49272333D01*
X171045238Y-49510428D02*
X171807142Y-49510428D01*
X171426190Y-49891380D02*
X171426190Y-49129476D01*
X172807142Y-49891380D02*
X172235714Y-49891380D01*
X172521428Y-49891380D02*
X172521428Y-48891380D01*
X172426190Y-49034238D01*
X172330952Y-49129476D01*
X172235714Y-49177095D01*
%TO.C,D4*%
X265032380Y-125945095D02*
X264032380Y-125945095D01*
X264032380Y-125707000D01*
X264080000Y-125564142D01*
X264175238Y-125468904D01*
X264270476Y-125421285D01*
X264460952Y-125373666D01*
X264603809Y-125373666D01*
X264794285Y-125421285D01*
X264889523Y-125468904D01*
X264984761Y-125564142D01*
X265032380Y-125707000D01*
X265032380Y-125945095D01*
X264365714Y-124516523D02*
X265032380Y-124516523D01*
X263984761Y-124754619D02*
X264699047Y-124992714D01*
X264699047Y-124373666D01*
D10*
%TO.C,lfo-o1*%
X253954038Y-105692418D02*
X253908076Y-105784342D01*
X253816152Y-105830304D01*
X252988838Y-105830304D01*
X253310571Y-105462609D02*
X253310571Y-105094914D01*
X253954038Y-105324723D02*
X253126723Y-105324723D01*
X253034800Y-105278761D01*
X252988838Y-105186838D01*
X252988838Y-105094914D01*
X253954038Y-104635295D02*
X253908076Y-104727218D01*
X253862114Y-104773180D01*
X253770190Y-104819142D01*
X253494419Y-104819142D01*
X253402495Y-104773180D01*
X253356533Y-104727218D01*
X253310571Y-104635295D01*
X253310571Y-104497409D01*
X253356533Y-104405485D01*
X253402495Y-104359523D01*
X253494419Y-104313561D01*
X253770190Y-104313561D01*
X253862114Y-104359523D01*
X253908076Y-104405485D01*
X253954038Y-104497409D01*
X253954038Y-104635295D01*
X253586342Y-103899904D02*
X253586342Y-103164514D01*
X253954038Y-102567009D02*
X253908076Y-102658933D01*
X253862114Y-102704895D01*
X253770190Y-102750857D01*
X253494419Y-102750857D01*
X253402495Y-102704895D01*
X253356533Y-102658933D01*
X253310571Y-102567009D01*
X253310571Y-102429123D01*
X253356533Y-102337199D01*
X253402495Y-102291238D01*
X253494419Y-102245276D01*
X253770190Y-102245276D01*
X253862114Y-102291238D01*
X253908076Y-102337199D01*
X253954038Y-102429123D01*
X253954038Y-102567009D01*
X253954038Y-101326038D02*
X253954038Y-101877580D01*
X253954038Y-101601809D02*
X252988838Y-101601809D01*
X253126723Y-101693733D01*
X253218647Y-101785657D01*
X253264609Y-101877580D01*
%TO.C,gate-o1*%
X253417593Y-109567529D02*
X253417593Y-110348881D01*
X253371632Y-110440805D01*
X253325670Y-110486767D01*
X253233746Y-110532729D01*
X253095860Y-110532729D01*
X253003936Y-110486767D01*
X253417593Y-110165034D02*
X253325670Y-110210996D01*
X253141822Y-110210996D01*
X253049898Y-110165034D01*
X253003936Y-110119072D01*
X252957974Y-110027148D01*
X252957974Y-109751377D01*
X253003936Y-109659453D01*
X253049898Y-109613491D01*
X253141822Y-109567529D01*
X253325670Y-109567529D01*
X253417593Y-109613491D01*
X254290870Y-110210996D02*
X254290870Y-109705415D01*
X254244908Y-109613491D01*
X254152984Y-109567529D01*
X253969136Y-109567529D01*
X253877212Y-109613491D01*
X254290870Y-110165034D02*
X254198946Y-110210996D01*
X253969136Y-110210996D01*
X253877212Y-110165034D01*
X253831251Y-110073110D01*
X253831251Y-109981186D01*
X253877212Y-109889262D01*
X253969136Y-109843300D01*
X254198946Y-109843300D01*
X254290870Y-109797338D01*
X254612603Y-109567529D02*
X254980298Y-109567529D01*
X254750489Y-109245796D02*
X254750489Y-110073110D01*
X254796451Y-110165034D01*
X254888374Y-110210996D01*
X254980298Y-110210996D01*
X255669727Y-110165034D02*
X255577803Y-110210996D01*
X255393955Y-110210996D01*
X255302032Y-110165034D01*
X255256070Y-110073110D01*
X255256070Y-109705415D01*
X255302032Y-109613491D01*
X255393955Y-109567529D01*
X255577803Y-109567529D01*
X255669727Y-109613491D01*
X255715689Y-109705415D01*
X255715689Y-109797338D01*
X255256070Y-109889262D01*
X256129346Y-109843300D02*
X256864736Y-109843300D01*
X257462241Y-110210996D02*
X257370317Y-110165034D01*
X257324355Y-110119072D01*
X257278393Y-110027148D01*
X257278393Y-109751377D01*
X257324355Y-109659453D01*
X257370317Y-109613491D01*
X257462241Y-109567529D01*
X257600127Y-109567529D01*
X257692051Y-109613491D01*
X257738012Y-109659453D01*
X257783974Y-109751377D01*
X257783974Y-110027148D01*
X257738012Y-110119072D01*
X257692051Y-110165034D01*
X257600127Y-110210996D01*
X257462241Y-110210996D01*
X258703212Y-110210996D02*
X258151670Y-110210996D01*
X258427441Y-110210996D02*
X258427441Y-109245796D01*
X258335517Y-109383681D01*
X258243593Y-109475605D01*
X258151670Y-109521567D01*
D11*
%TO.C,LFO-FREQ1*%
X168227609Y-132007540D02*
X167745009Y-132007540D01*
X167745009Y-130994080D01*
X168903249Y-131476680D02*
X168565429Y-131476680D01*
X168565429Y-132007540D02*
X168565429Y-130994080D01*
X169048029Y-130994080D01*
X169627149Y-130994080D02*
X169820189Y-130994080D01*
X169916709Y-131042340D01*
X170013229Y-131138860D01*
X170061489Y-131331900D01*
X170061489Y-131669720D01*
X170013229Y-131862760D01*
X169916709Y-131959280D01*
X169820189Y-132007540D01*
X169627149Y-132007540D01*
X169530629Y-131959280D01*
X169434109Y-131862760D01*
X169385849Y-131669720D01*
X169385849Y-131331900D01*
X169434109Y-131138860D01*
X169530629Y-131042340D01*
X169627149Y-130994080D01*
X170495829Y-131621460D02*
X171267989Y-131621460D01*
X172088409Y-131476680D02*
X171750589Y-131476680D01*
X171750589Y-132007540D02*
X171750589Y-130994080D01*
X172233189Y-130994080D01*
X173198389Y-132007540D02*
X172860569Y-131524940D01*
X172619269Y-132007540D02*
X172619269Y-130994080D01*
X173005349Y-130994080D01*
X173101869Y-131042340D01*
X173150129Y-131090600D01*
X173198389Y-131187120D01*
X173198389Y-131331900D01*
X173150129Y-131428420D01*
X173101869Y-131476680D01*
X173005349Y-131524940D01*
X172619269Y-131524940D01*
X173632729Y-131476680D02*
X173970549Y-131476680D01*
X174115329Y-132007540D02*
X173632729Y-132007540D01*
X173632729Y-130994080D01*
X174115329Y-130994080D01*
X175225309Y-132104060D02*
X175128789Y-132055800D01*
X175032269Y-131959280D01*
X174887489Y-131814500D01*
X174790969Y-131766240D01*
X174694449Y-131766240D01*
X174742709Y-132007540D02*
X174646189Y-131959280D01*
X174549669Y-131862760D01*
X174501409Y-131669720D01*
X174501409Y-131331900D01*
X174549669Y-131138860D01*
X174646189Y-131042340D01*
X174742709Y-130994080D01*
X174935749Y-130994080D01*
X175032269Y-131042340D01*
X175128789Y-131138860D01*
X175177049Y-131331900D01*
X175177049Y-131669720D01*
X175128789Y-131862760D01*
X175032269Y-131959280D01*
X174935749Y-132007540D01*
X174742709Y-132007540D01*
X176142249Y-132007540D02*
X175563129Y-132007540D01*
X175852689Y-132007540D02*
X175852689Y-130994080D01*
X175756169Y-131138860D01*
X175659649Y-131235380D01*
X175563129Y-131283640D01*
%TO.C,LFO-WAVE1*%
X192729279Y-131768540D02*
X192246679Y-131768540D01*
X192246679Y-130755080D01*
X193404919Y-131237680D02*
X193067099Y-131237680D01*
X193067099Y-131768540D02*
X193067099Y-130755080D01*
X193549699Y-130755080D01*
X194128819Y-130755080D02*
X194321859Y-130755080D01*
X194418379Y-130803340D01*
X194514899Y-130899860D01*
X194563159Y-131092900D01*
X194563159Y-131430720D01*
X194514899Y-131623760D01*
X194418379Y-131720280D01*
X194321859Y-131768540D01*
X194128819Y-131768540D01*
X194032299Y-131720280D01*
X193935779Y-131623760D01*
X193887519Y-131430720D01*
X193887519Y-131092900D01*
X193935779Y-130899860D01*
X194032299Y-130803340D01*
X194128819Y-130755080D01*
X194997499Y-131382460D02*
X195769659Y-131382460D01*
X196155739Y-130755080D02*
X196397039Y-131768540D01*
X196590079Y-131044640D01*
X196783119Y-131768540D01*
X197024419Y-130755080D01*
X197362239Y-131478980D02*
X197844839Y-131478980D01*
X197265719Y-131768540D02*
X197603539Y-130755080D01*
X197941359Y-131768540D01*
X198134399Y-130755080D02*
X198472219Y-131768540D01*
X198810039Y-130755080D01*
X199147859Y-131237680D02*
X199485679Y-131237680D01*
X199630459Y-131768540D02*
X199147859Y-131768540D01*
X199147859Y-130755080D01*
X199630459Y-130755080D01*
X200595659Y-131768540D02*
X200016539Y-131768540D01*
X200306099Y-131768540D02*
X200306099Y-130755080D01*
X200209579Y-130899860D01*
X200113059Y-130996380D01*
X200016539Y-131044640D01*
D10*
%TO.C,CV-FILTDEC1*%
X239161714Y-96199515D02*
X239207676Y-96245477D01*
X239253638Y-96383362D01*
X239253638Y-96475286D01*
X239207676Y-96613172D01*
X239115752Y-96705096D01*
X239023828Y-96751058D01*
X238839980Y-96797019D01*
X238702095Y-96797019D01*
X238518247Y-96751058D01*
X238426323Y-96705096D01*
X238334400Y-96613172D01*
X238288438Y-96475286D01*
X238288438Y-96383362D01*
X238334400Y-96245477D01*
X238380361Y-96199515D01*
X238288438Y-95923743D02*
X239253638Y-95602010D01*
X238288438Y-95280277D01*
X238885942Y-94958543D02*
X238885942Y-94223153D01*
X238748057Y-93441800D02*
X238748057Y-93763534D01*
X239253638Y-93763534D02*
X238288438Y-93763534D01*
X238288438Y-93303915D01*
X239253638Y-92936219D02*
X238288438Y-92936219D01*
X239253638Y-92016981D02*
X239253638Y-92476600D01*
X238288438Y-92476600D01*
X238288438Y-91833134D02*
X238288438Y-91281591D01*
X239253638Y-91557362D02*
X238288438Y-91557362D01*
X239253638Y-90959858D02*
X238288438Y-90959858D01*
X238288438Y-90730048D01*
X238334400Y-90592162D01*
X238426323Y-90500239D01*
X238518247Y-90454277D01*
X238702095Y-90408315D01*
X238839980Y-90408315D01*
X239023828Y-90454277D01*
X239115752Y-90500239D01*
X239207676Y-90592162D01*
X239253638Y-90730048D01*
X239253638Y-90959858D01*
X238748057Y-89994658D02*
X238748057Y-89672924D01*
X239253638Y-89535039D02*
X239253638Y-89994658D01*
X238288438Y-89994658D01*
X238288438Y-89535039D01*
X239161714Y-88569839D02*
X239207676Y-88615800D01*
X239253638Y-88753686D01*
X239253638Y-88845610D01*
X239207676Y-88983496D01*
X239115752Y-89075419D01*
X239023828Y-89121381D01*
X238839980Y-89167343D01*
X238702095Y-89167343D01*
X238518247Y-89121381D01*
X238426323Y-89075419D01*
X238334400Y-88983496D01*
X238288438Y-88845610D01*
X238288438Y-88753686D01*
X238334400Y-88615800D01*
X238380361Y-88569839D01*
X239253638Y-87650600D02*
X239253638Y-88202143D01*
X239253638Y-87926372D02*
X238288438Y-87926372D01*
X238426323Y-88018296D01*
X238518247Y-88110219D01*
X238564209Y-88202143D01*
D12*
%TO.C,d-1*%
X166682847Y-49865980D02*
X166682847Y-48865980D01*
X166682847Y-49818361D02*
X166587609Y-49865980D01*
X166397133Y-49865980D01*
X166301895Y-49818361D01*
X166254276Y-49770742D01*
X166206657Y-49675504D01*
X166206657Y-49389790D01*
X166254276Y-49294552D01*
X166301895Y-49246933D01*
X166397133Y-49199314D01*
X166587609Y-49199314D01*
X166682847Y-49246933D01*
X167159038Y-49485028D02*
X167920942Y-49485028D01*
X168920942Y-49865980D02*
X168349514Y-49865980D01*
X168635228Y-49865980D02*
X168635228Y-48865980D01*
X168539990Y-49008838D01*
X168444752Y-49104076D01*
X168349514Y-49151695D01*
D10*
%TO.C,mult3*%
X239530298Y-142977476D02*
X239530298Y-142334009D01*
X239530298Y-142425933D02*
X239576260Y-142379971D01*
X239668184Y-142334009D01*
X239806070Y-142334009D01*
X239897993Y-142379971D01*
X239943955Y-142471895D01*
X239943955Y-142977476D01*
X239943955Y-142471895D02*
X239989917Y-142379971D01*
X240081841Y-142334009D01*
X240219727Y-142334009D01*
X240311651Y-142379971D01*
X240357612Y-142471895D01*
X240357612Y-142977476D01*
X241230889Y-142334009D02*
X241230889Y-142977476D01*
X240817232Y-142334009D02*
X240817232Y-142839590D01*
X240863193Y-142931514D01*
X240955117Y-142977476D01*
X241093003Y-142977476D01*
X241184927Y-142931514D01*
X241230889Y-142885552D01*
X241828393Y-142977476D02*
X241736470Y-142931514D01*
X241690508Y-142839590D01*
X241690508Y-142012276D01*
X242058203Y-142334009D02*
X242425898Y-142334009D01*
X242196089Y-142012276D02*
X242196089Y-142839590D01*
X242242051Y-142931514D01*
X242333974Y-142977476D01*
X242425898Y-142977476D01*
X242655708Y-142012276D02*
X243253212Y-142012276D01*
X242931479Y-142379971D01*
X243069365Y-142379971D01*
X243161289Y-142425933D01*
X243207251Y-142471895D01*
X243253212Y-142563818D01*
X243253212Y-142793628D01*
X243207251Y-142885552D01*
X243161289Y-142931514D01*
X243069365Y-142977476D01*
X242793593Y-142977476D01*
X242701670Y-142931514D01*
X242655708Y-142885552D01*
%TO.C,cv-cutoff1*%
X253939676Y-96537062D02*
X253985638Y-96628986D01*
X253985638Y-96812834D01*
X253939676Y-96904758D01*
X253893714Y-96950720D01*
X253801790Y-96996681D01*
X253526019Y-96996681D01*
X253434095Y-96950720D01*
X253388133Y-96904758D01*
X253342171Y-96812834D01*
X253342171Y-96628986D01*
X253388133Y-96537062D01*
X253342171Y-96215329D02*
X253985638Y-95985520D01*
X253342171Y-95755710D01*
X253617942Y-95388015D02*
X253617942Y-94652624D01*
X253939676Y-93779348D02*
X253985638Y-93871272D01*
X253985638Y-94055120D01*
X253939676Y-94147043D01*
X253893714Y-94193005D01*
X253801790Y-94238967D01*
X253526019Y-94238967D01*
X253434095Y-94193005D01*
X253388133Y-94147043D01*
X253342171Y-94055120D01*
X253342171Y-93871272D01*
X253388133Y-93779348D01*
X253342171Y-92952034D02*
X253985638Y-92952034D01*
X253342171Y-93365691D02*
X253847752Y-93365691D01*
X253939676Y-93319729D01*
X253985638Y-93227805D01*
X253985638Y-93089920D01*
X253939676Y-92997996D01*
X253893714Y-92952034D01*
X253342171Y-92630301D02*
X253342171Y-92262605D01*
X253020438Y-92492415D02*
X253847752Y-92492415D01*
X253939676Y-92446453D01*
X253985638Y-92354529D01*
X253985638Y-92262605D01*
X253985638Y-91802986D02*
X253939676Y-91894910D01*
X253893714Y-91940872D01*
X253801790Y-91986834D01*
X253526019Y-91986834D01*
X253434095Y-91940872D01*
X253388133Y-91894910D01*
X253342171Y-91802986D01*
X253342171Y-91665101D01*
X253388133Y-91573177D01*
X253434095Y-91527215D01*
X253526019Y-91481253D01*
X253801790Y-91481253D01*
X253893714Y-91527215D01*
X253939676Y-91573177D01*
X253985638Y-91665101D01*
X253985638Y-91802986D01*
X253342171Y-91205481D02*
X253342171Y-90837786D01*
X253985638Y-91067596D02*
X253158323Y-91067596D01*
X253066400Y-91021634D01*
X253020438Y-90929710D01*
X253020438Y-90837786D01*
X253342171Y-90653939D02*
X253342171Y-90286243D01*
X253985638Y-90516053D02*
X253158323Y-90516053D01*
X253066400Y-90470091D01*
X253020438Y-90378167D01*
X253020438Y-90286243D01*
X253985638Y-89458929D02*
X253985638Y-90010472D01*
X253985638Y-89734701D02*
X253020438Y-89734701D01*
X253158323Y-89826624D01*
X253250247Y-89918548D01*
X253296209Y-90010472D01*
%TO.C,CV-REL1*%
X239161714Y-74524857D02*
X239207676Y-74570819D01*
X239253638Y-74708704D01*
X239253638Y-74800628D01*
X239207676Y-74938514D01*
X239115752Y-75030438D01*
X239023828Y-75076400D01*
X238839980Y-75122361D01*
X238702095Y-75122361D01*
X238518247Y-75076400D01*
X238426323Y-75030438D01*
X238334400Y-74938514D01*
X238288438Y-74800628D01*
X238288438Y-74708704D01*
X238334400Y-74570819D01*
X238380361Y-74524857D01*
X238288438Y-74249085D02*
X239253638Y-73927352D01*
X238288438Y-73605619D01*
X238885942Y-73283885D02*
X238885942Y-72548495D01*
X239253638Y-71537333D02*
X238794019Y-71859066D01*
X239253638Y-72088876D02*
X238288438Y-72088876D01*
X238288438Y-71721181D01*
X238334400Y-71629257D01*
X238380361Y-71583295D01*
X238472285Y-71537333D01*
X238610171Y-71537333D01*
X238702095Y-71583295D01*
X238748057Y-71629257D01*
X238794019Y-71721181D01*
X238794019Y-72088876D01*
X238748057Y-71123676D02*
X238748057Y-70801942D01*
X239253638Y-70664057D02*
X239253638Y-71123676D01*
X238288438Y-71123676D01*
X238288438Y-70664057D01*
X239253638Y-69790781D02*
X239253638Y-70250400D01*
X238288438Y-70250400D01*
X239253638Y-68963466D02*
X239253638Y-69515009D01*
X239253638Y-69239238D02*
X238288438Y-69239238D01*
X238426323Y-69331161D01*
X238518247Y-69423085D01*
X238564209Y-69515009D01*
D12*
%TO.C,D7*%
X95419004Y-74876180D02*
X95419004Y-73876180D01*
X95657100Y-73876180D01*
X95799957Y-73923800D01*
X95895195Y-74019038D01*
X95942814Y-74114276D01*
X95990433Y-74304752D01*
X95990433Y-74447609D01*
X95942814Y-74638085D01*
X95895195Y-74733323D01*
X95799957Y-74828561D01*
X95657100Y-74876180D01*
X95419004Y-74876180D01*
X96323766Y-73876180D02*
X96990433Y-73876180D01*
X96561861Y-74876180D01*
D10*
%TO.C,env2-o1*%
X238160076Y-116461468D02*
X238206038Y-116553392D01*
X238206038Y-116737240D01*
X238160076Y-116829164D01*
X238068152Y-116875125D01*
X237700457Y-116875125D01*
X237608533Y-116829164D01*
X237562571Y-116737240D01*
X237562571Y-116553392D01*
X237608533Y-116461468D01*
X237700457Y-116415506D01*
X237792380Y-116415506D01*
X237884304Y-116875125D01*
X237562571Y-116001849D02*
X238206038Y-116001849D01*
X237654495Y-116001849D02*
X237608533Y-115955887D01*
X237562571Y-115863964D01*
X237562571Y-115726078D01*
X237608533Y-115634154D01*
X237700457Y-115588192D01*
X238206038Y-115588192D01*
X237562571Y-115220497D02*
X238206038Y-114990687D01*
X237562571Y-114760878D01*
X237332761Y-114439145D02*
X237286800Y-114393183D01*
X237240838Y-114301259D01*
X237240838Y-114071449D01*
X237286800Y-113979525D01*
X237332761Y-113933564D01*
X237424685Y-113887602D01*
X237516609Y-113887602D01*
X237654495Y-113933564D01*
X238206038Y-114485106D01*
X238206038Y-113887602D01*
X237838342Y-113473945D02*
X237838342Y-112738554D01*
X238206038Y-112141049D02*
X238160076Y-112232973D01*
X238114114Y-112278935D01*
X238022190Y-112324897D01*
X237746419Y-112324897D01*
X237654495Y-112278935D01*
X237608533Y-112232973D01*
X237562571Y-112141049D01*
X237562571Y-112003164D01*
X237608533Y-111911240D01*
X237654495Y-111865278D01*
X237746419Y-111819316D01*
X238022190Y-111819316D01*
X238114114Y-111865278D01*
X238160076Y-111911240D01*
X238206038Y-112003164D01*
X238206038Y-112141049D01*
X238206038Y-110900078D02*
X238206038Y-111451621D01*
X238206038Y-111175849D02*
X237240838Y-111175849D01*
X237378723Y-111267773D01*
X237470647Y-111359697D01*
X237516609Y-111451621D01*
D11*
%TO.C,RATIO2*%
X118159384Y-108261040D02*
X117821564Y-107778440D01*
X117580264Y-108261040D02*
X117580264Y-107247580D01*
X117966344Y-107247580D01*
X118062864Y-107295840D01*
X118111124Y-107344100D01*
X118159384Y-107440620D01*
X118159384Y-107585400D01*
X118111124Y-107681920D01*
X118062864Y-107730180D01*
X117966344Y-107778440D01*
X117580264Y-107778440D01*
X118545464Y-107971480D02*
X119028064Y-107971480D01*
X118448944Y-108261040D02*
X118786764Y-107247580D01*
X119124584Y-108261040D01*
X119317624Y-107247580D02*
X119896744Y-107247580D01*
X119607184Y-108261040D02*
X119607184Y-107247580D01*
X120234564Y-108261040D02*
X120234564Y-107247580D01*
X120910204Y-107247580D02*
X121103244Y-107247580D01*
X121199764Y-107295840D01*
X121296284Y-107392360D01*
X121344544Y-107585400D01*
X121344544Y-107923220D01*
X121296284Y-108116260D01*
X121199764Y-108212780D01*
X121103244Y-108261040D01*
X120910204Y-108261040D01*
X120813684Y-108212780D01*
X120717164Y-108116260D01*
X120668904Y-107923220D01*
X120668904Y-107585400D01*
X120717164Y-107392360D01*
X120813684Y-107295840D01*
X120910204Y-107247580D01*
X121730624Y-107344100D02*
X121778884Y-107295840D01*
X121875404Y-107247580D01*
X122116704Y-107247580D01*
X122213224Y-107295840D01*
X122261484Y-107344100D01*
X122309744Y-107440620D01*
X122309744Y-107537140D01*
X122261484Y-107681920D01*
X121682364Y-108261040D01*
X122309744Y-108261040D01*
D12*
%TO.C,D5*%
X95419004Y-64157380D02*
X95419004Y-63157380D01*
X95657100Y-63157380D01*
X95799957Y-63205000D01*
X95895195Y-63300238D01*
X95942814Y-63395476D01*
X95990433Y-63585952D01*
X95990433Y-63728809D01*
X95942814Y-63919285D01*
X95895195Y-64014523D01*
X95799957Y-64109761D01*
X95657100Y-64157380D01*
X95419004Y-64157380D01*
X96895195Y-63157380D02*
X96419004Y-63157380D01*
X96371385Y-63633571D01*
X96419004Y-63585952D01*
X96514242Y-63538333D01*
X96752338Y-63538333D01*
X96847576Y-63585952D01*
X96895195Y-63633571D01*
X96942814Y-63728809D01*
X96942814Y-63966904D01*
X96895195Y-64062142D01*
X96847576Y-64109761D01*
X96752338Y-64157380D01*
X96514242Y-64157380D01*
X96419004Y-64109761D01*
X96371385Y-64062142D01*
D11*
%TO.C,RELEASE2*%
X190927768Y-108500040D02*
X190589948Y-108017440D01*
X190348648Y-108500040D02*
X190348648Y-107486580D01*
X190734728Y-107486580D01*
X190831248Y-107534840D01*
X190879508Y-107583100D01*
X190927768Y-107679620D01*
X190927768Y-107824400D01*
X190879508Y-107920920D01*
X190831248Y-107969180D01*
X190734728Y-108017440D01*
X190348648Y-108017440D01*
X191362108Y-107969180D02*
X191699928Y-107969180D01*
X191844708Y-108500040D02*
X191362108Y-108500040D01*
X191362108Y-107486580D01*
X191844708Y-107486580D01*
X192761648Y-108500040D02*
X192279048Y-108500040D01*
X192279048Y-107486580D01*
X193099468Y-107969180D02*
X193437288Y-107969180D01*
X193582068Y-108500040D02*
X193099468Y-108500040D01*
X193099468Y-107486580D01*
X193582068Y-107486580D01*
X193968148Y-108210480D02*
X194450748Y-108210480D01*
X193871628Y-108500040D02*
X194209448Y-107486580D01*
X194547268Y-108500040D01*
X194836828Y-108451780D02*
X194981608Y-108500040D01*
X195222908Y-108500040D01*
X195319428Y-108451780D01*
X195367688Y-108403520D01*
X195415948Y-108307000D01*
X195415948Y-108210480D01*
X195367688Y-108113960D01*
X195319428Y-108065700D01*
X195222908Y-108017440D01*
X195029868Y-107969180D01*
X194933348Y-107920920D01*
X194885088Y-107872660D01*
X194836828Y-107776140D01*
X194836828Y-107679620D01*
X194885088Y-107583100D01*
X194933348Y-107534840D01*
X195029868Y-107486580D01*
X195271168Y-107486580D01*
X195415948Y-107534840D01*
X195850288Y-107969180D02*
X196188108Y-107969180D01*
X196332888Y-108500040D02*
X195850288Y-108500040D01*
X195850288Y-107486580D01*
X196332888Y-107486580D01*
X196718968Y-107583100D02*
X196767228Y-107534840D01*
X196863748Y-107486580D01*
X197105048Y-107486580D01*
X197201568Y-107534840D01*
X197249828Y-107583100D01*
X197298088Y-107679620D01*
X197298088Y-107776140D01*
X197249828Y-107920920D01*
X196670708Y-108500040D01*
X197298088Y-108500040D01*
D10*
%TO.C,mult2*%
X255155298Y-131938916D02*
X255155298Y-131295449D01*
X255155298Y-131387373D02*
X255201260Y-131341411D01*
X255293184Y-131295449D01*
X255431070Y-131295449D01*
X255522993Y-131341411D01*
X255568955Y-131433335D01*
X255568955Y-131938916D01*
X255568955Y-131433335D02*
X255614917Y-131341411D01*
X255706841Y-131295449D01*
X255844727Y-131295449D01*
X255936651Y-131341411D01*
X255982612Y-131433335D01*
X255982612Y-131938916D01*
X256855889Y-131295449D02*
X256855889Y-131938916D01*
X256442232Y-131295449D02*
X256442232Y-131801030D01*
X256488193Y-131892954D01*
X256580117Y-131938916D01*
X256718003Y-131938916D01*
X256809927Y-131892954D01*
X256855889Y-131846992D01*
X257453393Y-131938916D02*
X257361470Y-131892954D01*
X257315508Y-131801030D01*
X257315508Y-130973716D01*
X257683203Y-131295449D02*
X258050898Y-131295449D01*
X257821089Y-130973716D02*
X257821089Y-131801030D01*
X257867051Y-131892954D01*
X257958974Y-131938916D01*
X258050898Y-131938916D01*
X258326670Y-131065639D02*
X258372632Y-131019678D01*
X258464555Y-130973716D01*
X258694365Y-130973716D01*
X258786289Y-131019678D01*
X258832251Y-131065639D01*
X258878212Y-131157563D01*
X258878212Y-131249487D01*
X258832251Y-131387373D01*
X258280708Y-131938916D01*
X258878212Y-131938916D01*
%TO.C,CV-PM2*%
X239161714Y-52650533D02*
X239207676Y-52696495D01*
X239253638Y-52834380D01*
X239253638Y-52926304D01*
X239207676Y-53064190D01*
X239115752Y-53156114D01*
X239023828Y-53202076D01*
X238839980Y-53248037D01*
X238702095Y-53248037D01*
X238518247Y-53202076D01*
X238426323Y-53156114D01*
X238334400Y-53064190D01*
X238288438Y-52926304D01*
X238288438Y-52834380D01*
X238334400Y-52696495D01*
X238380361Y-52650533D01*
X238288438Y-52374761D02*
X239253638Y-52053028D01*
X238288438Y-51731295D01*
X238885942Y-51409561D02*
X238885942Y-50674171D01*
X239253638Y-50214552D02*
X238288438Y-50214552D01*
X238288438Y-49846857D01*
X238334400Y-49754933D01*
X238380361Y-49708971D01*
X238472285Y-49663009D01*
X238610171Y-49663009D01*
X238702095Y-49708971D01*
X238748057Y-49754933D01*
X238794019Y-49846857D01*
X238794019Y-50214552D01*
X239253638Y-49249352D02*
X238288438Y-49249352D01*
X238977866Y-48927618D01*
X238288438Y-48605885D01*
X239253638Y-48605885D01*
X238380361Y-48192228D02*
X238334400Y-48146266D01*
X238288438Y-48054342D01*
X238288438Y-47824533D01*
X238334400Y-47732609D01*
X238380361Y-47686647D01*
X238472285Y-47640685D01*
X238564209Y-47640685D01*
X238702095Y-47686647D01*
X239253638Y-48238190D01*
X239253638Y-47640685D01*
D11*
%TO.C,CUTOFF1*%
X140511920Y-108403520D02*
X140463660Y-108451780D01*
X140318880Y-108500040D01*
X140222360Y-108500040D01*
X140077580Y-108451780D01*
X139981060Y-108355260D01*
X139932800Y-108258740D01*
X139884540Y-108065700D01*
X139884540Y-107920920D01*
X139932800Y-107727880D01*
X139981060Y-107631360D01*
X140077580Y-107534840D01*
X140222360Y-107486580D01*
X140318880Y-107486580D01*
X140463660Y-107534840D01*
X140511920Y-107583100D01*
X140946260Y-107486580D02*
X140946260Y-108307000D01*
X140994520Y-108403520D01*
X141042780Y-108451780D01*
X141139300Y-108500040D01*
X141332340Y-108500040D01*
X141428860Y-108451780D01*
X141477120Y-108403520D01*
X141525380Y-108307000D01*
X141525380Y-107486580D01*
X141863200Y-107486580D02*
X142442320Y-107486580D01*
X142152760Y-108500040D02*
X142152760Y-107486580D01*
X142973180Y-107486580D02*
X143166220Y-107486580D01*
X143262740Y-107534840D01*
X143359260Y-107631360D01*
X143407520Y-107824400D01*
X143407520Y-108162220D01*
X143359260Y-108355260D01*
X143262740Y-108451780D01*
X143166220Y-108500040D01*
X142973180Y-108500040D01*
X142876660Y-108451780D01*
X142780140Y-108355260D01*
X142731880Y-108162220D01*
X142731880Y-107824400D01*
X142780140Y-107631360D01*
X142876660Y-107534840D01*
X142973180Y-107486580D01*
X144179680Y-107969180D02*
X143841860Y-107969180D01*
X143841860Y-108500040D02*
X143841860Y-107486580D01*
X144324460Y-107486580D01*
X145048360Y-107969180D02*
X144710540Y-107969180D01*
X144710540Y-108500040D02*
X144710540Y-107486580D01*
X145193140Y-107486580D01*
X146110080Y-108500040D02*
X145530960Y-108500040D01*
X145820520Y-108500040D02*
X145820520Y-107486580D01*
X145724000Y-107631360D01*
X145627480Y-107727880D01*
X145530960Y-107776140D01*
%TO.C,RATIO3*%
X116951289Y-131451040D02*
X116613469Y-130968440D01*
X116372169Y-131451040D02*
X116372169Y-130437580D01*
X116758249Y-130437580D01*
X116854769Y-130485840D01*
X116903029Y-130534100D01*
X116951289Y-130630620D01*
X116951289Y-130775400D01*
X116903029Y-130871920D01*
X116854769Y-130920180D01*
X116758249Y-130968440D01*
X116372169Y-130968440D01*
X117337369Y-131161480D02*
X117819969Y-131161480D01*
X117240849Y-131451040D02*
X117578669Y-130437580D01*
X117916489Y-131451040D01*
X118109529Y-130437580D02*
X118688649Y-130437580D01*
X118399089Y-131451040D02*
X118399089Y-130437580D01*
X119026469Y-131451040D02*
X119026469Y-130437580D01*
X119702109Y-130437580D02*
X119895149Y-130437580D01*
X119991669Y-130485840D01*
X120088189Y-130582360D01*
X120136449Y-130775400D01*
X120136449Y-131113220D01*
X120088189Y-131306260D01*
X119991669Y-131402780D01*
X119895149Y-131451040D01*
X119702109Y-131451040D01*
X119605589Y-131402780D01*
X119509069Y-131306260D01*
X119460809Y-131113220D01*
X119460809Y-130775400D01*
X119509069Y-130582360D01*
X119605589Y-130485840D01*
X119702109Y-130437580D01*
X120474269Y-130437580D02*
X121101649Y-130437580D01*
X120763829Y-130823660D01*
X120908609Y-130823660D01*
X121005129Y-130871920D01*
X121053389Y-130920180D01*
X121101649Y-131016700D01*
X121101649Y-131258000D01*
X121053389Y-131354520D01*
X121005129Y-131402780D01*
X120908609Y-131451040D01*
X120619049Y-131451040D01*
X120522529Y-131402780D01*
X120474269Y-131354520D01*
D10*
%TO.C,CV-REL2*%
X253893714Y-74524857D02*
X253939676Y-74570819D01*
X253985638Y-74708704D01*
X253985638Y-74800628D01*
X253939676Y-74938514D01*
X253847752Y-75030438D01*
X253755828Y-75076400D01*
X253571980Y-75122361D01*
X253434095Y-75122361D01*
X253250247Y-75076400D01*
X253158323Y-75030438D01*
X253066400Y-74938514D01*
X253020438Y-74800628D01*
X253020438Y-74708704D01*
X253066400Y-74570819D01*
X253112361Y-74524857D01*
X253020438Y-74249085D02*
X253985638Y-73927352D01*
X253020438Y-73605619D01*
X253617942Y-73283885D02*
X253617942Y-72548495D01*
X253985638Y-71537333D02*
X253526019Y-71859066D01*
X253985638Y-72088876D02*
X253020438Y-72088876D01*
X253020438Y-71721181D01*
X253066400Y-71629257D01*
X253112361Y-71583295D01*
X253204285Y-71537333D01*
X253342171Y-71537333D01*
X253434095Y-71583295D01*
X253480057Y-71629257D01*
X253526019Y-71721181D01*
X253526019Y-72088876D01*
X253480057Y-71123676D02*
X253480057Y-70801942D01*
X253985638Y-70664057D02*
X253985638Y-71123676D01*
X253020438Y-71123676D01*
X253020438Y-70664057D01*
X253985638Y-69790781D02*
X253985638Y-70250400D01*
X253020438Y-70250400D01*
X253112361Y-69515009D02*
X253066400Y-69469047D01*
X253020438Y-69377123D01*
X253020438Y-69147314D01*
X253066400Y-69055390D01*
X253112361Y-69009428D01*
X253204285Y-68963466D01*
X253296209Y-68963466D01*
X253434095Y-69009428D01*
X253985638Y-69560971D01*
X253985638Y-68963466D01*
D12*
%TO.C,sw-sel2*%
X128843994Y-57679761D02*
X128939232Y-57727380D01*
X129129708Y-57727380D01*
X129224946Y-57679761D01*
X129272566Y-57584523D01*
X129272566Y-57536904D01*
X129224946Y-57441666D01*
X129129708Y-57394047D01*
X128986851Y-57394047D01*
X128891613Y-57346428D01*
X128843994Y-57251190D01*
X128843994Y-57203571D01*
X128891613Y-57108333D01*
X128986851Y-57060714D01*
X129129708Y-57060714D01*
X129224946Y-57108333D01*
X129605899Y-57060714D02*
X129796375Y-57727380D01*
X129986851Y-57251190D01*
X130177327Y-57727380D01*
X130367804Y-57060714D01*
X130748756Y-57346428D02*
X131510661Y-57346428D01*
X131939232Y-57679761D02*
X132034470Y-57727380D01*
X132224946Y-57727380D01*
X132320185Y-57679761D01*
X132367804Y-57584523D01*
X132367804Y-57536904D01*
X132320185Y-57441666D01*
X132224946Y-57394047D01*
X132082089Y-57394047D01*
X131986851Y-57346428D01*
X131939232Y-57251190D01*
X131939232Y-57203571D01*
X131986851Y-57108333D01*
X132082089Y-57060714D01*
X132224946Y-57060714D01*
X132320185Y-57108333D01*
X133177327Y-57679761D02*
X133082089Y-57727380D01*
X132891613Y-57727380D01*
X132796375Y-57679761D01*
X132748756Y-57584523D01*
X132748756Y-57203571D01*
X132796375Y-57108333D01*
X132891613Y-57060714D01*
X133082089Y-57060714D01*
X133177327Y-57108333D01*
X133224946Y-57203571D01*
X133224946Y-57298809D01*
X132748756Y-57394047D01*
X133796375Y-57727380D02*
X133701137Y-57679761D01*
X133653518Y-57584523D01*
X133653518Y-56727380D01*
X134129708Y-56822619D02*
X134177327Y-56775000D01*
X134272566Y-56727380D01*
X134510661Y-56727380D01*
X134605899Y-56775000D01*
X134653518Y-56822619D01*
X134701137Y-56917857D01*
X134701137Y-57013095D01*
X134653518Y-57155952D01*
X134082089Y-57727380D01*
X134701137Y-57727380D01*
D10*
%TO.C,CV-RAT2*%
X239161714Y-63587697D02*
X239207676Y-63633659D01*
X239253638Y-63771544D01*
X239253638Y-63863468D01*
X239207676Y-64001354D01*
X239115752Y-64093278D01*
X239023828Y-64139240D01*
X238839980Y-64185201D01*
X238702095Y-64185201D01*
X238518247Y-64139240D01*
X238426323Y-64093278D01*
X238334400Y-64001354D01*
X238288438Y-63863468D01*
X238288438Y-63771544D01*
X238334400Y-63633659D01*
X238380361Y-63587697D01*
X238288438Y-63311925D02*
X239253638Y-62990192D01*
X238288438Y-62668459D01*
X238885942Y-62346725D02*
X238885942Y-61611335D01*
X239253638Y-60600173D02*
X238794019Y-60921906D01*
X239253638Y-61151716D02*
X238288438Y-61151716D01*
X238288438Y-60784021D01*
X238334400Y-60692097D01*
X238380361Y-60646135D01*
X238472285Y-60600173D01*
X238610171Y-60600173D01*
X238702095Y-60646135D01*
X238748057Y-60692097D01*
X238794019Y-60784021D01*
X238794019Y-61151716D01*
X238977866Y-60232478D02*
X238977866Y-59772859D01*
X239253638Y-60324401D02*
X238288438Y-60002668D01*
X239253638Y-59680935D01*
X238288438Y-59497087D02*
X238288438Y-58945544D01*
X239253638Y-59221316D02*
X238288438Y-59221316D01*
X238380361Y-58669773D02*
X238334400Y-58623811D01*
X238288438Y-58531887D01*
X238288438Y-58302078D01*
X238334400Y-58210154D01*
X238380361Y-58164192D01*
X238472285Y-58118230D01*
X238564209Y-58118230D01*
X238702095Y-58164192D01*
X239253638Y-58715735D01*
X239253638Y-58118230D01*
D11*
%TO.C,ENV2-AMP1*%
X213859720Y-108223180D02*
X214197540Y-108223180D01*
X214342320Y-108754040D02*
X213859720Y-108754040D01*
X213859720Y-107740580D01*
X214342320Y-107740580D01*
X214776660Y-108754040D02*
X214776660Y-107740580D01*
X215355780Y-108754040D01*
X215355780Y-107740580D01*
X215693600Y-107740580D02*
X216031420Y-108754040D01*
X216369240Y-107740580D01*
X216658800Y-107837100D02*
X216707060Y-107788840D01*
X216803580Y-107740580D01*
X217044880Y-107740580D01*
X217141400Y-107788840D01*
X217189660Y-107837100D01*
X217237920Y-107933620D01*
X217237920Y-108030140D01*
X217189660Y-108174920D01*
X216610540Y-108754040D01*
X217237920Y-108754040D01*
X217672260Y-108367960D02*
X218444420Y-108367960D01*
X218878760Y-108464480D02*
X219361360Y-108464480D01*
X218782240Y-108754040D02*
X219120060Y-107740580D01*
X219457880Y-108754040D01*
X219795700Y-108754040D02*
X219795700Y-107740580D01*
X220133520Y-108464480D01*
X220471340Y-107740580D01*
X220471340Y-108754040D01*
X220953940Y-108754040D02*
X220953940Y-107740580D01*
X221340020Y-107740580D01*
X221436540Y-107788840D01*
X221484800Y-107837100D01*
X221533060Y-107933620D01*
X221533060Y-108078400D01*
X221484800Y-108174920D01*
X221436540Y-108223180D01*
X221340020Y-108271440D01*
X220953940Y-108271440D01*
X222498260Y-108754040D02*
X221919140Y-108754040D01*
X222208700Y-108754040D02*
X222208700Y-107740580D01*
X222112180Y-107885360D01*
X222015660Y-107981880D01*
X221919140Y-108030140D01*
%TO.C,PM2*%
X94115848Y-108127340D02*
X94115848Y-107113880D01*
X94501928Y-107113880D01*
X94598448Y-107162140D01*
X94646708Y-107210400D01*
X94694968Y-107306920D01*
X94694968Y-107451700D01*
X94646708Y-107548220D01*
X94598448Y-107596480D01*
X94501928Y-107644740D01*
X94115848Y-107644740D01*
X95129308Y-108127340D02*
X95129308Y-107113880D01*
X95467128Y-107837780D01*
X95804948Y-107113880D01*
X95804948Y-108127340D01*
X96239288Y-107210400D02*
X96287548Y-107162140D01*
X96384068Y-107113880D01*
X96625368Y-107113880D01*
X96721888Y-107162140D01*
X96770148Y-107210400D01*
X96818408Y-107306920D01*
X96818408Y-107403440D01*
X96770148Y-107548220D01*
X96191028Y-108127340D01*
X96818408Y-108127340D01*
D10*
%TO.C,CV-RAT3*%
X253893714Y-63587697D02*
X253939676Y-63633659D01*
X253985638Y-63771544D01*
X253985638Y-63863468D01*
X253939676Y-64001354D01*
X253847752Y-64093278D01*
X253755828Y-64139240D01*
X253571980Y-64185201D01*
X253434095Y-64185201D01*
X253250247Y-64139240D01*
X253158323Y-64093278D01*
X253066400Y-64001354D01*
X253020438Y-63863468D01*
X253020438Y-63771544D01*
X253066400Y-63633659D01*
X253112361Y-63587697D01*
X253020438Y-63311925D02*
X253985638Y-62990192D01*
X253020438Y-62668459D01*
X253617942Y-62346725D02*
X253617942Y-61611335D01*
X253985638Y-60600173D02*
X253526019Y-60921906D01*
X253985638Y-61151716D02*
X253020438Y-61151716D01*
X253020438Y-60784021D01*
X253066400Y-60692097D01*
X253112361Y-60646135D01*
X253204285Y-60600173D01*
X253342171Y-60600173D01*
X253434095Y-60646135D01*
X253480057Y-60692097D01*
X253526019Y-60784021D01*
X253526019Y-61151716D01*
X253709866Y-60232478D02*
X253709866Y-59772859D01*
X253985638Y-60324401D02*
X253020438Y-60002668D01*
X253985638Y-59680935D01*
X253020438Y-59497087D02*
X253020438Y-58945544D01*
X253985638Y-59221316D02*
X253020438Y-59221316D01*
X253020438Y-58715735D02*
X253020438Y-58118230D01*
X253388133Y-58439963D01*
X253388133Y-58302078D01*
X253434095Y-58210154D01*
X253480057Y-58164192D01*
X253571980Y-58118230D01*
X253801790Y-58118230D01*
X253893714Y-58164192D01*
X253939676Y-58210154D01*
X253985638Y-58302078D01*
X253985638Y-58577849D01*
X253939676Y-58669773D01*
X253893714Y-58715735D01*
D12*
%TO.C,D8*%
X95420670Y-80377380D02*
X95420670Y-79377380D01*
X95658766Y-79377380D01*
X95801623Y-79425000D01*
X95896861Y-79520238D01*
X95944480Y-79615476D01*
X95992099Y-79805952D01*
X95992099Y-79948809D01*
X95944480Y-80139285D01*
X95896861Y-80234523D01*
X95801623Y-80329761D01*
X95658766Y-80377380D01*
X95420670Y-80377380D01*
X96563527Y-79805952D02*
X96468289Y-79758333D01*
X96420670Y-79710714D01*
X96373051Y-79615476D01*
X96373051Y-79567857D01*
X96420670Y-79472619D01*
X96468289Y-79425000D01*
X96563527Y-79377380D01*
X96754004Y-79377380D01*
X96849242Y-79425000D01*
X96896861Y-79472619D01*
X96944480Y-79567857D01*
X96944480Y-79615476D01*
X96896861Y-79710714D01*
X96849242Y-79758333D01*
X96754004Y-79805952D01*
X96563527Y-79805952D01*
X96468289Y-79853571D01*
X96420670Y-79901190D01*
X96373051Y-79996428D01*
X96373051Y-80186904D01*
X96420670Y-80282142D01*
X96468289Y-80329761D01*
X96563527Y-80377380D01*
X96754004Y-80377380D01*
X96849242Y-80329761D01*
X96896861Y-80282142D01*
X96944480Y-80186904D01*
X96944480Y-79996428D01*
X96896861Y-79901190D01*
X96849242Y-79853571D01*
X96754004Y-79805952D01*
%TO.C,SW3*%
X113954166Y-60979761D02*
X114097023Y-61027380D01*
X114335119Y-61027380D01*
X114430357Y-60979761D01*
X114477976Y-60932142D01*
X114525595Y-60836904D01*
X114525595Y-60741666D01*
X114477976Y-60646428D01*
X114430357Y-60598809D01*
X114335119Y-60551190D01*
X114144642Y-60503571D01*
X114049404Y-60455952D01*
X114001785Y-60408333D01*
X113954166Y-60313095D01*
X113954166Y-60217857D01*
X114001785Y-60122619D01*
X114049404Y-60075000D01*
X114144642Y-60027380D01*
X114382738Y-60027380D01*
X114525595Y-60075000D01*
X114858928Y-60027380D02*
X115097023Y-61027380D01*
X115287500Y-60313095D01*
X115477976Y-61027380D01*
X115716071Y-60027380D01*
X116001785Y-60027380D02*
X116620833Y-60027380D01*
X116287500Y-60408333D01*
X116430357Y-60408333D01*
X116525595Y-60455952D01*
X116573214Y-60503571D01*
X116620833Y-60598809D01*
X116620833Y-60836904D01*
X116573214Y-60932142D01*
X116525595Y-60979761D01*
X116430357Y-61027380D01*
X116144642Y-61027380D01*
X116049404Y-60979761D01*
X116001785Y-60932142D01*
D11*
%TO.C,ATTACK1*%
X165979739Y-62913680D02*
X166462339Y-62913680D01*
X165883219Y-63203240D02*
X166221039Y-62189780D01*
X166558859Y-63203240D01*
X166751899Y-62189780D02*
X167331019Y-62189780D01*
X167041459Y-63203240D02*
X167041459Y-62189780D01*
X167524059Y-62189780D02*
X168103179Y-62189780D01*
X167813619Y-63203240D02*
X167813619Y-62189780D01*
X168392739Y-62913680D02*
X168875339Y-62913680D01*
X168296219Y-63203240D02*
X168634039Y-62189780D01*
X168971859Y-63203240D01*
X169888799Y-63106720D02*
X169840539Y-63154980D01*
X169695759Y-63203240D01*
X169599239Y-63203240D01*
X169454459Y-63154980D01*
X169357939Y-63058460D01*
X169309679Y-62961940D01*
X169261419Y-62768900D01*
X169261419Y-62624120D01*
X169309679Y-62431080D01*
X169357939Y-62334560D01*
X169454459Y-62238040D01*
X169599239Y-62189780D01*
X169695759Y-62189780D01*
X169840539Y-62238040D01*
X169888799Y-62286300D01*
X170323139Y-63203240D02*
X170323139Y-62189780D01*
X170902259Y-63203240D02*
X170467919Y-62624120D01*
X170902259Y-62189780D02*
X170323139Y-62768900D01*
X171867459Y-63203240D02*
X171288339Y-63203240D01*
X171577899Y-63203240D02*
X171577899Y-62189780D01*
X171481379Y-62334560D01*
X171384859Y-62431080D01*
X171288339Y-62479340D01*
D12*
%TO.C,D6*%
X95419004Y-69491380D02*
X95419004Y-68491380D01*
X95657100Y-68491380D01*
X95799957Y-68539000D01*
X95895195Y-68634238D01*
X95942814Y-68729476D01*
X95990433Y-68919952D01*
X95990433Y-69062809D01*
X95942814Y-69253285D01*
X95895195Y-69348523D01*
X95799957Y-69443761D01*
X95657100Y-69491380D01*
X95419004Y-69491380D01*
X96847576Y-68491380D02*
X96657100Y-68491380D01*
X96561861Y-68539000D01*
X96514242Y-68586619D01*
X96419004Y-68729476D01*
X96371385Y-68919952D01*
X96371385Y-69300904D01*
X96419004Y-69396142D01*
X96466623Y-69443761D01*
X96561861Y-69491380D01*
X96752338Y-69491380D01*
X96847576Y-69443761D01*
X96895195Y-69396142D01*
X96942814Y-69300904D01*
X96942814Y-69062809D01*
X96895195Y-68967571D01*
X96847576Y-68919952D01*
X96752338Y-68872333D01*
X96561861Y-68872333D01*
X96466623Y-68919952D01*
X96419004Y-68967571D01*
X96371385Y-69062809D01*
D13*
%TO.C,CV-PM3*%
X267037251Y-44714876D02*
X267537251Y-44714876D01*
X267537251Y-53714876D02*
X267037251Y-53714876D01*
X257037251Y-44714876D02*
X257037251Y-45214876D01*
X257037251Y-53714876D02*
X257037251Y-53214876D01*
X267537251Y-53214876D02*
X267537251Y-53714876D01*
X257537251Y-53714876D02*
X257037251Y-53714876D01*
X257537251Y-44714876D02*
X257037251Y-44714876D01*
X267537251Y-44714876D02*
X267537251Y-45214876D01*
X264227972Y-49214876D02*
G75*
G03*
X264227972Y-49214876I-2690721J0D01*
G01*
%TO.C,CV-CTL2*%
X267550000Y-77526360D02*
X267550000Y-78026360D01*
X257050000Y-86526360D02*
X257050000Y-86026360D01*
X257550000Y-86526360D02*
X257050000Y-86526360D01*
X267550000Y-86526360D02*
X267050000Y-86526360D01*
X257550000Y-77526360D02*
X257050000Y-77526360D01*
X257050000Y-77526360D02*
X257050000Y-78026360D01*
X267550000Y-86026360D02*
X267550000Y-86526360D01*
X267050000Y-77526360D02*
X267550000Y-77526360D01*
X264240721Y-82026360D02*
G75*
G03*
X264240721Y-82026360I-2690721J0D01*
G01*
%TO.C,mult1*%
X242318000Y-131812840D02*
X242318000Y-132312840D01*
X252318000Y-131812840D02*
X252818000Y-131812840D01*
X242318000Y-140812840D02*
X242318000Y-140312840D01*
X252818000Y-140312840D02*
X252818000Y-140812840D01*
X242818000Y-131812840D02*
X242318000Y-131812840D01*
X242818000Y-140812840D02*
X242318000Y-140812840D01*
X252818000Y-140812840D02*
X252318000Y-140812840D01*
X252818000Y-131812840D02*
X252818000Y-132312840D01*
X249508721Y-136312840D02*
G75*
G03*
X249508721Y-136312840I-2690721J0D01*
G01*
D14*
%TO.C,FILT-DEC1*%
X148894340Y-143988300D02*
X148894340Y-143438300D01*
X148894340Y-143988300D02*
X140694340Y-143988300D01*
X140694340Y-143438300D02*
X140694340Y-143988300D01*
X140144340Y-143438300D02*
X140694340Y-143438300D01*
X140144340Y-143438300D02*
X140144340Y-140238300D01*
X140144340Y-135438300D02*
X140144340Y-133238300D01*
X148894340Y-143438300D02*
X149444340Y-143438300D01*
X149444340Y-140238300D02*
X149444340Y-143438300D01*
X148894340Y-133238300D02*
X148894340Y-132688300D01*
X149444340Y-133238300D02*
X149444340Y-135438300D01*
X140694340Y-133238300D02*
X140144340Y-133238300D01*
X140694340Y-132688300D02*
X140694340Y-133238300D01*
X140694340Y-132688300D02*
X148894340Y-132688300D01*
X149444340Y-133238300D02*
X148894340Y-133238300D01*
D15*
X145810340Y-138088300D02*
G75*
G03*
X145810340Y-138088300I-1016000J0D01*
G01*
X146191340Y-138088300D02*
G75*
G03*
X146191340Y-138088300I-1397000J0D01*
G01*
D14*
%TO.C,PM3*%
X99500000Y-143438300D02*
X100050000Y-143438300D01*
X100050000Y-133238300D02*
X100050000Y-135438300D01*
X99500000Y-143988300D02*
X99500000Y-143438300D01*
X90750000Y-143438300D02*
X90750000Y-140238300D01*
X91300000Y-133238300D02*
X90750000Y-133238300D01*
X100050000Y-133238300D02*
X99500000Y-133238300D01*
X99500000Y-133238300D02*
X99500000Y-132688300D01*
X90750000Y-143438300D02*
X91300000Y-143438300D01*
X91300000Y-132688300D02*
X99500000Y-132688300D01*
X91300000Y-143438300D02*
X91300000Y-143988300D01*
X99500000Y-143988300D02*
X91300000Y-143988300D01*
X100050000Y-140238300D02*
X100050000Y-143438300D01*
X90750000Y-135438300D02*
X90750000Y-133238300D01*
X91300000Y-132688300D02*
X91300000Y-133238300D01*
D15*
X96416000Y-138088300D02*
G75*
G03*
X96416000Y-138088300I-1016000J0D01*
G01*
X96797000Y-138088300D02*
G75*
G03*
X96797000Y-138088300I-1397000J0D01*
G01*
D13*
%TO.C,mult4*%
X267550000Y-151250000D02*
X267550000Y-151750000D01*
X257550000Y-142750000D02*
X257050000Y-142750000D01*
X267550000Y-151750000D02*
X267050000Y-151750000D01*
X257550000Y-151750000D02*
X257050000Y-151750000D01*
X257050000Y-151750000D02*
X257050000Y-151250000D01*
X267550000Y-142750000D02*
X267550000Y-143250000D01*
X257050000Y-142750000D02*
X257050000Y-143250000D01*
X267050000Y-142750000D02*
X267550000Y-142750000D01*
X264240721Y-147250000D02*
G75*
G03*
X264240721Y-147250000I-2690721J0D01*
G01*
%TO.C,pitch1*%
X252818000Y-108001356D02*
X252318000Y-108001356D01*
X242318000Y-108001356D02*
X242318000Y-107501356D01*
X242818000Y-99001356D02*
X242318000Y-99001356D01*
X242318000Y-99001356D02*
X242318000Y-99501356D01*
X252818000Y-107501356D02*
X252818000Y-108001356D01*
X252818000Y-99001356D02*
X252818000Y-99501356D01*
X252318000Y-99001356D02*
X252818000Y-99001356D01*
X242818000Y-108001356D02*
X242318000Y-108001356D01*
X249508721Y-103501356D02*
G75*
G03*
X249508721Y-103501356I-2690721J0D01*
G01*
D16*
%TO.C,D11*%
X141223833Y-73930000D02*
X141223833Y-74086000D01*
X141223833Y-71614000D02*
X141223833Y-71770000D01*
X144456168Y-71771392D02*
G75*
G03*
X141223833Y-71614484I-1672335J-1078608D01*
G01*
X141223833Y-74085516D02*
G75*
G03*
X144456168Y-73928608I1560000J1235516D01*
G01*
X141742872Y-73930000D02*
G75*
G03*
X143824963Y-73929837I1040961J1080000D01*
G01*
X143824963Y-71770163D02*
G75*
G03*
X141742872Y-71770000I-1041130J-1079837D01*
G01*
%TO.C,D9*%
X141223833Y-63030000D02*
X141223833Y-63186000D01*
X141223833Y-60714000D02*
X141223833Y-60870000D01*
X141223833Y-63185516D02*
G75*
G03*
X144456168Y-63028608I1560000J1235516D01*
G01*
X144456168Y-60871392D02*
G75*
G03*
X141223833Y-60714484I-1672335J-1078608D01*
G01*
X141742872Y-63030000D02*
G75*
G03*
X143824963Y-63029837I1040961J1080000D01*
G01*
X143824963Y-60870163D02*
G75*
G03*
X141742872Y-60870000I-1041130J-1079837D01*
G01*
%TO.C,D10*%
X141223833Y-66164000D02*
X141223833Y-66320000D01*
X141223833Y-68480000D02*
X141223833Y-68636000D01*
X141742872Y-68480000D02*
G75*
G03*
X143824963Y-68479837I1040961J1080000D01*
G01*
X144456168Y-66321392D02*
G75*
G03*
X141223833Y-66164484I-1672335J-1078608D01*
G01*
X143824963Y-66320163D02*
G75*
G03*
X141742872Y-66320000I-1041130J-1079837D01*
G01*
X141223833Y-68635516D02*
G75*
G03*
X144456168Y-68478608I1560000J1235516D01*
G01*
D14*
%TO.C,LFO-AMP1*%
X222985852Y-143438300D02*
X223535852Y-143438300D01*
X214785852Y-143438300D02*
X214785852Y-143988300D01*
X214235852Y-143438300D02*
X214235852Y-140238300D01*
X222985852Y-143988300D02*
X214785852Y-143988300D01*
X214235852Y-135438300D02*
X214235852Y-133238300D01*
X214785852Y-132688300D02*
X222985852Y-132688300D01*
X214785852Y-132688300D02*
X214785852Y-133238300D01*
X222985852Y-143988300D02*
X222985852Y-143438300D01*
X223535852Y-133238300D02*
X223535852Y-135438300D01*
X223535852Y-133238300D02*
X222985852Y-133238300D01*
X222985852Y-133238300D02*
X222985852Y-132688300D01*
X214235852Y-143438300D02*
X214785852Y-143438300D01*
X214785852Y-133238300D02*
X214235852Y-133238300D01*
X223535852Y-140238300D02*
X223535852Y-143438300D01*
D15*
X219901852Y-138088300D02*
G75*
G03*
X219901852Y-138088300I-1016000J0D01*
G01*
X220282852Y-138088300D02*
G75*
G03*
X220282852Y-138088300I-1397000J0D01*
G01*
D16*
%TO.C,sw-sel1*%
X112700033Y-49855000D02*
X106760033Y-49855000D01*
X112700033Y-56095000D02*
X106760033Y-56095000D01*
X112850033Y-51635000D02*
X112850033Y-54315000D01*
X106610033Y-54315000D02*
X106610033Y-51635000D01*
X111144247Y-52975000D02*
G75*
G03*
X111144247Y-52975000I-1414214J0D01*
G01*
D13*
%TO.C,CV-CTL1*%
X242818000Y-77526360D02*
X242318000Y-77526360D01*
X252818000Y-86026360D02*
X252818000Y-86526360D01*
X252318000Y-77526360D02*
X252818000Y-77526360D01*
X242318000Y-77526360D02*
X242318000Y-78026360D01*
X252818000Y-77526360D02*
X252818000Y-78026360D01*
X242318000Y-86526360D02*
X242318000Y-86026360D01*
X252818000Y-86526360D02*
X252318000Y-86526360D01*
X242818000Y-86526360D02*
X242318000Y-86526360D01*
X249508721Y-82026360D02*
G75*
G03*
X249508721Y-82026360I-2690721J0D01*
G01*
D16*
%TO.C,vol1*%
X223595000Y-76239000D02*
X222105000Y-76239000D01*
X223595000Y-76239000D02*
X223595000Y-71519000D01*
X217935000Y-76239000D02*
X217405000Y-76239000D01*
X213855000Y-67709000D02*
X213855000Y-64649000D01*
X215035000Y-76239000D02*
X213855000Y-76239000D01*
X223595000Y-64649000D02*
X213855000Y-64649000D01*
X223595000Y-67709000D02*
X223595000Y-64649000D01*
X213855000Y-76239000D02*
X213855000Y-71519000D01*
X220385000Y-76239000D02*
X219555000Y-76239000D01*
D14*
%TO.C,RELEASE1*%
X198597172Y-71800000D02*
X198597172Y-75000000D01*
X198597172Y-64800000D02*
X198047172Y-64800000D01*
X198047172Y-75550000D02*
X198047172Y-75000000D01*
X189297172Y-75000000D02*
X189297172Y-71800000D01*
X198047172Y-64800000D02*
X198047172Y-64250000D01*
X198047172Y-75550000D02*
X189847172Y-75550000D01*
X198047172Y-75000000D02*
X198597172Y-75000000D01*
X189847172Y-64250000D02*
X189847172Y-64800000D01*
X189847172Y-75000000D02*
X189847172Y-75550000D01*
X198597172Y-64800000D02*
X198597172Y-67000000D01*
X189297172Y-75000000D02*
X189847172Y-75000000D01*
X189847172Y-64250000D02*
X198047172Y-64250000D01*
X189847172Y-64800000D02*
X189297172Y-64800000D01*
X189297172Y-67000000D02*
X189297172Y-64800000D01*
D15*
X195344172Y-69650000D02*
G75*
G03*
X195344172Y-69650000I-1397000J0D01*
G01*
X194963172Y-69650000D02*
G75*
G03*
X194963172Y-69650000I-1016000J0D01*
G01*
D16*
%TO.C,SW4*%
X127672566Y-77675000D02*
X127672566Y-77075000D01*
X130472566Y-63775000D02*
X133072566Y-63775000D01*
X125872566Y-63775000D02*
X128272566Y-63775000D01*
X137672566Y-71875000D02*
X137672566Y-75975000D01*
X125872566Y-71875000D02*
X125872566Y-75975000D01*
X127972566Y-77375000D02*
X127672566Y-77675000D01*
X125872566Y-67875000D02*
X125872566Y-63775000D01*
X137672566Y-63775000D02*
X137672566Y-67875000D01*
X131272566Y-69875000D02*
X132272566Y-69875000D01*
X125872566Y-75975000D02*
X137672566Y-75975000D01*
X135272566Y-63775000D02*
X137672566Y-63775000D01*
X127672566Y-77075000D02*
X127972566Y-77375000D01*
X131772566Y-70375000D02*
X131772566Y-69375000D01*
X134772566Y-69875000D02*
G75*
G03*
X134772566Y-69875000I-3000000J0D01*
G01*
%TO.C,D12*%
X141223833Y-77064000D02*
X141223833Y-77220000D01*
X141223833Y-79380000D02*
X141223833Y-79536000D01*
X143824963Y-77220163D02*
G75*
G03*
X141742872Y-77220000I-1041130J-1079837D01*
G01*
X144456168Y-77221392D02*
G75*
G03*
X141223833Y-77064484I-1672335J-1078608D01*
G01*
X141223833Y-79535516D02*
G75*
G03*
X144456168Y-79378608I1560000J1235516D01*
G01*
X141742872Y-79380000D02*
G75*
G03*
X143824963Y-79379837I1040961J1080000D01*
G01*
D14*
%TO.C,ATTACK2*%
X164680658Y-107063300D02*
X164680658Y-104863300D01*
X173980658Y-96863300D02*
X173430658Y-96863300D01*
X165230658Y-96313300D02*
X173430658Y-96313300D01*
X173980658Y-96863300D02*
X173980658Y-100063300D01*
X164680658Y-100063300D02*
X164680658Y-96863300D01*
X165230658Y-96313300D02*
X165230658Y-96863300D01*
X165230658Y-107063300D02*
X165230658Y-107613300D01*
X173430658Y-96863300D02*
X173430658Y-96313300D01*
X173430658Y-107613300D02*
X173430658Y-107063300D01*
X173980658Y-104863300D02*
X173980658Y-107063300D01*
X173430658Y-107613300D02*
X165230658Y-107613300D01*
X165230658Y-96863300D02*
X164680658Y-96863300D01*
X173430658Y-107063300D02*
X173980658Y-107063300D01*
X164680658Y-107063300D02*
X165230658Y-107063300D01*
D15*
X170346658Y-102213300D02*
G75*
G03*
X170346658Y-102213300I-1016000J0D01*
G01*
X170727658Y-102213300D02*
G75*
G03*
X170727658Y-102213300I-1397000J0D01*
G01*
D16*
%TO.C,d+1*%
X172701000Y-51689000D02*
G75*
G03*
X172701000Y-51689000I-1251000J0D01*
G01*
%TO.C,D4*%
X260540000Y-123647000D02*
X260384000Y-123647000D01*
X262856000Y-123647000D02*
X262700000Y-123647000D01*
X260384484Y-123647000D02*
G75*
G03*
X260541392Y-126879335I1235516J-1560000D01*
G01*
X262698608Y-126879335D02*
G75*
G03*
X262855516Y-123647000I-1078608J1672335D01*
G01*
X262699837Y-126248130D02*
G75*
G03*
X262700000Y-124166039I-1079837J1041130D01*
G01*
X260540000Y-124166039D02*
G75*
G03*
X260540163Y-126248130I1080000J-1040961D01*
G01*
D13*
%TO.C,lfo-o1*%
X267537251Y-107501356D02*
X267537251Y-108001356D01*
X257037251Y-108001356D02*
X257037251Y-107501356D01*
X267537251Y-108001356D02*
X267037251Y-108001356D01*
X257537251Y-99001356D02*
X257037251Y-99001356D01*
X257037251Y-99001356D02*
X257037251Y-99501356D01*
X267037251Y-99001356D02*
X267537251Y-99001356D01*
X257537251Y-108001356D02*
X257037251Y-108001356D01*
X267537251Y-99001356D02*
X267537251Y-99501356D01*
X264227972Y-103501356D02*
G75*
G03*
X264227972Y-103501356I-2690721J0D01*
G01*
%TO.C,gate-o1*%
X267550000Y-118438520D02*
X267550000Y-118938520D01*
X267550000Y-118938520D02*
X267050000Y-118938520D01*
X267050000Y-109938520D02*
X267550000Y-109938520D01*
X257550000Y-109938520D02*
X257050000Y-109938520D01*
X257550000Y-118938520D02*
X257050000Y-118938520D01*
X257050000Y-109938520D02*
X257050000Y-110438520D01*
X267550000Y-109938520D02*
X267550000Y-110438520D01*
X257050000Y-118938520D02*
X257050000Y-118438520D01*
X264240721Y-114438520D02*
G75*
G03*
X264240721Y-114438520I-2690721J0D01*
G01*
D14*
%TO.C,LFO-FREQ1*%
X174141510Y-133238300D02*
X173591510Y-133238300D01*
X165391510Y-133238300D02*
X164841510Y-133238300D01*
X173591510Y-143438300D02*
X174141510Y-143438300D01*
X164841510Y-143438300D02*
X164841510Y-140238300D01*
X164841510Y-143438300D02*
X165391510Y-143438300D01*
X173591510Y-133238300D02*
X173591510Y-132688300D01*
X165391510Y-132688300D02*
X173591510Y-132688300D01*
X174141510Y-140238300D02*
X174141510Y-143438300D01*
X174141510Y-133238300D02*
X174141510Y-135438300D01*
X165391510Y-132688300D02*
X165391510Y-133238300D01*
X173591510Y-143988300D02*
X165391510Y-143988300D01*
X173591510Y-143988300D02*
X173591510Y-143438300D01*
X164841510Y-135438300D02*
X164841510Y-133238300D01*
X165391510Y-143438300D02*
X165391510Y-143988300D01*
D15*
X170888510Y-138088300D02*
G75*
G03*
X170888510Y-138088300I-1397000J0D01*
G01*
X170507510Y-138088300D02*
G75*
G03*
X170507510Y-138088300I-1016000J0D01*
G01*
D14*
%TO.C,LFO-WAVE1*%
X189538680Y-143438300D02*
X189538680Y-140238300D01*
X198288680Y-143988300D02*
X190088680Y-143988300D01*
X190088680Y-143438300D02*
X190088680Y-143988300D01*
X198838680Y-133238300D02*
X198288680Y-133238300D01*
X189538680Y-135438300D02*
X189538680Y-133238300D01*
X198838680Y-140238300D02*
X198838680Y-143438300D01*
X190088680Y-132688300D02*
X198288680Y-132688300D01*
X190088680Y-132688300D02*
X190088680Y-133238300D01*
X198288680Y-143988300D02*
X198288680Y-143438300D01*
X198288680Y-133238300D02*
X198288680Y-132688300D01*
X189538680Y-143438300D02*
X190088680Y-143438300D01*
X190088680Y-133238300D02*
X189538680Y-133238300D01*
X198288680Y-143438300D02*
X198838680Y-143438300D01*
X198838680Y-133238300D02*
X198838680Y-135438300D01*
D15*
X195204680Y-138088300D02*
G75*
G03*
X195204680Y-138088300I-1016000J0D01*
G01*
X195585680Y-138088300D02*
G75*
G03*
X195585680Y-138088300I-1397000J0D01*
G01*
D13*
%TO.C,CV-FILTDEC1*%
X252818000Y-96763858D02*
X252818000Y-97263858D01*
X242818000Y-88263858D02*
X242318000Y-88263858D01*
X252318000Y-88263858D02*
X252818000Y-88263858D01*
X242318000Y-97263858D02*
X242318000Y-96763858D01*
X242318000Y-88263858D02*
X242318000Y-88763858D01*
X252818000Y-97263858D02*
X252318000Y-97263858D01*
X252818000Y-88263858D02*
X252818000Y-88763858D01*
X242818000Y-97263858D02*
X242318000Y-97263858D01*
X249508721Y-92763858D02*
G75*
G03*
X249508721Y-92763858I-2690721J0D01*
G01*
D16*
%TO.C,d-1*%
X168814800Y-51663600D02*
G75*
G03*
X168814800Y-51663600I-1251000J0D01*
G01*
D13*
%TO.C,mult3*%
X242818000Y-151750000D02*
X242318000Y-151750000D01*
X252818000Y-151250000D02*
X252818000Y-151750000D01*
X242818000Y-142750000D02*
X242318000Y-142750000D01*
X252818000Y-151750000D02*
X252318000Y-151750000D01*
X242318000Y-151750000D02*
X242318000Y-151250000D01*
X252818000Y-142750000D02*
X252818000Y-143250000D01*
X242318000Y-142750000D02*
X242318000Y-143250000D01*
X252318000Y-142750000D02*
X252818000Y-142750000D01*
X249508721Y-147250000D02*
G75*
G03*
X249508721Y-147250000I-2690721J0D01*
G01*
%TO.C,cv-cutoff1*%
X267550000Y-96963520D02*
X267550000Y-97463520D01*
X257550000Y-88463520D02*
X257050000Y-88463520D01*
X257050000Y-97463520D02*
X257050000Y-96963520D01*
X267550000Y-88463520D02*
X267550000Y-88963520D01*
X267050000Y-88463520D02*
X267550000Y-88463520D01*
X267550000Y-97463520D02*
X267050000Y-97463520D01*
X257050000Y-88463520D02*
X257050000Y-88963520D01*
X257550000Y-97463520D02*
X257050000Y-97463520D01*
X264240721Y-92963520D02*
G75*
G03*
X264240721Y-92963520I-2690721J0D01*
G01*
%TO.C,CV-REL1*%
X242318000Y-66589200D02*
X242318000Y-67089200D01*
X242318000Y-75589200D02*
X242318000Y-75089200D01*
X252318000Y-66589200D02*
X252818000Y-66589200D01*
X252818000Y-75589200D02*
X252318000Y-75589200D01*
X252818000Y-75089200D02*
X252818000Y-75589200D01*
X252818000Y-66589200D02*
X252818000Y-67089200D01*
X242818000Y-75589200D02*
X242318000Y-75589200D01*
X242818000Y-66589200D02*
X242318000Y-66589200D01*
X249508721Y-71089200D02*
G75*
G03*
X249508721Y-71089200I-2690721J0D01*
G01*
D16*
%TO.C,D7*%
X100278766Y-74086000D02*
X100278766Y-73930000D01*
X100278766Y-71770000D02*
X100278766Y-71614000D01*
X97046431Y-73928608D02*
G75*
G03*
X100278766Y-74085516I1672335J1078608D01*
G01*
X99759727Y-71770000D02*
G75*
G03*
X97677636Y-71770163I-1040961J-1080000D01*
G01*
X97677636Y-73929837D02*
G75*
G03*
X99759727Y-73930000I1041130J1079837D01*
G01*
X100278766Y-71614484D02*
G75*
G03*
X97046431Y-71771392I-1560000J-1235516D01*
G01*
D13*
%TO.C,env2-o1*%
X252318000Y-109938520D02*
X252818000Y-109938520D01*
X242318000Y-118938520D02*
X242318000Y-118438520D01*
X242818000Y-118938520D02*
X242318000Y-118938520D01*
X242818000Y-109938520D02*
X242318000Y-109938520D01*
X252818000Y-118938520D02*
X252318000Y-118938520D01*
X252818000Y-109938520D02*
X252818000Y-110438520D01*
X242318000Y-109938520D02*
X242318000Y-110438520D01*
X252818000Y-118438520D02*
X252818000Y-118938520D01*
X249508721Y-114438520D02*
G75*
G03*
X249508721Y-114438520I-2690721J0D01*
G01*
D14*
%TO.C,RATIO2*%
X124036318Y-107613300D02*
X115836318Y-107613300D01*
X115286318Y-107063300D02*
X115286318Y-104863300D01*
X124586318Y-104863300D02*
X124586318Y-107063300D01*
X124586318Y-96863300D02*
X124036318Y-96863300D01*
X115836318Y-107063300D02*
X115836318Y-107613300D01*
X124036318Y-107613300D02*
X124036318Y-107063300D01*
X115836318Y-96313300D02*
X124036318Y-96313300D01*
X115836318Y-96313300D02*
X115836318Y-96863300D01*
X124586318Y-96863300D02*
X124586318Y-100063300D01*
X124036318Y-96863300D02*
X124036318Y-96313300D01*
X115286318Y-107063300D02*
X115836318Y-107063300D01*
X115836318Y-96863300D02*
X115286318Y-96863300D01*
X115286318Y-100063300D02*
X115286318Y-96863300D01*
X124036318Y-107063300D02*
X124586318Y-107063300D01*
D15*
X121333318Y-102213300D02*
G75*
G03*
X121333318Y-102213300I-1397000J0D01*
G01*
X120952318Y-102213300D02*
G75*
G03*
X120952318Y-102213300I-1016000J0D01*
G01*
D16*
%TO.C,D5*%
X100278766Y-60870000D02*
X100278766Y-60714000D01*
X100278766Y-63186000D02*
X100278766Y-63030000D01*
X97046431Y-63028608D02*
G75*
G03*
X100278766Y-63185516I1672335J1078608D01*
G01*
X97677636Y-63029837D02*
G75*
G03*
X99759727Y-63030000I1041130J1079837D01*
G01*
X100278766Y-60714484D02*
G75*
G03*
X97046431Y-60871392I-1560000J-1235516D01*
G01*
X99759727Y-60870000D02*
G75*
G03*
X97677636Y-60870163I-1040961J-1080000D01*
G01*
D14*
%TO.C,RELEASE2*%
X198677828Y-104863300D02*
X198677828Y-107063300D01*
X189377828Y-100063300D02*
X189377828Y-96863300D01*
X189927828Y-96313300D02*
X189927828Y-96863300D01*
X198127828Y-107613300D02*
X189927828Y-107613300D01*
X198127828Y-107063300D02*
X198677828Y-107063300D01*
X198127828Y-107613300D02*
X198127828Y-107063300D01*
X198127828Y-96863300D02*
X198127828Y-96313300D01*
X189927828Y-107063300D02*
X189927828Y-107613300D01*
X189377828Y-107063300D02*
X189377828Y-104863300D01*
X198677828Y-96863300D02*
X198677828Y-100063300D01*
X189927828Y-96313300D02*
X198127828Y-96313300D01*
X198677828Y-96863300D02*
X198127828Y-96863300D01*
X189377828Y-107063300D02*
X189927828Y-107063300D01*
X189927828Y-96863300D02*
X189377828Y-96863300D01*
D15*
X195043828Y-102213300D02*
G75*
G03*
X195043828Y-102213300I-1016000J0D01*
G01*
X195424828Y-102213300D02*
G75*
G03*
X195424828Y-102213300I-1397000J0D01*
G01*
D13*
%TO.C,mult2*%
X267550000Y-140812840D02*
X267050000Y-140812840D01*
X257550000Y-140812840D02*
X257050000Y-140812840D01*
X267550000Y-131812840D02*
X267550000Y-132312840D01*
X257550000Y-131812840D02*
X257050000Y-131812840D01*
X267050000Y-131812840D02*
X267550000Y-131812840D01*
X267550000Y-140312840D02*
X267550000Y-140812840D01*
X257050000Y-131812840D02*
X257050000Y-132312840D01*
X257050000Y-140812840D02*
X257050000Y-140312840D01*
X264240721Y-136312840D02*
G75*
G03*
X264240721Y-136312840I-2690721J0D01*
G01*
%TO.C,CV-PM2*%
X252318000Y-44714876D02*
X252818000Y-44714876D01*
X252818000Y-53714876D02*
X252318000Y-53714876D01*
X242318000Y-53714876D02*
X242318000Y-53214876D01*
X242818000Y-44714876D02*
X242318000Y-44714876D01*
X252818000Y-44714876D02*
X252818000Y-45214876D01*
X242818000Y-53714876D02*
X242318000Y-53714876D01*
X252818000Y-53214876D02*
X252818000Y-53714876D01*
X242318000Y-44714876D02*
X242318000Y-45214876D01*
X249508721Y-49214876D02*
G75*
G03*
X249508721Y-49214876I-2690721J0D01*
G01*
D14*
%TO.C,CUTOFF1*%
X149283488Y-96863300D02*
X149283488Y-100063300D01*
X149283488Y-96863300D02*
X148733488Y-96863300D01*
X140533488Y-96863300D02*
X139983488Y-96863300D01*
X140533488Y-96313300D02*
X148733488Y-96313300D01*
X148733488Y-107613300D02*
X148733488Y-107063300D01*
X149283488Y-104863300D02*
X149283488Y-107063300D01*
X148733488Y-107063300D02*
X149283488Y-107063300D01*
X140533488Y-107063300D02*
X140533488Y-107613300D01*
X140533488Y-96313300D02*
X140533488Y-96863300D01*
X139983488Y-107063300D02*
X139983488Y-104863300D01*
X148733488Y-96863300D02*
X148733488Y-96313300D01*
X139983488Y-107063300D02*
X140533488Y-107063300D01*
X139983488Y-100063300D02*
X139983488Y-96863300D01*
X148733488Y-107613300D02*
X140533488Y-107613300D01*
D15*
X146030488Y-102213300D02*
G75*
G03*
X146030488Y-102213300I-1397000J0D01*
G01*
X145649488Y-102213300D02*
G75*
G03*
X145649488Y-102213300I-1016000J0D01*
G01*
D14*
%TO.C,RATIO3*%
X115997170Y-143438300D02*
X115997170Y-143988300D01*
X124747170Y-133238300D02*
X124747170Y-135438300D01*
X115447170Y-143438300D02*
X115997170Y-143438300D01*
X115447170Y-135438300D02*
X115447170Y-133238300D01*
X124747170Y-133238300D02*
X124197170Y-133238300D01*
X115997170Y-132688300D02*
X115997170Y-133238300D01*
X115997170Y-132688300D02*
X124197170Y-132688300D01*
X124197170Y-143438300D02*
X124747170Y-143438300D01*
X124747170Y-140238300D02*
X124747170Y-143438300D01*
X124197170Y-143988300D02*
X115997170Y-143988300D01*
X115447170Y-143438300D02*
X115447170Y-140238300D01*
X124197170Y-133238300D02*
X124197170Y-132688300D01*
X115997170Y-133238300D02*
X115447170Y-133238300D01*
X124197170Y-143988300D02*
X124197170Y-143438300D01*
D15*
X121113170Y-138088300D02*
G75*
G03*
X121113170Y-138088300I-1016000J0D01*
G01*
X121494170Y-138088300D02*
G75*
G03*
X121494170Y-138088300I-1397000J0D01*
G01*
D13*
%TO.C,CV-REL2*%
X267550000Y-75089200D02*
X267550000Y-75589200D01*
X267550000Y-75589200D02*
X267050000Y-75589200D01*
X257550000Y-66589200D02*
X257050000Y-66589200D01*
X267550000Y-66589200D02*
X267550000Y-67089200D01*
X257050000Y-75589200D02*
X257050000Y-75089200D01*
X257550000Y-75589200D02*
X257050000Y-75589200D01*
X267050000Y-66589200D02*
X267550000Y-66589200D01*
X257050000Y-66589200D02*
X257050000Y-67089200D01*
X264240721Y-71089200D02*
G75*
G03*
X264240721Y-71089200I-2690721J0D01*
G01*
D16*
%TO.C,sw-sel2*%
X128652566Y-54315000D02*
X128652566Y-51635000D01*
X134892566Y-51635000D02*
X134892566Y-54315000D01*
X134742566Y-49855000D02*
X128802566Y-49855000D01*
X134742566Y-56095000D02*
X128802566Y-56095000D01*
X133186780Y-52975000D02*
G75*
G03*
X133186780Y-52975000I-1414214J0D01*
G01*
D13*
%TO.C,CV-RAT2*%
X252818000Y-64652040D02*
X252318000Y-64652040D01*
X242318000Y-64652040D02*
X242318000Y-64152040D01*
X242318000Y-55652040D02*
X242318000Y-56152040D01*
X252318000Y-55652040D02*
X252818000Y-55652040D01*
X242818000Y-64652040D02*
X242318000Y-64652040D01*
X252818000Y-64152040D02*
X252818000Y-64652040D01*
X242818000Y-55652040D02*
X242318000Y-55652040D01*
X252818000Y-55652040D02*
X252818000Y-56152040D01*
X249508721Y-60152040D02*
G75*
G03*
X249508721Y-60152040I-2690721J0D01*
G01*
D14*
%TO.C,ENV2-AMP1*%
X222825000Y-107613300D02*
X214625000Y-107613300D01*
X223375000Y-96863300D02*
X223375000Y-100063300D01*
X223375000Y-104863300D02*
X223375000Y-107063300D01*
X214625000Y-96863300D02*
X214075000Y-96863300D01*
X214075000Y-107063300D02*
X214625000Y-107063300D01*
X222825000Y-96863300D02*
X222825000Y-96313300D01*
X222825000Y-107063300D02*
X223375000Y-107063300D01*
X222825000Y-107613300D02*
X222825000Y-107063300D01*
X214625000Y-96313300D02*
X222825000Y-96313300D01*
X214075000Y-100063300D02*
X214075000Y-96863300D01*
X214075000Y-107063300D02*
X214075000Y-104863300D01*
X214625000Y-107063300D02*
X214625000Y-107613300D01*
X223375000Y-96863300D02*
X222825000Y-96863300D01*
X214625000Y-96313300D02*
X214625000Y-96863300D01*
D15*
X219741000Y-102213300D02*
G75*
G03*
X219741000Y-102213300I-1016000J0D01*
G01*
X220122000Y-102213300D02*
G75*
G03*
X220122000Y-102213300I-1397000J0D01*
G01*
D14*
%TO.C,PM2*%
X99889148Y-96863300D02*
X99339148Y-96863300D01*
X99889148Y-96863300D02*
X99889148Y-100063300D01*
X90589148Y-107063300D02*
X91139148Y-107063300D01*
X91139148Y-96313300D02*
X99339148Y-96313300D01*
X99889148Y-104863300D02*
X99889148Y-107063300D01*
X91139148Y-96863300D02*
X90589148Y-96863300D01*
X90589148Y-100063300D02*
X90589148Y-96863300D01*
X91139148Y-107063300D02*
X91139148Y-107613300D01*
X99339148Y-107063300D02*
X99889148Y-107063300D01*
X99339148Y-107613300D02*
X99339148Y-107063300D01*
X90589148Y-107063300D02*
X90589148Y-104863300D01*
X91139148Y-96313300D02*
X91139148Y-96863300D01*
X99339148Y-107613300D02*
X91139148Y-107613300D01*
X99339148Y-96863300D02*
X99339148Y-96313300D01*
D15*
X96636148Y-102213300D02*
G75*
G03*
X96636148Y-102213300I-1397000J0D01*
G01*
X96255148Y-102213300D02*
G75*
G03*
X96255148Y-102213300I-1016000J0D01*
G01*
D13*
%TO.C,CV-RAT3*%
X267050000Y-55652040D02*
X267550000Y-55652040D01*
X257050000Y-64652040D02*
X257050000Y-64152040D01*
X267550000Y-55652040D02*
X267550000Y-56152040D01*
X267550000Y-64152040D02*
X267550000Y-64652040D01*
X267550000Y-64652040D02*
X267050000Y-64652040D01*
X257550000Y-55652040D02*
X257050000Y-55652040D01*
X257550000Y-64652040D02*
X257050000Y-64652040D01*
X257050000Y-55652040D02*
X257050000Y-56152040D01*
X264240721Y-60152040D02*
G75*
G03*
X264240721Y-60152040I-2690721J0D01*
G01*
D16*
%TO.C,D8*%
X100278766Y-77220000D02*
X100278766Y-77064000D01*
X100278766Y-79536000D02*
X100278766Y-79380000D01*
X99759727Y-77220000D02*
G75*
G03*
X97677636Y-77220163I-1040961J-1080000D01*
G01*
X97046431Y-79378608D02*
G75*
G03*
X100278766Y-79535516I1672335J1078608D01*
G01*
X100278766Y-77064484D02*
G75*
G03*
X97046431Y-77221392I-1560000J-1235516D01*
G01*
X97677636Y-79379837D02*
G75*
G03*
X99759727Y-79380000I1041130J1079837D01*
G01*
%TO.C,SW3*%
X109730033Y-70375000D02*
X109730033Y-69375000D01*
X113230033Y-63775000D02*
X115630033Y-63775000D01*
X105630033Y-77675000D02*
X105630033Y-77075000D01*
X103830033Y-63775000D02*
X106230033Y-63775000D01*
X105630033Y-77075000D02*
X105930033Y-77375000D01*
X109230033Y-69875000D02*
X110230033Y-69875000D01*
X105930033Y-77375000D02*
X105630033Y-77675000D01*
X103830033Y-75975000D02*
X115630033Y-75975000D01*
X115630033Y-71875000D02*
X115630033Y-75975000D01*
X108430033Y-63775000D02*
X111030033Y-63775000D01*
X103830033Y-67875000D02*
X103830033Y-63775000D01*
X115630033Y-63775000D02*
X115630033Y-67875000D01*
X103830033Y-71875000D02*
X103830033Y-75975000D01*
X112730033Y-69875000D02*
G75*
G03*
X112730033Y-69875000I-3000000J0D01*
G01*
D14*
%TO.C,ATTACK1*%
X165150000Y-74936500D02*
X165150000Y-75486500D01*
X173350000Y-74936500D02*
X173900000Y-74936500D01*
X164600000Y-74936500D02*
X165150000Y-74936500D01*
X173350000Y-75486500D02*
X173350000Y-74936500D01*
X164600000Y-74936500D02*
X164600000Y-71736500D01*
X173350000Y-75486500D02*
X165150000Y-75486500D01*
X165150000Y-64186500D02*
X165150000Y-64736500D01*
X173900000Y-64736500D02*
X173350000Y-64736500D01*
X165150000Y-64736500D02*
X164600000Y-64736500D01*
X165150000Y-64186500D02*
X173350000Y-64186500D01*
X173900000Y-64736500D02*
X173900000Y-66936500D01*
X164600000Y-66936500D02*
X164600000Y-64736500D01*
X173900000Y-71736500D02*
X173900000Y-74936500D01*
X173350000Y-64736500D02*
X173350000Y-64186500D01*
D15*
X170647000Y-69586500D02*
G75*
G03*
X170647000Y-69586500I-1397000J0D01*
G01*
X170266000Y-69586500D02*
G75*
G03*
X170266000Y-69586500I-1016000J0D01*
G01*
D16*
%TO.C,D6*%
X100278766Y-68636000D02*
X100278766Y-68480000D01*
X100278766Y-66320000D02*
X100278766Y-66164000D01*
X100278766Y-66164484D02*
G75*
G03*
X97046431Y-66321392I-1560000J-1235516D01*
G01*
X97677636Y-68479837D02*
G75*
G03*
X99759727Y-68480000I1041130J1079837D01*
G01*
X97046431Y-68478608D02*
G75*
G03*
X100278766Y-68635516I1672335J1078608D01*
G01*
X99759727Y-66320000D02*
G75*
G03*
X97677636Y-66320163I-1040961J-1080000D01*
G01*
%TD*%
%LPC*%
D17*
%TO.C,CV-PM3*%
X266537251Y-49214876D03*
X258037251Y-49214876D03*
X255037251Y-49214876D03*
%TD*%
%TO.C,CV-CTL2*%
X266550000Y-82026360D03*
X258050000Y-82026360D03*
X255050000Y-82026360D03*
%TD*%
%TO.C,mult1*%
X251818000Y-136312840D03*
X243318000Y-136312840D03*
X240318000Y-136312840D03*
%TD*%
D18*
%TO.C,FILT-DEC1*%
X142294340Y-145088300D03*
D17*
X144794340Y-145088300D03*
X147294340Y-145088300D03*
D19*
X140294340Y-138088300D03*
X149294340Y-138088300D03*
%TD*%
D18*
%TO.C,PM3*%
X92900000Y-145088300D03*
D17*
X95400000Y-145088300D03*
X97900000Y-145088300D03*
D19*
X90900000Y-138088300D03*
X99900000Y-138088300D03*
%TD*%
D17*
%TO.C,mult4*%
X266550000Y-147250000D03*
X258050000Y-147250000D03*
X255050000Y-147250000D03*
%TD*%
%TO.C,pitch1*%
X251818000Y-103501356D03*
X243318000Y-103501356D03*
X240318000Y-103501356D03*
%TD*%
D20*
%TO.C,D11*%
X140243833Y-72850000D03*
D21*
X142783833Y-72850000D03*
X145323833Y-72850000D03*
%TD*%
D20*
%TO.C,D9*%
X140243833Y-61950000D03*
D21*
X142783833Y-61950000D03*
X145323833Y-61950000D03*
%TD*%
D20*
%TO.C,D10*%
X140243833Y-67400000D03*
D21*
X142783833Y-67400000D03*
X145323833Y-67400000D03*
%TD*%
D18*
%TO.C,LFO-AMP1*%
X216385852Y-145088300D03*
D17*
X218885852Y-145088300D03*
X221385852Y-145088300D03*
D19*
X214385852Y-138088300D03*
X223385852Y-138088300D03*
%TD*%
D22*
%TO.C,sw-sel1*%
X112980033Y-55225000D03*
X106480033Y-55225000D03*
X112980033Y-50725000D03*
X106480033Y-50725000D03*
%TD*%
D17*
%TO.C,CV-CTL1*%
X251818000Y-82026360D03*
X243318000Y-82026360D03*
X240318000Y-82026360D03*
%TD*%
D23*
%TO.C,vol1*%
X213975000Y-69619000D03*
X223475000Y-69619000D03*
D20*
X216225000Y-77119000D03*
D21*
X218725000Y-77119000D03*
X221225000Y-77119000D03*
X216225000Y-79619000D03*
X218725000Y-79619000D03*
X221225000Y-79619000D03*
%TD*%
D18*
%TO.C,RELEASE1*%
X191447172Y-76650000D03*
D17*
X193947172Y-76650000D03*
X196447172Y-76650000D03*
D19*
X189447172Y-69650000D03*
X198447172Y-69650000D03*
%TD*%
D24*
%TO.C,SW4*%
X129272566Y-77375000D03*
D25*
X134272566Y-77375000D03*
X131772566Y-77375000D03*
D26*
X137372566Y-69875000D03*
X126172566Y-69875000D03*
D25*
X134272566Y-62875000D03*
X129272566Y-62875000D03*
%TD*%
D20*
%TO.C,D12*%
X140243833Y-78300000D03*
D21*
X142783833Y-78300000D03*
X145323833Y-78300000D03*
%TD*%
D27*
%TO.C,ATTACK2*%
X171830658Y-95213300D03*
D17*
X169330658Y-95213300D03*
X166830658Y-95213300D03*
D19*
X173830658Y-102213300D03*
X164830658Y-102213300D03*
%TD*%
D25*
%TO.C,d+1*%
X171450000Y-51689000D03*
%TD*%
D20*
%TO.C,D4*%
X261620000Y-123937000D03*
D21*
X261620000Y-126477000D03*
%TD*%
D17*
%TO.C,lfo-o1*%
X266537251Y-103501356D03*
X258037251Y-103501356D03*
X255037251Y-103501356D03*
%TD*%
%TO.C,gate-o1*%
X266550000Y-114438520D03*
X258050000Y-114438520D03*
X255050000Y-114438520D03*
%TD*%
D18*
%TO.C,LFO-FREQ1*%
X166991510Y-145088300D03*
D17*
X169491510Y-145088300D03*
X171991510Y-145088300D03*
D19*
X164991510Y-138088300D03*
X173991510Y-138088300D03*
%TD*%
D18*
%TO.C,LFO-WAVE1*%
X191688680Y-145088300D03*
D17*
X194188680Y-145088300D03*
X196688680Y-145088300D03*
D19*
X189688680Y-138088300D03*
X198688680Y-138088300D03*
%TD*%
D17*
%TO.C,CV-FILTDEC1*%
X251818000Y-92763858D03*
X243318000Y-92763858D03*
X240318000Y-92763858D03*
%TD*%
D25*
%TO.C,d-1*%
X167563800Y-51663600D03*
%TD*%
D17*
%TO.C,mult3*%
X251818000Y-147250000D03*
X243318000Y-147250000D03*
X240318000Y-147250000D03*
%TD*%
%TO.C,cv-cutoff1*%
X266550000Y-92963520D03*
X258050000Y-92963520D03*
X255050000Y-92963520D03*
%TD*%
%TO.C,CV-REL1*%
X251818000Y-71089200D03*
X243318000Y-71089200D03*
X240318000Y-71089200D03*
%TD*%
D20*
%TO.C,D7*%
X101258766Y-72850000D03*
D21*
X98718766Y-72850000D03*
X96178766Y-72850000D03*
%TD*%
D17*
%TO.C,env2-o1*%
X251818000Y-114438520D03*
X243318000Y-114438520D03*
X240318000Y-114438520D03*
%TD*%
D27*
%TO.C,RATIO2*%
X122436318Y-95213300D03*
D17*
X119936318Y-95213300D03*
X117436318Y-95213300D03*
D19*
X124436318Y-102213300D03*
X115436318Y-102213300D03*
%TD*%
D20*
%TO.C,D5*%
X101258766Y-61950000D03*
D21*
X98718766Y-61950000D03*
X96178766Y-61950000D03*
%TD*%
D27*
%TO.C,RELEASE2*%
X196527828Y-95213300D03*
D17*
X194027828Y-95213300D03*
X191527828Y-95213300D03*
D19*
X198527828Y-102213300D03*
X189527828Y-102213300D03*
%TD*%
D17*
%TO.C,mult2*%
X266550000Y-136312840D03*
X258050000Y-136312840D03*
X255050000Y-136312840D03*
%TD*%
%TO.C,CV-PM2*%
X251818000Y-49214876D03*
X243318000Y-49214876D03*
X240318000Y-49214876D03*
%TD*%
D27*
%TO.C,CUTOFF1*%
X147133488Y-95213300D03*
D17*
X144633488Y-95213300D03*
X142133488Y-95213300D03*
D19*
X149133488Y-102213300D03*
X140133488Y-102213300D03*
%TD*%
D18*
%TO.C,RATIO3*%
X117597170Y-145088300D03*
D17*
X120097170Y-145088300D03*
X122597170Y-145088300D03*
D19*
X115597170Y-138088300D03*
X124597170Y-138088300D03*
%TD*%
D17*
%TO.C,CV-REL2*%
X266550000Y-71089200D03*
X258050000Y-71089200D03*
X255050000Y-71089200D03*
%TD*%
D22*
%TO.C,sw-sel2*%
X135022566Y-55225000D03*
X128522566Y-55225000D03*
X135022566Y-50725000D03*
X128522566Y-50725000D03*
%TD*%
D17*
%TO.C,CV-RAT2*%
X251818000Y-60152040D03*
X243318000Y-60152040D03*
X240318000Y-60152040D03*
%TD*%
D27*
%TO.C,ENV2-AMP1*%
X221225000Y-95213300D03*
D17*
X218725000Y-95213300D03*
X216225000Y-95213300D03*
D19*
X223225000Y-102213300D03*
X214225000Y-102213300D03*
%TD*%
D27*
%TO.C,PM2*%
X97739148Y-95213300D03*
D17*
X95239148Y-95213300D03*
X92739148Y-95213300D03*
D19*
X99739148Y-102213300D03*
X90739148Y-102213300D03*
%TD*%
D17*
%TO.C,CV-RAT3*%
X266550000Y-60152040D03*
X258050000Y-60152040D03*
X255050000Y-60152040D03*
%TD*%
D20*
%TO.C,D8*%
X101258766Y-78300000D03*
D21*
X98718766Y-78300000D03*
X96178766Y-78300000D03*
%TD*%
D24*
%TO.C,SW3*%
X107230033Y-77375000D03*
D25*
X112230033Y-77375000D03*
X109730033Y-77375000D03*
D26*
X104130033Y-69875000D03*
X115330033Y-69875000D03*
D25*
X112230033Y-62875000D03*
X107230033Y-62875000D03*
%TD*%
D18*
%TO.C,ATTACK1*%
X166750000Y-76586500D03*
D17*
X169250000Y-76586500D03*
X171750000Y-76586500D03*
D19*
X164750000Y-69586500D03*
X173750000Y-69586500D03*
%TD*%
D20*
%TO.C,D6*%
X101258766Y-67400000D03*
D21*
X98718766Y-67400000D03*
X96178766Y-67400000D03*
%TD*%
D28*
%TO.C,sw-midi1*%
X93401000Y-48383000D03*
X100401000Y-48383000D03*
D22*
X99151000Y-45883000D03*
X94651000Y-45883000D03*
%TD*%
%TO.C,line1*%
X199303333Y-46450000D03*
X199303333Y-53450000D03*
%TD*%
D29*
%TO.C,X1*%
X202646400Y-93675800D03*
D30*
X205146400Y-93675800D03*
X207146400Y-93675800D03*
X209646400Y-93675800D03*
D31*
X199576400Y-90965800D03*
X212716400Y-90965800D03*
%TD*%
D22*
%TO.C,headphone1*%
X183840000Y-46450000D03*
X183840000Y-53450000D03*
%TD*%
D32*
%TO.C,J1*%
X161499600Y-44240600D03*
X168649600Y-44240600D03*
%TD*%
D25*
%TO.C,SW1*%
X151528800Y-50137000D03*
X139528800Y-50137000D03*
X151528800Y-44137000D03*
X139528800Y-44137000D03*
D22*
X141528800Y-48387000D03*
X145528800Y-48387000D03*
X149528800Y-48387000D03*
%TD*%
D33*
%TO.C,A1*%
X143180000Y-112582500D03*
D22*
X145720000Y-112582500D03*
X148260000Y-112582500D03*
X150800000Y-112582500D03*
X153340000Y-112582500D03*
X155880000Y-112582500D03*
X158420000Y-112582500D03*
X160960000Y-112582500D03*
X163500000Y-112582500D03*
X166040000Y-112582500D03*
X168580000Y-112582500D03*
X171120000Y-112582500D03*
X173660000Y-112582500D03*
X176200000Y-112582500D03*
X178740000Y-112582500D03*
X181280000Y-112582500D03*
X183820000Y-112582500D03*
X186360000Y-112582500D03*
X188900000Y-112582500D03*
X191440000Y-112582500D03*
X191440000Y-127822500D03*
X188900000Y-127822500D03*
X186360000Y-127822500D03*
X183820000Y-127822500D03*
X181280000Y-127822500D03*
X178740000Y-127822500D03*
X176200000Y-127822500D03*
X173660000Y-127822500D03*
X171120000Y-127822500D03*
X168580000Y-127822500D03*
X166040000Y-127822500D03*
X163500000Y-127822500D03*
X160960000Y-127822500D03*
X158420000Y-127822500D03*
X155880000Y-127822500D03*
X153340000Y-127822500D03*
X150800000Y-127822500D03*
X148260000Y-127822500D03*
X145720000Y-127822500D03*
X143180000Y-127822500D03*
%TD*%
%TO.C,midi-thru1*%
X230230000Y-46450000D03*
X230230000Y-53450000D03*
%TD*%
%TO.C,midi-i1*%
X214766666Y-46450000D03*
X214766666Y-53450000D03*
%TD*%
D34*
X132765800Y-79578200D03*
X115637800Y-83394420D03*
X164388800Y-119684800D03*
X164896800Y-110439200D03*
X209727800Y-116789200D03*
X115312800Y-55849420D03*
X209296000Y-122275600D03*
X224637600Y-58623200D03*
X116787800Y-80869420D03*
X163423600Y-115087400D03*
X127152400Y-82677000D03*
X128016000Y-58267600D03*
X250088400Y-103581200D03*
X126288800Y-110566200D03*
X219354400Y-119278400D03*
X159867600Y-110490000D03*
X210362800Y-61544200D03*
X125120400Y-118846600D03*
X250469400Y-101168200D03*
X222275400Y-66497200D03*
X222707200Y-56819800D03*
X167182800Y-115087400D03*
X227609400Y-129717800D03*
X167119300Y-129705100D03*
X253542800Y-102260400D03*
X167538400Y-140995400D03*
X252501400Y-142036800D03*
X168656000Y-121894600D03*
X171272200Y-122072400D03*
X183692800Y-117322600D03*
X223660650Y-124751150D03*
X224764600Y-131724400D03*
X186791600Y-131368800D03*
X188874400Y-132892800D03*
X226110800Y-132283200D03*
X226382900Y-115653500D03*
X219710000Y-120904000D03*
X244678200Y-99161600D03*
X104419400Y-110032800D03*
X166624000Y-98806000D03*
X192532000Y-99060000D03*
X171645275Y-93026511D03*
X123647200Y-109575600D03*
X104394000Y-121894600D03*
X218770200Y-128498600D03*
X246126000Y-127609600D03*
X124231400Y-116840000D03*
X226136200Y-112852200D03*
X208711800Y-67716400D03*
X221005400Y-67589400D03*
X221615000Y-75514200D03*
X205841600Y-65125600D03*
X219989400Y-81356200D03*
X219887800Y-66192400D03*
X225831400Y-114274600D03*
X232460800Y-60883800D03*
X203022200Y-106121200D03*
X232384600Y-70434200D03*
X202641200Y-110439200D03*
X178765200Y-110134400D03*
X229387400Y-105486200D03*
X171735509Y-104574561D03*
X157480000Y-81711800D03*
X158851600Y-102260400D03*
X158038800Y-103149400D03*
X170738800Y-105283000D03*
X157124400Y-82804000D03*
X132003800Y-91744800D03*
X132257800Y-99568000D03*
X168300400Y-102692200D03*
X92786200Y-91567000D03*
X159562800Y-60045600D03*
X162306000Y-60147200D03*
X131064000Y-58039000D03*
X149313900Y-60490100D03*
X127127000Y-62915800D03*
X149453600Y-62026800D03*
X131470400Y-58978800D03*
X133604000Y-67106800D03*
X115265200Y-62661800D03*
X151587200Y-93624400D03*
X90551000Y-93091000D03*
X150114000Y-92735400D03*
X90551000Y-91592400D03*
X109626400Y-60680600D03*
X88798400Y-107391200D03*
X128676400Y-98653600D03*
X142773400Y-99187000D03*
X127914400Y-106654600D03*
X204724000Y-60960000D03*
X178816000Y-90424000D03*
X204724000Y-88417400D03*
X178816000Y-78714600D03*
X206502000Y-70358000D03*
X206502000Y-85471000D03*
X232994200Y-86233000D03*
X232105200Y-124129800D03*
X232257600Y-84836000D03*
X232206800Y-117627400D03*
X131940300Y-57137300D03*
X123680980Y-81805020D03*
X107954281Y-66213519D03*
X138658600Y-66141600D03*
X192151000Y-51079400D03*
X193167000Y-63804800D03*
X262154668Y-95270466D03*
X132537200Y-146354800D03*
X144373600Y-108483400D03*
X132588000Y-124968000D03*
X132588000Y-109474000D03*
X260350000Y-142290800D03*
X144780000Y-102616000D03*
X122428000Y-132308600D03*
X152476200Y-123494800D03*
X151942800Y-132359400D03*
X122072400Y-127965200D03*
X258826000Y-142341600D03*
X143764000Y-133096000D03*
X119634000Y-133096000D03*
X149250400Y-145796000D03*
X260985000Y-95326200D03*
X119634000Y-124968000D03*
X145034000Y-138938000D03*
X141173200Y-120116600D03*
X141224000Y-113106200D03*
X113284000Y-114579400D03*
X139979400Y-112318800D03*
X140589000Y-123799600D03*
X113588800Y-112318800D03*
X124510800Y-141097000D03*
X266674600Y-150952200D03*
X264820400Y-63271400D03*
X124866400Y-151104600D03*
X112522000Y-124968000D03*
X112522000Y-135890000D03*
X100769200Y-126651800D03*
X99364800Y-130886200D03*
X134010400Y-120370600D03*
X134010400Y-130606800D03*
X263042400Y-143103600D03*
X213893400Y-148894800D03*
X224205800Y-145008600D03*
X191693800Y-100812600D03*
X126034800Y-148259800D03*
X120370600Y-118084600D03*
X120446800Y-110921800D03*
X263321800Y-72923400D03*
X191312800Y-109347000D03*
X149809200Y-114935000D03*
X149936200Y-117348000D03*
X200736200Y-82270600D03*
X134086600Y-116789200D03*
X135331200Y-106019600D03*
X201015600Y-105308400D03*
X154025600Y-123444000D03*
X154457400Y-134112000D03*
X110109000Y-133527800D03*
X108859300Y-126573300D03*
X100633050Y-118289550D03*
X96774000Y-117856000D03*
X102412800Y-151612600D03*
X95250000Y-100330000D03*
X268198600Y-53187600D03*
X267944600Y-151155400D03*
X152476200Y-114046000D03*
X152476200Y-117500400D03*
X262763000Y-63271400D03*
X265099800Y-150393400D03*
X119888000Y-102870000D03*
X108712000Y-118872000D03*
X107645200Y-148996400D03*
X112014000Y-118110000D03*
X144780000Y-98552000D03*
X229514400Y-127050800D03*
X191516000Y-80264000D03*
X130302000Y-97536000D03*
X130302000Y-106807000D03*
X196342000Y-80568800D03*
X229616000Y-114147600D03*
X196748400Y-107315000D03*
X196443600Y-126873000D03*
X229565200Y-106857800D03*
X130302000Y-90424000D03*
X130302000Y-142748000D03*
X225856800Y-59969400D03*
X207873600Y-55956200D03*
X225907600Y-71424800D03*
X209270600Y-59969400D03*
X230657400Y-72313800D03*
X230022400Y-58597800D03*
X218363800Y-110896400D03*
X236804200Y-57937400D03*
X236677200Y-62204600D03*
X233680000Y-65074800D03*
X137998200Y-104851200D03*
X208280000Y-98577400D03*
X145288000Y-116586000D03*
X233730800Y-130454400D03*
X137972800Y-116281200D03*
X154686000Y-101625400D03*
X145846800Y-130352800D03*
X154686000Y-72313800D03*
X216306400Y-125831600D03*
X269163800Y-152222200D03*
X90551000Y-151790400D03*
X95250000Y-137414000D03*
X96774000Y-124968000D03*
X269113000Y-51943000D03*
X251818000Y-139727800D03*
X266550000Y-139753200D03*
X95250000Y-141732000D03*
X258622800Y-122986800D03*
X258622800Y-119532400D03*
X220243400Y-116814600D03*
X120142000Y-141732000D03*
X119989600Y-98958400D03*
X119831400Y-56915600D03*
X121866400Y-87172220D03*
X119124362Y-57715600D03*
X120901200Y-87731020D03*
X119783600Y-86410220D03*
X118174362Y-58515600D03*
X117474362Y-59515600D03*
X118818400Y-86613420D03*
X91874362Y-70765600D03*
X91824362Y-81915600D03*
X93662800Y-82444420D03*
X93224362Y-69315600D03*
X95087800Y-83944420D03*
X93524362Y-76165600D03*
X94474362Y-74865600D03*
X95887800Y-83394420D03*
X124024362Y-67265600D03*
X144018000Y-68859400D03*
X123324362Y-68115600D03*
X136874362Y-72615600D03*
X122574362Y-68965600D03*
X137624362Y-74065600D03*
X136724362Y-74965600D03*
X121874362Y-69915600D03*
X169443400Y-91719400D03*
X175615600Y-92176600D03*
X169877062Y-117879538D03*
X173482000Y-117805200D03*
X187756800Y-71323200D03*
X187909200Y-73710800D03*
X179349400Y-136017000D03*
X169164000Y-136144000D03*
M02*
