%TF.GenerationSoftware,KiCad,Pcbnew,(6.0.10)*%
%TF.CreationDate,2023-02-08T13:20:32+00:00*%
%TF.ProjectId,fjol-daisy,666a6f6c-2d64-4616-9973-792e6b696361,rev?*%
%TF.SameCoordinates,Original*%
%TF.FileFunction,Profile,NP*%
%FSLAX46Y46*%
G04 Gerber Fmt 4.6, Leading zero omitted, Abs format (unit mm)*
G04 Created by KiCad (PCBNEW (6.0.10)) date 2023-02-08 13:20:32*
%MOMM*%
%LPD*%
G01*
G04 APERTURE LIST*
%TA.AperFunction,Profile*%
%ADD10C,0.150000*%
%TD*%
%TA.AperFunction,Profile*%
%ADD11C,0.050000*%
%TD*%
G04 APERTURE END LIST*
D10*
X181732838Y-53056780D02*
G75*
G03*
X181732838Y-53056780I-1500000J0D01*
G01*
X180788438Y-145121180D02*
G75*
G03*
X180788438Y-145121180I-1500000J0D01*
G01*
D11*
X182882933Y-135690438D02*
X182880000Y-154980000D01*
X185038494Y-157981506D02*
G75*
G03*
X185038494Y-157981506I-198494J0D01*
G01*
X184930411Y-108853821D02*
G75*
G03*
X182880000Y-108866691I-1025111J-21479D01*
G01*
X185018494Y-54743012D02*
G75*
G03*
X185018494Y-54743012I-198494J0D01*
G01*
X183181427Y-82023450D02*
G75*
G03*
X183181427Y-82023450I-198494J0D01*
G01*
X276243438Y-161506749D02*
X276243438Y-50838949D01*
X183178494Y-54770000D02*
G75*
G03*
X183178494Y-54770000I-198494J0D01*
G01*
X183178494Y-55813012D02*
G75*
G03*
X183178494Y-55813012I-198494J0D01*
G01*
X184933371Y-84524258D02*
X184930438Y-104913820D01*
X182882946Y-80550438D02*
G75*
G03*
X184933371Y-80554258I1025254J20338D01*
G01*
X184930487Y-158923819D02*
G75*
G03*
X182880000Y-158920000I-1025287J-21481D01*
G01*
X184930438Y-108853820D02*
X184930438Y-131720438D01*
X185021427Y-82516462D02*
G75*
G03*
X185021427Y-82516462I-198494J0D01*
G01*
X185038494Y-157421506D02*
G75*
G03*
X185038494Y-157421506I-198494J0D01*
G01*
X182880000Y-50835129D02*
X91567000Y-50835129D01*
X185018494Y-105803012D02*
G75*
G03*
X185018494Y-105803012I-198494J0D01*
G01*
X182880079Y-53819998D02*
G75*
G03*
X184930438Y-53823820I1025221J20298D01*
G01*
X185018494Y-106326024D02*
G75*
G03*
X185018494Y-106326024I-198494J0D01*
G01*
D10*
X265618719Y-145700000D02*
G75*
G03*
X265618719Y-145700000I-1500000J0D01*
G01*
D11*
X185018494Y-56306024D02*
G75*
G03*
X185018494Y-56306024I-198494J0D01*
G01*
D10*
X190022000Y-145125000D02*
G75*
G03*
X190022000Y-145125000I-1500000J0D01*
G01*
D11*
X185018494Y-107366024D02*
G75*
G03*
X185018494Y-107366024I-198494J0D01*
G01*
X91567000Y-161502929D02*
X182880000Y-161502929D01*
X185038494Y-155858494D02*
G75*
G03*
X185038494Y-155858494I-198494J0D01*
G01*
X184930438Y-161506749D02*
X184930438Y-158923820D01*
X183198494Y-157448494D02*
G75*
G03*
X183198494Y-157448494I-198494J0D01*
G01*
X183198494Y-155885482D02*
G75*
G03*
X183198494Y-155885482I-198494J0D01*
G01*
X183198494Y-156928494D02*
G75*
G03*
X183198494Y-156928494I-198494J0D01*
G01*
X183178494Y-105830000D02*
G75*
G03*
X183178494Y-105830000I-198494J0D01*
G01*
X182880099Y-131733306D02*
G75*
G03*
X184930438Y-131720438I1025001J33306D01*
G01*
X183181427Y-133193450D02*
G75*
G03*
X183181427Y-133193450I-198494J0D01*
G01*
X182880000Y-108866691D02*
X182880000Y-131733309D01*
X184933392Y-135694257D02*
G75*
G03*
X182882933Y-135690438I-1025292J-31543D01*
G01*
X185021427Y-133686462D02*
G75*
G03*
X185021427Y-133686462I-198494J0D01*
G01*
X185018494Y-55786024D02*
G75*
G03*
X185018494Y-55786024I-198494J0D01*
G01*
X182880000Y-57790000D02*
X182882933Y-80550438D01*
X183178494Y-106873012D02*
G75*
G03*
X183178494Y-106873012I-198494J0D01*
G01*
X182880023Y-154979999D02*
G75*
G03*
X184930438Y-154983820I1025277J35399D01*
G01*
D10*
X105191719Y-145696180D02*
G75*
G03*
X105191719Y-145696180I-1500000J0D01*
G01*
D11*
X185018494Y-106846024D02*
G75*
G03*
X185018494Y-106846024I-198494J0D01*
G01*
X184930438Y-57793820D02*
X184933371Y-80554258D01*
D10*
X95714162Y-53056780D02*
G75*
G03*
X95714162Y-53056780I-1500000J0D01*
G01*
D11*
X185021427Y-83036462D02*
G75*
G03*
X185021427Y-83036462I-198494J0D01*
G01*
X185021427Y-132643450D02*
G75*
G03*
X185021427Y-132643450I-198494J0D01*
G01*
X183178494Y-106353012D02*
G75*
G03*
X183178494Y-106353012I-198494J0D01*
G01*
X185018494Y-56866024D02*
G75*
G03*
X185018494Y-56866024I-198494J0D01*
G01*
X91567000Y-50835129D02*
X91567000Y-161502929D01*
X183178494Y-56893012D02*
G75*
G03*
X183178494Y-56893012I-198494J0D01*
G01*
X183181427Y-82543450D02*
G75*
G03*
X183181427Y-82543450I-198494J0D01*
G01*
X183181427Y-81500438D02*
G75*
G03*
X183181427Y-81500438I-198494J0D01*
G01*
X183178494Y-56333012D02*
G75*
G03*
X183178494Y-56333012I-198494J0D01*
G01*
X183178494Y-55293012D02*
G75*
G03*
X183178494Y-55293012I-198494J0D01*
G01*
X183181427Y-133713450D02*
G75*
G03*
X183181427Y-133713450I-198494J0D01*
G01*
D10*
X275096276Y-53060600D02*
G75*
G03*
X275096276Y-53060600I-1500000J0D01*
G01*
D11*
X184930438Y-50838949D02*
X184930438Y-53823820D01*
X184930438Y-161506749D02*
X276243438Y-161506749D01*
X185021427Y-133166462D02*
G75*
G03*
X185021427Y-133166462I-198494J0D01*
G01*
X182880000Y-161502929D02*
X182880000Y-158920000D01*
X183178494Y-107953012D02*
G75*
G03*
X183178494Y-107953012I-198494J0D01*
G01*
X276243438Y-50838949D02*
X184930438Y-50838949D01*
X185038494Y-156901506D02*
G75*
G03*
X185038494Y-156901506I-198494J0D01*
G01*
X185018494Y-55266024D02*
G75*
G03*
X185018494Y-55266024I-198494J0D01*
G01*
X185021427Y-81473450D02*
G75*
G03*
X185021427Y-81473450I-198494J0D01*
G01*
X183198494Y-156408494D02*
G75*
G03*
X183198494Y-156408494I-198494J0D01*
G01*
X184930525Y-57793817D02*
G75*
G03*
X182880000Y-57790000I-1025325J-31483D01*
G01*
X183181427Y-134233450D02*
G75*
G03*
X183181427Y-134233450I-198494J0D01*
G01*
X183181427Y-134793450D02*
G75*
G03*
X183181427Y-134793450I-198494J0D01*
G01*
X185021427Y-134206462D02*
G75*
G03*
X185021427Y-134206462I-198494J0D01*
G01*
X182880000Y-50835129D02*
X182880000Y-53820000D01*
X183178494Y-107393012D02*
G75*
G03*
X183178494Y-107393012I-198494J0D01*
G01*
X185021427Y-83596462D02*
G75*
G03*
X185021427Y-83596462I-198494J0D01*
G01*
X183181427Y-83063450D02*
G75*
G03*
X183181427Y-83063450I-198494J0D01*
G01*
X185038494Y-156381506D02*
G75*
G03*
X185038494Y-156381506I-198494J0D01*
G01*
X183198494Y-158008494D02*
G75*
G03*
X183198494Y-158008494I-198494J0D01*
G01*
X185021427Y-81996462D02*
G75*
G03*
X185021427Y-81996462I-198494J0D01*
G01*
X185021427Y-134766462D02*
G75*
G03*
X185021427Y-134766462I-198494J0D01*
G01*
X185018494Y-107926024D02*
G75*
G03*
X185018494Y-107926024I-198494J0D01*
G01*
X182880000Y-104910000D02*
X182882933Y-84520438D01*
X184930438Y-154983820D02*
X184933371Y-135694258D01*
X183181427Y-83623450D02*
G75*
G03*
X183181427Y-83623450I-198494J0D01*
G01*
D10*
X189077600Y-53060600D02*
G75*
G03*
X189077600Y-53060600I-1500000J0D01*
G01*
D11*
X183181427Y-132670438D02*
G75*
G03*
X183181427Y-132670438I-198494J0D01*
G01*
X182880061Y-104909998D02*
G75*
G03*
X184930438Y-104913820I1025239J25398D01*
G01*
X184933392Y-84524257D02*
G75*
G03*
X182882933Y-84520438I-1025292J-31543D01*
G01*
M02*
