M48
; DRILL file {KiCad (6.0.10)} date Wed Feb  8 13:20:32 2023
; FORMAT={-:-/ absolute / inch / decimal}
; #@! TF.CreationDate,2023-02-08T13:20:32+00:00
; #@! TF.GenerationSoftware,Kicad,Pcbnew,(6.0.10)
; #@! TF.FileFunction,Plated,1,2,PTH
FMAT,2
INCH
; #@! TA.AperFunction,Plated,PTH,ViaDrill
T1C0.0157
; #@! TA.AperFunction,Plated,PTH,ComponentDrill
T2C0.0354
; #@! TA.AperFunction,Plated,PTH,ComponentDrill
T3C0.0374
; #@! TA.AperFunction,Plated,PTH,ComponentDrill
T4C0.0393
; #@! TA.AperFunction,Plated,PTH,ComponentDrill
T5C0.0394
; #@! TA.AperFunction,Plated,PTH,ComponentDrill
T6C0.0433
; #@! TA.AperFunction,Plated,PTH,ComponentDrill
T7C0.0591
; #@! TA.AperFunction,Plated,PTH,ComponentDrill
T8C0.0827
; #@! TA.AperFunction,Plated,PTH,ComponentDrill
T9C0.0906
%
G90
G05
T1
X3.6588Y-2.3368
X3.7476Y-5.3266
X3.7507Y-2.2348
X3.8057Y-2.2648
X3.8357Y-3.0548
X3.8407Y-2.3548
X3.8407Y-2.4598
X3.899Y-2.504
X3.9007Y-2.9048
X3.909Y-2.156
X3.9346Y-5.8502
X3.9503Y-3.492
X3.996Y-2.901
X4.015Y-2.234
X4.0507Y-2.3498
X4.0557Y-2.4598
X4.118Y-2.894
X4.229Y-3.221
X4.251Y-2.714
X4.289Y-3.153
X4.3392Y-2.2698
X4.3598Y-4.93
X4.3598Y-5.1052
X4.387Y-3.111
X4.387Y-3.3909
X4.4095Y-5.2425
X4.4499Y-3.9904
X4.4838Y-2.9014
X4.4877Y-4.992
X4.4966Y-5.2095
X4.5114Y-5.9644
X4.5123Y-4.053
X4.5407Y-5.1898
X4.5448Y-4.992
X4.5478Y-3.802
X4.5901Y-5.1898
X4.6441Y-3.9911
X4.6462Y-5.2774
X4.6649Y-4.8473
X4.6659Y-5.1121
X4.7264Y-4.3022
X4.7456Y-3.116
X4.7507Y-2.7898
X4.7751Y-3.0589
X4.781Y-3.1514
X4.7907Y-2.7598
X4.8007Y-4.3384
X4.8913Y-4.4624
X4.909Y-4.6436
X4.924Y-2.302
X4.9444Y-4.2124
X4.9679Y-2.872
X4.972Y-5.2794
X5.1177Y-4.1229
X5.1964Y-4.0284
X5.2121Y-3.8817
X5.223Y-3.6721
X5.2357Y-2.6648
X5.281Y-2.8483
X5.2978Y-3.676
X5.3057Y-2.2998
X5.3057Y-3.0998
X5.3086Y-2.8817
X5.3381Y-2.9152
X5.3415Y-3.4232
X5.3657Y-2.9526
X5.3657Y-3.0948
X5.366Y-3.632
X5.3677Y-5.2735
X5.3696Y-5.6337
X5.3893Y-4.8286
X5.3957Y-5.0748
X5.404Y-3.654
X5.4149Y-2.4408
X5.4326Y-3.9752
X5.4366Y-5.1672
X5.4453Y-2.3331
X5.4464Y-6.2577
X5.448Y-3.602
X5.474Y-2.4723
X5.4799Y-6.2065
X5.482Y-3.65
X5.4838Y-5.2754
X5.486Y-3.61
X5.5114Y-2.5038
X5.5163Y-3.6682
X5.5207Y-5.1748
X5.5389Y-2.5432
X5.5406Y-2.1476
X5.5507Y-2.2598
X5.5659Y-3.3839
X5.6112Y-3.4833
X5.6217Y-2.1913
X5.624Y-2.3988
X5.6248Y-2.322
X5.6423Y-3.8296
X5.6905Y-5.0392
X5.781Y-3.6012
X5.8125Y-4.5235
X5.8407Y-2.8798
X5.848Y-4.1613
X5.8814Y-5.0983
X5.8917Y-4.6569
X5.909Y-5.2794
X5.9707Y-2.7898
X5.9757Y-2.8398
X5.999Y-4.4872
X6.0143Y-4.2646
X6.1257Y-2.1098
X6.1343Y-5.6173
X6.1646Y-5.1118
X6.1736Y-4.0017
X6.228Y-2.08
X6.2377Y-4.0806
X6.2988Y-4.0786
X6.3145Y-5.8069
X6.348Y-5.0585
X6.3888Y-3.4833
X6.4164Y-2.9014
X6.4203Y-3.5049
X6.4356Y-4.2656
X6.4444Y-3.1475
X6.4764Y-3.4459
X6.479Y-3.092
X6.4818Y-3.1987
X6.5488Y-3.425
X6.6157Y-5.366
X6.6807Y-2.0348
X6.7692Y-5.8483
X6.8775Y-6.0845
X7.313Y-2.2087
X7.3376Y-3.0787
X7.3484Y-3.0354
X7.3898Y-2.9154
X7.408Y-6.278
X7.466Y-3.6836
X7.502Y-3.0
X7.503Y-2.5748
X7.503Y-3.503
X7.5108Y-3.3238
X7.5315Y-3.0787
X7.5409Y-2.4179
X7.5436Y-2.7221
X7.5465Y-4.5085
X7.5758Y-2.9252
X7.5778Y-3.3829
X7.6102Y-4.7657
X7.6112Y-3.7539
X7.623Y-3.5069
X7.6722Y-2.499
X7.6909Y-3.0
X7.6909Y-3.0621
X7.6998Y-3.378
X7.7018Y-2.1752
X7.7096Y-2.2717
X7.7362Y-2.627
X7.747Y-3.5049
X7.748Y-4.053
X7.7864Y-2.9488
X7.815Y-3.3809
X7.8376Y-4.0148
X7.8435Y-3.0266
X7.877Y-3.5226
X7.918Y-4.111
X7.9232Y-2.564
X7.9636Y-2.4173
X8.002Y-3.0148
X8.0187Y-2.7618
X8.0315Y-4.5217
X8.0354Y-3.7136
X8.0394Y-5.2807
X8.056Y-6.322
X8.0659Y-2.9941
X8.0679Y-2.9449
X8.0694Y-3.7948
X8.1024Y-3.8455
X8.1132Y-2.6388
X8.1467Y-3.1476
X8.2136Y-4.0039
X8.2431Y-2.3356
X8.3022Y-3.9606
X8.3243Y-2.7751
X8.3297Y-2.5266
X8.3504Y-3.7037
X8.377Y-3.815
X8.3996Y-3.0689
X8.4006Y-3.7018
X8.436Y-3.4183
X8.4449Y-3.4557
X8.4528Y-3.4961
X8.4537Y-3.7392
X8.4547Y-3.9537
X8.503Y-3.7018
X8.503Y-3.9488
X8.5039Y-3.5236
X8.5157Y-3.001
X8.8051Y-3.2717
X8.8278Y-2.5482
X8.8287Y-3.7805
X8.838Y-4.45
X8.8612Y-3.937
X8.8652Y-3.8238
X8.8819Y-3.7726
X8.8976Y-2.4931
X8.8986Y-3.9774
X8.8986Y-4.0276
X8.9764Y-3.6122
X9.0787Y-4.9252
X9.1033Y-2.4045
X9.1762Y-4.1919
X9.182Y-5.098
X9.1821Y-3.6634
X9.2Y-2.482
X9.236Y-3.478
X9.2697Y-4.7244
X9.27Y-4.328
X9.27Y-4.376
X9.2746Y-3.9114
X9.2825Y-2.7057
X9.29Y-2.435
X9.2923Y-3.6201
X9.2931Y-4.5011
X9.3356Y-4.2116
X9.3366Y-4.0738
X9.3533Y-3.6781
X9.3661Y-3.9852
X9.3681Y-4.2815
X9.3927Y-2.7313
X9.3967Y-4.0719
X9.3996Y-3.6358
X9.4006Y-4.2539
X9.4173Y-4.7047
X9.4774Y-2.9419
X9.4833Y-5.5679
X9.5512Y-2.3189
X9.5522Y-2.187
X9.5815Y-5.5645
X9.598Y-4.038
X9.6014Y-2.688
X9.6998Y-3.1388
X9.749Y-3.1378
X9.784Y-4.092
X9.802Y-3.908
X9.8022Y-3.1356
X9.8051Y-2.6201
X9.8514Y-2.9232
X9.856Y-4.134
X9.898Y-4.532
X9.8996Y-3.1289
X9.9104Y-4.0738
X9.94Y-2.9232
X9.9469Y-3.0581
X9.9528Y-3.0
X9.9675Y-4.0512
X9.9744Y-3.5167
X9.992Y-4.23
X10.0069Y-3.2835
X10.01Y-3.968
X10.0413Y-4.1949
X10.0502Y-2.5128
X10.058Y-4.482
X10.0738Y-2.627
X10.0748Y-3.1703
X10.0797Y-3.3888
X10.1132Y-2.9685
X10.1181Y-2.3937
X10.125Y-2.3396
X10.1348Y-3.4252
X10.1801Y-4.3209
X10.189Y-3.9094
X10.1919Y-4.1516
X10.1969Y-4.1043
X10.24Y-3.377
X10.264Y-4.284
X10.2884Y-3.8976
X10.2963Y-3.6959
X10.2972Y-2.0699
X10.306Y-3.978
X10.3474Y-2.2057
X10.4163Y-2.2143
X10.4409Y-3.0246
X10.444Y-2.556
X10.4473Y-6.2712
X10.4478Y-2.9085
X10.526Y-2.046
X10.581Y-2.147
X10.616Y-2.06
X10.637Y-2.853
X10.6555Y-2.9508
X10.6634Y-2.4045
X10.6722Y-3.0049
X10.6772Y-3.2372
X10.804Y-3.787
T2
X4.441Y-2.6308
X4.441Y-2.8453
X4.441Y-3.0599
X4.441Y-3.2745
X4.541Y-2.6308
X4.541Y-2.8453
X4.541Y-3.0599
X4.541Y-3.2745
X4.641Y-2.6308
X4.641Y-2.8453
X4.641Y-3.0599
X4.641Y-3.2745
X5.9679Y-5.4163
X6.0679Y-5.4163
X6.1759Y-2.6308
X6.1759Y-2.8453
X6.1759Y-3.0599
X6.1759Y-3.2745
X6.2759Y-2.6308
X6.2759Y-2.8453
X6.2759Y-3.0599
X6.2759Y-3.2745
X6.3759Y-2.6308
X6.3759Y-2.8453
X6.3759Y-3.0599
X6.3759Y-3.2745
T3
X8.4476Y-5.4677
X8.5461Y-5.4677
X8.6248Y-5.4677
X8.7232Y-5.4677
T4
X8.7283Y-5.992
X8.7283Y-6.092
X8.8283Y-5.992
X8.8283Y-6.092
X8.9283Y-5.992
X8.9283Y-6.092
X9.0283Y-5.992
X9.0283Y-6.092
X9.1283Y-5.992
X9.1283Y-6.092
X9.2283Y-5.992
X9.2283Y-6.092
X9.3283Y-5.992
X9.3283Y-6.092
X9.4283Y-5.992
X9.4283Y-6.092
T5
X4.8466Y-2.1888
X4.8466Y-2.366
X4.8761Y-2.6672
X4.8761Y-3.238
X4.9745Y-3.238
X5.073Y-2.6672
X5.073Y-3.238
X5.1025Y-2.1888
X5.1025Y-2.366
X5.7144Y-2.1888
X5.7144Y-2.366
X5.7439Y-2.6672
X5.7439Y-3.238
X5.8424Y-3.238
X5.9408Y-2.6672
X5.9408Y-3.238
X5.9703Y-2.1888
X5.9703Y-2.366
X6.8494Y-5.305
X6.8494Y-5.5609
X7.0265Y-5.305
X7.0265Y-5.5609
X8.1014Y-2.245
X8.1014Y-2.845
X8.2014Y-2.245
X8.2014Y-2.845
X8.3014Y-2.245
X8.3014Y-2.845
X8.4014Y-2.245
X8.4014Y-2.845
X8.5014Y-2.245
X8.5014Y-2.845
X8.6014Y-2.245
X8.6014Y-2.845
X8.7014Y-2.245
X8.7014Y-2.845
X8.8014Y-2.245
X8.8014Y-2.845
X8.9014Y-2.245
X8.9014Y-2.845
X9.0014Y-2.245
X9.0014Y-2.845
X9.1014Y-2.245
X9.1014Y-2.845
X9.2014Y-2.245
X9.2014Y-2.845
X9.3014Y-2.245
X9.3014Y-2.845
X9.4014Y-2.245
X9.4014Y-2.845
X9.5014Y-2.245
X9.5014Y-2.845
X9.6014Y-2.245
X9.6014Y-2.845
X9.7014Y-2.245
X9.7014Y-2.845
X9.8014Y-2.245
X9.8014Y-2.845
X9.9014Y-2.245
X9.9014Y-2.845
X10.0014Y-2.245
X10.0014Y-2.845
T6
X3.8647Y-5.1625
X3.8647Y-5.2806
X3.8647Y-5.6152
X3.8647Y-5.742
X3.8647Y-5.8601
X3.8647Y-6.1947
X4.008Y-4.8719
X4.0083Y-4.021
X4.1064Y-4.8719
X4.1067Y-4.021
X4.2048Y-4.8719
X4.2052Y-4.021
X4.2953Y-5.1625
X4.2953Y-5.2806
X4.2953Y-5.6152
X4.2953Y-5.7425
X4.2953Y-5.8606
X4.2953Y-6.1952
X4.7259Y-5.1625
X4.7259Y-5.2806
X4.7259Y-5.6152
X4.7259Y-5.7425
X4.7259Y-5.8606
X4.7259Y-6.1952
X4.8728Y-4.8738
X4.8761Y-4.021
X4.9712Y-4.8738
X4.9745Y-4.021
X5.0696Y-4.8738
X5.073Y-4.021
X5.1565Y-5.1625
X5.1565Y-5.2806
X5.1565Y-5.6152
X5.1565Y-5.7425
X5.1565Y-5.8606
X5.1565Y-6.1952
X5.5871Y-5.1625
X5.5871Y-5.2806
X5.5871Y-5.6152
X5.5871Y-5.7425
X5.5871Y-5.8606
X5.5871Y-6.1952
X5.7376Y-4.8738
X5.7439Y-4.021
X5.836Y-4.8738
X5.8424Y-4.021
X5.9344Y-4.8738
X5.9408Y-4.021
X6.0177Y-5.7425
X6.0177Y-5.8606
X6.0177Y-6.1952
X6.468Y-5.1625
X6.468Y-5.2806
X6.468Y-5.6152
X6.468Y-5.7425
X6.468Y-5.8606
X6.468Y-6.1952
X6.6024Y-4.8713
X6.6117Y-4.021
X6.7008Y-4.8713
X6.7102Y-4.021
X6.7992Y-4.8713
X6.8086Y-4.021
X6.9379Y-5.7425
X6.9379Y-5.8606
X6.9379Y-6.1952
T8
X3.9292Y-4.5963
X3.9296Y-3.7454
X4.2836Y-4.5963
X4.2839Y-3.7454
X4.794Y-4.5983
X4.7974Y-3.7454
X5.1484Y-4.5983
X5.1517Y-3.7454
X5.6588Y-4.5983
X5.6652Y-3.7454
X6.0132Y-4.5983
X6.0195Y-3.7454
X6.5236Y-4.5958
X6.533Y-3.7454
X6.878Y-4.5958
X6.8873Y-3.7454
T9
X8.3268Y-5.361
X8.8441Y-5.361
T7
G00X4.7541Y-2.9684
M15
G01X4.7541Y-2.9172
M16
G05
G00X5.195Y-2.9684
M15
G01X5.195Y-2.9172
M16
G05
G00X5.6219Y-2.9684
M15
G01X5.6219Y-2.9172
M16
G05
G00X6.0628Y-2.9684
M15
G01X6.0628Y-2.9172
M16
G05
T0
M30
