M48
; DRILL file {KiCad (6.0.10)} date Mon Feb  6 20:53:37 2023
; FORMAT={-:-/ absolute / inch / decimal}
; #@! TF.CreationDate,2023-02-06T20:53:37+00:00
; #@! TF.GenerationSoftware,Kicad,Pcbnew,(6.0.10)
; #@! TF.FileFunction,Plated,1,2,PTH
FMAT,2
INCH
; #@! TA.AperFunction,Plated,PTH,ViaDrill
T1C0.0157
; #@! TA.AperFunction,Plated,PTH,ComponentDrill
T2C0.0177
; #@! TA.AperFunction,Plated,PTH,ComponentDrill
T3C0.0354
; #@! TA.AperFunction,Plated,PTH,ComponentDrill
T4C0.0374
; #@! TA.AperFunction,Plated,PTH,ComponentDrill
T5C0.0394
; #@! TA.AperFunction,Plated,PTH,ComponentDrill
T6C0.0433
; #@! TA.AperFunction,Plated,PTH,ComponentDrill
T7C0.0472
; #@! TA.AperFunction,Plated,PTH,ComponentDrill
T8C0.0512
; #@! TA.AperFunction,Plated,PTH,ComponentDrill
T9C0.0591
; #@! TA.AperFunction,Plated,PTH,ComponentDrill
T10C0.0827
; #@! TA.AperFunction,Plated,PTH,ComponentDrill
T11C0.0906
%
G90
G05
T1
X3.496Y-4.228
X3.565Y-3.606
X3.565Y-3.665
X3.565Y-5.976
X3.6151Y-3.225
X3.6171Y-2.786
X3.653Y-3.605
X3.6703Y-2.729
X3.6821Y-2.9986
X3.6875Y-3.2458
X3.7195Y-2.9475
X3.7436Y-3.3049
X3.75Y-3.95
X3.75Y-5.41
X3.75Y-5.58
X3.7751Y-3.2832
X3.81Y-4.64
X3.81Y-4.92
X3.912Y-5.153
X3.9619Y-4.6571
X3.9673Y-4.9863
X4.032Y-5.969
X4.11Y-4.799
X4.111Y-4.332
X4.238Y-5.866
X4.2502Y-2.6068
X4.28Y-4.68
X4.2858Y-4.9832
X4.316Y-2.389
X4.335Y-5.257
X4.41Y-4.65
X4.43Y-4.92
X4.43Y-5.35
X4.46Y-4.511
X4.472Y-4.422
X4.538Y-2.467
X4.5399Y-2.1988
X4.5527Y-3.2832
X4.5979Y-3.1838
X4.625Y-2.3431
X4.6525Y-2.3038
X4.6779Y-3.41
X4.6899Y-2.2723
X4.71Y-4.92
X4.71Y-5.24
X4.7159Y-3.402
X4.7178Y-2.2408
X4.72Y-4.05
X4.724Y-3.896
X4.73Y-5.58
X4.739Y-4.649
X4.742Y-4.367
X4.7599Y-3.454
X4.7979Y-3.432
X4.7982Y-2.7526
X4.806Y-5.038
X4.82Y-5.209
X4.8258Y-2.7152
X4.8553Y-2.6817
X4.868Y-4.314
X4.8693Y-3.2207
X4.8828Y-2.6483
X4.891Y-4.6
X4.902Y-5.555
X4.916Y-5.949
X4.926Y-4.679
X4.962Y-5.837
X4.972Y-4.353
X5.005Y-2.477
X5.006Y-3.255
X5.036Y-4.199
X5.04Y-2.294
X5.066Y-3.884
X5.13Y-3.56
X5.13Y-3.84
X5.13Y-4.205
X5.13Y-5.62
X5.16Y-2.285
X5.176Y-2.322
X5.1945Y-2.2495
X5.197Y-3.612
X5.207Y-3.92
X5.218Y-5.762
X5.22Y-4.31
X5.22Y-4.92
X5.227Y-3.133
X5.26Y-2.642
X5.276Y-4.739
X5.276Y-5.142
X5.279Y-4.598
X5.328Y-4.174
X5.3828Y-2.9514
X5.3888Y-2.8589
X5.4183Y-2.916
X5.432Y-4.578
X5.433Y-4.128
X5.459Y-2.604
X5.511Y-4.422
X5.535Y-4.874
X5.558Y-4.729
X5.56Y-4.453
X5.621Y-3.905
X5.66Y-5.24
X5.67Y-2.711
X5.684Y-4.271
X5.7Y-3.88
X5.7Y-4.04
X5.71Y-5.47
X5.72Y-4.59
X5.742Y-5.132
X5.876Y-5.74
X5.8785Y-2.3815
X5.884Y-2.442
X5.898Y-4.525
X5.903Y-4.62
X5.91Y-3.651
X5.968Y-3.686
X5.982Y-5.211
X6.003Y-4.49
X6.003Y-4.626
X6.003Y-4.862
X6.064Y-4.86
X6.081Y-5.28
X6.09Y-2.847
X6.09Y-4.001
X6.186Y-3.26
X6.2Y-3.217
X6.222Y-4.061
X6.254Y-4.026
X6.282Y-2.364
X6.294Y-4.35
X6.39Y-2.368
X6.434Y-4.531
X6.472Y-4.712
X6.492Y-4.348
X6.56Y-3.89
X6.5795Y-5.1065
X6.582Y-4.531
X6.596Y-5.551
X6.626Y-4.043
X6.64Y-4.799
X6.66Y-5.36
X6.671Y-3.611
X6.6881Y-4.6409
X6.722Y-4.145
X6.743Y-4.806
X6.7577Y-3.6625
X6.7612Y-4.1171
X6.83Y-4.638
X6.914Y-3.629
X7.038Y-4.336
X7.04Y-3.099
X7.04Y-3.56
X7.061Y-5.355
X7.232Y-4.619
X7.354Y-5.172
X7.392Y-2.808
X7.398Y-2.902
X7.436Y-5.232
X7.532Y-4.305
X7.54Y-3.16
X7.547Y-3.969
X7.565Y-2.011
X7.58Y-3.9
X7.605Y-2.512
X7.73Y-3.172
X7.734Y-4.995
X7.746Y-4.225
X7.903Y-3.239
X7.914Y-4.146
X7.978Y-4.348
X7.993Y-4.178
X8.06Y-2.4
X8.06Y-3.481
X8.104Y-2.564
X8.13Y-2.77
X8.13Y-3.365
X8.184Y-2.203
X8.2Y-3.881
X8.217Y-2.666
X8.239Y-2.361
X8.24Y-4.814
X8.257Y-4.598
X8.282Y-2.423
X8.421Y-5.862
X8.516Y-4.954
X8.597Y-4.366
X8.613Y-5.059
X8.636Y-4.696
X8.65Y-4.76
X8.657Y-2.606
X8.661Y-3.203
X8.671Y-4.599
X8.701Y-2.661
X8.725Y-2.973
X8.751Y-2.618
X8.768Y-2.237
X8.8055Y-4.9115
X8.827Y-5.709
X8.844Y-2.308
X8.849Y-5.186
X8.891Y-4.499
X8.892Y-2.361
X8.894Y-2.812
X8.902Y-5.208
X8.903Y-4.443
X8.9127Y-4.5533
X8.961Y-5.107
X9.031Y-4.153
X9.036Y-5.002
X9.038Y-4.207
X9.04Y-4.494
X9.056Y-2.307
X9.081Y-2.847
X9.138Y-4.887
X9.142Y-4.631
X9.144Y-3.34
X9.149Y-2.773
X9.152Y-2.397
X9.173Y-3.395
X9.2Y-2.562
X9.202Y-5.136
X9.318Y-2.449
X9.323Y-2.281
X9.633Y-3.904
X9.69Y-5.024
X9.846Y-4.078
X9.861Y-3.983
X9.9141Y-5.5011
X9.941Y-5.592
X9.982Y-4.026
X10.182Y-4.706
X10.182Y-4.842
X10.19Y-5.604
X10.25Y-5.602
X10.275Y-3.753
X10.321Y-3.7508
X10.345Y-2.491
X10.356Y-5.634
X10.367Y-2.871
X10.426Y-2.491
X10.437Y-5.921
X10.4941Y-5.5021
X10.499Y-5.943
X10.549Y-5.951
X10.559Y-2.094
X10.595Y-2.045
X10.597Y-5.993
T3
X3.7866Y-2.439
X3.7866Y-2.6535
X3.7866Y-2.8681
X3.7866Y-3.0827
X3.8866Y-2.439
X3.8866Y-2.6535
X3.8866Y-2.8681
X3.8866Y-3.0827
X3.9866Y-2.439
X3.9866Y-2.6535
X3.9866Y-2.8681
X3.9866Y-3.0827
X5.5214Y-2.439
X5.5214Y-2.6535
X5.5214Y-2.8681
X5.5214Y-3.0827
X5.572Y-1.905
X5.6214Y-2.439
X5.6214Y-2.6535
X5.6214Y-2.8681
X5.6214Y-3.0827
X5.7214Y-2.439
X5.7214Y-2.6535
X5.7214Y-2.8681
X5.7214Y-3.0827
X5.7295Y-1.905
X5.887Y-1.905
X10.3Y-4.8794
X10.3Y-4.9794
T4
X7.9782Y-3.688
X8.0766Y-3.688
X8.1554Y-3.688
X8.2538Y-3.688
T5
X3.7264Y-1.8064
X3.9036Y-1.8064
X4.1921Y-1.997
X4.1921Y-2.1742
X4.2217Y-2.4754
X4.2217Y-3.0463
X4.3201Y-3.0463
X4.4185Y-2.4754
X4.4185Y-3.0463
X4.448Y-1.997
X4.448Y-2.1742
X5.0599Y-1.997
X5.0599Y-2.1742
X5.0895Y-2.4754
X5.0895Y-3.0463
X5.1879Y-3.0463
X5.2863Y-2.4754
X5.2863Y-3.0463
X5.3158Y-1.997
X5.3158Y-2.1742
X5.637Y-4.4324
X5.637Y-5.0324
X5.737Y-4.4324
X5.737Y-5.0324
X5.837Y-4.4324
X5.837Y-5.0324
X5.937Y-4.4324
X5.937Y-5.0324
X6.037Y-4.4324
X6.037Y-5.0324
X6.137Y-4.4324
X6.137Y-5.0324
X6.237Y-4.4324
X6.237Y-5.0324
X6.337Y-4.4324
X6.337Y-5.0324
X6.437Y-4.4324
X6.437Y-5.0324
X6.537Y-4.4324
X6.537Y-5.0324
X6.597Y-2.034
X6.637Y-4.4324
X6.637Y-5.0324
X6.737Y-4.4324
X6.737Y-5.0324
X6.75Y-2.035
X6.837Y-4.4324
X6.837Y-5.0324
X6.937Y-4.4324
X6.937Y-5.0324
X7.037Y-4.4324
X7.037Y-5.0324
X7.137Y-4.4324
X7.137Y-5.0324
X7.237Y-4.4324
X7.237Y-5.0324
X7.337Y-4.4324
X7.337Y-5.0324
X7.437Y-4.4324
X7.437Y-5.0324
X7.537Y-4.4324
X7.537Y-5.0324
X8.5128Y-3.0362
X8.5128Y-3.1346
X8.6112Y-3.0362
X8.6112Y-3.1346
X8.7096Y-3.0362
X8.7096Y-3.1346
T6
X3.6511Y-3.7486
X3.6575Y-5.7121
X3.7496Y-3.7486
X3.7559Y-5.7121
X3.848Y-3.7486
X3.8543Y-5.7121
X4.6235Y-3.7486
X4.6298Y-5.7121
X4.7219Y-3.7486
X4.7282Y-5.7121
X4.8203Y-3.7486
X4.8267Y-5.7121
X5.5958Y-3.7486
X5.6021Y-5.7121
X5.6942Y-3.7486
X5.7006Y-5.7121
X5.7927Y-3.7486
X5.799Y-5.7121
X6.565Y-3.0152
X6.5681Y-3.7486
X6.5745Y-5.7121
X6.6634Y-3.0152
X6.6666Y-3.7486
X6.6729Y-5.7121
X6.7618Y-3.0152
X6.765Y-3.7486
X6.7713Y-5.7121
X7.5373Y-3.0177
X7.5405Y-3.7486
X7.5468Y-5.7121
X7.6357Y-3.0177
X7.6389Y-3.7486
X7.6452Y-5.7121
X7.7341Y-3.0177
X7.7373Y-3.7486
X7.7436Y-5.7121
X8.5128Y-3.7486
X8.5191Y-5.7121
X8.6112Y-3.7486
X8.6176Y-5.7121
X8.7096Y-3.7486
X8.716Y-5.7121
X9.4613Y-1.9376
X9.4613Y-2.3682
X9.4613Y-2.7988
X9.4613Y-3.2294
X9.4613Y-3.6521
X9.4613Y-4.0749
X9.4613Y-4.5055
X9.4613Y-5.3666
X9.4613Y-5.7972
X9.5794Y-1.9376
X9.5794Y-2.3682
X9.5794Y-2.7988
X9.5794Y-3.2294
X9.5794Y-3.6521
X9.5794Y-4.0749
X9.5794Y-4.5055
X9.5794Y-5.3666
X9.5794Y-5.7972
X9.9141Y-1.9376
X9.9141Y-2.3682
X9.9141Y-2.7988
X9.9141Y-3.2294
X9.9141Y-3.6521
X9.9141Y-4.0749
X9.9141Y-4.5055
X9.9141Y-5.3666
X9.9141Y-5.7972
X10.0408Y-1.9376
X10.0408Y-4.0749
X10.0413Y-2.3682
X10.0413Y-2.7988
X10.0413Y-3.2294
X10.0413Y-3.66
X10.0413Y-4.5055
X10.0413Y-5.3666
X10.0413Y-5.7972
X10.1589Y-1.9376
X10.1589Y-4.0749
X10.1594Y-2.3682
X10.1594Y-2.7988
X10.1594Y-3.2294
X10.1594Y-3.66
X10.1594Y-4.5055
X10.1594Y-5.3666
X10.1594Y-5.7972
X10.4936Y-1.9376
X10.4936Y-4.0749
X10.4941Y-2.3682
X10.4941Y-2.7988
X10.4941Y-3.2294
X10.4941Y-3.66
X10.4941Y-4.5055
X10.4941Y-5.3666
X10.4941Y-5.7972
T7
X5.4933Y-1.7377
X5.4933Y-1.9739
X5.9657Y-1.7377
X5.9657Y-1.9739
T8
X3.6772Y-1.9048
X3.9528Y-1.9048
T10
X3.5724Y-4.0241
X3.5787Y-5.4365
X3.9267Y-4.0241
X3.9331Y-5.4365
X4.5447Y-4.0241
X4.5511Y-5.4365
X4.8991Y-4.0241
X4.9054Y-5.4365
X5.5171Y-4.0241
X5.5234Y-5.4365
X5.8714Y-4.0241
X5.8777Y-5.4365
X6.4862Y-2.7396
X6.4894Y-4.0241
X6.4957Y-5.4365
X6.8406Y-2.7396
X6.8437Y-4.0241
X6.8501Y-5.4365
X7.4586Y-2.7421
X7.4617Y-4.0241
X7.4681Y-5.4365
X7.8129Y-2.7421
X7.8161Y-4.0241
X7.8224Y-5.4365
X8.4341Y-4.0241
X8.4404Y-5.4365
X8.7884Y-4.0241
X8.7947Y-5.4365
T11
X7.8573Y-3.5813
X8.3747Y-3.5813
T2
G00X6.3583Y-1.7575
M15
G01X6.3583Y-1.726
M16
G05
G00X6.6397Y-1.726
M15
G01X6.6397Y-1.7575
M16
G05
T6
G00X8.4242Y-2.7547
M15
G01X8.4242Y-2.7271
M16
G05
G00X8.7982Y-2.7547
M15
G01X8.7982Y-2.7271
M16
G05
T9
G00X4.0996Y-2.7766
M15
G01X4.0996Y-2.7254
M16
G05
G00X4.5406Y-2.7766
M15
G01X4.5406Y-2.7254
M16
G05
G00X4.9674Y-2.7766
M15
G01X4.9674Y-2.7254
M16
G05
G00X5.4084Y-2.7766
M15
G01X5.4084Y-2.7254
M16
G05
T0
M30
