%TF.GenerationSoftware,KiCad,Pcbnew,(6.0.10)*%
%TF.CreationDate,2023-02-08T13:20:32+00:00*%
%TF.ProjectId,fjol-daisy,666a6f6c-2d64-4616-9973-792e6b696361,rev?*%
%TF.SameCoordinates,Original*%
%TF.FileFunction,Soldermask,Bot*%
%TF.FilePolarity,Negative*%
%FSLAX46Y46*%
G04 Gerber Fmt 4.6, Leading zero omitted, Abs format (unit mm)*
G04 Created by KiCad (PCBNEW (6.0.10)) date 2023-02-08 13:20:32*
%MOMM*%
%LPD*%
G01*
G04 APERTURE LIST*
G04 Aperture macros list*
%AMRoundRect*
0 Rectangle with rounded corners*
0 $1 Rounding radius*
0 $2 $3 $4 $5 $6 $7 $8 $9 X,Y pos of 4 corners*
0 Add a 4 corners polygon primitive as box body*
4,1,4,$2,$3,$4,$5,$6,$7,$8,$9,$2,$3,0*
0 Add four circle primitives for the rounded corners*
1,1,$1+$1,$2,$3*
1,1,$1+$1,$4,$5*
1,1,$1+$1,$6,$7*
1,1,$1+$1,$8,$9*
0 Add four rect primitives between the rounded corners*
20,1,$1+$1,$2,$3,$4,$5,0*
20,1,$1+$1,$4,$5,$6,$7,0*
20,1,$1+$1,$6,$7,$8,$9,0*
20,1,$1+$1,$8,$9,$2,$3,0*%
G04 Aperture macros list end*
%ADD10C,1.853200*%
%ADD11R,0.740000X2.400000*%
%ADD12RoundRect,0.101600X-0.825000X0.825000X-0.825000X-0.825000X0.825000X-0.825000X0.825000X0.825000X0*%
%ADD13C,2.997200*%
%ADD14R,1.700000X1.700000*%
%ADD15C,1.700000*%
%ADD16C,1.422400*%
%ADD17R,2.000000X2.000000*%
%ADD18C,2.000000*%
%ADD19R,2.000000X3.200000*%
%ADD20R,1.800000X1.800000*%
%ADD21C,1.800000*%
%ADD22R,1.600000X1.500000*%
%ADD23C,1.600000*%
%ADD24C,3.000000*%
%ADD25C,0.800000*%
G04 APERTURE END LIST*
D10*
%TO.C,CV-RAT1*%
X141912082Y-157358929D03*
X141912082Y-148858929D03*
X141912082Y-145858929D03*
%TD*%
%TO.C,CV-REL1*%
X109100602Y-157358929D03*
X109100602Y-148858929D03*
X109100602Y-145858929D03*
%TD*%
%TO.C,CV-PM1*%
X152849242Y-157358929D03*
X152849242Y-148858929D03*
X152849242Y-145858929D03*
%TD*%
%TO.C,CV-RAT2*%
X120037762Y-157358929D03*
X120037762Y-148858929D03*
X120037762Y-145858929D03*
%TD*%
%TO.C,CV-PM2*%
X130974922Y-157358929D03*
X130974922Y-148858929D03*
X130974922Y-145858929D03*
%TD*%
%TO.C,LEFT-OUT1*%
X98163438Y-142626929D03*
X98163438Y-134126929D03*
X98163438Y-131126929D03*
%TD*%
%TO.C,GATE-OUT1*%
X164286402Y-142626929D03*
X164286402Y-134126929D03*
X164286402Y-131126929D03*
%TD*%
%TO.C,RIGHT-OUT1*%
X98163438Y-157346180D03*
X98163438Y-148846180D03*
X98163438Y-145846180D03*
%TD*%
%TO.C,CV-CTL2*%
X130974922Y-142626929D03*
X130974922Y-134126929D03*
X130974922Y-131126929D03*
%TD*%
%TO.C,cv-cutoff1*%
X141912082Y-142626929D03*
X141912082Y-134126929D03*
X141912082Y-131126929D03*
%TD*%
D11*
%TO.C,J2*%
X192785000Y-79650000D03*
X192785000Y-83550000D03*
X194055000Y-79650000D03*
X194055000Y-83550000D03*
X195325000Y-79650000D03*
X195325000Y-83550000D03*
X196595000Y-79650000D03*
X196595000Y-83550000D03*
X197865000Y-79650000D03*
X197865000Y-83550000D03*
%TD*%
D12*
%TO.C,ATTACK1*%
X172700338Y-123732280D03*
D10*
X170200338Y-123732280D03*
X167700338Y-123732280D03*
D13*
X174700338Y-116732280D03*
X165700338Y-116732280D03*
%TD*%
D12*
%TO.C,cutoff1*%
X128768338Y-123795780D03*
D10*
X126268338Y-123795780D03*
X123768338Y-123795780D03*
D13*
X130768338Y-116795780D03*
X121768338Y-116795780D03*
%TD*%
D12*
%TO.C,RELEASE1*%
X150734338Y-123795780D03*
D10*
X148234338Y-123795780D03*
X145734338Y-123795780D03*
D13*
X152734338Y-116795780D03*
X143734338Y-116795780D03*
%TD*%
D14*
%TO.C,sw-midi1*%
X178473562Y-141246180D03*
D15*
X178473562Y-134746180D03*
X173973562Y-141246180D03*
X173973562Y-134746180D03*
%TD*%
D12*
%TO.C,CTL2*%
X106802338Y-123747280D03*
D10*
X104302338Y-123747280D03*
X101802338Y-123747280D03*
D13*
X108802338Y-116747280D03*
X99802338Y-116747280D03*
%TD*%
D10*
%TO.C,MIDI-IN1*%
X176223562Y-157358929D03*
X176223562Y-148858929D03*
X176223562Y-145858929D03*
%TD*%
%TO.C,MIDI-THRU1*%
X164286402Y-157358929D03*
X164286402Y-148858929D03*
X164286402Y-145858929D03*
%TD*%
D16*
%TO.C,J1*%
X221698404Y-152196800D03*
X221698404Y-154736800D03*
X224238404Y-152196800D03*
X224238404Y-154736800D03*
X226778404Y-152196800D03*
X226778404Y-154736800D03*
X229318404Y-152196800D03*
X229318404Y-154736800D03*
X231858404Y-152196800D03*
X231858404Y-154736800D03*
X234398404Y-152196800D03*
X234398404Y-154736800D03*
X236938404Y-152196800D03*
X236938404Y-154736800D03*
X239478404Y-152196800D03*
X239478404Y-154736800D03*
%TD*%
D14*
%TO.C,sw-sel2*%
X123103372Y-60096180D03*
D15*
X129603372Y-60096180D03*
X123103372Y-55596180D03*
X129603372Y-55596180D03*
%TD*%
D17*
%TO.C,SW3*%
X150895905Y-82246180D03*
D18*
X145895905Y-82246180D03*
X148395905Y-82246180D03*
D19*
X153995905Y-74746180D03*
X142795905Y-74746180D03*
D18*
X145895905Y-67746180D03*
X150895905Y-67746180D03*
%TD*%
D17*
%TO.C,SW4*%
X128853372Y-82246180D03*
D18*
X123853372Y-82246180D03*
X126353372Y-82246180D03*
D19*
X120753372Y-74746180D03*
X131953372Y-74746180D03*
D18*
X123853372Y-67746180D03*
X128853372Y-67746180D03*
%TD*%
D10*
%TO.C,CV-CTL3*%
X120037762Y-142626929D03*
X120037762Y-134126929D03*
X120037762Y-131126929D03*
%TD*%
%TO.C,CV-CTL4*%
X109100602Y-142626929D03*
X109100602Y-134126929D03*
X109100602Y-131126929D03*
%TD*%
D20*
%TO.C,D5*%
X156867172Y-66821180D03*
D21*
X159407172Y-66821180D03*
X161947172Y-66821180D03*
%TD*%
D20*
%TO.C,D6*%
X156867172Y-72271180D03*
D21*
X159407172Y-72271180D03*
X161947172Y-72271180D03*
%TD*%
D20*
%TO.C,D7*%
X156867172Y-77721180D03*
D21*
X159407172Y-77721180D03*
X161947172Y-77721180D03*
%TD*%
D20*
%TO.C,D8*%
X156867172Y-83171180D03*
D21*
X159407172Y-83171180D03*
X161947172Y-83171180D03*
%TD*%
D20*
%TO.C,D9*%
X117882105Y-66821180D03*
D21*
X115342105Y-66821180D03*
X112802105Y-66821180D03*
%TD*%
D20*
%TO.C,D10*%
X117882105Y-72271180D03*
D21*
X115342105Y-72271180D03*
X112802105Y-72271180D03*
%TD*%
D20*
%TO.C,D11*%
X117882105Y-77721180D03*
D21*
X115342105Y-77721180D03*
X112802105Y-77721180D03*
%TD*%
D20*
%TO.C,D12*%
X117882105Y-83171180D03*
D21*
X115342105Y-83171180D03*
X112802105Y-83171180D03*
%TD*%
D14*
%TO.C,sw-sel1*%
X145145905Y-60096180D03*
D15*
X151645905Y-60096180D03*
X145145905Y-55596180D03*
X151645905Y-55596180D03*
%TD*%
D12*
%TO.C,PM2*%
X128853373Y-102133480D03*
D10*
X126353373Y-102133480D03*
X123853373Y-102133480D03*
D13*
X130853373Y-95133480D03*
X121853373Y-95133480D03*
%TD*%
D12*
%TO.C,RATIO1*%
X150895905Y-102133480D03*
D10*
X148395905Y-102133480D03*
X145895905Y-102133480D03*
D13*
X152895905Y-95133480D03*
X143895905Y-95133480D03*
%TD*%
D12*
%TO.C,RATIO2*%
X106810838Y-102133480D03*
D10*
X104310838Y-102133480D03*
X101810838Y-102133480D03*
D13*
X108810838Y-95133480D03*
X99810838Y-95133480D03*
%TD*%
D12*
%TO.C,PM1*%
X172938438Y-102133480D03*
D10*
X170438438Y-102133480D03*
X167938438Y-102133480D03*
D13*
X174938438Y-95133480D03*
X165938438Y-95133480D03*
%TD*%
D14*
%TO.C,A1*%
X205775000Y-57022500D03*
D15*
X208315000Y-57022500D03*
X210855000Y-57022500D03*
X213395000Y-57022500D03*
X215935000Y-57022500D03*
X218475000Y-57022500D03*
X221015000Y-57022500D03*
X223555000Y-57022500D03*
X226095000Y-57022500D03*
X228635000Y-57022500D03*
X231175000Y-57022500D03*
X233715000Y-57022500D03*
X236255000Y-57022500D03*
X238795000Y-57022500D03*
X241335000Y-57022500D03*
X243875000Y-57022500D03*
X246415000Y-57022500D03*
X248955000Y-57022500D03*
X251495000Y-57022500D03*
X254035000Y-57022500D03*
X254035000Y-72262500D03*
X251495000Y-72262500D03*
X248955000Y-72262500D03*
X246415000Y-72262500D03*
X243875000Y-72262500D03*
X241335000Y-72262500D03*
X238795000Y-72262500D03*
X236255000Y-72262500D03*
X233715000Y-72262500D03*
X231175000Y-72262500D03*
X228635000Y-72262500D03*
X226095000Y-72262500D03*
X223555000Y-72262500D03*
X221015000Y-72262500D03*
X218475000Y-72262500D03*
X215935000Y-72262500D03*
X213395000Y-72262500D03*
X210855000Y-72262500D03*
X208315000Y-72262500D03*
X205775000Y-72262500D03*
%TD*%
D22*
%TO.C,X1*%
X214570000Y-138880000D03*
D23*
X217070000Y-138880000D03*
X219070000Y-138880000D03*
X221570000Y-138880000D03*
D24*
X211500000Y-136170000D03*
X224640000Y-136170000D03*
%TD*%
D20*
%TO.C,D4*%
X154124242Y-137575000D03*
D21*
X151584242Y-137575000D03*
%TD*%
D25*
X158191200Y-52832000D03*
X125069600Y-58470800D03*
X274421600Y-96189800D03*
X225075000Y-100000000D03*
X214750000Y-100425000D03*
X212100000Y-94075000D03*
X228000000Y-91750000D03*
X215975000Y-94025000D03*
X225600000Y-95825000D03*
X271075000Y-76325000D03*
X211437500Y-70487500D03*
X205800000Y-97675000D03*
X196799200Y-102946200D03*
X235458000Y-109931200D03*
X251725000Y-103475000D03*
X258875000Y-105450000D03*
X255050000Y-106550000D03*
X261325000Y-99000000D03*
X235458000Y-111150400D03*
X254254000Y-100787200D03*
X248513600Y-103936800D03*
X248970800Y-99263200D03*
X236025000Y-91950000D03*
X261525000Y-93875000D03*
X240875000Y-141425000D03*
X260705600Y-108813600D03*
X243370100Y-141338300D03*
X236045900Y-114329100D03*
X140730000Y-54550000D03*
X107416600Y-81813400D03*
X142870000Y-58980000D03*
X142525000Y-88475000D03*
X111429800Y-79019400D03*
X138310000Y-59260000D03*
X111430000Y-86130000D03*
X141375000Y-85950000D03*
X137051438Y-128901180D03*
X142850000Y-60930000D03*
X142790000Y-55660000D03*
X107975400Y-68935600D03*
X120050000Y-109275000D03*
X113988438Y-126796180D03*
X140226438Y-131441180D03*
X115438438Y-126796180D03*
X108940600Y-80086200D03*
X110738438Y-125221180D03*
X115334438Y-131822180D03*
X129988438Y-104721180D03*
X224485200Y-113030000D03*
X201117200Y-104419400D03*
X197775000Y-74900000D03*
X204875000Y-76050000D03*
X251409200Y-115112800D03*
X204000000Y-114850000D03*
X191681100Y-114515900D03*
X189636400Y-93563600D03*
X204622400Y-160578800D03*
X265362500Y-159287500D03*
X204100000Y-94325000D03*
X148538438Y-105696180D03*
X147638438Y-114896180D03*
X247625000Y-79700000D03*
X193325000Y-95350000D03*
X95188438Y-135296180D03*
X121938438Y-110196180D03*
X125588438Y-106996180D03*
X99938438Y-148596180D03*
X138338438Y-158946180D03*
X136388438Y-143096180D03*
X171938438Y-148546180D03*
X136338438Y-133946180D03*
X144538438Y-127996180D03*
X174688438Y-154546180D03*
X92933209Y-59354409D03*
X97427438Y-77593180D03*
X134765438Y-78736180D03*
X134765438Y-58416180D03*
X132987438Y-67687180D03*
X155593438Y-53590180D03*
X148354438Y-73148180D03*
X140988438Y-57400180D03*
X169690438Y-51685180D03*
X126184938Y-72949680D03*
X257000000Y-60800000D03*
X257175000Y-59425000D03*
X155810000Y-142680000D03*
X168038438Y-136296180D03*
X136888438Y-122646180D03*
X185750000Y-56100000D03*
X203250000Y-76575000D03*
X233075000Y-106475000D03*
X186375000Y-78200000D03*
X191300000Y-78200000D03*
X192425000Y-74300000D03*
X195625000Y-55250000D03*
X199075000Y-101975000D03*
X140113438Y-93171180D03*
X156809638Y-101642380D03*
X134563438Y-93371180D03*
X113028572Y-101356046D03*
X143313438Y-97271180D03*
X158438438Y-103646180D03*
X146838438Y-91471180D03*
X159988438Y-103596180D03*
X137988438Y-100971180D03*
X139242800Y-92710000D03*
X117960106Y-101374512D03*
X131988438Y-102321180D03*
X114213438Y-132321180D03*
X163463438Y-108346180D03*
X124238438Y-113346180D03*
X152763438Y-108321180D03*
X116588438Y-131821180D03*
X225175000Y-97125000D03*
X212775000Y-96900000D03*
X210875000Y-100600000D03*
X226025000Y-102300000D03*
X215975000Y-100300000D03*
X226025000Y-101025000D03*
X258800000Y-99300000D03*
X234594400Y-88341200D03*
X261772400Y-101041200D03*
X190575000Y-65400000D03*
X230600000Y-125100000D03*
X206925000Y-79950000D03*
X211575000Y-64175000D03*
X250342400Y-105003600D03*
X237900000Y-101225000D03*
X193300000Y-121050000D03*
X255473200Y-113842800D03*
X235575000Y-99350000D03*
X208625000Y-101700000D03*
X201250000Y-65125000D03*
X188163200Y-159461200D03*
X250225000Y-74250000D03*
X259000000Y-104250000D03*
X206075000Y-67025000D03*
X249050000Y-66550000D03*
X243789200Y-102565200D03*
X252475000Y-74250000D03*
X195825000Y-57700000D03*
X260096000Y-85775800D03*
X253175000Y-102900000D03*
X204200000Y-134130000D03*
X237950000Y-108750000D03*
X187700000Y-74050000D03*
X253350000Y-89325000D03*
X253796800Y-107442000D03*
X258575000Y-109750000D03*
X124688438Y-117946180D03*
X126288438Y-134096180D03*
X138088438Y-131246180D03*
X114588438Y-151496180D03*
X149388438Y-129496180D03*
X149648338Y-118286280D03*
X161238438Y-128486562D03*
X156580000Y-129840000D03*
X152375000Y-113975000D03*
X110738438Y-129671180D03*
X112000938Y-133158680D03*
X118513438Y-129846180D03*
X118488438Y-123121180D03*
X118013438Y-134046180D03*
X136296400Y-92252800D03*
X137538438Y-61996180D03*
X137261600Y-92811600D03*
X139038438Y-62796180D03*
X138379200Y-91490800D03*
X139988438Y-63596180D03*
X139344400Y-91694000D03*
X140688438Y-64596180D03*
X166338438Y-86996180D03*
X164566600Y-78536800D03*
X162977180Y-73696180D03*
X164500000Y-87525000D03*
X163075000Y-89025000D03*
X164638438Y-81246180D03*
X162275000Y-88475000D03*
X163688438Y-79946180D03*
X134138438Y-72346180D03*
X113888438Y-73696180D03*
X121288438Y-77696180D03*
X134838438Y-73196180D03*
X135588438Y-74046180D03*
X120538438Y-79146180D03*
X121438438Y-80046180D03*
X136288438Y-74996180D03*
X132663438Y-93271180D03*
X115513438Y-96571180D03*
X150088438Y-134096180D03*
X160388438Y-147496180D03*
X209375000Y-59325000D03*
X204962500Y-96387500D03*
X233222800Y-129489200D03*
X224225000Y-64725000D03*
X255900000Y-80525000D03*
X271200000Y-82225000D03*
X255875000Y-66725000D03*
X233225000Y-93050000D03*
X213375000Y-94025000D03*
X114613438Y-102946180D03*
X132388438Y-98596180D03*
X139188438Y-157646180D03*
X139288438Y-133996180D03*
X110214420Y-57654180D03*
X120668438Y-70862180D03*
X97554438Y-59813180D03*
X96665438Y-57527180D03*
X102888438Y-59686180D03*
X121684438Y-70100180D03*
X97554438Y-62480180D03*
X95268438Y-56765180D03*
X101981000Y-56743600D03*
X151656438Y-70862180D03*
X103015438Y-62480180D03*
X151783438Y-72132180D03*
X268757400Y-54533800D03*
X265277600Y-64922400D03*
X231225000Y-61075000D03*
X248975000Y-79645000D03*
X238775000Y-108050000D03*
X235450000Y-120000000D03*
X239200000Y-119500000D03*
X238750000Y-92350000D03*
X238675000Y-103425000D03*
X237150000Y-103475000D03*
X251450000Y-79475000D03*
X237125000Y-106975000D03*
X237575000Y-93425000D03*
X269646400Y-52324000D03*
X267360400Y-51968400D03*
X264575000Y-56244200D03*
X270850000Y-61075000D03*
X261550000Y-52575000D03*
X242625000Y-55550000D03*
X242600000Y-58900000D03*
X262825000Y-56025000D03*
X99034600Y-63601600D03*
X99288600Y-54762400D03*
X214725000Y-94975000D03*
X224250000Y-96025000D03*
X256875000Y-75400000D03*
X265200000Y-76825000D03*
X226000000Y-63325000D03*
X255275000Y-63825000D03*
X99078438Y-73783180D03*
X136289438Y-78609180D03*
X233680000Y-63042800D03*
X265375000Y-73875000D03*
X270650000Y-74950000D03*
X235966000Y-61849000D03*
X194875000Y-63475000D03*
X235775000Y-68725000D03*
X196500000Y-66725000D03*
X191540000Y-61415000D03*
X135675000Y-86950000D03*
X101499218Y-73685400D03*
X100338438Y-88696180D03*
X104597200Y-73507600D03*
X254175000Y-83400000D03*
X270179800Y-72466200D03*
X238575000Y-69375000D03*
X203675000Y-70150000D03*
X240725000Y-74725000D03*
X191607500Y-69142500D03*
X243875000Y-68275000D03*
X202275000Y-61400000D03*
X223650000Y-83100000D03*
X246375000Y-79725000D03*
X186650000Y-77100000D03*
X190775000Y-84425000D03*
X199225000Y-76875000D03*
X192475000Y-85925000D03*
X195350000Y-76200000D03*
X195350000Y-77776200D03*
X190550000Y-76200000D03*
X195575000Y-85800000D03*
X204925000Y-74800000D03*
X198500000Y-85875000D03*
X190575000Y-88975000D03*
X214275000Y-86825000D03*
X193625000Y-89075000D03*
X214500000Y-87775000D03*
X196775000Y-89025000D03*
X214700000Y-88800000D03*
X216000000Y-89500000D03*
X200075000Y-89475000D03*
X216300000Y-76225000D03*
X252800000Y-76200000D03*
X257425000Y-87000000D03*
X256025000Y-86075000D03*
X213350000Y-77950000D03*
X252650000Y-77675000D03*
M02*
