%TF.GenerationSoftware,KiCad,Pcbnew,(6.0.10)*%
%TF.CreationDate,2023-02-06T20:53:37+00:00*%
%TF.ProjectId,fjol-desktop,666a6f6c-2d64-4657-936b-746f702e6b69,rev?*%
%TF.SameCoordinates,Original*%
%TF.FileFunction,Soldermask,Top*%
%TF.FilePolarity,Negative*%
%FSLAX46Y46*%
G04 Gerber Fmt 4.6, Leading zero omitted, Abs format (unit mm)*
G04 Created by KiCad (PCBNEW (6.0.10)) date 2023-02-06 20:53:37*
%MOMM*%
%LPD*%
G01*
G04 APERTURE LIST*
G04 Aperture macros list*
%AMRoundRect*
0 Rectangle with rounded corners*
0 $1 Rounding radius*
0 $2 $3 $4 $5 $6 $7 $8 $9 X,Y pos of 4 corners*
0 Add a 4 corners polygon primitive as box body*
4,1,4,$2,$3,$4,$5,$6,$7,$8,$9,$2,$3,0*
0 Add four circle primitives for the rounded corners*
1,1,$1+$1,$2,$3*
1,1,$1+$1,$4,$5*
1,1,$1+$1,$6,$7*
1,1,$1+$1,$8,$9*
0 Add four rect primitives between the rounded corners*
20,1,$1+$1,$2,$3,$4,$5,0*
20,1,$1+$1,$4,$5,$6,$7,0*
20,1,$1+$1,$6,$7,$8,$9,0*
20,1,$1+$1,$8,$9,$2,$3,0*%
G04 Aperture macros list end*
%ADD10C,1.853200*%
%ADD11RoundRect,0.101600X-0.825000X0.825000X-0.825000X-0.825000X0.825000X-0.825000X0.825000X0.825000X0*%
%ADD12C,2.997200*%
%ADD13R,1.800000X1.800000*%
%ADD14C,1.800000*%
%ADD15C,1.700000*%
%ADD16O,2.720000X3.240000*%
%ADD17R,2.000000X2.000000*%
%ADD18C,2.000000*%
%ADD19R,2.000000X3.200000*%
%ADD20RoundRect,0.101600X0.825000X-0.825000X0.825000X0.825000X-0.825000X0.825000X-0.825000X-0.825000X0*%
%ADD21C,2.200000*%
%ADD22R,1.600000X1.500000*%
%ADD23C,1.600000*%
%ADD24C,3.000000*%
%ADD25O,1.050000X1.900000*%
%ADD26R,1.700000X1.700000*%
%ADD27C,0.800000*%
G04 APERTURE END LIST*
D10*
%TO.C,CV-PM3*%
X266537251Y-49214876D03*
X258037251Y-49214876D03*
X255037251Y-49214876D03*
%TD*%
%TO.C,CV-CTL2*%
X266550000Y-82026360D03*
X258050000Y-82026360D03*
X255050000Y-82026360D03*
%TD*%
%TO.C,mult1*%
X251818000Y-136312840D03*
X243318000Y-136312840D03*
X240318000Y-136312840D03*
%TD*%
D11*
%TO.C,FILT-DEC1*%
X142294340Y-145088300D03*
D10*
X144794340Y-145088300D03*
X147294340Y-145088300D03*
D12*
X140294340Y-138088300D03*
X149294340Y-138088300D03*
%TD*%
D11*
%TO.C,PM3*%
X92900000Y-145088300D03*
D10*
X95400000Y-145088300D03*
X97900000Y-145088300D03*
D12*
X90900000Y-138088300D03*
X99900000Y-138088300D03*
%TD*%
D10*
%TO.C,mult4*%
X266550000Y-147250000D03*
X258050000Y-147250000D03*
X255050000Y-147250000D03*
%TD*%
%TO.C,pitch1*%
X251818000Y-103501356D03*
X243318000Y-103501356D03*
X240318000Y-103501356D03*
%TD*%
D13*
%TO.C,D11*%
X140243833Y-72850000D03*
D14*
X142783833Y-72850000D03*
X145323833Y-72850000D03*
%TD*%
D13*
%TO.C,D9*%
X140243833Y-61950000D03*
D14*
X142783833Y-61950000D03*
X145323833Y-61950000D03*
%TD*%
D13*
%TO.C,D10*%
X140243833Y-67400000D03*
D14*
X142783833Y-67400000D03*
X145323833Y-67400000D03*
%TD*%
D11*
%TO.C,LFO-AMP1*%
X216385852Y-145088300D03*
D10*
X218885852Y-145088300D03*
X221385852Y-145088300D03*
D12*
X214385852Y-138088300D03*
X223385852Y-138088300D03*
%TD*%
D15*
%TO.C,sw-sel1*%
X112980033Y-55225000D03*
X106480033Y-55225000D03*
X112980033Y-50725000D03*
X106480033Y-50725000D03*
%TD*%
D10*
%TO.C,CV-CTL1*%
X251818000Y-82026360D03*
X243318000Y-82026360D03*
X240318000Y-82026360D03*
%TD*%
D16*
%TO.C,vol1*%
X213975000Y-69619000D03*
X223475000Y-69619000D03*
D13*
X216225000Y-77119000D03*
D14*
X218725000Y-77119000D03*
X221225000Y-77119000D03*
X216225000Y-79619000D03*
X218725000Y-79619000D03*
X221225000Y-79619000D03*
%TD*%
D11*
%TO.C,RELEASE1*%
X191447172Y-76650000D03*
D10*
X193947172Y-76650000D03*
X196447172Y-76650000D03*
D12*
X189447172Y-69650000D03*
X198447172Y-69650000D03*
%TD*%
D17*
%TO.C,SW4*%
X129272566Y-77375000D03*
D18*
X134272566Y-77375000D03*
X131772566Y-77375000D03*
D19*
X137372566Y-69875000D03*
X126172566Y-69875000D03*
D18*
X134272566Y-62875000D03*
X129272566Y-62875000D03*
%TD*%
D13*
%TO.C,D12*%
X140243833Y-78300000D03*
D14*
X142783833Y-78300000D03*
X145323833Y-78300000D03*
%TD*%
D20*
%TO.C,ATTACK2*%
X171830658Y-95213300D03*
D10*
X169330658Y-95213300D03*
X166830658Y-95213300D03*
D12*
X173830658Y-102213300D03*
X164830658Y-102213300D03*
%TD*%
D18*
%TO.C,d+1*%
X171450000Y-51689000D03*
%TD*%
D13*
%TO.C,D4*%
X261620000Y-123937000D03*
D14*
X261620000Y-126477000D03*
%TD*%
D10*
%TO.C,lfo-o1*%
X266537251Y-103501356D03*
X258037251Y-103501356D03*
X255037251Y-103501356D03*
%TD*%
%TO.C,gate-o1*%
X266550000Y-114438520D03*
X258050000Y-114438520D03*
X255050000Y-114438520D03*
%TD*%
D11*
%TO.C,LFO-FREQ1*%
X166991510Y-145088300D03*
D10*
X169491510Y-145088300D03*
X171991510Y-145088300D03*
D12*
X164991510Y-138088300D03*
X173991510Y-138088300D03*
%TD*%
D11*
%TO.C,LFO-WAVE1*%
X191688680Y-145088300D03*
D10*
X194188680Y-145088300D03*
X196688680Y-145088300D03*
D12*
X189688680Y-138088300D03*
X198688680Y-138088300D03*
%TD*%
D10*
%TO.C,CV-FILTDEC1*%
X251818000Y-92763858D03*
X243318000Y-92763858D03*
X240318000Y-92763858D03*
%TD*%
D18*
%TO.C,d-1*%
X167563800Y-51663600D03*
%TD*%
D10*
%TO.C,mult3*%
X251818000Y-147250000D03*
X243318000Y-147250000D03*
X240318000Y-147250000D03*
%TD*%
%TO.C,cv-cutoff1*%
X266550000Y-92963520D03*
X258050000Y-92963520D03*
X255050000Y-92963520D03*
%TD*%
%TO.C,CV-REL1*%
X251818000Y-71089200D03*
X243318000Y-71089200D03*
X240318000Y-71089200D03*
%TD*%
D13*
%TO.C,D7*%
X101258766Y-72850000D03*
D14*
X98718766Y-72850000D03*
X96178766Y-72850000D03*
%TD*%
D10*
%TO.C,env2-o1*%
X251818000Y-114438520D03*
X243318000Y-114438520D03*
X240318000Y-114438520D03*
%TD*%
D20*
%TO.C,RATIO2*%
X122436318Y-95213300D03*
D10*
X119936318Y-95213300D03*
X117436318Y-95213300D03*
D12*
X124436318Y-102213300D03*
X115436318Y-102213300D03*
%TD*%
D13*
%TO.C,D5*%
X101258766Y-61950000D03*
D14*
X98718766Y-61950000D03*
X96178766Y-61950000D03*
%TD*%
D20*
%TO.C,RELEASE2*%
X196527828Y-95213300D03*
D10*
X194027828Y-95213300D03*
X191527828Y-95213300D03*
D12*
X198527828Y-102213300D03*
X189527828Y-102213300D03*
%TD*%
D10*
%TO.C,mult2*%
X266550000Y-136312840D03*
X258050000Y-136312840D03*
X255050000Y-136312840D03*
%TD*%
%TO.C,CV-PM2*%
X251818000Y-49214876D03*
X243318000Y-49214876D03*
X240318000Y-49214876D03*
%TD*%
D20*
%TO.C,CUTOFF1*%
X147133488Y-95213300D03*
D10*
X144633488Y-95213300D03*
X142133488Y-95213300D03*
D12*
X149133488Y-102213300D03*
X140133488Y-102213300D03*
%TD*%
D11*
%TO.C,RATIO3*%
X117597170Y-145088300D03*
D10*
X120097170Y-145088300D03*
X122597170Y-145088300D03*
D12*
X115597170Y-138088300D03*
X124597170Y-138088300D03*
%TD*%
D10*
%TO.C,CV-REL2*%
X266550000Y-71089200D03*
X258050000Y-71089200D03*
X255050000Y-71089200D03*
%TD*%
D15*
%TO.C,sw-sel2*%
X135022566Y-55225000D03*
X128522566Y-55225000D03*
X135022566Y-50725000D03*
X128522566Y-50725000D03*
%TD*%
D10*
%TO.C,CV-RAT2*%
X251818000Y-60152040D03*
X243318000Y-60152040D03*
X240318000Y-60152040D03*
%TD*%
D20*
%TO.C,ENV2-AMP1*%
X221225000Y-95213300D03*
D10*
X218725000Y-95213300D03*
X216225000Y-95213300D03*
D12*
X223225000Y-102213300D03*
X214225000Y-102213300D03*
%TD*%
D20*
%TO.C,PM2*%
X97739148Y-95213300D03*
D10*
X95239148Y-95213300D03*
X92739148Y-95213300D03*
D12*
X99739148Y-102213300D03*
X90739148Y-102213300D03*
%TD*%
D10*
%TO.C,CV-RAT3*%
X266550000Y-60152040D03*
X258050000Y-60152040D03*
X255050000Y-60152040D03*
%TD*%
D13*
%TO.C,D8*%
X101258766Y-78300000D03*
D14*
X98718766Y-78300000D03*
X96178766Y-78300000D03*
%TD*%
D17*
%TO.C,SW3*%
X107230033Y-77375000D03*
D18*
X112230033Y-77375000D03*
X109730033Y-77375000D03*
D19*
X104130033Y-69875000D03*
X115330033Y-69875000D03*
D18*
X112230033Y-62875000D03*
X107230033Y-62875000D03*
%TD*%
D11*
%TO.C,ATTACK1*%
X166750000Y-76586500D03*
D10*
X169250000Y-76586500D03*
X171750000Y-76586500D03*
D12*
X164750000Y-69586500D03*
X173750000Y-69586500D03*
%TD*%
D13*
%TO.C,D6*%
X101258766Y-67400000D03*
D14*
X98718766Y-67400000D03*
X96178766Y-67400000D03*
%TD*%
D21*
%TO.C,sw-midi1*%
X93401000Y-48383000D03*
X100401000Y-48383000D03*
D15*
X99151000Y-45883000D03*
X94651000Y-45883000D03*
%TD*%
%TO.C,line1*%
X199303333Y-46450000D03*
X199303333Y-53450000D03*
%TD*%
D22*
%TO.C,X1*%
X202646400Y-93675800D03*
D23*
X205146400Y-93675800D03*
X207146400Y-93675800D03*
X209646400Y-93675800D03*
D24*
X199576400Y-90965800D03*
X212716400Y-90965800D03*
%TD*%
D15*
%TO.C,headphone1*%
X183840000Y-46450000D03*
X183840000Y-53450000D03*
%TD*%
D25*
%TO.C,J1*%
X161499600Y-44240600D03*
X168649600Y-44240600D03*
%TD*%
D18*
%TO.C,SW1*%
X151528800Y-50137000D03*
X139528800Y-50137000D03*
X151528800Y-44137000D03*
X139528800Y-44137000D03*
D15*
X141528800Y-48387000D03*
X145528800Y-48387000D03*
X149528800Y-48387000D03*
%TD*%
D26*
%TO.C,A1*%
X143180000Y-112582500D03*
D15*
X145720000Y-112582500D03*
X148260000Y-112582500D03*
X150800000Y-112582500D03*
X153340000Y-112582500D03*
X155880000Y-112582500D03*
X158420000Y-112582500D03*
X160960000Y-112582500D03*
X163500000Y-112582500D03*
X166040000Y-112582500D03*
X168580000Y-112582500D03*
X171120000Y-112582500D03*
X173660000Y-112582500D03*
X176200000Y-112582500D03*
X178740000Y-112582500D03*
X181280000Y-112582500D03*
X183820000Y-112582500D03*
X186360000Y-112582500D03*
X188900000Y-112582500D03*
X191440000Y-112582500D03*
X191440000Y-127822500D03*
X188900000Y-127822500D03*
X186360000Y-127822500D03*
X183820000Y-127822500D03*
X181280000Y-127822500D03*
X178740000Y-127822500D03*
X176200000Y-127822500D03*
X173660000Y-127822500D03*
X171120000Y-127822500D03*
X168580000Y-127822500D03*
X166040000Y-127822500D03*
X163500000Y-127822500D03*
X160960000Y-127822500D03*
X158420000Y-127822500D03*
X155880000Y-127822500D03*
X153340000Y-127822500D03*
X150800000Y-127822500D03*
X148260000Y-127822500D03*
X145720000Y-127822500D03*
X143180000Y-127822500D03*
%TD*%
%TO.C,midi-thru1*%
X230230000Y-46450000D03*
X230230000Y-53450000D03*
%TD*%
%TO.C,midi-i1*%
X214766666Y-46450000D03*
X214766666Y-53450000D03*
%TD*%
D27*
X132765800Y-79578200D03*
X115637800Y-83394420D03*
X164388800Y-119684800D03*
X164896800Y-110439200D03*
X209727800Y-116789200D03*
X115312800Y-55849420D03*
X209296000Y-122275600D03*
X224637600Y-58623200D03*
X116787800Y-80869420D03*
X163423600Y-115087400D03*
X127152400Y-82677000D03*
X128016000Y-58267600D03*
X250088400Y-103581200D03*
X126288800Y-110566200D03*
X219354400Y-119278400D03*
X159867600Y-110490000D03*
X210362800Y-61544200D03*
X125120400Y-118846600D03*
X250469400Y-101168200D03*
X222275400Y-66497200D03*
X222707200Y-56819800D03*
X167182800Y-115087400D03*
X227609400Y-129717800D03*
X167119300Y-129705100D03*
X253542800Y-102260400D03*
X167538400Y-140995400D03*
X252501400Y-142036800D03*
X168656000Y-121894600D03*
X171272200Y-122072400D03*
X183692800Y-117322600D03*
X223660650Y-124751150D03*
X224764600Y-131724400D03*
X186791600Y-131368800D03*
X188874400Y-132892800D03*
X226110800Y-132283200D03*
X226382900Y-115653500D03*
X219710000Y-120904000D03*
X244678200Y-99161600D03*
X104419400Y-110032800D03*
X166624000Y-98806000D03*
X192532000Y-99060000D03*
X171645275Y-93026511D03*
X123647200Y-109575600D03*
X104394000Y-121894600D03*
X218770200Y-128498600D03*
X246126000Y-127609600D03*
X124231400Y-116840000D03*
X226136200Y-112852200D03*
X208711800Y-67716400D03*
X221005400Y-67589400D03*
X221615000Y-75514200D03*
X205841600Y-65125600D03*
X219989400Y-81356200D03*
X219887800Y-66192400D03*
X225831400Y-114274600D03*
X232460800Y-60883800D03*
X203022200Y-106121200D03*
X232384600Y-70434200D03*
X202641200Y-110439200D03*
X178765200Y-110134400D03*
X229387400Y-105486200D03*
X171735509Y-104574561D03*
X157480000Y-81711800D03*
X158851600Y-102260400D03*
X158038800Y-103149400D03*
X170738800Y-105283000D03*
X157124400Y-82804000D03*
X132003800Y-91744800D03*
X132257800Y-99568000D03*
X168300400Y-102692200D03*
X92786200Y-91567000D03*
X159562800Y-60045600D03*
X162306000Y-60147200D03*
X131064000Y-58039000D03*
X149313900Y-60490100D03*
X127127000Y-62915800D03*
X149453600Y-62026800D03*
X131470400Y-58978800D03*
X133604000Y-67106800D03*
X115265200Y-62661800D03*
X151587200Y-93624400D03*
X90551000Y-93091000D03*
X150114000Y-92735400D03*
X90551000Y-91592400D03*
X109626400Y-60680600D03*
X88798400Y-107391200D03*
X128676400Y-98653600D03*
X142773400Y-99187000D03*
X127914400Y-106654600D03*
X204724000Y-60960000D03*
X178816000Y-90424000D03*
X204724000Y-88417400D03*
X178816000Y-78714600D03*
X206502000Y-70358000D03*
X206502000Y-85471000D03*
X232994200Y-86233000D03*
X232105200Y-124129800D03*
X232257600Y-84836000D03*
X232206800Y-117627400D03*
X131940300Y-57137300D03*
X123680980Y-81805020D03*
X107954281Y-66213519D03*
X138658600Y-66141600D03*
X192151000Y-51079400D03*
X193167000Y-63804800D03*
X262154668Y-95270466D03*
X132537200Y-146354800D03*
X144373600Y-108483400D03*
X132588000Y-124968000D03*
X132588000Y-109474000D03*
X260350000Y-142290800D03*
X144780000Y-102616000D03*
X122428000Y-132308600D03*
X152476200Y-123494800D03*
X151942800Y-132359400D03*
X122072400Y-127965200D03*
X258826000Y-142341600D03*
X143764000Y-133096000D03*
X119634000Y-133096000D03*
X149250400Y-145796000D03*
X260985000Y-95326200D03*
X119634000Y-124968000D03*
X145034000Y-138938000D03*
X141173200Y-120116600D03*
X141224000Y-113106200D03*
X113284000Y-114579400D03*
X139979400Y-112318800D03*
X140589000Y-123799600D03*
X113588800Y-112318800D03*
X124510800Y-141097000D03*
X266674600Y-150952200D03*
X264820400Y-63271400D03*
X124866400Y-151104600D03*
X112522000Y-124968000D03*
X112522000Y-135890000D03*
X100769200Y-126651800D03*
X99364800Y-130886200D03*
X134010400Y-120370600D03*
X134010400Y-130606800D03*
X263042400Y-143103600D03*
X213893400Y-148894800D03*
X224205800Y-145008600D03*
X191693800Y-100812600D03*
X126034800Y-148259800D03*
X120370600Y-118084600D03*
X120446800Y-110921800D03*
X263321800Y-72923400D03*
X191312800Y-109347000D03*
X149809200Y-114935000D03*
X149936200Y-117348000D03*
X200736200Y-82270600D03*
X134086600Y-116789200D03*
X135331200Y-106019600D03*
X201015600Y-105308400D03*
X154025600Y-123444000D03*
X154457400Y-134112000D03*
X110109000Y-133527800D03*
X108859300Y-126573300D03*
X100633050Y-118289550D03*
X96774000Y-117856000D03*
X102412800Y-151612600D03*
X95250000Y-100330000D03*
X268198600Y-53187600D03*
X267944600Y-151155400D03*
X152476200Y-114046000D03*
X152476200Y-117500400D03*
X262763000Y-63271400D03*
X265099800Y-150393400D03*
X119888000Y-102870000D03*
X108712000Y-118872000D03*
X107645200Y-148996400D03*
X112014000Y-118110000D03*
X144780000Y-98552000D03*
X229514400Y-127050800D03*
X191516000Y-80264000D03*
X130302000Y-97536000D03*
X130302000Y-106807000D03*
X196342000Y-80568800D03*
X229616000Y-114147600D03*
X196748400Y-107315000D03*
X196443600Y-126873000D03*
X229565200Y-106857800D03*
X130302000Y-90424000D03*
X130302000Y-142748000D03*
X225856800Y-59969400D03*
X207873600Y-55956200D03*
X225907600Y-71424800D03*
X209270600Y-59969400D03*
X230657400Y-72313800D03*
X230022400Y-58597800D03*
X218363800Y-110896400D03*
X236804200Y-57937400D03*
X236677200Y-62204600D03*
X233680000Y-65074800D03*
X137998200Y-104851200D03*
X208280000Y-98577400D03*
X145288000Y-116586000D03*
X233730800Y-130454400D03*
X137972800Y-116281200D03*
X154686000Y-101625400D03*
X145846800Y-130352800D03*
X154686000Y-72313800D03*
X216306400Y-125831600D03*
X269163800Y-152222200D03*
X90551000Y-151790400D03*
X95250000Y-137414000D03*
X96774000Y-124968000D03*
X269113000Y-51943000D03*
X251818000Y-139727800D03*
X266550000Y-139753200D03*
X95250000Y-141732000D03*
X258622800Y-122986800D03*
X258622800Y-119532400D03*
X220243400Y-116814600D03*
X120142000Y-141732000D03*
X119989600Y-98958400D03*
X119831400Y-56915600D03*
X121866400Y-87172220D03*
X119124362Y-57715600D03*
X120901200Y-87731020D03*
X119783600Y-86410220D03*
X118174362Y-58515600D03*
X117474362Y-59515600D03*
X118818400Y-86613420D03*
X91874362Y-70765600D03*
X91824362Y-81915600D03*
X93662800Y-82444420D03*
X93224362Y-69315600D03*
X95087800Y-83944420D03*
X93524362Y-76165600D03*
X94474362Y-74865600D03*
X95887800Y-83394420D03*
X124024362Y-67265600D03*
X144018000Y-68859400D03*
X123324362Y-68115600D03*
X136874362Y-72615600D03*
X122574362Y-68965600D03*
X137624362Y-74065600D03*
X136724362Y-74965600D03*
X121874362Y-69915600D03*
X169443400Y-91719400D03*
X175615600Y-92176600D03*
X169877062Y-117879538D03*
X173482000Y-117805200D03*
X187756800Y-71323200D03*
X187909200Y-73710800D03*
X179349400Y-136017000D03*
X169164000Y-136144000D03*
M02*
