%TF.GenerationSoftware,KiCad,Pcbnew,(6.0.10)*%
%TF.CreationDate,2023-02-08T13:20:31+00:00*%
%TF.ProjectId,fjol-daisy,666a6f6c-2d64-4616-9973-792e6b696361,rev?*%
%TF.SameCoordinates,Original*%
%TF.FileFunction,Soldermask,Top*%
%TF.FilePolarity,Negative*%
%FSLAX46Y46*%
G04 Gerber Fmt 4.6, Leading zero omitted, Abs format (unit mm)*
G04 Created by KiCad (PCBNEW (6.0.10)) date 2023-02-08 13:20:31*
%MOMM*%
%LPD*%
G01*
G04 APERTURE LIST*
G04 Aperture macros list*
%AMRoundRect*
0 Rectangle with rounded corners*
0 $1 Rounding radius*
0 $2 $3 $4 $5 $6 $7 $8 $9 X,Y pos of 4 corners*
0 Add a 4 corners polygon primitive as box body*
4,1,4,$2,$3,$4,$5,$6,$7,$8,$9,$2,$3,0*
0 Add four circle primitives for the rounded corners*
1,1,$1+$1,$2,$3*
1,1,$1+$1,$4,$5*
1,1,$1+$1,$6,$7*
1,1,$1+$1,$8,$9*
0 Add four rect primitives between the rounded corners*
20,1,$1+$1,$2,$3,$4,$5,0*
20,1,$1+$1,$4,$5,$6,$7,0*
20,1,$1+$1,$6,$7,$8,$9,0*
20,1,$1+$1,$8,$9,$2,$3,0*%
G04 Aperture macros list end*
%ADD10RoundRect,0.250000X0.700000X-0.275000X0.700000X0.275000X-0.700000X0.275000X-0.700000X-0.275000X0*%
%ADD11RoundRect,0.243750X-0.243750X-0.456250X0.243750X-0.456250X0.243750X0.456250X-0.243750X0.456250X0*%
%ADD12RoundRect,0.243750X0.243750X0.456250X-0.243750X0.456250X-0.243750X-0.456250X0.243750X-0.456250X0*%
%ADD13RoundRect,0.150000X0.150000X-0.725000X0.150000X0.725000X-0.150000X0.725000X-0.150000X-0.725000X0*%
%ADD14RoundRect,0.137500X0.137500X-0.662500X0.137500X0.662500X-0.137500X0.662500X-0.137500X-0.662500X0*%
%ADD15RoundRect,0.150000X0.825000X0.150000X-0.825000X0.150000X-0.825000X-0.150000X0.825000X-0.150000X0*%
%ADD16RoundRect,0.243750X-0.456250X0.243750X-0.456250X-0.243750X0.456250X-0.243750X0.456250X0.243750X0*%
%ADD17RoundRect,0.250000X1.137500X0.550000X-1.137500X0.550000X-1.137500X-0.550000X1.137500X-0.550000X0*%
%ADD18RoundRect,0.243750X0.456250X-0.243750X0.456250X0.243750X-0.456250X0.243750X-0.456250X-0.243750X0*%
%ADD19RoundRect,0.250000X0.550000X-1.137500X0.550000X1.137500X-0.550000X1.137500X-0.550000X-1.137500X0*%
%ADD20RoundRect,0.250000X-0.550000X1.137500X-0.550000X-1.137500X0.550000X-1.137500X0.550000X1.137500X0*%
%ADD21R,2.500000X2.300000*%
%ADD22R,2.300000X2.500000*%
%ADD23R,1.560000X0.650000*%
%ADD24R,3.150000X1.000000*%
%ADD25R,3.000000X1.000000*%
%ADD26R,0.900000X0.800000*%
%ADD27R,1.500000X2.000000*%
%ADD28R,3.800000X2.000000*%
%ADD29R,2.000000X1.500000*%
%ADD30R,2.000000X3.800000*%
%ADD31RoundRect,0.101600X-0.800000X-1.000000X0.800000X-1.000000X0.800000X1.000000X-0.800000X1.000000X0*%
%ADD32RoundRect,0.101600X0.800000X1.000000X-0.800000X1.000000X-0.800000X-1.000000X0.800000X-1.000000X0*%
%ADD33R,0.800000X0.900000*%
%ADD34RoundRect,0.250000X-1.137500X-0.550000X1.137500X-0.550000X1.137500X0.550000X-1.137500X0.550000X0*%
%ADD35RoundRect,0.100000X0.100000X-0.637500X0.100000X0.637500X-0.100000X0.637500X-0.100000X-0.637500X0*%
%ADD36RoundRect,0.150000X-0.150000X0.662500X-0.150000X-0.662500X0.150000X-0.662500X0.150000X0.662500X0*%
%ADD37R,3.200000X2.514000*%
%ADD38RoundRect,0.250000X0.450000X-0.262500X0.450000X0.262500X-0.450000X0.262500X-0.450000X-0.262500X0*%
%ADD39RoundRect,0.150000X0.150000X-0.587500X0.150000X0.587500X-0.150000X0.587500X-0.150000X-0.587500X0*%
%ADD40RoundRect,0.250000X-0.450000X0.262500X-0.450000X-0.262500X0.450000X-0.262500X0.450000X0.262500X0*%
%ADD41RoundRect,0.250000X-0.262500X-0.450000X0.262500X-0.450000X0.262500X0.450000X-0.262500X0.450000X0*%
%ADD42RoundRect,0.250000X0.475000X-0.250000X0.475000X0.250000X-0.475000X0.250000X-0.475000X-0.250000X0*%
%ADD43RoundRect,0.250000X0.250000X-0.800000X0.250000X0.800000X-0.250000X0.800000X-0.250000X-0.800000X0*%
%ADD44RoundRect,0.218750X0.218750X0.381250X-0.218750X0.381250X-0.218750X-0.381250X0.218750X-0.381250X0*%
%ADD45RoundRect,0.250000X-0.475000X0.250000X-0.475000X-0.250000X0.475000X-0.250000X0.475000X0.250000X0*%
%ADD46RoundRect,0.150000X-0.825000X-0.150000X0.825000X-0.150000X0.825000X0.150000X-0.825000X0.150000X0*%
%ADD47RoundRect,0.250000X0.262500X0.450000X-0.262500X0.450000X-0.262500X-0.450000X0.262500X-0.450000X0*%
%ADD48C,1.853200*%
%ADD49RoundRect,0.101600X-0.825000X0.825000X-0.825000X-0.825000X0.825000X-0.825000X0.825000X0.825000X0*%
%ADD50C,2.997200*%
%ADD51R,1.700000X1.700000*%
%ADD52C,1.700000*%
%ADD53C,1.422400*%
%ADD54R,2.000000X2.000000*%
%ADD55C,2.000000*%
%ADD56R,2.000000X3.200000*%
%ADD57R,1.800000X1.800000*%
%ADD58C,1.800000*%
%ADD59R,1.600000X1.500000*%
%ADD60C,1.600000*%
%ADD61C,3.000000*%
%ADD62C,0.800000*%
G04 APERTURE END LIST*
D10*
%TO.C,L1*%
X243370100Y-146263100D03*
X243370100Y-143113100D03*
%TD*%
D11*
%TO.C,D3*%
X194007500Y-129794000D03*
X195882500Y-129794000D03*
%TD*%
D12*
%TO.C,L2*%
X261061200Y-129235200D03*
X259186200Y-129235200D03*
%TD*%
D13*
%TO.C,U6*%
X252984000Y-104429000D03*
X254254000Y-104429000D03*
X255524000Y-104429000D03*
X256794000Y-104429000D03*
X256794000Y-99279000D03*
X255524000Y-99279000D03*
X254254000Y-99279000D03*
X252984000Y-99279000D03*
%TD*%
D14*
%TO.C,U8*%
X210905000Y-98875000D03*
X212175000Y-98875000D03*
X213445000Y-98875000D03*
X214715000Y-98875000D03*
X215985000Y-98875000D03*
X217255000Y-98875000D03*
X218525000Y-98875000D03*
X219795000Y-98875000D03*
X219795000Y-92375000D03*
X218525000Y-92375000D03*
X217255000Y-92375000D03*
X215985000Y-92375000D03*
X214715000Y-92375000D03*
X213445000Y-92375000D03*
X212175000Y-92375000D03*
X210905000Y-92375000D03*
%TD*%
D15*
%TO.C,U10*%
X161776838Y-112111780D03*
X161776838Y-110841780D03*
X161776838Y-109571780D03*
X161776838Y-108301780D03*
X161776838Y-107031780D03*
X161776838Y-105761780D03*
X161776838Y-104491780D03*
X156826838Y-104491780D03*
X156826838Y-105761780D03*
X156826838Y-107031780D03*
X156826838Y-108301780D03*
X156826838Y-109571780D03*
X156826838Y-110841780D03*
X156826838Y-112111780D03*
%TD*%
D16*
%TO.C,C1*%
X272034000Y-121388900D03*
X272034000Y-123263900D03*
%TD*%
D17*
%TO.C,C2*%
X269905500Y-131826000D03*
X265780500Y-131826000D03*
%TD*%
D18*
%TO.C,C4*%
X245322000Y-124951500D03*
X245322000Y-123076500D03*
%TD*%
D17*
%TO.C,C6*%
X240887500Y-138425000D03*
X236762500Y-138425000D03*
%TD*%
D19*
%TO.C,C7*%
X198500000Y-155450000D03*
X198500000Y-151325000D03*
%TD*%
D16*
%TO.C,C8*%
X108613438Y-126721180D03*
X108613438Y-128596180D03*
%TD*%
%TO.C,C9*%
X120725938Y-126708680D03*
X120725938Y-128583680D03*
%TD*%
%TO.C,C15*%
X259080000Y-101043500D03*
X259080000Y-102918500D03*
%TD*%
D18*
%TO.C,C16*%
X250190000Y-103299500D03*
X250190000Y-101424500D03*
%TD*%
D12*
%TO.C,C19*%
X239787500Y-133100000D03*
X237912500Y-133100000D03*
%TD*%
%TO.C,C30*%
X255137500Y-109325000D03*
X253262500Y-109325000D03*
%TD*%
D16*
%TO.C,C32*%
X116299638Y-114245379D03*
X116299638Y-116120379D03*
%TD*%
%TO.C,C33*%
X113962838Y-114194580D03*
X113962838Y-116069580D03*
%TD*%
D18*
%TO.C,C42*%
X158023372Y-101659313D03*
X158023372Y-99784313D03*
%TD*%
%TO.C,C35*%
X114216838Y-101356046D03*
X114216838Y-99481046D03*
%TD*%
D16*
%TO.C,C36*%
X121688438Y-106121180D03*
X121688438Y-107996180D03*
%TD*%
D12*
%TO.C,C37*%
X166663438Y-108296180D03*
X164788438Y-108296180D03*
%TD*%
D16*
%TO.C,C38*%
X158124972Y-114296180D03*
X158124972Y-116171180D03*
%TD*%
%TO.C,C40*%
X160478705Y-114351578D03*
X160478705Y-116226578D03*
%TD*%
D18*
%TO.C,C41*%
X160580305Y-101676246D03*
X160580305Y-99801246D03*
%TD*%
%TO.C,C34*%
X119195238Y-101374512D03*
X119195238Y-99499512D03*
%TD*%
D11*
%TO.C,C46*%
X171064338Y-145830280D03*
X172939338Y-145830280D03*
%TD*%
D20*
%TO.C,C44*%
X251550000Y-82937500D03*
X251550000Y-87062500D03*
%TD*%
D16*
%TO.C,C45*%
X129286000Y-85524100D03*
X129286000Y-87399100D03*
%TD*%
D21*
%TO.C,D1*%
X237925000Y-144425000D03*
X233625000Y-144425000D03*
%TD*%
D22*
%TO.C,D2*%
X207937100Y-155277600D03*
X207937100Y-150977600D03*
%TD*%
D23*
%TO.C,IC1*%
X202175000Y-120250000D03*
X202175000Y-121200000D03*
X202175000Y-122150000D03*
X204875000Y-122150000D03*
X204875000Y-120250000D03*
%TD*%
D24*
%TO.C,J6*%
X134730589Y-94591180D03*
X139780589Y-94591180D03*
X134730589Y-97131180D03*
X139780589Y-97131180D03*
X134730589Y-99671180D03*
X139780589Y-99671180D03*
X134730589Y-102211180D03*
X139780589Y-102211180D03*
X134730589Y-104751180D03*
X139780589Y-104751180D03*
%TD*%
D25*
%TO.C,J10*%
X233078100Y-94595000D03*
X228038100Y-94595000D03*
X233078100Y-97135000D03*
X228038100Y-97135000D03*
X233078100Y-99675000D03*
X228038100Y-99675000D03*
X233078100Y-102215000D03*
X228038100Y-102215000D03*
X233078100Y-104755000D03*
X228038100Y-104755000D03*
%TD*%
D12*
%TO.C,L4*%
X230012500Y-145050000D03*
X228137500Y-145050000D03*
%TD*%
D18*
%TO.C,L5*%
X213715600Y-154313100D03*
X213715600Y-152438100D03*
%TD*%
D11*
%TO.C,L7*%
X137200938Y-57546180D03*
X139075938Y-57546180D03*
%TD*%
D16*
%TO.C,L8*%
X171811338Y-149733780D03*
X171811338Y-151608780D03*
%TD*%
D18*
%TO.C,L9*%
X178605838Y-151642280D03*
X178605838Y-149767280D03*
%TD*%
D16*
%TO.C,L10*%
X167760038Y-155037780D03*
X167760038Y-156912780D03*
%TD*%
D12*
%TO.C,L11*%
X165905000Y-153030000D03*
X164030000Y-153030000D03*
%TD*%
D26*
%TO.C,Q1*%
X165488438Y-140121180D03*
X165488438Y-138221180D03*
X163488438Y-139171180D03*
%TD*%
D11*
%TO.C,R1*%
X203430900Y-127812800D03*
X205305900Y-127812800D03*
%TD*%
D16*
%TO.C,R3*%
X194221100Y-111290100D03*
X194221100Y-113165100D03*
%TD*%
D18*
%TO.C,R4*%
X196824600Y-113131600D03*
X196824600Y-111256600D03*
%TD*%
D16*
%TO.C,R2*%
X249986800Y-123065300D03*
X249986800Y-124940300D03*
%TD*%
D11*
%TO.C,R8*%
X242775500Y-97409000D03*
X244650500Y-97409000D03*
%TD*%
D16*
%TO.C,R11*%
X126273372Y-118286280D03*
X126273372Y-120161280D03*
%TD*%
%TO.C,R12*%
X130988438Y-137708680D03*
X130988438Y-139583680D03*
%TD*%
%TO.C,R13*%
X104310838Y-118286280D03*
X104310838Y-120161280D03*
%TD*%
%TO.C,R14*%
X142088438Y-138046180D03*
X142088438Y-139921180D03*
%TD*%
%TO.C,R28*%
X148238438Y-97596180D03*
X148238438Y-99471180D03*
%TD*%
%TO.C,R29*%
X145204838Y-151799280D03*
X145204838Y-153674280D03*
%TD*%
%TO.C,R17*%
X104310838Y-98046180D03*
X104310838Y-99921180D03*
%TD*%
%TO.C,R18*%
X122916338Y-151799280D03*
X122916338Y-153674280D03*
%TD*%
%TO.C,R19*%
X118636438Y-114228446D03*
X118636438Y-116103446D03*
%TD*%
%TO.C,R20*%
X111626038Y-114211513D03*
X111626038Y-116086513D03*
%TD*%
D18*
%TO.C,R34*%
X155466438Y-101642380D03*
X155466438Y-99767380D03*
%TD*%
%TO.C,R22*%
X111727638Y-101337580D03*
X111727638Y-99462580D03*
%TD*%
D16*
%TO.C,R23*%
X148235905Y-118286280D03*
X148235905Y-120161280D03*
%TD*%
%TO.C,R24*%
X111994338Y-151799280D03*
X111994338Y-153674280D03*
%TD*%
%TO.C,R25*%
X170198438Y-118286280D03*
X170198438Y-120161280D03*
%TD*%
%TO.C,R26*%
X170413438Y-97621180D03*
X170413438Y-99496180D03*
%TD*%
%TO.C,R27*%
X156507838Y-151799280D03*
X156507838Y-153674280D03*
%TD*%
%TO.C,R15*%
X126188438Y-97446180D03*
X126188438Y-99321180D03*
%TD*%
%TO.C,R16*%
X134219338Y-151799280D03*
X134219338Y-153674280D03*
%TD*%
%TO.C,R31*%
X155771238Y-114314646D03*
X155771238Y-116189646D03*
%TD*%
%TO.C,R32*%
X162832438Y-114333112D03*
X162832438Y-116208112D03*
%TD*%
D18*
%TO.C,R33*%
X163137238Y-101693179D03*
X163137238Y-99818179D03*
%TD*%
%TO.C,R21*%
X116706038Y-101392978D03*
X116706038Y-99517978D03*
%TD*%
D11*
%TO.C,R30*%
X160463438Y-63846180D03*
X162338438Y-63846180D03*
%TD*%
%TO.C,R35*%
X156438438Y-63846180D03*
X158313438Y-63846180D03*
%TD*%
D18*
%TO.C,R50*%
X167810838Y-150689780D03*
X167810838Y-148814780D03*
%TD*%
%TO.C,R54*%
X98638438Y-140146180D03*
X98638438Y-138271180D03*
%TD*%
%TO.C,R55*%
X98338438Y-153496180D03*
X98338438Y-151621180D03*
%TD*%
D11*
%TO.C,R36*%
X160463438Y-69946180D03*
X162338438Y-69946180D03*
%TD*%
%TO.C,R37*%
X156438438Y-69946180D03*
X158313438Y-69946180D03*
%TD*%
D18*
%TO.C,R38*%
X167988438Y-139571180D03*
X167988438Y-137696180D03*
%TD*%
%TO.C,R40*%
X161238438Y-136021180D03*
X161238438Y-134146180D03*
%TD*%
D15*
%TO.C,U9*%
X117898338Y-111730780D03*
X117898338Y-110460780D03*
X117898338Y-109190780D03*
X117898338Y-107920780D03*
X117898338Y-106650780D03*
X117898338Y-105380780D03*
X117898338Y-104110780D03*
X112948338Y-104110780D03*
X112948338Y-105380780D03*
X112948338Y-106650780D03*
X112948338Y-107920780D03*
X112948338Y-109190780D03*
X112948338Y-110460780D03*
X112948338Y-111730780D03*
%TD*%
D27*
%TO.C,U11*%
X246650000Y-82125000D03*
X244350000Y-82125000D03*
D28*
X244350000Y-88425000D03*
D27*
X242050000Y-82125000D03*
%TD*%
D29*
%TO.C,U2*%
X261390600Y-121372600D03*
D30*
X267690600Y-123672600D03*
D29*
X261390600Y-123672600D03*
X261390600Y-125972600D03*
%TD*%
D31*
%TO.C,U3*%
X191744600Y-126093100D03*
X194284600Y-126093100D03*
X196824600Y-126093100D03*
X199364600Y-126093100D03*
D32*
X199364600Y-116553100D03*
X196824600Y-116553100D03*
X194284600Y-116553100D03*
X191744600Y-116553100D03*
%TD*%
D33*
%TO.C,U4*%
X246364800Y-127473200D03*
X244464800Y-127473200D03*
X245414800Y-129473200D03*
%TD*%
D18*
%TO.C,L6*%
X247650000Y-124940300D03*
X247650000Y-123065300D03*
%TD*%
D11*
%TO.C,R52*%
X160463438Y-75521180D03*
X162338438Y-75521180D03*
%TD*%
D12*
%TO.C,R53*%
X158313438Y-75521180D03*
X156438438Y-75521180D03*
%TD*%
D34*
%TO.C,C10*%
X265755100Y-154838400D03*
X269880100Y-154838400D03*
%TD*%
D11*
%TO.C,C17*%
X266880100Y-150368000D03*
X268755100Y-150368000D03*
%TD*%
D20*
%TO.C,C5*%
X240172000Y-123126500D03*
X240172000Y-127251500D03*
%TD*%
D24*
%TO.C,J7*%
X134730589Y-109931180D03*
X139780589Y-109931180D03*
X134730589Y-112471180D03*
X139780589Y-112471180D03*
X134730589Y-115011180D03*
X139780589Y-115011180D03*
X134730589Y-117551180D03*
X139780589Y-117551180D03*
X134730589Y-120091180D03*
X139780589Y-120091180D03*
X134730589Y-122631180D03*
X139780589Y-122631180D03*
X134730589Y-125171180D03*
X139780589Y-125171180D03*
X134730589Y-127711180D03*
X139780589Y-127711180D03*
%TD*%
D25*
%TO.C,J8*%
X233078100Y-109935000D03*
X228038100Y-109935000D03*
X233078100Y-112475000D03*
X228038100Y-112475000D03*
X233078100Y-115015000D03*
X228038100Y-115015000D03*
X233078100Y-117555000D03*
X228038100Y-117555000D03*
X233078100Y-120095000D03*
X228038100Y-120095000D03*
X233078100Y-122635000D03*
X228038100Y-122635000D03*
X233078100Y-125175000D03*
X228038100Y-125175000D03*
X233078100Y-127715000D03*
X228038100Y-127715000D03*
%TD*%
D24*
%TO.C,J5*%
X100338838Y-80107780D03*
X95288838Y-80107780D03*
X100338838Y-77567780D03*
X95288838Y-77567780D03*
X100338838Y-75027780D03*
X95288838Y-75027780D03*
X100338838Y-72487780D03*
X95288838Y-72487780D03*
X100338838Y-69947780D03*
X95288838Y-69947780D03*
X100338838Y-67407780D03*
X95288838Y-67407780D03*
X100338838Y-64867780D03*
X95288838Y-64867780D03*
X100338838Y-62327780D03*
X95288838Y-62327780D03*
X100338838Y-59787780D03*
X95288838Y-59787780D03*
%TD*%
D25*
%TO.C,J9*%
X267476600Y-80111600D03*
X272516600Y-80111600D03*
X267476600Y-77571600D03*
X272516600Y-77571600D03*
X267476600Y-75031600D03*
X272516600Y-75031600D03*
X267476600Y-72491600D03*
X272516600Y-72491600D03*
X267476600Y-69951600D03*
X272516600Y-69951600D03*
X267476600Y-67411600D03*
X272516600Y-67411600D03*
X267476600Y-64871600D03*
X272516600Y-64871600D03*
X267476600Y-62331600D03*
X272516600Y-62331600D03*
X267476600Y-59791600D03*
X272516600Y-59791600D03*
%TD*%
D18*
%TO.C,R41*%
X161213438Y-140096180D03*
X161213438Y-138221180D03*
%TD*%
%TO.C,R51*%
X160394038Y-150613580D03*
X160394038Y-148738580D03*
%TD*%
%TO.C,C3*%
X191681100Y-113131600D03*
X191681100Y-111256600D03*
%TD*%
D11*
%TO.C,R7*%
X242775500Y-107442000D03*
X244650500Y-107442000D03*
%TD*%
D12*
%TO.C,C31*%
X258637500Y-95200000D03*
X256762500Y-95200000D03*
%TD*%
D11*
%TO.C,C39*%
X148963438Y-79746180D03*
X150838438Y-79746180D03*
%TD*%
D12*
%TO.C,C43*%
X147188438Y-79746180D03*
X145313438Y-79746180D03*
%TD*%
D11*
%TO.C,C51*%
X127063438Y-79496180D03*
X128938438Y-79496180D03*
%TD*%
D12*
%TO.C,C52*%
X125163438Y-79496180D03*
X123288438Y-79496180D03*
%TD*%
D18*
%TO.C,R82*%
X151688438Y-75696180D03*
X151688438Y-73821180D03*
%TD*%
%TO.C,R83*%
X149488438Y-75696180D03*
X149488438Y-73821180D03*
%TD*%
%TO.C,R84*%
X147288438Y-75696180D03*
X147288438Y-73821180D03*
%TD*%
D16*
%TO.C,R85*%
X145088438Y-73821180D03*
X145088438Y-75696180D03*
%TD*%
D18*
%TO.C,R86*%
X129588438Y-75946180D03*
X129588438Y-74071180D03*
%TD*%
%TO.C,R87*%
X127338438Y-75946180D03*
X127338438Y-74071180D03*
%TD*%
%TO.C,R88*%
X125088438Y-75946180D03*
X125088438Y-74071180D03*
%TD*%
D16*
%TO.C,R89*%
X122838438Y-74071180D03*
X122838438Y-75946180D03*
%TD*%
D11*
%TO.C,R64*%
X160463438Y-81046180D03*
X162338438Y-81046180D03*
%TD*%
D12*
%TO.C,R65*%
X158313438Y-81046180D03*
X156438438Y-81046180D03*
%TD*%
D18*
%TO.C,R66*%
X106463438Y-128596180D03*
X106463438Y-126721180D03*
%TD*%
D16*
%TO.C,R67*%
X109113438Y-138083680D03*
X109113438Y-139958680D03*
%TD*%
D18*
%TO.C,R68*%
X122863438Y-128583680D03*
X122863438Y-126708680D03*
%TD*%
D16*
%TO.C,R69*%
X120100938Y-137933680D03*
X120100938Y-139808680D03*
%TD*%
%TO.C,R70*%
X110763438Y-126721180D03*
X110763438Y-128596180D03*
%TD*%
%TO.C,R71*%
X118588438Y-126708680D03*
X118588438Y-128583680D03*
%TD*%
D12*
%TO.C,R72*%
X114263438Y-64571180D03*
X112388438Y-64571180D03*
%TD*%
%TO.C,R73*%
X118363438Y-64571180D03*
X116488438Y-64571180D03*
%TD*%
%TO.C,R74*%
X114263438Y-69946180D03*
X112388438Y-69946180D03*
%TD*%
%TO.C,R75*%
X118363438Y-69946180D03*
X116488438Y-69946180D03*
%TD*%
%TO.C,R76*%
X114069100Y-75590400D03*
X112194100Y-75590400D03*
%TD*%
%TO.C,R77*%
X118363438Y-75521180D03*
X116488438Y-75521180D03*
%TD*%
%TO.C,R78*%
X114263438Y-81046180D03*
X112388438Y-81046180D03*
%TD*%
%TO.C,R79*%
X118363438Y-81046180D03*
X116488438Y-81046180D03*
%TD*%
D35*
%TO.C,U12*%
X132894600Y-89869300D03*
X133544600Y-89869300D03*
X134194600Y-89869300D03*
X134844600Y-89869300D03*
X135494600Y-89869300D03*
X136144600Y-89869300D03*
X136794600Y-89869300D03*
X137444600Y-89869300D03*
X138094600Y-89869300D03*
X138744600Y-89869300D03*
X139394600Y-89869300D03*
X140044600Y-89869300D03*
X140694600Y-89869300D03*
X141344600Y-89869300D03*
X141994600Y-89869300D03*
X142644600Y-89869300D03*
X142644600Y-82444300D03*
X141994600Y-82444300D03*
X141344600Y-82444300D03*
X140694600Y-82444300D03*
X140044600Y-82444300D03*
X139394600Y-82444300D03*
X138744600Y-82444300D03*
X138094600Y-82444300D03*
X137444600Y-82444300D03*
X136794600Y-82444300D03*
X136144600Y-82444300D03*
X135494600Y-82444300D03*
X134844600Y-82444300D03*
X134194600Y-82444300D03*
X133544600Y-82444300D03*
X132894600Y-82444300D03*
%TD*%
D18*
%TO.C,C11*%
X114188438Y-135396180D03*
X114188438Y-133521180D03*
%TD*%
D36*
%TO.C,U13*%
X116568438Y-124858680D03*
X115298438Y-124858680D03*
X114028438Y-124858680D03*
X112758438Y-124858680D03*
X112758438Y-130133680D03*
X114028438Y-130133680D03*
X115298438Y-130133680D03*
X116568438Y-130133680D03*
D37*
X114663438Y-127496180D03*
%TD*%
D38*
%TO.C,R42*%
X262925000Y-76812500D03*
X262925000Y-74987500D03*
%TD*%
D39*
%TO.C,Q3*%
X219725000Y-68412500D03*
X221625000Y-68412500D03*
X220675000Y-66537500D03*
%TD*%
D40*
%TO.C,R56*%
X190075000Y-61417500D03*
X190075000Y-63242500D03*
%TD*%
D41*
%TO.C,R62*%
X198025000Y-56825000D03*
X199850000Y-56825000D03*
%TD*%
%TO.C,R45*%
X259512500Y-97700000D03*
X261337500Y-97700000D03*
%TD*%
D38*
%TO.C,R80*%
X201525000Y-69142500D03*
X201525000Y-67317500D03*
%TD*%
D40*
%TO.C,R10*%
X190175000Y-71062500D03*
X190175000Y-72887500D03*
%TD*%
%TO.C,R60*%
X200600000Y-71062500D03*
X200600000Y-72887500D03*
%TD*%
%TO.C,R61*%
X198325000Y-71062500D03*
X198325000Y-72887500D03*
%TD*%
D38*
%TO.C,R44*%
X258800000Y-108587500D03*
X258800000Y-106762500D03*
%TD*%
D40*
%TO.C,R49*%
X193808333Y-85837500D03*
X193808333Y-87662500D03*
%TD*%
D38*
%TO.C,R57*%
X190125000Y-69142500D03*
X190125000Y-67317500D03*
%TD*%
D40*
%TO.C,R48*%
X190675000Y-85837500D03*
X190675000Y-87662500D03*
%TD*%
D42*
%TO.C,C21*%
X187850000Y-69200000D03*
X187850000Y-67300000D03*
%TD*%
%TO.C,C24*%
X195725000Y-72825000D03*
X195725000Y-70925000D03*
%TD*%
D41*
%TO.C,R63*%
X198087500Y-59025000D03*
X199912500Y-59025000D03*
%TD*%
D39*
%TO.C,Q2*%
X215775000Y-68412500D03*
X217675000Y-68412500D03*
X216725000Y-66537500D03*
%TD*%
D40*
%TO.C,R58*%
X196941666Y-85837500D03*
X196941666Y-87662500D03*
%TD*%
D42*
%TO.C,C22*%
X203750000Y-69200000D03*
X203750000Y-67300000D03*
%TD*%
D38*
%TO.C,R5*%
X154200000Y-142405000D03*
X154200000Y-140580000D03*
%TD*%
D40*
%TO.C,R43*%
X260625000Y-74962500D03*
X260625000Y-76787500D03*
%TD*%
D43*
%TO.C,U1*%
X249047000Y-143713200D03*
X251587000Y-143713200D03*
X259207000Y-143713200D03*
X261747000Y-143713200D03*
X259207000Y-133613200D03*
X249047000Y-133613200D03*
%TD*%
D40*
%TO.C,R59*%
X200075000Y-85837500D03*
X200075000Y-87662500D03*
%TD*%
%TO.C,R81*%
X201150000Y-61417500D03*
X201150000Y-63242500D03*
%TD*%
D44*
%TO.C,L12*%
X239562500Y-79975000D03*
X237437500Y-79975000D03*
%TD*%
D45*
%TO.C,C23*%
X203425000Y-61400000D03*
X203425000Y-63300000D03*
%TD*%
D42*
%TO.C,C13*%
X239550000Y-88650000D03*
X239550000Y-86750000D03*
%TD*%
D46*
%TO.C,U7*%
X193300000Y-61415000D03*
X193300000Y-62685000D03*
X193300000Y-63955000D03*
X193300000Y-65225000D03*
X193300000Y-66495000D03*
X193300000Y-67765000D03*
X193300000Y-69035000D03*
X198250000Y-69035000D03*
X198250000Y-67765000D03*
X198250000Y-66495000D03*
X198250000Y-65225000D03*
X198250000Y-63955000D03*
X198250000Y-62685000D03*
X198250000Y-61415000D03*
%TD*%
D39*
%TO.C,Q4*%
X223675000Y-68412500D03*
X225575000Y-68412500D03*
X224625000Y-66537500D03*
%TD*%
%TO.C,Q5*%
X227625000Y-68412500D03*
X229525000Y-68412500D03*
X228575000Y-66537500D03*
%TD*%
D47*
%TO.C,R46*%
X193187500Y-59025000D03*
X191362500Y-59025000D03*
%TD*%
%TO.C,R47*%
X193137500Y-56825000D03*
X191312500Y-56825000D03*
%TD*%
D40*
%TO.C,R9*%
X192300000Y-71062500D03*
X192300000Y-72887500D03*
%TD*%
D45*
%TO.C,C20*%
X188025000Y-61400000D03*
X188025000Y-63300000D03*
%TD*%
D48*
%TO.C,CV-RAT1*%
X141912082Y-157358929D03*
X141912082Y-148858929D03*
X141912082Y-145858929D03*
%TD*%
%TO.C,CV-REL1*%
X109100602Y-157358929D03*
X109100602Y-148858929D03*
X109100602Y-145858929D03*
%TD*%
%TO.C,CV-PM1*%
X152849242Y-157358929D03*
X152849242Y-148858929D03*
X152849242Y-145858929D03*
%TD*%
%TO.C,CV-RAT2*%
X120037762Y-157358929D03*
X120037762Y-148858929D03*
X120037762Y-145858929D03*
%TD*%
%TO.C,CV-PM2*%
X130974922Y-157358929D03*
X130974922Y-148858929D03*
X130974922Y-145858929D03*
%TD*%
%TO.C,LEFT-OUT1*%
X98163438Y-142626929D03*
X98163438Y-134126929D03*
X98163438Y-131126929D03*
%TD*%
%TO.C,GATE-OUT1*%
X164286402Y-142626929D03*
X164286402Y-134126929D03*
X164286402Y-131126929D03*
%TD*%
%TO.C,RIGHT-OUT1*%
X98163438Y-157346180D03*
X98163438Y-148846180D03*
X98163438Y-145846180D03*
%TD*%
%TO.C,CV-CTL2*%
X130974922Y-142626929D03*
X130974922Y-134126929D03*
X130974922Y-131126929D03*
%TD*%
%TO.C,cv-cutoff1*%
X141912082Y-142626929D03*
X141912082Y-134126929D03*
X141912082Y-131126929D03*
%TD*%
D49*
%TO.C,ATTACK1*%
X172700338Y-123732280D03*
D48*
X170200338Y-123732280D03*
X167700338Y-123732280D03*
D50*
X174700338Y-116732280D03*
X165700338Y-116732280D03*
%TD*%
D49*
%TO.C,cutoff1*%
X128768338Y-123795780D03*
D48*
X126268338Y-123795780D03*
X123768338Y-123795780D03*
D50*
X130768338Y-116795780D03*
X121768338Y-116795780D03*
%TD*%
D49*
%TO.C,RELEASE1*%
X150734338Y-123795780D03*
D48*
X148234338Y-123795780D03*
X145734338Y-123795780D03*
D50*
X152734338Y-116795780D03*
X143734338Y-116795780D03*
%TD*%
D51*
%TO.C,sw-midi1*%
X178473562Y-141246180D03*
D52*
X178473562Y-134746180D03*
X173973562Y-141246180D03*
X173973562Y-134746180D03*
%TD*%
D49*
%TO.C,CTL2*%
X106802338Y-123747280D03*
D48*
X104302338Y-123747280D03*
X101802338Y-123747280D03*
D50*
X108802338Y-116747280D03*
X99802338Y-116747280D03*
%TD*%
D48*
%TO.C,MIDI-IN1*%
X176223562Y-157358929D03*
X176223562Y-148858929D03*
X176223562Y-145858929D03*
%TD*%
%TO.C,MIDI-THRU1*%
X164286402Y-157358929D03*
X164286402Y-148858929D03*
X164286402Y-145858929D03*
%TD*%
D53*
%TO.C,J1*%
X221698404Y-152196800D03*
X221698404Y-154736800D03*
X224238404Y-152196800D03*
X224238404Y-154736800D03*
X226778404Y-152196800D03*
X226778404Y-154736800D03*
X229318404Y-152196800D03*
X229318404Y-154736800D03*
X231858404Y-152196800D03*
X231858404Y-154736800D03*
X234398404Y-152196800D03*
X234398404Y-154736800D03*
X236938404Y-152196800D03*
X236938404Y-154736800D03*
X239478404Y-152196800D03*
X239478404Y-154736800D03*
%TD*%
D51*
%TO.C,sw-sel2*%
X123103372Y-60096180D03*
D52*
X129603372Y-60096180D03*
X123103372Y-55596180D03*
X129603372Y-55596180D03*
%TD*%
D54*
%TO.C,SW3*%
X150895905Y-82246180D03*
D55*
X145895905Y-82246180D03*
X148395905Y-82246180D03*
D56*
X153995905Y-74746180D03*
X142795905Y-74746180D03*
D55*
X145895905Y-67746180D03*
X150895905Y-67746180D03*
%TD*%
D54*
%TO.C,SW4*%
X128853372Y-82246180D03*
D55*
X123853372Y-82246180D03*
X126353372Y-82246180D03*
D56*
X120753372Y-74746180D03*
X131953372Y-74746180D03*
D55*
X123853372Y-67746180D03*
X128853372Y-67746180D03*
%TD*%
D48*
%TO.C,CV-CTL3*%
X120037762Y-142626929D03*
X120037762Y-134126929D03*
X120037762Y-131126929D03*
%TD*%
%TO.C,CV-CTL4*%
X109100602Y-142626929D03*
X109100602Y-134126929D03*
X109100602Y-131126929D03*
%TD*%
D57*
%TO.C,D5*%
X156867172Y-66821180D03*
D58*
X159407172Y-66821180D03*
X161947172Y-66821180D03*
%TD*%
D57*
%TO.C,D6*%
X156867172Y-72271180D03*
D58*
X159407172Y-72271180D03*
X161947172Y-72271180D03*
%TD*%
D57*
%TO.C,D7*%
X156867172Y-77721180D03*
D58*
X159407172Y-77721180D03*
X161947172Y-77721180D03*
%TD*%
D57*
%TO.C,D8*%
X156867172Y-83171180D03*
D58*
X159407172Y-83171180D03*
X161947172Y-83171180D03*
%TD*%
D57*
%TO.C,D9*%
X117882105Y-66821180D03*
D58*
X115342105Y-66821180D03*
X112802105Y-66821180D03*
%TD*%
D57*
%TO.C,D10*%
X117882105Y-72271180D03*
D58*
X115342105Y-72271180D03*
X112802105Y-72271180D03*
%TD*%
D57*
%TO.C,D11*%
X117882105Y-77721180D03*
D58*
X115342105Y-77721180D03*
X112802105Y-77721180D03*
%TD*%
D57*
%TO.C,D12*%
X117882105Y-83171180D03*
D58*
X115342105Y-83171180D03*
X112802105Y-83171180D03*
%TD*%
D51*
%TO.C,sw-sel1*%
X145145905Y-60096180D03*
D52*
X151645905Y-60096180D03*
X145145905Y-55596180D03*
X151645905Y-55596180D03*
%TD*%
D49*
%TO.C,PM2*%
X128853373Y-102133480D03*
D48*
X126353373Y-102133480D03*
X123853373Y-102133480D03*
D50*
X130853373Y-95133480D03*
X121853373Y-95133480D03*
%TD*%
D49*
%TO.C,RATIO1*%
X150895905Y-102133480D03*
D48*
X148395905Y-102133480D03*
X145895905Y-102133480D03*
D50*
X152895905Y-95133480D03*
X143895905Y-95133480D03*
%TD*%
D49*
%TO.C,RATIO2*%
X106810838Y-102133480D03*
D48*
X104310838Y-102133480D03*
X101810838Y-102133480D03*
D50*
X108810838Y-95133480D03*
X99810838Y-95133480D03*
%TD*%
D49*
%TO.C,PM1*%
X172938438Y-102133480D03*
D48*
X170438438Y-102133480D03*
X167938438Y-102133480D03*
D50*
X174938438Y-95133480D03*
X165938438Y-95133480D03*
%TD*%
D51*
%TO.C,A1*%
X205775000Y-57022500D03*
D52*
X208315000Y-57022500D03*
X210855000Y-57022500D03*
X213395000Y-57022500D03*
X215935000Y-57022500D03*
X218475000Y-57022500D03*
X221015000Y-57022500D03*
X223555000Y-57022500D03*
X226095000Y-57022500D03*
X228635000Y-57022500D03*
X231175000Y-57022500D03*
X233715000Y-57022500D03*
X236255000Y-57022500D03*
X238795000Y-57022500D03*
X241335000Y-57022500D03*
X243875000Y-57022500D03*
X246415000Y-57022500D03*
X248955000Y-57022500D03*
X251495000Y-57022500D03*
X254035000Y-57022500D03*
X254035000Y-72262500D03*
X251495000Y-72262500D03*
X248955000Y-72262500D03*
X246415000Y-72262500D03*
X243875000Y-72262500D03*
X241335000Y-72262500D03*
X238795000Y-72262500D03*
X236255000Y-72262500D03*
X233715000Y-72262500D03*
X231175000Y-72262500D03*
X228635000Y-72262500D03*
X226095000Y-72262500D03*
X223555000Y-72262500D03*
X221015000Y-72262500D03*
X218475000Y-72262500D03*
X215935000Y-72262500D03*
X213395000Y-72262500D03*
X210855000Y-72262500D03*
X208315000Y-72262500D03*
X205775000Y-72262500D03*
%TD*%
D59*
%TO.C,X1*%
X214570000Y-138880000D03*
D60*
X217070000Y-138880000D03*
X219070000Y-138880000D03*
X221570000Y-138880000D03*
D61*
X211500000Y-136170000D03*
X224640000Y-136170000D03*
%TD*%
D57*
%TO.C,D4*%
X154124242Y-137575000D03*
D58*
X151584242Y-137575000D03*
%TD*%
D62*
X158191200Y-52832000D03*
X125069600Y-58470800D03*
X274421600Y-96189800D03*
X225075000Y-100000000D03*
X214750000Y-100425000D03*
X212100000Y-94075000D03*
X228000000Y-91750000D03*
X215975000Y-94025000D03*
X225600000Y-95825000D03*
X271075000Y-76325000D03*
X211437500Y-70487500D03*
X205800000Y-97675000D03*
X196799200Y-102946200D03*
X235458000Y-109931200D03*
X251725000Y-103475000D03*
X258875000Y-105450000D03*
X255050000Y-106550000D03*
X261325000Y-99000000D03*
X235458000Y-111150400D03*
X254254000Y-100787200D03*
X248513600Y-103936800D03*
X248970800Y-99263200D03*
X236025000Y-91950000D03*
X261525000Y-93875000D03*
X240875000Y-141425000D03*
X260705600Y-108813600D03*
X243370100Y-141338300D03*
X236045900Y-114329100D03*
X140730000Y-54550000D03*
X107416600Y-81813400D03*
X142870000Y-58980000D03*
X142525000Y-88475000D03*
X111429800Y-79019400D03*
X138310000Y-59260000D03*
X111430000Y-86130000D03*
X141375000Y-85950000D03*
X137051438Y-128901180D03*
X142850000Y-60930000D03*
X142790000Y-55660000D03*
X107975400Y-68935600D03*
X120050000Y-109275000D03*
X113988438Y-126796180D03*
X140226438Y-131441180D03*
X115438438Y-126796180D03*
X108940600Y-80086200D03*
X110738438Y-125221180D03*
X115334438Y-131822180D03*
X129988438Y-104721180D03*
X224485200Y-113030000D03*
X201117200Y-104419400D03*
X197775000Y-74900000D03*
X204875000Y-76050000D03*
X251409200Y-115112800D03*
X204000000Y-114850000D03*
X191681100Y-114515900D03*
X189636400Y-93563600D03*
X204622400Y-160578800D03*
X265362500Y-159287500D03*
X204100000Y-94325000D03*
X148538438Y-105696180D03*
X147638438Y-114896180D03*
X247625000Y-79700000D03*
X193325000Y-95350000D03*
X95188438Y-135296180D03*
X121938438Y-110196180D03*
X125588438Y-106996180D03*
X99938438Y-148596180D03*
X138338438Y-158946180D03*
X136388438Y-143096180D03*
X171938438Y-148546180D03*
X136338438Y-133946180D03*
X144538438Y-127996180D03*
X174688438Y-154546180D03*
X92933209Y-59354409D03*
X97427438Y-77593180D03*
X134765438Y-78736180D03*
X134765438Y-58416180D03*
X132987438Y-67687180D03*
X155593438Y-53590180D03*
X148354438Y-73148180D03*
X140988438Y-57400180D03*
X169690438Y-51685180D03*
X126184938Y-72949680D03*
X257000000Y-60800000D03*
X257175000Y-59425000D03*
X155810000Y-142680000D03*
X168038438Y-136296180D03*
X136888438Y-122646180D03*
X185750000Y-56100000D03*
X203250000Y-76575000D03*
X233075000Y-106475000D03*
X186375000Y-78200000D03*
X191300000Y-78200000D03*
X192425000Y-74300000D03*
X195625000Y-55250000D03*
X199075000Y-101975000D03*
X140113438Y-93171180D03*
X156809638Y-101642380D03*
X134563438Y-93371180D03*
X113028572Y-101356046D03*
X143313438Y-97271180D03*
X158438438Y-103646180D03*
X146838438Y-91471180D03*
X159988438Y-103596180D03*
X137988438Y-100971180D03*
X139242800Y-92710000D03*
X117960106Y-101374512D03*
X131988438Y-102321180D03*
X114213438Y-132321180D03*
X163463438Y-108346180D03*
X124238438Y-113346180D03*
X152763438Y-108321180D03*
X116588438Y-131821180D03*
X225175000Y-97125000D03*
X212775000Y-96900000D03*
X210875000Y-100600000D03*
X226025000Y-102300000D03*
X215975000Y-100300000D03*
X226025000Y-101025000D03*
X258800000Y-99300000D03*
X234594400Y-88341200D03*
X261772400Y-101041200D03*
X190575000Y-65400000D03*
X230600000Y-125100000D03*
X206925000Y-79950000D03*
X211575000Y-64175000D03*
X250342400Y-105003600D03*
X237900000Y-101225000D03*
X193300000Y-121050000D03*
X255473200Y-113842800D03*
X235575000Y-99350000D03*
X208625000Y-101700000D03*
X201250000Y-65125000D03*
X188163200Y-159461200D03*
X250225000Y-74250000D03*
X259000000Y-104250000D03*
X206075000Y-67025000D03*
X249050000Y-66550000D03*
X243789200Y-102565200D03*
X252475000Y-74250000D03*
X195825000Y-57700000D03*
X260096000Y-85775800D03*
X253175000Y-102900000D03*
X204200000Y-134130000D03*
X237950000Y-108750000D03*
X187700000Y-74050000D03*
X253350000Y-89325000D03*
X253796800Y-107442000D03*
X258575000Y-109750000D03*
X124688438Y-117946180D03*
X126288438Y-134096180D03*
X138088438Y-131246180D03*
X114588438Y-151496180D03*
X149388438Y-129496180D03*
X149648338Y-118286280D03*
X161238438Y-128486562D03*
X156580000Y-129840000D03*
X152375000Y-113975000D03*
X110738438Y-129671180D03*
X112000938Y-133158680D03*
X118513438Y-129846180D03*
X118488438Y-123121180D03*
X118013438Y-134046180D03*
X136296400Y-92252800D03*
X137538438Y-61996180D03*
X137261600Y-92811600D03*
X139038438Y-62796180D03*
X138379200Y-91490800D03*
X139988438Y-63596180D03*
X139344400Y-91694000D03*
X140688438Y-64596180D03*
X166338438Y-86996180D03*
X164566600Y-78536800D03*
X162977180Y-73696180D03*
X164500000Y-87525000D03*
X163075000Y-89025000D03*
X164638438Y-81246180D03*
X162275000Y-88475000D03*
X163688438Y-79946180D03*
X134138438Y-72346180D03*
X113888438Y-73696180D03*
X121288438Y-77696180D03*
X134838438Y-73196180D03*
X135588438Y-74046180D03*
X120538438Y-79146180D03*
X121438438Y-80046180D03*
X136288438Y-74996180D03*
X132663438Y-93271180D03*
X115513438Y-96571180D03*
X150088438Y-134096180D03*
X160388438Y-147496180D03*
X209375000Y-59325000D03*
X204962500Y-96387500D03*
X233222800Y-129489200D03*
X224225000Y-64725000D03*
X255900000Y-80525000D03*
X271200000Y-82225000D03*
X255875000Y-66725000D03*
X233225000Y-93050000D03*
X213375000Y-94025000D03*
X114613438Y-102946180D03*
X132388438Y-98596180D03*
X139188438Y-157646180D03*
X139288438Y-133996180D03*
X110214420Y-57654180D03*
X120668438Y-70862180D03*
X97554438Y-59813180D03*
X96665438Y-57527180D03*
X102888438Y-59686180D03*
X121684438Y-70100180D03*
X97554438Y-62480180D03*
X95268438Y-56765180D03*
X101981000Y-56743600D03*
X151656438Y-70862180D03*
X103015438Y-62480180D03*
X151783438Y-72132180D03*
X268757400Y-54533800D03*
X265277600Y-64922400D03*
X231225000Y-61075000D03*
X248975000Y-79645000D03*
X238775000Y-108050000D03*
X235450000Y-120000000D03*
X239200000Y-119500000D03*
X238750000Y-92350000D03*
X238675000Y-103425000D03*
X237150000Y-103475000D03*
X251450000Y-79475000D03*
X237125000Y-106975000D03*
X237575000Y-93425000D03*
X269646400Y-52324000D03*
X267360400Y-51968400D03*
X264575000Y-56244200D03*
X270850000Y-61075000D03*
X261550000Y-52575000D03*
X242625000Y-55550000D03*
X242600000Y-58900000D03*
X262825000Y-56025000D03*
X99034600Y-63601600D03*
X99288600Y-54762400D03*
X214725000Y-94975000D03*
X224250000Y-96025000D03*
X256875000Y-75400000D03*
X265200000Y-76825000D03*
X226000000Y-63325000D03*
X255275000Y-63825000D03*
X99078438Y-73783180D03*
X136289438Y-78609180D03*
X233680000Y-63042800D03*
X265375000Y-73875000D03*
X270650000Y-74950000D03*
X235966000Y-61849000D03*
X194875000Y-63475000D03*
X235775000Y-68725000D03*
X196500000Y-66725000D03*
X191540000Y-61415000D03*
X135675000Y-86950000D03*
X101499218Y-73685400D03*
X100338438Y-88696180D03*
X104597200Y-73507600D03*
X254175000Y-83400000D03*
X270179800Y-72466200D03*
X238575000Y-69375000D03*
X203675000Y-70150000D03*
X240725000Y-74725000D03*
X191607500Y-69142500D03*
X243875000Y-68275000D03*
X202275000Y-61400000D03*
X223650000Y-83100000D03*
X246375000Y-79725000D03*
X186650000Y-77100000D03*
X190775000Y-84425000D03*
X199225000Y-76875000D03*
X192475000Y-85925000D03*
X195350000Y-76200000D03*
X195350000Y-77776200D03*
X190550000Y-76200000D03*
X195575000Y-85800000D03*
X204925000Y-74800000D03*
X198500000Y-85875000D03*
X190575000Y-88975000D03*
X214275000Y-86825000D03*
X193625000Y-89075000D03*
X214500000Y-87775000D03*
X196775000Y-89025000D03*
X214700000Y-88800000D03*
X216000000Y-89500000D03*
X200075000Y-89475000D03*
X216300000Y-76225000D03*
X252800000Y-76200000D03*
X257425000Y-87000000D03*
X256025000Y-86075000D03*
X213350000Y-77950000D03*
X252650000Y-77675000D03*
M02*
