G04 #@! TF.GenerationSoftware,KiCad,Pcbnew,(6.0.10)*
G04 #@! TF.CreationDate,2023-01-30T20:43:58+00:00*
G04 #@! TF.ProjectId,fjol-daisy,666a6f6c-2d64-4616-9973-792e6b696361,rev?*
G04 #@! TF.SameCoordinates,Original*
G04 #@! TF.FileFunction,Paste,Top*
G04 #@! TF.FilePolarity,Positive*
%FSLAX46Y46*%
G04 Gerber Fmt 4.6, Leading zero omitted, Abs format (unit mm)*
G04 Created by KiCad (PCBNEW (6.0.10)) date 2023-01-30 20:43:58*
%MOMM*%
%LPD*%
G01*
G04 APERTURE LIST*
G04 Aperture macros list*
%AMRoundRect*
0 Rectangle with rounded corners*
0 $1 Rounding radius*
0 $2 $3 $4 $5 $6 $7 $8 $9 X,Y pos of 4 corners*
0 Add a 4 corners polygon primitive as box body*
4,1,4,$2,$3,$4,$5,$6,$7,$8,$9,$2,$3,0*
0 Add four circle primitives for the rounded corners*
1,1,$1+$1,$2,$3*
1,1,$1+$1,$4,$5*
1,1,$1+$1,$6,$7*
1,1,$1+$1,$8,$9*
0 Add four rect primitives between the rounded corners*
20,1,$1+$1,$2,$3,$4,$5,0*
20,1,$1+$1,$4,$5,$6,$7,0*
20,1,$1+$1,$6,$7,$8,$9,0*
20,1,$1+$1,$8,$9,$2,$3,0*%
G04 Aperture macros list end*
%ADD10RoundRect,0.250000X0.625000X-0.375000X0.625000X0.375000X-0.625000X0.375000X-0.625000X-0.375000X0*%
%ADD11RoundRect,0.243750X0.243750X0.456250X-0.243750X0.456250X-0.243750X-0.456250X0.243750X-0.456250X0*%
%ADD12RoundRect,0.150000X0.150000X-0.725000X0.150000X0.725000X-0.150000X0.725000X-0.150000X-0.725000X0*%
%ADD13RoundRect,0.137500X0.137500X-0.662500X0.137500X0.662500X-0.137500X0.662500X-0.137500X-0.662500X0*%
%ADD14RoundRect,0.150000X0.825000X0.150000X-0.825000X0.150000X-0.825000X-0.150000X0.825000X-0.150000X0*%
%ADD15RoundRect,0.243750X-0.456250X0.243750X-0.456250X-0.243750X0.456250X-0.243750X0.456250X0.243750X0*%
%ADD16RoundRect,0.250000X1.137500X0.550000X-1.137500X0.550000X-1.137500X-0.550000X1.137500X-0.550000X0*%
%ADD17RoundRect,0.243750X0.456250X-0.243750X0.456250X0.243750X-0.456250X0.243750X-0.456250X-0.243750X0*%
%ADD18RoundRect,0.250000X0.550000X-1.137500X0.550000X1.137500X-0.550000X1.137500X-0.550000X-1.137500X0*%
%ADD19RoundRect,0.243750X-0.243750X-0.456250X0.243750X-0.456250X0.243750X0.456250X-0.243750X0.456250X0*%
%ADD20RoundRect,0.250000X-0.550000X1.137500X-0.550000X-1.137500X0.550000X-1.137500X0.550000X1.137500X0*%
%ADD21R,2.500000X2.300000*%
%ADD22R,2.300000X2.500000*%
%ADD23R,1.560000X0.650000*%
%ADD24R,3.150000X1.000000*%
%ADD25R,3.000000X1.000000*%
%ADD26R,0.900000X0.800000*%
%ADD27R,1.500000X2.000000*%
%ADD28R,3.800000X2.000000*%
%ADD29R,2.000000X1.500000*%
%ADD30R,2.000000X3.800000*%
%ADD31R,1.600000X2.000000*%
%ADD32R,0.800000X0.900000*%
%ADD33RoundRect,0.250000X-1.137500X-0.550000X1.137500X-0.550000X1.137500X0.550000X-1.137500X0.550000X0*%
%ADD34RoundRect,0.100000X0.100000X-0.637500X0.100000X0.637500X-0.100000X0.637500X-0.100000X-0.637500X0*%
%ADD35RoundRect,0.250000X-0.395000X0.255000X-0.395000X-0.255000X0.395000X-0.255000X0.395000X0.255000X0*%
%ADD36RoundRect,0.150000X-0.150000X0.662500X-0.150000X-0.662500X0.150000X-0.662500X0.150000X0.662500X0*%
%ADD37RoundRect,0.250000X0.450000X-0.262500X0.450000X0.262500X-0.450000X0.262500X-0.450000X-0.262500X0*%
%ADD38RoundRect,0.150000X0.150000X-0.587500X0.150000X0.587500X-0.150000X0.587500X-0.150000X-0.587500X0*%
%ADD39RoundRect,0.250000X-0.450000X0.262500X-0.450000X-0.262500X0.450000X-0.262500X0.450000X0.262500X0*%
%ADD40RoundRect,0.250000X-0.262500X-0.450000X0.262500X-0.450000X0.262500X0.450000X-0.262500X0.450000X0*%
%ADD41RoundRect,0.250000X0.475000X-0.250000X0.475000X0.250000X-0.475000X0.250000X-0.475000X-0.250000X0*%
%ADD42RoundRect,0.250000X0.250000X-0.800000X0.250000X0.800000X-0.250000X0.800000X-0.250000X-0.800000X0*%
%ADD43RoundRect,0.218750X0.218750X0.381250X-0.218750X0.381250X-0.218750X-0.381250X0.218750X-0.381250X0*%
%ADD44RoundRect,0.250000X-0.475000X0.250000X-0.475000X-0.250000X0.475000X-0.250000X0.475000X0.250000X0*%
%ADD45RoundRect,0.150000X-0.825000X-0.150000X0.825000X-0.150000X0.825000X0.150000X-0.825000X0.150000X0*%
%ADD46RoundRect,0.250000X0.262500X0.450000X-0.262500X0.450000X-0.262500X-0.450000X0.262500X-0.450000X0*%
%ADD47C,1.422400*%
G04 APERTURE END LIST*
D10*
X243370100Y-146088100D03*
X243370100Y-143288100D03*
D11*
X261061200Y-129235200D03*
X259186200Y-129235200D03*
D12*
X252984000Y-104429000D03*
X254254000Y-104429000D03*
X255524000Y-104429000D03*
X256794000Y-104429000D03*
X256794000Y-99279000D03*
X255524000Y-99279000D03*
X254254000Y-99279000D03*
X252984000Y-99279000D03*
D13*
X210905000Y-98875000D03*
X212175000Y-98875000D03*
X213445000Y-98875000D03*
X214715000Y-98875000D03*
X215985000Y-98875000D03*
X217255000Y-98875000D03*
X218525000Y-98875000D03*
X219795000Y-98875000D03*
X219795000Y-92375000D03*
X218525000Y-92375000D03*
X217255000Y-92375000D03*
X215985000Y-92375000D03*
X214715000Y-92375000D03*
X213445000Y-92375000D03*
X212175000Y-92375000D03*
X210905000Y-92375000D03*
D14*
X161776838Y-112111780D03*
X161776838Y-110841780D03*
X161776838Y-109571780D03*
X161776838Y-108301780D03*
X161776838Y-107031780D03*
X161776838Y-105761780D03*
X161776838Y-104491780D03*
X156826838Y-104491780D03*
X156826838Y-105761780D03*
X156826838Y-107031780D03*
X156826838Y-108301780D03*
X156826838Y-109571780D03*
X156826838Y-110841780D03*
X156826838Y-112111780D03*
D15*
X272034000Y-121388900D03*
X272034000Y-123263900D03*
D16*
X269905500Y-131826000D03*
X265780500Y-131826000D03*
D17*
X245322000Y-124951500D03*
X245322000Y-123076500D03*
D16*
X240887500Y-138425000D03*
X236762500Y-138425000D03*
D18*
X198500000Y-155450000D03*
X198500000Y-151325000D03*
D15*
X108613438Y-126721180D03*
X108613438Y-128596180D03*
X120725938Y-126708680D03*
X120725938Y-128583680D03*
X259080000Y-101043500D03*
X259080000Y-102918500D03*
D17*
X250190000Y-103299500D03*
X250190000Y-101424500D03*
D11*
X239787500Y-133100000D03*
X237912500Y-133100000D03*
X255137500Y-109325000D03*
X253262500Y-109325000D03*
D15*
X116299638Y-114245379D03*
X116299638Y-116120379D03*
X113962838Y-114194580D03*
X113962838Y-116069580D03*
D17*
X158023372Y-101659313D03*
X158023372Y-99784313D03*
X114216838Y-101356046D03*
X114216838Y-99481046D03*
D15*
X121688438Y-106121180D03*
X121688438Y-107996180D03*
D11*
X166663438Y-108296180D03*
X164788438Y-108296180D03*
D15*
X158124972Y-114296180D03*
X158124972Y-116171180D03*
X160478705Y-114351578D03*
X160478705Y-116226578D03*
D17*
X160580305Y-101676246D03*
X160580305Y-99801246D03*
X119195238Y-101374512D03*
X119195238Y-99499512D03*
D19*
X171064338Y-145830280D03*
X172939338Y-145830280D03*
D20*
X251550000Y-82937500D03*
X251550000Y-87062500D03*
D15*
X129286000Y-85524100D03*
X129286000Y-87399100D03*
D19*
X194007500Y-129794000D03*
X195882500Y-129794000D03*
D21*
X237925000Y-144425000D03*
X233625000Y-144425000D03*
D22*
X207937100Y-155277600D03*
X207937100Y-150977600D03*
D23*
X202175000Y-120250000D03*
X202175000Y-121200000D03*
X202175000Y-122150000D03*
X204875000Y-122150000D03*
X204875000Y-120250000D03*
D24*
X134730589Y-94591180D03*
X139780589Y-94591180D03*
X134730589Y-97131180D03*
X139780589Y-97131180D03*
X134730589Y-99671180D03*
X139780589Y-99671180D03*
X134730589Y-102211180D03*
X139780589Y-102211180D03*
X134730589Y-104751180D03*
X139780589Y-104751180D03*
D25*
X233078100Y-94595000D03*
X228038100Y-94595000D03*
X233078100Y-97135000D03*
X228038100Y-97135000D03*
X233078100Y-99675000D03*
X228038100Y-99675000D03*
X233078100Y-102215000D03*
X228038100Y-102215000D03*
X233078100Y-104755000D03*
X228038100Y-104755000D03*
D11*
X230012500Y-145050000D03*
X228137500Y-145050000D03*
D17*
X213715600Y-154313100D03*
X213715600Y-152438100D03*
D19*
X137200938Y-57546180D03*
X139075938Y-57546180D03*
D15*
X171811338Y-149733780D03*
X171811338Y-151608780D03*
D17*
X178605838Y-151642280D03*
X178605838Y-149767280D03*
D15*
X167760038Y-155037780D03*
X167760038Y-156912780D03*
D11*
X165905000Y-153030000D03*
X164030000Y-153030000D03*
D26*
X165488438Y-140121180D03*
X165488438Y-138221180D03*
X163488438Y-139171180D03*
D19*
X203430900Y-127812800D03*
X205305900Y-127812800D03*
D15*
X194221100Y-111290100D03*
X194221100Y-113165100D03*
D17*
X196824600Y-113131600D03*
X196824600Y-111256600D03*
D15*
X249986800Y-123065300D03*
X249986800Y-124940300D03*
D19*
X242775500Y-97409000D03*
X244650500Y-97409000D03*
D15*
X126273372Y-118286280D03*
X126273372Y-120161280D03*
X130988438Y-137708680D03*
X130988438Y-139583680D03*
X104310838Y-118286280D03*
X104310838Y-120161280D03*
X142088438Y-138046180D03*
X142088438Y-139921180D03*
X148238438Y-97596180D03*
X148238438Y-99471180D03*
X145204838Y-151799280D03*
X145204838Y-153674280D03*
X104310838Y-98046180D03*
X104310838Y-99921180D03*
X122916338Y-151799280D03*
X122916338Y-153674280D03*
X118636438Y-114228446D03*
X118636438Y-116103446D03*
X111626038Y-114211513D03*
X111626038Y-116086513D03*
D17*
X155466438Y-101642380D03*
X155466438Y-99767380D03*
X111727638Y-101337580D03*
X111727638Y-99462580D03*
D15*
X148235905Y-118286280D03*
X148235905Y-120161280D03*
X111994338Y-151799280D03*
X111994338Y-153674280D03*
X170198438Y-118286280D03*
X170198438Y-120161280D03*
X170413438Y-97621180D03*
X170413438Y-99496180D03*
X156507838Y-151799280D03*
X156507838Y-153674280D03*
X126188438Y-97446180D03*
X126188438Y-99321180D03*
X134219338Y-151799280D03*
X134219338Y-153674280D03*
X155771238Y-114314646D03*
X155771238Y-116189646D03*
X162832438Y-114333112D03*
X162832438Y-116208112D03*
D17*
X163137238Y-101693179D03*
X163137238Y-99818179D03*
X116706038Y-101392978D03*
X116706038Y-99517978D03*
D19*
X160463438Y-63846180D03*
X162338438Y-63846180D03*
X156438438Y-63846180D03*
X158313438Y-63846180D03*
D17*
X167810838Y-150689780D03*
X167810838Y-148814780D03*
X98638438Y-140146180D03*
X98638438Y-138271180D03*
X98338438Y-153496180D03*
X98338438Y-151621180D03*
D19*
X160463438Y-69946180D03*
X162338438Y-69946180D03*
X156438438Y-69946180D03*
X158313438Y-69946180D03*
D17*
X167988438Y-139571180D03*
X167988438Y-137696180D03*
X161238438Y-136021180D03*
X161238438Y-134146180D03*
D14*
X117898338Y-111730780D03*
X117898338Y-110460780D03*
X117898338Y-109190780D03*
X117898338Y-107920780D03*
X117898338Y-106650780D03*
X117898338Y-105380780D03*
X117898338Y-104110780D03*
X112948338Y-104110780D03*
X112948338Y-105380780D03*
X112948338Y-106650780D03*
X112948338Y-107920780D03*
X112948338Y-109190780D03*
X112948338Y-110460780D03*
X112948338Y-111730780D03*
D27*
X246650000Y-82125000D03*
X244350000Y-82125000D03*
D28*
X244350000Y-88425000D03*
D27*
X242050000Y-82125000D03*
D29*
X261390600Y-121372600D03*
D30*
X267690600Y-123672600D03*
D29*
X261390600Y-123672600D03*
X261390600Y-125972600D03*
D31*
X191744600Y-126093100D03*
X194284600Y-126093100D03*
X196824600Y-126093100D03*
X199364600Y-126093100D03*
X199364600Y-116553100D03*
X196824600Y-116553100D03*
X194284600Y-116553100D03*
X191744600Y-116553100D03*
D32*
X246364800Y-127473200D03*
X244464800Y-127473200D03*
X245414800Y-129473200D03*
D17*
X247650000Y-124940300D03*
X247650000Y-123065300D03*
D19*
X160463438Y-75521180D03*
X162338438Y-75521180D03*
D11*
X158313438Y-75521180D03*
X156438438Y-75521180D03*
D33*
X265755100Y-154838400D03*
X269880100Y-154838400D03*
D19*
X266880100Y-150368000D03*
X268755100Y-150368000D03*
D20*
X240172000Y-123126500D03*
X240172000Y-127251500D03*
D24*
X134730589Y-109931180D03*
X139780589Y-109931180D03*
X134730589Y-112471180D03*
X139780589Y-112471180D03*
X134730589Y-115011180D03*
X139780589Y-115011180D03*
X134730589Y-117551180D03*
X139780589Y-117551180D03*
X134730589Y-120091180D03*
X139780589Y-120091180D03*
X134730589Y-122631180D03*
X139780589Y-122631180D03*
X134730589Y-125171180D03*
X139780589Y-125171180D03*
X134730589Y-127711180D03*
X139780589Y-127711180D03*
D25*
X233078100Y-109935000D03*
X228038100Y-109935000D03*
X233078100Y-112475000D03*
X228038100Y-112475000D03*
X233078100Y-115015000D03*
X228038100Y-115015000D03*
X233078100Y-117555000D03*
X228038100Y-117555000D03*
X233078100Y-120095000D03*
X228038100Y-120095000D03*
X233078100Y-122635000D03*
X228038100Y-122635000D03*
X233078100Y-125175000D03*
X228038100Y-125175000D03*
X233078100Y-127715000D03*
X228038100Y-127715000D03*
D24*
X100338838Y-80107780D03*
X95288838Y-80107780D03*
X100338838Y-77567780D03*
X95288838Y-77567780D03*
X100338838Y-75027780D03*
X95288838Y-75027780D03*
X100338838Y-72487780D03*
X95288838Y-72487780D03*
X100338838Y-69947780D03*
X95288838Y-69947780D03*
X100338838Y-67407780D03*
X95288838Y-67407780D03*
X100338838Y-64867780D03*
X95288838Y-64867780D03*
X100338838Y-62327780D03*
X95288838Y-62327780D03*
X100338838Y-59787780D03*
X95288838Y-59787780D03*
D25*
X267476600Y-80111600D03*
X272516600Y-80111600D03*
X267476600Y-77571600D03*
X272516600Y-77571600D03*
X267476600Y-75031600D03*
X272516600Y-75031600D03*
X267476600Y-72491600D03*
X272516600Y-72491600D03*
X267476600Y-69951600D03*
X272516600Y-69951600D03*
X267476600Y-67411600D03*
X272516600Y-67411600D03*
X267476600Y-64871600D03*
X272516600Y-64871600D03*
X267476600Y-62331600D03*
X272516600Y-62331600D03*
X267476600Y-59791600D03*
X272516600Y-59791600D03*
D17*
X161213438Y-140096180D03*
X161213438Y-138221180D03*
X160394038Y-150613580D03*
X160394038Y-148738580D03*
X191681100Y-113131600D03*
X191681100Y-111256600D03*
D19*
X242775500Y-107442000D03*
X244650500Y-107442000D03*
D11*
X258637500Y-95200000D03*
X256762500Y-95200000D03*
D19*
X148963438Y-79746180D03*
X150838438Y-79746180D03*
D11*
X147188438Y-79746180D03*
X145313438Y-79746180D03*
D19*
X127063438Y-79496180D03*
X128938438Y-79496180D03*
D11*
X125163438Y-79496180D03*
X123288438Y-79496180D03*
D17*
X151688438Y-75696180D03*
X151688438Y-73821180D03*
X149488438Y-75696180D03*
X149488438Y-73821180D03*
X147288438Y-75696180D03*
X147288438Y-73821180D03*
D15*
X145088438Y-73821180D03*
X145088438Y-75696180D03*
D17*
X129588438Y-75946180D03*
X129588438Y-74071180D03*
X127338438Y-75946180D03*
X127338438Y-74071180D03*
X125088438Y-75946180D03*
X125088438Y-74071180D03*
D15*
X122838438Y-74071180D03*
X122838438Y-75946180D03*
D19*
X160463438Y-81046180D03*
X162338438Y-81046180D03*
D11*
X158313438Y-81046180D03*
X156438438Y-81046180D03*
D17*
X106463438Y-128596180D03*
X106463438Y-126721180D03*
D15*
X109113438Y-138083680D03*
X109113438Y-139958680D03*
D17*
X122863438Y-128583680D03*
X122863438Y-126708680D03*
D15*
X120100938Y-137933680D03*
X120100938Y-139808680D03*
X110763438Y-126721180D03*
X110763438Y-128596180D03*
X118588438Y-126708680D03*
X118588438Y-128583680D03*
D11*
X114263438Y-64571180D03*
X112388438Y-64571180D03*
X118363438Y-64571180D03*
X116488438Y-64571180D03*
X114263438Y-69946180D03*
X112388438Y-69946180D03*
X118363438Y-69946180D03*
X116488438Y-69946180D03*
X114069100Y-75590400D03*
X112194100Y-75590400D03*
X118363438Y-75521180D03*
X116488438Y-75521180D03*
X114263438Y-81046180D03*
X112388438Y-81046180D03*
X118363438Y-81046180D03*
X116488438Y-81046180D03*
D34*
X132894600Y-89869300D03*
X133544600Y-89869300D03*
X134194600Y-89869300D03*
X134844600Y-89869300D03*
X135494600Y-89869300D03*
X136144600Y-89869300D03*
X136794600Y-89869300D03*
X137444600Y-89869300D03*
X138094600Y-89869300D03*
X138744600Y-89869300D03*
X139394600Y-89869300D03*
X140044600Y-89869300D03*
X140694600Y-89869300D03*
X141344600Y-89869300D03*
X141994600Y-89869300D03*
X142644600Y-89869300D03*
X142644600Y-82444300D03*
X141994600Y-82444300D03*
X141344600Y-82444300D03*
X140694600Y-82444300D03*
X140044600Y-82444300D03*
X139394600Y-82444300D03*
X138744600Y-82444300D03*
X138094600Y-82444300D03*
X137444600Y-82444300D03*
X136794600Y-82444300D03*
X136144600Y-82444300D03*
X135494600Y-82444300D03*
X134844600Y-82444300D03*
X134194600Y-82444300D03*
X133544600Y-82444300D03*
X132894600Y-82444300D03*
D17*
X114188438Y-135396180D03*
X114188438Y-133521180D03*
D35*
X113863438Y-126866180D03*
X115463438Y-126866180D03*
X113863438Y-128126180D03*
X115463438Y-128126180D03*
D36*
X116568438Y-124858680D03*
X115298438Y-124858680D03*
X114028438Y-124858680D03*
X112758438Y-124858680D03*
X112758438Y-130133680D03*
X114028438Y-130133680D03*
X115298438Y-130133680D03*
X116568438Y-130133680D03*
D37*
X262925000Y-76812500D03*
X262925000Y-74987500D03*
D38*
X219725000Y-68412500D03*
X221625000Y-68412500D03*
X220675000Y-66537500D03*
D39*
X190075000Y-61417500D03*
X190075000Y-63242500D03*
D40*
X198025000Y-56825000D03*
X199850000Y-56825000D03*
X259512500Y-97700000D03*
X261337500Y-97700000D03*
D37*
X201525000Y-69142500D03*
X201525000Y-67317500D03*
D39*
X190175000Y-71062500D03*
X190175000Y-72887500D03*
X200600000Y-71062500D03*
X200600000Y-72887500D03*
X198325000Y-71062500D03*
X198325000Y-72887500D03*
D37*
X258800000Y-108587500D03*
X258800000Y-106762500D03*
D39*
X193808333Y-85837500D03*
X193808333Y-87662500D03*
D37*
X190125000Y-69142500D03*
X190125000Y-67317500D03*
D39*
X190675000Y-85837500D03*
X190675000Y-87662500D03*
D41*
X187850000Y-69200000D03*
X187850000Y-67300000D03*
X195725000Y-72825000D03*
X195725000Y-70925000D03*
D40*
X198087500Y-59025000D03*
X199912500Y-59025000D03*
D38*
X215775000Y-68412500D03*
X217675000Y-68412500D03*
X216725000Y-66537500D03*
D39*
X196941666Y-85837500D03*
X196941666Y-87662500D03*
D41*
X203750000Y-69200000D03*
X203750000Y-67300000D03*
D37*
X154200000Y-142405000D03*
X154200000Y-140580000D03*
D39*
X260625000Y-74962500D03*
X260625000Y-76787500D03*
D42*
X249047000Y-143713200D03*
X251587000Y-143713200D03*
X259207000Y-143713200D03*
X261747000Y-143713200D03*
X259207000Y-133613200D03*
X249047000Y-133613200D03*
D39*
X200075000Y-85837500D03*
X200075000Y-87662500D03*
X201150000Y-61417500D03*
X201150000Y-63242500D03*
D43*
X239562500Y-79975000D03*
X237437500Y-79975000D03*
D44*
X203425000Y-61400000D03*
X203425000Y-63300000D03*
D41*
X239550000Y-88650000D03*
X239550000Y-86750000D03*
D45*
X193300000Y-61415000D03*
X193300000Y-62685000D03*
X193300000Y-63955000D03*
X193300000Y-65225000D03*
X193300000Y-66495000D03*
X193300000Y-67765000D03*
X193300000Y-69035000D03*
X198250000Y-69035000D03*
X198250000Y-67765000D03*
X198250000Y-66495000D03*
X198250000Y-65225000D03*
X198250000Y-63955000D03*
X198250000Y-62685000D03*
X198250000Y-61415000D03*
D38*
X223675000Y-68412500D03*
X225575000Y-68412500D03*
X224625000Y-66537500D03*
X227625000Y-68412500D03*
X229525000Y-68412500D03*
X228575000Y-66537500D03*
D46*
X193187500Y-59025000D03*
X191362500Y-59025000D03*
X193137500Y-56825000D03*
X191312500Y-56825000D03*
D39*
X192300000Y-71062500D03*
X192300000Y-72887500D03*
D44*
X188025000Y-61400000D03*
X188025000Y-63300000D03*
D47*
X221698404Y-152196800D03*
X221698404Y-154736800D03*
X224238404Y-152196800D03*
X224238404Y-154736800D03*
X226778404Y-152196800D03*
X226778404Y-154736800D03*
X229318404Y-152196800D03*
X229318404Y-154736800D03*
X231858404Y-152196800D03*
X231858404Y-154736800D03*
X234398404Y-152196800D03*
X234398404Y-154736800D03*
X236938404Y-152196800D03*
X236938404Y-154736800D03*
X239478404Y-152196800D03*
X239478404Y-154736800D03*
M02*
