M48
; DRILL file {KiCad (6.0.10)} date Mon Jan 30 20:44:18 2023
; FORMAT={-:-/ absolute / metric / decimal}
; #@! TF.CreationDate,2023-01-30T20:44:18+00:00
; #@! TF.GenerationSoftware,Kicad,Pcbnew,(6.0.10)
; #@! TF.FileFunction,Plated,1,2,PTH
FMAT,2
METRIC
; #@! TA.AperFunction,Plated,PTH,ViaDrill
T1C0.400
; #@! TA.AperFunction,Plated,PTH,ComponentDrill
T2C0.900
; #@! TA.AperFunction,Plated,PTH,ComponentDrill
T3C0.950
; #@! TA.AperFunction,Plated,PTH,ComponentDrill
T4C0.998
; #@! TA.AperFunction,Plated,PTH,ComponentDrill
T5C1.000
; #@! TA.AperFunction,Plated,PTH,ComponentDrill
T6C1.100
; #@! TA.AperFunction,Plated,PTH,ComponentDrill
T7C1.500
; #@! TA.AperFunction,Plated,PTH,ComponentDrill
T8C2.100
; #@! TA.AperFunction,Plated,PTH,ComponentDrill
T9C2.300
%
G90
G05
T1
X92.601Y-59.686
X95.188Y-135.296
X95.268Y-56.765
X96.665Y-57.527
X97.427Y-64.893
X97.427Y-77.593
X97.554Y-59.813
X97.554Y-62.48
X99.035Y-63.602
X99.078Y-73.783
X99.289Y-54.762
X99.938Y-148.596
X100.338Y-88.696
X101.499Y-73.685
X101.872Y-56.13
X102.888Y-59.686
X103.015Y-62.48
X104.597Y-73.508
X107.417Y-81.813
X107.975Y-68.936
X108.941Y-80.086
X110.738Y-125.221
X110.738Y-129.671
X111.43Y-79.019
X111.43Y-86.13
X112.001Y-133.159
X113.029Y-101.356
X113.888Y-73.696
X113.988Y-126.796
X114.213Y-132.321
X114.588Y-151.496
X114.613Y-102.946
X115.334Y-131.822
X115.438Y-126.796
X115.513Y-96.571
X116.588Y-131.821
X117.239Y-57.654
X117.96Y-101.375
X118.013Y-134.046
X118.488Y-123.121
X118.513Y-129.846
X120.05Y-109.275
X120.538Y-79.146
X120.668Y-70.862
X121.288Y-77.696
X121.438Y-80.046
X121.684Y-70.1
X121.938Y-110.196
X124.238Y-113.346
X124.688Y-117.946
X125.588Y-106.996
X126.185Y-72.95
X126.288Y-134.096
X129.988Y-104.721
X131.988Y-102.321
X132.388Y-98.596
X132.663Y-93.271
X132.987Y-67.687
X134.138Y-72.346
X134.563Y-93.371
X134.765Y-58.416
X134.765Y-78.736
X134.838Y-73.196
X135.588Y-74.046
X135.675Y-86.95
X136.288Y-74.996
X136.289Y-78.609
X136.296Y-92.253
X136.338Y-133.946
X136.388Y-143.096
X136.888Y-122.646
X137.051Y-128.901
X137.262Y-92.812
X137.538Y-61.996
X137.988Y-100.971
X138.088Y-131.246
X138.31Y-59.26
X138.338Y-158.946
X138.379Y-91.491
X139.038Y-62.796
X139.188Y-157.646
X139.243Y-92.71
X139.288Y-133.996
X139.344Y-91.694
X139.988Y-63.596
X140.113Y-93.171
X140.226Y-131.441
X140.688Y-64.596
X140.73Y-54.55
X140.988Y-57.4
X141.375Y-85.95
X142.525Y-88.475
X142.79Y-55.66
X142.85Y-60.93
X142.87Y-58.98
X143.313Y-97.271
X144.538Y-127.996
X146.838Y-91.471
X147.638Y-114.896
X148.354Y-73.148
X148.538Y-105.696
X149.388Y-129.496
X149.648Y-118.286
X150.088Y-134.096
X151.656Y-70.862
X151.783Y-72.132
X152.375Y-113.975
X152.763Y-108.321
X155.593Y-53.59
X155.81Y-142.68
X156.58Y-129.84
X156.81Y-101.642
X158.438Y-103.646
X159.988Y-103.596
X160.388Y-147.496
X161.238Y-128.487
X162.275Y-88.475
X162.977Y-73.696
X163.075Y-89.025
X163.463Y-108.346
X163.688Y-79.946
X164.5Y-87.525
X164.567Y-78.537
X164.638Y-81.246
X166.338Y-86.996
X168.038Y-136.296
X169.69Y-51.685
X171.938Y-148.546
X174.688Y-154.546
X185.75Y-56.1
X186.375Y-78.2
X186.65Y-77.1
X187.7Y-74.05
X188.163Y-159.461
X189.636Y-93.564
X190.55Y-76.2
X190.575Y-65.4
X190.575Y-88.975
X190.775Y-84.425
X191.3Y-78.2
X191.54Y-61.415
X191.607Y-69.142
X191.681Y-114.516
X192.425Y-74.3
X192.475Y-85.925
X193.3Y-121.05
X193.325Y-95.35
X193.625Y-89.075
X194.75Y-104.25
X194.825Y-101.575
X194.875Y-63.475
X195.325Y-78.1
X195.35Y-76.2
X195.575Y-85.8
X195.625Y-55.25
X195.825Y-57.7
X195.875Y-105.15
X196.5Y-66.725
X196.775Y-89.025
X196.9Y-92.354
X196.9Y-103.775
X197.775Y-74.9
X198.5Y-85.875
X199.075Y-101.975
X199.225Y-76.875
X200.075Y-89.475
X201.25Y-65.125
X201.325Y-92.1
X202.275Y-61.4
X203.25Y-76.575
X203.675Y-70.15
X204.0Y-114.85
X204.1Y-94.325
X204.2Y-134.13
X204.622Y-160.579
X204.875Y-76.05
X204.925Y-74.8
X204.962Y-96.387
X205.8Y-97.675
X206.075Y-67.025
X206.925Y-79.95
X208.625Y-101.7
X209.375Y-59.325
X210.875Y-100.6
X211.438Y-70.487
X211.575Y-64.175
X212.1Y-94.075
X212.775Y-96.9
X213.35Y-77.95
X213.375Y-94.025
X214.275Y-86.825
X214.5Y-87.775
X214.7Y-88.8
X214.725Y-94.975
X214.75Y-100.425
X215.975Y-94.025
X215.975Y-100.3
X216.0Y-89.5
X216.3Y-76.225
X223.65Y-83.1
X224.225Y-64.725
X224.25Y-96.025
X224.485Y-113.03
X225.075Y-100.0
X225.175Y-97.125
X225.6Y-95.825
X226.0Y-63.325
X226.025Y-101.025
X226.025Y-102.3
X228.0Y-91.75
X230.6Y-125.1
X231.225Y-61.075
X233.075Y-106.475
X233.223Y-129.489
X233.225Y-93.05
X233.68Y-63.043
X234.594Y-88.341
X235.45Y-120.0
X235.458Y-109.931
X235.458Y-111.15
X235.575Y-99.35
X235.775Y-68.725
X235.966Y-61.849
X236.025Y-91.95
X236.046Y-114.329
X237.125Y-106.975
X237.15Y-103.475
X237.575Y-93.425
X237.9Y-101.225
X237.95Y-108.75
X238.575Y-69.375
X238.675Y-103.425
X238.75Y-92.35
X238.775Y-108.05
X239.2Y-119.5
X240.725Y-74.725
X240.875Y-141.425
X242.6Y-58.9
X242.625Y-55.55
X243.37Y-141.338
X243.789Y-102.565
X243.875Y-68.275
X246.375Y-79.725
X247.625Y-79.7
X248.514Y-103.937
X248.971Y-99.263
X248.975Y-79.645
X249.05Y-66.55
X250.225Y-74.25
X250.342Y-105.004
X251.409Y-115.113
X251.45Y-79.475
X251.725Y-103.475
X252.475Y-74.25
X252.65Y-77.675
X252.8Y-76.2
X253.175Y-102.9
X253.35Y-89.325
X253.797Y-107.442
X254.175Y-83.4
X254.254Y-100.787
X255.05Y-106.55
X255.275Y-63.825
X255.473Y-113.843
X255.875Y-66.725
X255.9Y-80.525
X256.025Y-86.075
X256.875Y-75.4
X257.0Y-60.8
X257.175Y-59.425
X257.425Y-87.0
X258.575Y-109.75
X258.8Y-99.3
X258.875Y-105.45
X259.0Y-104.25
X260.096Y-85.776
X260.706Y-108.814
X261.325Y-99.0
X261.525Y-93.875
X261.55Y-52.575
X261.772Y-101.041
X262.825Y-56.025
X264.575Y-56.244
X265.2Y-76.825
X265.278Y-64.922
X265.363Y-159.287
X265.375Y-73.875
X267.36Y-51.968
X270.154Y-54.458
X270.18Y-72.466
X270.65Y-74.95
X270.85Y-61.075
X271.075Y-76.325
X271.2Y-82.225
X272.593Y-52.121
X274.422Y-96.19
T2
X112.802Y-66.821
X112.802Y-72.271
X112.802Y-77.721
X112.802Y-83.171
X115.342Y-66.821
X115.342Y-72.271
X115.342Y-77.721
X115.342Y-83.171
X117.882Y-66.821
X117.882Y-72.271
X117.882Y-77.721
X117.882Y-83.171
X151.584Y-137.575
X154.124Y-137.575
X156.867Y-66.821
X156.867Y-72.271
X156.867Y-77.721
X156.867Y-83.171
X159.407Y-66.821
X159.407Y-72.271
X159.407Y-77.721
X159.407Y-83.171
X161.947Y-66.821
X161.947Y-72.271
X161.947Y-77.721
X161.947Y-83.171
T3
X214.57Y-138.88
X217.07Y-138.88
X219.07Y-138.88
X221.57Y-138.88
T4
X221.698Y-152.197
X221.698Y-154.737
X224.238Y-152.197
X224.238Y-154.737
X226.778Y-152.197
X226.778Y-154.737
X229.318Y-152.197
X229.318Y-154.737
X231.858Y-152.197
X231.858Y-154.737
X234.398Y-152.197
X234.398Y-154.737
X236.938Y-152.197
X236.938Y-154.737
X239.478Y-152.197
X239.478Y-154.737
T5
X103.617Y-71.746
X103.617Y-78.246
X108.117Y-71.746
X108.117Y-78.246
X123.103Y-55.596
X123.103Y-60.096
X123.853Y-67.746
X123.853Y-82.246
X126.353Y-82.246
X128.853Y-67.746
X128.853Y-82.246
X129.603Y-55.596
X129.603Y-60.096
X145.146Y-55.596
X145.146Y-60.096
X145.896Y-67.746
X145.896Y-82.246
X148.396Y-82.246
X150.896Y-67.746
X150.896Y-82.246
X151.646Y-55.596
X151.646Y-60.096
X166.632Y-71.746
X166.632Y-78.246
X171.132Y-71.746
X171.132Y-78.246
X173.974Y-134.746
X173.974Y-141.246
X178.474Y-134.746
X178.474Y-141.246
X205.775Y-57.023
X205.775Y-72.263
X208.315Y-57.023
X208.315Y-72.263
X210.855Y-57.023
X210.855Y-72.263
X213.395Y-57.023
X213.395Y-72.263
X215.935Y-57.023
X215.935Y-72.263
X218.475Y-57.023
X218.475Y-72.263
X221.015Y-57.023
X221.015Y-72.263
X223.555Y-57.023
X223.555Y-72.263
X226.095Y-57.023
X226.095Y-72.263
X228.635Y-57.023
X228.635Y-72.263
X231.175Y-57.023
X231.175Y-72.263
X233.715Y-57.023
X233.715Y-72.263
X236.255Y-57.023
X236.255Y-72.263
X238.795Y-57.023
X238.795Y-72.263
X241.335Y-57.023
X241.335Y-72.263
X243.875Y-57.023
X243.875Y-72.263
X246.415Y-57.023
X246.415Y-72.263
X248.955Y-57.023
X248.955Y-72.263
X251.495Y-57.023
X251.495Y-72.263
X254.035Y-57.023
X254.035Y-72.263
T6
X98.163Y-131.127
X98.163Y-134.127
X98.163Y-142.627
X98.163Y-145.846
X98.163Y-148.846
X98.163Y-157.346
X101.802Y-123.747
X101.811Y-102.133
X104.302Y-123.747
X104.311Y-102.133
X106.802Y-123.747
X106.811Y-102.133
X109.101Y-131.127
X109.101Y-134.127
X109.101Y-142.627
X109.101Y-145.859
X109.101Y-148.859
X109.101Y-157.359
X120.038Y-131.127
X120.038Y-134.127
X120.038Y-142.627
X120.038Y-145.859
X120.038Y-148.859
X120.038Y-157.359
X123.768Y-123.796
X123.853Y-102.133
X126.268Y-123.796
X126.353Y-102.133
X128.768Y-123.796
X128.853Y-102.133
X130.975Y-131.127
X130.975Y-134.127
X130.975Y-142.627
X130.975Y-145.859
X130.975Y-148.859
X130.975Y-157.359
X141.912Y-131.127
X141.912Y-134.127
X141.912Y-142.627
X141.912Y-145.859
X141.912Y-148.859
X141.912Y-157.359
X145.734Y-123.796
X145.896Y-102.133
X148.234Y-123.796
X148.396Y-102.133
X150.734Y-123.796
X150.896Y-102.133
X152.849Y-145.859
X152.849Y-148.859
X152.849Y-157.359
X164.286Y-131.127
X164.286Y-134.127
X164.286Y-142.627
X164.286Y-145.859
X164.286Y-148.859
X164.286Y-157.359
X167.7Y-123.732
X167.938Y-102.133
X170.2Y-123.732
X170.438Y-102.133
X172.7Y-123.732
X172.938Y-102.133
X176.224Y-145.859
X176.224Y-148.859
X176.224Y-157.359
T8
X99.802Y-116.747
X99.811Y-95.133
X108.802Y-116.747
X108.811Y-95.133
X121.768Y-116.796
X121.853Y-95.133
X130.768Y-116.796
X130.853Y-95.133
X143.734Y-116.796
X143.896Y-95.133
X152.734Y-116.796
X152.896Y-95.133
X165.7Y-116.732
X165.938Y-95.133
X174.7Y-116.732
X174.938Y-95.133
T9
X211.5Y-136.17
X224.64Y-136.17
T7
X120.753Y-75.396G85X120.753Y-74.096
G05
X131.953Y-75.396G85X131.953Y-74.096
G05
X142.796Y-75.396G85X142.796Y-74.096
G05
X153.996Y-75.396G85X153.996Y-74.096
G05
T0
M30
