G04 #@! TF.GenerationSoftware,KiCad,Pcbnew,(6.0.10)*
G04 #@! TF.CreationDate,2023-01-30T20:43:58+00:00*
G04 #@! TF.ProjectId,fjol-daisy,666a6f6c-2d64-4616-9973-792e6b696361,rev?*
G04 #@! TF.SameCoordinates,Original*
G04 #@! TF.FileFunction,Legend,Bot*
G04 #@! TF.FilePolarity,Positive*
%FSLAX46Y46*%
G04 Gerber Fmt 4.6, Leading zero omitted, Abs format (unit mm)*
G04 Created by KiCad (PCBNEW (6.0.10)) date 2023-01-30 20:43:58*
%MOMM*%
%LPD*%
G01*
G04 APERTURE LIST*
G04 Aperture macros list*
%AMRoundRect*
0 Rectangle with rounded corners*
0 $1 Rounding radius*
0 $2 $3 $4 $5 $6 $7 $8 $9 X,Y pos of 4 corners*
0 Add a 4 corners polygon primitive as box body*
4,1,4,$2,$3,$4,$5,$6,$7,$8,$9,$2,$3,0*
0 Add four circle primitives for the rounded corners*
1,1,$1+$1,$2,$3*
1,1,$1+$1,$4,$5*
1,1,$1+$1,$6,$7*
1,1,$1+$1,$8,$9*
0 Add four rect primitives between the rounded corners*
20,1,$1+$1,$2,$3,$4,$5,0*
20,1,$1+$1,$4,$5,$6,$7,0*
20,1,$1+$1,$6,$7,$8,$9,0*
20,1,$1+$1,$8,$9,$2,$3,0*%
G04 Aperture macros list end*
%ADD10C,0.812800*%
%ADD11C,0.142240*%
%ADD12C,0.077216*%
%ADD13C,0.150000*%
%ADD14C,0.081076*%
%ADD15C,0.101600*%
%ADD16C,0.127000*%
%ADD17C,0.120000*%
%ADD18C,0.203200*%
%ADD19C,0.050800*%
%ADD20C,1.853200*%
%ADD21R,0.740000X2.400000*%
%ADD22RoundRect,0.101600X-0.825000X0.825000X-0.825000X-0.825000X0.825000X-0.825000X0.825000X0.825000X0*%
%ADD23C,2.997200*%
%ADD24R,1.700000X1.700000*%
%ADD25C,1.700000*%
%ADD26C,1.422400*%
%ADD27R,2.000000X2.000000*%
%ADD28C,2.000000*%
%ADD29R,2.000000X3.200000*%
%ADD30R,1.800000X1.800000*%
%ADD31C,1.800000*%
%ADD32R,1.600000X1.500000*%
%ADD33C,1.600000*%
%ADD34C,3.000000*%
G04 APERTURE END LIST*
D10*
X190550000Y-78000000D02*
X190562500Y-84843000D01*
X215775000Y-149425000D02*
X215775000Y-158061000D01*
D11*
X204043938Y-103302649D02*
X204606971Y-103302649D01*
X204606971Y-104187415D02*
X204606971Y-102498315D01*
X203802638Y-102498315D01*
X202676571Y-102498315D02*
X202676571Y-103704815D01*
X202757004Y-103946115D01*
X202917871Y-104106982D01*
X203159171Y-104187415D01*
X203320038Y-104187415D01*
X201550504Y-102498315D02*
X201228771Y-102498315D01*
X201067904Y-102578749D01*
X200907038Y-102739615D01*
X200826604Y-103061349D01*
X200826604Y-103624382D01*
X200907038Y-103946115D01*
X201067904Y-104106982D01*
X201228771Y-104187415D01*
X201550504Y-104187415D01*
X201711371Y-104106982D01*
X201872238Y-103946115D01*
X201952671Y-103624382D01*
X201952671Y-103061349D01*
X201872238Y-102739615D01*
X201711371Y-102578749D01*
X201550504Y-102498315D01*
X201711371Y-101935282D02*
X201630938Y-102015715D01*
X201711371Y-102096149D01*
X201791804Y-102015715D01*
X201711371Y-101935282D01*
X201711371Y-102096149D01*
X201067904Y-101935282D02*
X200987471Y-102015715D01*
X201067904Y-102096149D01*
X201148338Y-102015715D01*
X201067904Y-101935282D01*
X201067904Y-102096149D01*
X199298371Y-104187415D02*
X200102704Y-104187415D01*
X200102704Y-102498315D01*
X197448404Y-104187415D02*
X197448404Y-102498315D01*
X197448404Y-103302649D02*
X196483204Y-103302649D01*
X196483204Y-104187415D02*
X196483204Y-102498315D01*
X194954971Y-104187415D02*
X194954971Y-103302649D01*
X195035404Y-103141782D01*
X195196271Y-103061349D01*
X195518004Y-103061349D01*
X195678871Y-103141782D01*
X194954971Y-104106982D02*
X195115838Y-104187415D01*
X195518004Y-104187415D01*
X195678871Y-104106982D01*
X195759304Y-103946115D01*
X195759304Y-103785249D01*
X195678871Y-103624382D01*
X195518004Y-103543949D01*
X195115838Y-103543949D01*
X194954971Y-103463515D01*
X194150638Y-104187415D02*
X194150638Y-103061349D01*
X194150638Y-103383082D02*
X194070204Y-103222215D01*
X193989771Y-103141782D01*
X193828904Y-103061349D01*
X193668038Y-103061349D01*
X192381104Y-104187415D02*
X192381104Y-102498315D01*
X192381104Y-104106982D02*
X192541971Y-104187415D01*
X192863704Y-104187415D01*
X193024571Y-104106982D01*
X193105004Y-104026549D01*
X193185438Y-103865682D01*
X193185438Y-103383082D01*
X193105004Y-103222215D01*
X193024571Y-103141782D01*
X192863704Y-103061349D01*
X192541971Y-103061349D01*
X192381104Y-103141782D01*
X191737638Y-103061349D02*
X191415904Y-104187415D01*
X191094171Y-103383082D01*
X190772438Y-104187415D01*
X190450704Y-103061349D01*
X189083338Y-104187415D02*
X189083338Y-103302649D01*
X189163771Y-103141782D01*
X189324638Y-103061349D01*
X189646371Y-103061349D01*
X189807238Y-103141782D01*
X189083338Y-104106982D02*
X189244204Y-104187415D01*
X189646371Y-104187415D01*
X189807238Y-104106982D01*
X189887671Y-103946115D01*
X189887671Y-103785249D01*
X189807238Y-103624382D01*
X189646371Y-103543949D01*
X189244204Y-103543949D01*
X189083338Y-103463515D01*
X188279004Y-104187415D02*
X188279004Y-103061349D01*
X188279004Y-103383082D02*
X188198571Y-103222215D01*
X188118138Y-103141782D01*
X187957271Y-103061349D01*
X187796404Y-103061349D01*
X186589904Y-104106982D02*
X186750771Y-104187415D01*
X187072504Y-104187415D01*
X187233371Y-104106982D01*
X187313804Y-103946115D01*
X187313804Y-103302649D01*
X187233371Y-103141782D01*
X187072504Y-103061349D01*
X186750771Y-103061349D01*
X186589904Y-103141782D01*
X186509471Y-103302649D01*
X186509471Y-103463515D01*
X187313804Y-103624382D01*
X203681988Y-106906866D02*
X203681988Y-105217766D01*
X203279821Y-105217766D01*
X203038521Y-105298200D01*
X202877654Y-105459066D01*
X202797221Y-105619933D01*
X202716788Y-105941666D01*
X202716788Y-106182966D01*
X202797221Y-106504700D01*
X202877654Y-106665566D01*
X203038521Y-106826433D01*
X203279821Y-106906866D01*
X203681988Y-106906866D01*
X201268988Y-106906866D02*
X201268988Y-106022100D01*
X201349421Y-105861233D01*
X201510288Y-105780800D01*
X201832021Y-105780800D01*
X201992888Y-105861233D01*
X201268988Y-106826433D02*
X201429854Y-106906866D01*
X201832021Y-106906866D01*
X201992888Y-106826433D01*
X202073321Y-106665566D01*
X202073321Y-106504700D01*
X201992888Y-106343833D01*
X201832021Y-106263400D01*
X201429854Y-106263400D01*
X201268988Y-106182966D01*
X200464654Y-106906866D02*
X200464654Y-105780800D01*
X200464654Y-105217766D02*
X200545088Y-105298200D01*
X200464654Y-105378633D01*
X200384221Y-105298200D01*
X200464654Y-105217766D01*
X200464654Y-105378633D01*
X199740754Y-106826433D02*
X199579888Y-106906866D01*
X199258154Y-106906866D01*
X199097288Y-106826433D01*
X199016854Y-106665566D01*
X199016854Y-106585133D01*
X199097288Y-106424266D01*
X199258154Y-106343833D01*
X199499454Y-106343833D01*
X199660321Y-106263400D01*
X199740754Y-106102533D01*
X199740754Y-106022100D01*
X199660321Y-105861233D01*
X199499454Y-105780800D01*
X199258154Y-105780800D01*
X199097288Y-105861233D01*
X198453821Y-105780800D02*
X198051654Y-106906866D01*
X197649488Y-105780800D02*
X198051654Y-106906866D01*
X198212521Y-107309033D01*
X198292954Y-107389466D01*
X198453821Y-107469900D01*
X195879954Y-105780800D02*
X195477788Y-106906866D01*
X195075621Y-105780800D01*
X193788688Y-106826433D02*
X193949554Y-106906866D01*
X194271288Y-106906866D01*
X194432154Y-106826433D01*
X194512588Y-106665566D01*
X194512588Y-106022100D01*
X194432154Y-105861233D01*
X194271288Y-105780800D01*
X193949554Y-105780800D01*
X193788688Y-105861233D01*
X193708254Y-106022100D01*
X193708254Y-106182966D01*
X194512588Y-106343833D01*
X192984354Y-106906866D02*
X192984354Y-105780800D01*
X192984354Y-106102533D02*
X192903921Y-105941666D01*
X192823488Y-105861233D01*
X192662621Y-105780800D01*
X192501754Y-105780800D01*
X192019154Y-106826433D02*
X191858288Y-106906866D01*
X191536554Y-106906866D01*
X191375688Y-106826433D01*
X191295254Y-106665566D01*
X191295254Y-106585133D01*
X191375688Y-106424266D01*
X191536554Y-106343833D01*
X191777854Y-106343833D01*
X191938721Y-106263400D01*
X192019154Y-106102533D01*
X192019154Y-106022100D01*
X191938721Y-105861233D01*
X191777854Y-105780800D01*
X191536554Y-105780800D01*
X191375688Y-105861233D01*
X190571354Y-106906866D02*
X190571354Y-105780800D01*
X190571354Y-105217766D02*
X190651788Y-105298200D01*
X190571354Y-105378633D01*
X190490921Y-105298200D01*
X190571354Y-105217766D01*
X190571354Y-105378633D01*
X189525721Y-106906866D02*
X189686588Y-106826433D01*
X189767021Y-106746000D01*
X189847454Y-106585133D01*
X189847454Y-106102533D01*
X189767021Y-105941666D01*
X189686588Y-105861233D01*
X189525721Y-105780800D01*
X189284421Y-105780800D01*
X189123554Y-105861233D01*
X189043121Y-105941666D01*
X188962688Y-106102533D01*
X188962688Y-106585133D01*
X189043121Y-106746000D01*
X189123554Y-106826433D01*
X189284421Y-106906866D01*
X189525721Y-106906866D01*
X188238788Y-105780800D02*
X188238788Y-106906866D01*
X188238788Y-105941666D02*
X188158354Y-105861233D01*
X187997488Y-105780800D01*
X187756188Y-105780800D01*
X187595321Y-105861233D01*
X187514888Y-106022100D01*
X187514888Y-106906866D01*
X189002380Y-78568258D02*
X188526190Y-78234924D01*
X189002380Y-77996829D02*
X188002380Y-77996829D01*
X188002380Y-78377782D01*
X188050000Y-78473020D01*
X188097619Y-78520639D01*
X188192857Y-78568258D01*
X188335714Y-78568258D01*
X188430952Y-78520639D01*
X188478571Y-78473020D01*
X188526190Y-78377782D01*
X188526190Y-77996829D01*
X188478571Y-78996829D02*
X188478571Y-79330163D01*
X189002380Y-79473020D02*
X189002380Y-78996829D01*
X188002380Y-78996829D01*
X188002380Y-79473020D01*
X189002380Y-79901591D02*
X188002380Y-79901591D01*
X188002380Y-80139686D01*
X188050000Y-80282544D01*
X188145238Y-80377782D01*
X188240476Y-80425401D01*
X188430952Y-80473020D01*
X188573809Y-80473020D01*
X188764285Y-80425401D01*
X188859523Y-80377782D01*
X188954761Y-80282544D01*
X189002380Y-80139686D01*
X189002380Y-79901591D01*
X189002380Y-81663496D02*
X188002380Y-81663496D01*
X188478571Y-81663496D02*
X188478571Y-82234924D01*
X189002380Y-82234924D02*
X188002380Y-82234924D01*
X188478571Y-82711115D02*
X188478571Y-83044448D01*
X189002380Y-83187305D02*
X189002380Y-82711115D01*
X188002380Y-82711115D01*
X188002380Y-83187305D01*
X189002380Y-84187305D02*
X188526190Y-83853972D01*
X189002380Y-83615877D02*
X188002380Y-83615877D01*
X188002380Y-83996829D01*
X188050000Y-84092067D01*
X188097619Y-84139686D01*
X188192857Y-84187305D01*
X188335714Y-84187305D01*
X188430952Y-84139686D01*
X188478571Y-84092067D01*
X188526190Y-83996829D01*
X188526190Y-83615877D01*
X188478571Y-84615877D02*
X188478571Y-84949210D01*
X189002380Y-85092067D02*
X189002380Y-84615877D01*
X188002380Y-84615877D01*
X188002380Y-85092067D01*
X214640466Y-148405444D02*
X213836133Y-147842410D01*
X214640466Y-147440244D02*
X212951366Y-147440244D01*
X212951366Y-148083710D01*
X213031800Y-148244577D01*
X213112233Y-148325010D01*
X213273100Y-148405444D01*
X213514400Y-148405444D01*
X213675266Y-148325010D01*
X213755700Y-148244577D01*
X213836133Y-148083710D01*
X213836133Y-147440244D01*
X213755700Y-149129344D02*
X213755700Y-149692377D01*
X214640466Y-149933677D02*
X214640466Y-149129344D01*
X212951366Y-149129344D01*
X212951366Y-149933677D01*
X214640466Y-150657577D02*
X212951366Y-150657577D01*
X212951366Y-151059744D01*
X213031800Y-151301044D01*
X213192666Y-151461910D01*
X213353533Y-151542344D01*
X213675266Y-151622777D01*
X213916566Y-151622777D01*
X214238300Y-151542344D01*
X214399166Y-151461910D01*
X214560033Y-151301044D01*
X214640466Y-151059744D01*
X214640466Y-150657577D01*
X214640466Y-153633610D02*
X212951366Y-153633610D01*
X213755700Y-153633610D02*
X213755700Y-154598810D01*
X214640466Y-154598810D02*
X212951366Y-154598810D01*
X213755700Y-155403144D02*
X213755700Y-155966177D01*
X214640466Y-156207477D02*
X214640466Y-155403144D01*
X212951366Y-155403144D01*
X212951366Y-156207477D01*
X214640466Y-157896577D02*
X213836133Y-157333544D01*
X214640466Y-156931377D02*
X212951366Y-156931377D01*
X212951366Y-157574844D01*
X213031800Y-157735710D01*
X213112233Y-157816144D01*
X213273100Y-157896577D01*
X213514400Y-157896577D01*
X213675266Y-157816144D01*
X213755700Y-157735710D01*
X213836133Y-157574844D01*
X213836133Y-156931377D01*
X213755700Y-158620477D02*
X213755700Y-159183510D01*
X214640466Y-159424810D02*
X214640466Y-158620477D01*
X212951366Y-158620477D01*
X212951366Y-159424810D01*
X201455377Y-76109800D02*
X200892344Y-76109800D01*
X200651044Y-76994566D02*
X201455377Y-76994566D01*
X201455377Y-75305466D01*
X200651044Y-75305466D01*
X200088010Y-75305466D02*
X198961944Y-76994566D01*
X198961944Y-75305466D02*
X200088010Y-76994566D01*
X198318477Y-76994566D02*
X198318477Y-75305466D01*
X197675010Y-75305466D01*
X197514144Y-75385900D01*
X197433710Y-75466333D01*
X197353277Y-75627200D01*
X197353277Y-75868500D01*
X197433710Y-76029366D01*
X197514144Y-76109800D01*
X197675010Y-76190233D01*
X198318477Y-76190233D01*
X196709810Y-76511966D02*
X195905477Y-76511966D01*
X196870677Y-76994566D02*
X196307644Y-75305466D01*
X195744610Y-76994566D01*
X195181577Y-76994566D02*
X195181577Y-75305466D01*
X194216377Y-76994566D01*
X194216377Y-75305466D01*
X193412044Y-76994566D02*
X193412044Y-75305466D01*
X193009877Y-75305466D01*
X192768577Y-75385900D01*
X192607710Y-75546766D01*
X192527277Y-75707633D01*
X192446844Y-76029366D01*
X192446844Y-76270666D01*
X192527277Y-76592400D01*
X192607710Y-76753266D01*
X192768577Y-76914133D01*
X193009877Y-76994566D01*
X193412044Y-76994566D01*
X191722944Y-76109800D02*
X191159910Y-76109800D01*
X190918610Y-76994566D02*
X191722944Y-76994566D01*
X191722944Y-75305466D01*
X190918610Y-75305466D01*
X189229510Y-76994566D02*
X189792544Y-76190233D01*
X190194710Y-76994566D02*
X190194710Y-75305466D01*
X189551244Y-75305466D01*
X189390377Y-75385900D01*
X189309944Y-75466333D01*
X189229510Y-75627200D01*
X189229510Y-75868500D01*
X189309944Y-76029366D01*
X189390377Y-76109800D01*
X189551244Y-76190233D01*
X190194710Y-76190233D01*
D12*
X137472634Y-143992675D02*
X137518596Y-143946713D01*
X137564558Y-143808827D01*
X137564558Y-143716903D01*
X137518596Y-143579018D01*
X137426672Y-143487094D01*
X137334748Y-143441132D01*
X137150900Y-143395170D01*
X137013015Y-143395170D01*
X136829167Y-143441132D01*
X136737243Y-143487094D01*
X136645320Y-143579018D01*
X136599358Y-143716903D01*
X136599358Y-143808827D01*
X136645320Y-143946713D01*
X136691281Y-143992675D01*
X136599358Y-144268446D02*
X137564558Y-144590180D01*
X136599358Y-144911913D01*
X137196862Y-145233646D02*
X137196862Y-145969037D01*
X137564558Y-146980199D02*
X137104939Y-146658465D01*
X137564558Y-146428656D02*
X136599358Y-146428656D01*
X136599358Y-146796351D01*
X136645320Y-146888275D01*
X136691281Y-146934237D01*
X136783205Y-146980199D01*
X136921091Y-146980199D01*
X137013015Y-146934237D01*
X137058977Y-146888275D01*
X137104939Y-146796351D01*
X137104939Y-146428656D01*
X137288786Y-147347894D02*
X137288786Y-147807513D01*
X137564558Y-147255970D02*
X136599358Y-147577703D01*
X137564558Y-147899437D01*
X136599358Y-148083284D02*
X136599358Y-148634827D01*
X137564558Y-148359056D02*
X136599358Y-148359056D01*
X137564558Y-149462141D02*
X137564558Y-148910599D01*
X137564558Y-149186370D02*
X136599358Y-149186370D01*
X136737243Y-149094446D01*
X136829167Y-149002522D01*
X136875129Y-148910599D01*
X104781154Y-143950751D02*
X104827116Y-143904789D01*
X104873078Y-143766903D01*
X104873078Y-143674980D01*
X104827116Y-143537094D01*
X104735192Y-143445170D01*
X104643268Y-143399208D01*
X104459420Y-143353246D01*
X104321535Y-143353246D01*
X104137687Y-143399208D01*
X104045763Y-143445170D01*
X103953840Y-143537094D01*
X103907878Y-143674980D01*
X103907878Y-143766903D01*
X103953840Y-143904789D01*
X103999801Y-143950751D01*
X103907878Y-144226522D02*
X104873078Y-144548256D01*
X103907878Y-144869989D01*
X104505382Y-145191722D02*
X104505382Y-145927113D01*
X104873078Y-146938275D02*
X104413459Y-146616541D01*
X104873078Y-146386732D02*
X103907878Y-146386732D01*
X103907878Y-146754427D01*
X103953840Y-146846351D01*
X103999801Y-146892313D01*
X104091725Y-146938275D01*
X104229611Y-146938275D01*
X104321535Y-146892313D01*
X104367497Y-146846351D01*
X104413459Y-146754427D01*
X104413459Y-146386732D01*
X104367497Y-147351932D02*
X104367497Y-147673665D01*
X104873078Y-147811551D02*
X104873078Y-147351932D01*
X103907878Y-147351932D01*
X103907878Y-147811551D01*
X104873078Y-148684827D02*
X104873078Y-148225208D01*
X103907878Y-148225208D01*
X104873078Y-149512141D02*
X104873078Y-148960599D01*
X104873078Y-149236370D02*
X103907878Y-149236370D01*
X104045763Y-149144446D01*
X104137687Y-149052522D01*
X104183649Y-148960599D01*
X148511594Y-145052294D02*
X148557556Y-145006332D01*
X148603518Y-144868446D01*
X148603518Y-144776522D01*
X148557556Y-144638637D01*
X148465632Y-144546713D01*
X148373708Y-144500751D01*
X148189860Y-144454789D01*
X148051975Y-144454789D01*
X147868127Y-144500751D01*
X147776203Y-144546713D01*
X147684280Y-144638637D01*
X147638318Y-144776522D01*
X147638318Y-144868446D01*
X147684280Y-145006332D01*
X147730241Y-145052294D01*
X147638318Y-145328065D02*
X148603518Y-145649799D01*
X147638318Y-145971532D01*
X148235822Y-146293265D02*
X148235822Y-147028656D01*
X148603518Y-147488275D02*
X147638318Y-147488275D01*
X147638318Y-147855970D01*
X147684280Y-147947894D01*
X147730241Y-147993856D01*
X147822165Y-148039818D01*
X147960051Y-148039818D01*
X148051975Y-147993856D01*
X148097937Y-147947894D01*
X148143899Y-147855970D01*
X148143899Y-147488275D01*
X148603518Y-148453475D02*
X147638318Y-148453475D01*
X148327746Y-148775208D01*
X147638318Y-149096941D01*
X148603518Y-149096941D01*
X148603518Y-150062141D02*
X148603518Y-149510599D01*
X148603518Y-149786370D02*
X147638318Y-149786370D01*
X147776203Y-149694446D01*
X147868127Y-149602522D01*
X147914089Y-149510599D01*
X115895514Y-144167675D02*
X115941476Y-144121713D01*
X115987438Y-143983827D01*
X115987438Y-143891903D01*
X115941476Y-143754018D01*
X115849552Y-143662094D01*
X115757628Y-143616132D01*
X115573780Y-143570170D01*
X115435895Y-143570170D01*
X115252047Y-143616132D01*
X115160123Y-143662094D01*
X115068200Y-143754018D01*
X115022238Y-143891903D01*
X115022238Y-143983827D01*
X115068200Y-144121713D01*
X115114161Y-144167675D01*
X115022238Y-144443446D02*
X115987438Y-144765180D01*
X115022238Y-145086913D01*
X115619742Y-145408646D02*
X115619742Y-146144037D01*
X115987438Y-147155199D02*
X115527819Y-146833465D01*
X115987438Y-146603656D02*
X115022238Y-146603656D01*
X115022238Y-146971351D01*
X115068200Y-147063275D01*
X115114161Y-147109237D01*
X115206085Y-147155199D01*
X115343971Y-147155199D01*
X115435895Y-147109237D01*
X115481857Y-147063275D01*
X115527819Y-146971351D01*
X115527819Y-146603656D01*
X115711666Y-147522894D02*
X115711666Y-147982513D01*
X115987438Y-147430970D02*
X115022238Y-147752703D01*
X115987438Y-148074437D01*
X115022238Y-148258284D02*
X115022238Y-148809827D01*
X115987438Y-148534056D02*
X115022238Y-148534056D01*
X115114161Y-149085599D02*
X115068200Y-149131561D01*
X115022238Y-149223484D01*
X115022238Y-149453294D01*
X115068200Y-149545218D01*
X115114161Y-149591180D01*
X115206085Y-149637141D01*
X115298009Y-149637141D01*
X115435895Y-149591180D01*
X115987438Y-149039637D01*
X115987438Y-149637141D01*
X126509074Y-144677294D02*
X126555036Y-144631332D01*
X126600998Y-144493446D01*
X126600998Y-144401522D01*
X126555036Y-144263637D01*
X126463112Y-144171713D01*
X126371188Y-144125751D01*
X126187340Y-144079789D01*
X126049455Y-144079789D01*
X125865607Y-144125751D01*
X125773683Y-144171713D01*
X125681760Y-144263637D01*
X125635798Y-144401522D01*
X125635798Y-144493446D01*
X125681760Y-144631332D01*
X125727721Y-144677294D01*
X125635798Y-144953065D02*
X126600998Y-145274799D01*
X125635798Y-145596532D01*
X126233302Y-145918265D02*
X126233302Y-146653656D01*
X126600998Y-147113275D02*
X125635798Y-147113275D01*
X125635798Y-147480970D01*
X125681760Y-147572894D01*
X125727721Y-147618856D01*
X125819645Y-147664818D01*
X125957531Y-147664818D01*
X126049455Y-147618856D01*
X126095417Y-147572894D01*
X126141379Y-147480970D01*
X126141379Y-147113275D01*
X126600998Y-148078475D02*
X125635798Y-148078475D01*
X126325226Y-148400208D01*
X125635798Y-148721941D01*
X126600998Y-148721941D01*
X125727721Y-149135599D02*
X125681760Y-149181561D01*
X125635798Y-149273484D01*
X125635798Y-149503294D01*
X125681760Y-149595218D01*
X125727721Y-149641180D01*
X125819645Y-149687141D01*
X125911569Y-149687141D01*
X126049455Y-149641180D01*
X126600998Y-149089637D01*
X126600998Y-149687141D01*
X94092476Y-143360798D02*
X94092476Y-142901179D01*
X93127276Y-142901179D01*
X93586895Y-143682532D02*
X93586895Y-144004265D01*
X94092476Y-144142151D02*
X94092476Y-143682532D01*
X93127276Y-143682532D01*
X93127276Y-144142151D01*
X93586895Y-144877541D02*
X93586895Y-144555808D01*
X94092476Y-144555808D02*
X93127276Y-144555808D01*
X93127276Y-145015427D01*
X93127276Y-145245237D02*
X93127276Y-145796779D01*
X94092476Y-145521008D02*
X93127276Y-145521008D01*
X93724780Y-146118513D02*
X93724780Y-146853903D01*
X93127276Y-147497370D02*
X93127276Y-147681218D01*
X93173238Y-147773141D01*
X93265161Y-147865065D01*
X93449009Y-147911027D01*
X93770742Y-147911027D01*
X93954590Y-147865065D01*
X94046514Y-147773141D01*
X94092476Y-147681218D01*
X94092476Y-147497370D01*
X94046514Y-147405446D01*
X93954590Y-147313522D01*
X93770742Y-147267560D01*
X93449009Y-147267560D01*
X93265161Y-147313522D01*
X93173238Y-147405446D01*
X93127276Y-147497370D01*
X93127276Y-148324684D02*
X93908628Y-148324684D01*
X94000552Y-148370646D01*
X94046514Y-148416608D01*
X94092476Y-148508532D01*
X94092476Y-148692379D01*
X94046514Y-148784303D01*
X94000552Y-148830265D01*
X93908628Y-148876227D01*
X93127276Y-148876227D01*
X93127276Y-149197960D02*
X93127276Y-149749503D01*
X94092476Y-149473732D02*
X93127276Y-149473732D01*
X94092476Y-150576818D02*
X94092476Y-150025275D01*
X94092476Y-150301046D02*
X93127276Y-150301046D01*
X93265161Y-150209122D01*
X93357085Y-150117198D01*
X93403047Y-150025275D01*
X169659800Y-135037057D02*
X169613838Y-134945133D01*
X169613838Y-134807247D01*
X169659800Y-134669361D01*
X169751723Y-134577438D01*
X169843647Y-134531476D01*
X170027495Y-134485514D01*
X170165380Y-134485514D01*
X170349228Y-134531476D01*
X170441152Y-134577438D01*
X170533076Y-134669361D01*
X170579038Y-134807247D01*
X170579038Y-134899171D01*
X170533076Y-135037057D01*
X170487114Y-135083019D01*
X170165380Y-135083019D01*
X170165380Y-134899171D01*
X170303266Y-135450714D02*
X170303266Y-135910333D01*
X170579038Y-135358790D02*
X169613838Y-135680523D01*
X170579038Y-136002257D01*
X169613838Y-136186104D02*
X169613838Y-136737647D01*
X170579038Y-136461876D02*
X169613838Y-136461876D01*
X170073457Y-137059381D02*
X170073457Y-137381114D01*
X170579038Y-137519000D02*
X170579038Y-137059381D01*
X169613838Y-137059381D01*
X169613838Y-137519000D01*
X170211342Y-137932657D02*
X170211342Y-138668047D01*
X169613838Y-139311514D02*
X169613838Y-139495361D01*
X169659800Y-139587285D01*
X169751723Y-139679209D01*
X169935571Y-139725171D01*
X170257304Y-139725171D01*
X170441152Y-139679209D01*
X170533076Y-139587285D01*
X170579038Y-139495361D01*
X170579038Y-139311514D01*
X170533076Y-139219590D01*
X170441152Y-139127666D01*
X170257304Y-139081704D01*
X169935571Y-139081704D01*
X169751723Y-139127666D01*
X169659800Y-139219590D01*
X169613838Y-139311514D01*
X169613838Y-140138828D02*
X170395190Y-140138828D01*
X170487114Y-140184790D01*
X170533076Y-140230752D01*
X170579038Y-140322676D01*
X170579038Y-140506523D01*
X170533076Y-140598447D01*
X170487114Y-140644409D01*
X170395190Y-140690371D01*
X169613838Y-140690371D01*
X169613838Y-141012104D02*
X169613838Y-141563647D01*
X170579038Y-141287876D02*
X169613838Y-141287876D01*
X170579038Y-142390961D02*
X170579038Y-141839419D01*
X170579038Y-142115190D02*
X169613838Y-142115190D01*
X169751723Y-142023266D01*
X169843647Y-141931342D01*
X169889609Y-141839419D01*
X94042476Y-140543808D02*
X93582857Y-140222075D01*
X94042476Y-139992265D02*
X93077276Y-139992265D01*
X93077276Y-140359961D01*
X93123238Y-140451884D01*
X93169199Y-140497846D01*
X93261123Y-140543808D01*
X93399009Y-140543808D01*
X93490933Y-140497846D01*
X93536895Y-140451884D01*
X93582857Y-140359961D01*
X93582857Y-139992265D01*
X94042476Y-140957465D02*
X93077276Y-140957465D01*
X93123238Y-141922665D02*
X93077276Y-141830741D01*
X93077276Y-141692856D01*
X93123238Y-141554970D01*
X93215161Y-141463046D01*
X93307085Y-141417084D01*
X93490933Y-141371122D01*
X93628818Y-141371122D01*
X93812666Y-141417084D01*
X93904590Y-141463046D01*
X93996514Y-141554970D01*
X94042476Y-141692856D01*
X94042476Y-141784780D01*
X93996514Y-141922665D01*
X93950552Y-141968627D01*
X93628818Y-141968627D01*
X93628818Y-141784780D01*
X94042476Y-142382284D02*
X93077276Y-142382284D01*
X93536895Y-142382284D02*
X93536895Y-142933827D01*
X94042476Y-142933827D02*
X93077276Y-142933827D01*
X93077276Y-143255561D02*
X93077276Y-143807103D01*
X94042476Y-143531332D02*
X93077276Y-143531332D01*
X93674780Y-144128837D02*
X93674780Y-144864227D01*
X93077276Y-145507694D02*
X93077276Y-145691541D01*
X93123238Y-145783465D01*
X93215161Y-145875389D01*
X93399009Y-145921351D01*
X93720742Y-145921351D01*
X93904590Y-145875389D01*
X93996514Y-145783465D01*
X94042476Y-145691541D01*
X94042476Y-145507694D01*
X93996514Y-145415770D01*
X93904590Y-145323846D01*
X93720742Y-145277884D01*
X93399009Y-145277884D01*
X93215161Y-145323846D01*
X93123238Y-145415770D01*
X93077276Y-145507694D01*
X93077276Y-146335008D02*
X93858628Y-146335008D01*
X93950552Y-146380970D01*
X93996514Y-146426932D01*
X94042476Y-146518856D01*
X94042476Y-146702703D01*
X93996514Y-146794627D01*
X93950552Y-146840589D01*
X93858628Y-146886551D01*
X93077276Y-146886551D01*
X93077276Y-147208284D02*
X93077276Y-147759827D01*
X94042476Y-147484056D02*
X93077276Y-147484056D01*
X94042476Y-148587141D02*
X94042476Y-148035599D01*
X94042476Y-148311370D02*
X93077276Y-148311370D01*
X93215161Y-148219446D01*
X93307085Y-148127522D01*
X93353047Y-148035599D01*
X137112114Y-135892457D02*
X137158076Y-135846495D01*
X137204038Y-135708609D01*
X137204038Y-135616685D01*
X137158076Y-135478800D01*
X137066152Y-135386876D01*
X136974228Y-135340914D01*
X136790380Y-135294952D01*
X136652495Y-135294952D01*
X136468647Y-135340914D01*
X136376723Y-135386876D01*
X136284800Y-135478800D01*
X136238838Y-135616685D01*
X136238838Y-135708609D01*
X136284800Y-135846495D01*
X136330761Y-135892457D01*
X136238838Y-136168228D02*
X137204038Y-136489961D01*
X136238838Y-136811695D01*
X136836342Y-137133428D02*
X136836342Y-137868819D01*
X137112114Y-138879981D02*
X137158076Y-138834019D01*
X137204038Y-138696133D01*
X137204038Y-138604209D01*
X137158076Y-138466323D01*
X137066152Y-138374400D01*
X136974228Y-138328438D01*
X136790380Y-138282476D01*
X136652495Y-138282476D01*
X136468647Y-138328438D01*
X136376723Y-138374400D01*
X136284800Y-138466323D01*
X136238838Y-138604209D01*
X136238838Y-138696133D01*
X136284800Y-138834019D01*
X136330761Y-138879981D01*
X136238838Y-139155752D02*
X136238838Y-139707295D01*
X137204038Y-139431523D02*
X136238838Y-139431523D01*
X137204038Y-140488647D02*
X137204038Y-140029028D01*
X136238838Y-140029028D01*
X136330761Y-140764419D02*
X136284800Y-140810381D01*
X136238838Y-140902304D01*
X136238838Y-141132114D01*
X136284800Y-141224038D01*
X136330761Y-141270000D01*
X136422685Y-141315961D01*
X136514609Y-141315961D01*
X136652495Y-141270000D01*
X137204038Y-140718457D01*
X137204038Y-141315961D01*
X147458076Y-134687828D02*
X147504038Y-134595904D01*
X147504038Y-134412057D01*
X147458076Y-134320133D01*
X147412114Y-134274171D01*
X147320190Y-134228209D01*
X147044419Y-134228209D01*
X146952495Y-134274171D01*
X146906533Y-134320133D01*
X146860571Y-134412057D01*
X146860571Y-134595904D01*
X146906533Y-134687828D01*
X146860571Y-135009561D02*
X147504038Y-135239371D01*
X146860571Y-135469181D01*
X147136342Y-135836876D02*
X147136342Y-136572266D01*
X147458076Y-137445542D02*
X147504038Y-137353619D01*
X147504038Y-137169771D01*
X147458076Y-137077847D01*
X147412114Y-137031885D01*
X147320190Y-136985923D01*
X147044419Y-136985923D01*
X146952495Y-137031885D01*
X146906533Y-137077847D01*
X146860571Y-137169771D01*
X146860571Y-137353619D01*
X146906533Y-137445542D01*
X146860571Y-138272857D02*
X147504038Y-138272857D01*
X146860571Y-137859200D02*
X147366152Y-137859200D01*
X147458076Y-137905161D01*
X147504038Y-137997085D01*
X147504038Y-138134971D01*
X147458076Y-138226895D01*
X147412114Y-138272857D01*
X146860571Y-138594590D02*
X146860571Y-138962285D01*
X146538838Y-138732476D02*
X147366152Y-138732476D01*
X147458076Y-138778438D01*
X147504038Y-138870361D01*
X147504038Y-138962285D01*
X147504038Y-139421904D02*
X147458076Y-139329981D01*
X147412114Y-139284019D01*
X147320190Y-139238057D01*
X147044419Y-139238057D01*
X146952495Y-139284019D01*
X146906533Y-139329981D01*
X146860571Y-139421904D01*
X146860571Y-139559790D01*
X146906533Y-139651714D01*
X146952495Y-139697676D01*
X147044419Y-139743638D01*
X147320190Y-139743638D01*
X147412114Y-139697676D01*
X147458076Y-139651714D01*
X147504038Y-139559790D01*
X147504038Y-139421904D01*
X146860571Y-140019409D02*
X146860571Y-140387104D01*
X147504038Y-140157295D02*
X146676723Y-140157295D01*
X146584800Y-140203257D01*
X146538838Y-140295181D01*
X146538838Y-140387104D01*
X146860571Y-140570952D02*
X146860571Y-140938647D01*
X147504038Y-140708838D02*
X146676723Y-140708838D01*
X146584800Y-140754800D01*
X146538838Y-140846723D01*
X146538838Y-140938647D01*
X147504038Y-141765961D02*
X147504038Y-141214419D01*
X147504038Y-141490190D02*
X146538838Y-141490190D01*
X146676723Y-141398266D01*
X146768647Y-141306342D01*
X146814609Y-141214419D01*
D13*
X199377380Y-81216666D02*
X200091666Y-81216666D01*
X200234523Y-81169047D01*
X200329761Y-81073809D01*
X200377380Y-80930952D01*
X200377380Y-80835714D01*
X199472619Y-81645238D02*
X199425000Y-81692857D01*
X199377380Y-81788095D01*
X199377380Y-82026190D01*
X199425000Y-82121428D01*
X199472619Y-82169047D01*
X199567857Y-82216666D01*
X199663095Y-82216666D01*
X199805952Y-82169047D01*
X200377380Y-81597619D01*
X200377380Y-82216666D01*
D14*
X173470598Y-110059460D02*
X172987998Y-110059460D01*
X173567118Y-110349020D02*
X173229298Y-109335560D01*
X172891478Y-110349020D01*
X172698438Y-109335560D02*
X172119318Y-109335560D01*
X172408878Y-110349020D02*
X172408878Y-109335560D01*
X171926278Y-109335560D02*
X171347158Y-109335560D01*
X171636718Y-110349020D02*
X171636718Y-109335560D01*
X171057598Y-110059460D02*
X170574998Y-110059460D01*
X171154118Y-110349020D02*
X170816298Y-109335560D01*
X170478478Y-110349020D01*
X169561538Y-110252500D02*
X169609798Y-110300760D01*
X169754578Y-110349020D01*
X169851098Y-110349020D01*
X169995878Y-110300760D01*
X170092398Y-110204240D01*
X170140658Y-110107720D01*
X170188918Y-109914680D01*
X170188918Y-109769900D01*
X170140658Y-109576860D01*
X170092398Y-109480340D01*
X169995878Y-109383820D01*
X169851098Y-109335560D01*
X169754578Y-109335560D01*
X169609798Y-109383820D01*
X169561538Y-109432080D01*
X169127198Y-110349020D02*
X169127198Y-109335560D01*
X168548078Y-110349020D02*
X168982418Y-109769900D01*
X168548078Y-109335560D02*
X169127198Y-109914680D01*
X167582878Y-110349020D02*
X168161998Y-110349020D01*
X167872438Y-110349020D02*
X167872438Y-109335560D01*
X167968958Y-109480340D01*
X168065478Y-109576860D01*
X168161998Y-109625120D01*
X127775998Y-110427760D02*
X127872518Y-110476020D01*
X128065558Y-110476020D01*
X128162078Y-110427760D01*
X128210338Y-110379500D01*
X128258598Y-110282980D01*
X128258598Y-109993420D01*
X128210338Y-109896900D01*
X128162078Y-109848640D01*
X128065558Y-109800380D01*
X127872518Y-109800380D01*
X127775998Y-109848640D01*
X126907318Y-109800380D02*
X126907318Y-110476020D01*
X127341658Y-109800380D02*
X127341658Y-110331240D01*
X127293398Y-110427760D01*
X127196878Y-110476020D01*
X127052098Y-110476020D01*
X126955578Y-110427760D01*
X126907318Y-110379500D01*
X126569498Y-109800380D02*
X126183418Y-109800380D01*
X126424718Y-109462560D02*
X126424718Y-110331240D01*
X126376458Y-110427760D01*
X126279938Y-110476020D01*
X126183418Y-110476020D01*
X125700818Y-110476020D02*
X125797338Y-110427760D01*
X125845598Y-110379500D01*
X125893858Y-110282980D01*
X125893858Y-109993420D01*
X125845598Y-109896900D01*
X125797338Y-109848640D01*
X125700818Y-109800380D01*
X125556038Y-109800380D01*
X125459518Y-109848640D01*
X125411258Y-109896900D01*
X125362998Y-109993420D01*
X125362998Y-110282980D01*
X125411258Y-110379500D01*
X125459518Y-110427760D01*
X125556038Y-110476020D01*
X125700818Y-110476020D01*
X125073438Y-109800380D02*
X124687358Y-109800380D01*
X124928658Y-110476020D02*
X124928658Y-109607340D01*
X124880398Y-109510820D01*
X124783878Y-109462560D01*
X124687358Y-109462560D01*
X124494318Y-109800380D02*
X124108238Y-109800380D01*
X124349538Y-110476020D02*
X124349538Y-109607340D01*
X124301278Y-109510820D01*
X124204758Y-109462560D01*
X124108238Y-109462560D01*
X123239558Y-110476020D02*
X123818678Y-110476020D01*
X123529118Y-110476020D02*
X123529118Y-109462560D01*
X123625638Y-109607340D01*
X123722158Y-109703860D01*
X123818678Y-109752120D01*
X151380218Y-110158520D02*
X151718038Y-109675920D01*
X151959338Y-110158520D02*
X151959338Y-109145060D01*
X151573258Y-109145060D01*
X151476738Y-109193320D01*
X151428478Y-109241580D01*
X151380218Y-109338100D01*
X151380218Y-109482880D01*
X151428478Y-109579400D01*
X151476738Y-109627660D01*
X151573258Y-109675920D01*
X151959338Y-109675920D01*
X150945878Y-109627660D02*
X150608058Y-109627660D01*
X150463278Y-110158520D02*
X150945878Y-110158520D01*
X150945878Y-109145060D01*
X150463278Y-109145060D01*
X149546338Y-110158520D02*
X150028938Y-110158520D01*
X150028938Y-109145060D01*
X149208518Y-109627660D02*
X148870698Y-109627660D01*
X148725918Y-110158520D02*
X149208518Y-110158520D01*
X149208518Y-109145060D01*
X148725918Y-109145060D01*
X148339838Y-109868960D02*
X147857238Y-109868960D01*
X148436358Y-110158520D02*
X148098538Y-109145060D01*
X147760718Y-110158520D01*
X147471158Y-110110260D02*
X147326378Y-110158520D01*
X147085078Y-110158520D01*
X146988558Y-110110260D01*
X146940298Y-110062000D01*
X146892038Y-109965480D01*
X146892038Y-109868960D01*
X146940298Y-109772440D01*
X146988558Y-109724180D01*
X147085078Y-109675920D01*
X147278118Y-109627660D01*
X147374638Y-109579400D01*
X147422898Y-109531140D01*
X147471158Y-109434620D01*
X147471158Y-109338100D01*
X147422898Y-109241580D01*
X147374638Y-109193320D01*
X147278118Y-109145060D01*
X147036818Y-109145060D01*
X146892038Y-109193320D01*
X146457698Y-109627660D02*
X146119878Y-109627660D01*
X145975098Y-110158520D02*
X146457698Y-110158520D01*
X146457698Y-109145060D01*
X145975098Y-109145060D01*
X145009898Y-110158520D02*
X145589018Y-110158520D01*
X145299458Y-110158520D02*
X145299458Y-109145060D01*
X145395978Y-109289840D01*
X145492498Y-109386360D01*
X145589018Y-109434620D01*
D13*
X180928323Y-134567608D02*
X180975942Y-134662846D01*
X180975942Y-134853322D01*
X180928323Y-134948560D01*
X180833085Y-134996180D01*
X180785466Y-134996180D01*
X180690228Y-134948560D01*
X180642609Y-134853322D01*
X180642609Y-134710465D01*
X180594990Y-134615227D01*
X180499752Y-134567608D01*
X180452133Y-134567608D01*
X180356895Y-134615227D01*
X180309276Y-134710465D01*
X180309276Y-134853322D01*
X180356895Y-134948560D01*
X180309276Y-135329513D02*
X180975942Y-135519989D01*
X180499752Y-135710465D01*
X180975942Y-135900941D01*
X180309276Y-136091418D01*
X180594990Y-136472370D02*
X180594990Y-137234275D01*
X180975942Y-137710465D02*
X180309276Y-137710465D01*
X180404514Y-137710465D02*
X180356895Y-137758084D01*
X180309276Y-137853322D01*
X180309276Y-137996180D01*
X180356895Y-138091418D01*
X180452133Y-138139037D01*
X180975942Y-138139037D01*
X180452133Y-138139037D02*
X180356895Y-138186656D01*
X180309276Y-138281894D01*
X180309276Y-138424751D01*
X180356895Y-138519989D01*
X180452133Y-138567608D01*
X180975942Y-138567608D01*
X180975942Y-139043799D02*
X180309276Y-139043799D01*
X179975942Y-139043799D02*
X180023562Y-138996180D01*
X180071181Y-139043799D01*
X180023562Y-139091418D01*
X179975942Y-139043799D01*
X180071181Y-139043799D01*
X180975942Y-139948560D02*
X179975942Y-139948560D01*
X180928323Y-139948560D02*
X180975942Y-139853322D01*
X180975942Y-139662846D01*
X180928323Y-139567608D01*
X180880704Y-139519989D01*
X180785466Y-139472370D01*
X180499752Y-139472370D01*
X180404514Y-139519989D01*
X180356895Y-139567608D01*
X180309276Y-139662846D01*
X180309276Y-139853322D01*
X180356895Y-139948560D01*
X180975942Y-140424751D02*
X180309276Y-140424751D01*
X179975942Y-140424751D02*
X180023562Y-140377132D01*
X180071181Y-140424751D01*
X180023562Y-140472370D01*
X179975942Y-140424751D01*
X180071181Y-140424751D01*
X180975942Y-141424751D02*
X180975942Y-140853322D01*
X180975942Y-141139037D02*
X179975942Y-141139037D01*
X180118800Y-141043799D01*
X180214038Y-140948560D01*
X180261657Y-140853322D01*
D14*
X105469718Y-110570000D02*
X105517978Y-110618260D01*
X105662758Y-110666520D01*
X105759278Y-110666520D01*
X105904058Y-110618260D01*
X106000578Y-110521740D01*
X106048838Y-110425220D01*
X106097098Y-110232180D01*
X106097098Y-110087400D01*
X106048838Y-109894360D01*
X106000578Y-109797840D01*
X105904058Y-109701320D01*
X105759278Y-109653060D01*
X105662758Y-109653060D01*
X105517978Y-109701320D01*
X105469718Y-109749580D01*
X105180158Y-109653060D02*
X104601038Y-109653060D01*
X104890598Y-110666520D02*
X104890598Y-109653060D01*
X103780618Y-110666520D02*
X104263218Y-110666520D01*
X104263218Y-109653060D01*
X103491058Y-109749580D02*
X103442798Y-109701320D01*
X103346278Y-109653060D01*
X103104978Y-109653060D01*
X103008458Y-109701320D01*
X102960198Y-109749580D01*
X102911938Y-109846100D01*
X102911938Y-109942620D01*
X102960198Y-110087400D01*
X103539318Y-110666520D01*
X102911938Y-110666520D01*
D12*
X179536133Y-160122618D02*
X179536133Y-159157418D01*
X179214399Y-159846846D01*
X178892666Y-159157418D01*
X178892666Y-160122618D01*
X178433047Y-160122618D02*
X178433047Y-159157418D01*
X177973428Y-160122618D02*
X177973428Y-159157418D01*
X177743618Y-159157418D01*
X177605733Y-159203380D01*
X177513809Y-159295303D01*
X177467847Y-159387227D01*
X177421885Y-159571075D01*
X177421885Y-159708960D01*
X177467847Y-159892808D01*
X177513809Y-159984732D01*
X177605733Y-160076656D01*
X177743618Y-160122618D01*
X177973428Y-160122618D01*
X177008228Y-160122618D02*
X177008228Y-159157418D01*
X176548609Y-159754922D02*
X175813218Y-159754922D01*
X175353599Y-160122618D02*
X175353599Y-159157418D01*
X174893980Y-160122618D02*
X174893980Y-159157418D01*
X174342438Y-160122618D01*
X174342438Y-159157418D01*
X173377238Y-160122618D02*
X173928780Y-160122618D01*
X173653009Y-160122618D02*
X173653009Y-159157418D01*
X173744933Y-159295303D01*
X173836857Y-159387227D01*
X173928780Y-159433189D01*
X160087840Y-159944818D02*
X160087840Y-158979618D01*
X159766106Y-159669046D01*
X159444373Y-158979618D01*
X159444373Y-159944818D01*
X158984754Y-159944818D02*
X158984754Y-158979618D01*
X158525135Y-159944818D02*
X158525135Y-158979618D01*
X158295325Y-158979618D01*
X158157440Y-159025580D01*
X158065516Y-159117503D01*
X158019554Y-159209427D01*
X157973592Y-159393275D01*
X157973592Y-159531160D01*
X158019554Y-159715008D01*
X158065516Y-159806932D01*
X158157440Y-159898856D01*
X158295325Y-159944818D01*
X158525135Y-159944818D01*
X157559935Y-159944818D02*
X157559935Y-158979618D01*
X157100316Y-159577122D02*
X156364925Y-159577122D01*
X156043192Y-158979618D02*
X155491649Y-158979618D01*
X155767421Y-159944818D02*
X155767421Y-158979618D01*
X155169916Y-159944818D02*
X155169916Y-158979618D01*
X155169916Y-159439237D02*
X154618373Y-159439237D01*
X154618373Y-159944818D02*
X154618373Y-158979618D01*
X153607211Y-159944818D02*
X153928944Y-159485199D01*
X154158754Y-159944818D02*
X154158754Y-158979618D01*
X153791059Y-158979618D01*
X153699135Y-159025580D01*
X153653173Y-159071541D01*
X153607211Y-159163465D01*
X153607211Y-159301351D01*
X153653173Y-159393275D01*
X153699135Y-159439237D01*
X153791059Y-159485199D01*
X154158754Y-159485199D01*
X153193554Y-158979618D02*
X153193554Y-159760970D01*
X153147592Y-159852894D01*
X153101630Y-159898856D01*
X153009706Y-159944818D01*
X152825859Y-159944818D01*
X152733935Y-159898856D01*
X152687973Y-159852894D01*
X152642011Y-159760970D01*
X152642011Y-158979618D01*
X151676811Y-159944818D02*
X152228354Y-159944818D01*
X151952582Y-159944818D02*
X151952582Y-158979618D01*
X152044506Y-159117503D01*
X152136430Y-159209427D01*
X152228354Y-159255389D01*
D15*
X220216737Y-157978323D02*
X220216737Y-158885466D01*
X220277213Y-159066895D01*
X220398165Y-159187847D01*
X220579594Y-159248323D01*
X220700546Y-159248323D01*
X218946737Y-159248323D02*
X219672451Y-159248323D01*
X219309594Y-159248323D02*
X219309594Y-157978323D01*
X219430546Y-158159752D01*
X219551499Y-158280704D01*
X219672451Y-158341180D01*
D13*
X129281943Y-62550941D02*
X129186705Y-62598560D01*
X128996229Y-62598560D01*
X128900991Y-62550941D01*
X128853372Y-62455703D01*
X128853372Y-62408084D01*
X128900991Y-62312846D01*
X128996229Y-62265227D01*
X129139086Y-62265227D01*
X129234324Y-62217608D01*
X129281943Y-62122370D01*
X129281943Y-62074751D01*
X129234324Y-61979513D01*
X129139086Y-61931894D01*
X128996229Y-61931894D01*
X128900991Y-61979513D01*
X128520038Y-61931894D02*
X128329562Y-62598560D01*
X128139086Y-62122370D01*
X127948610Y-62598560D01*
X127758133Y-61931894D01*
X127377181Y-62217608D02*
X126615276Y-62217608D01*
X126186705Y-62550941D02*
X126091467Y-62598560D01*
X125900991Y-62598560D01*
X125805752Y-62550941D01*
X125758133Y-62455703D01*
X125758133Y-62408084D01*
X125805752Y-62312846D01*
X125900991Y-62265227D01*
X126043848Y-62265227D01*
X126139086Y-62217608D01*
X126186705Y-62122370D01*
X126186705Y-62074751D01*
X126139086Y-61979513D01*
X126043848Y-61931894D01*
X125900991Y-61931894D01*
X125805752Y-61979513D01*
X124948610Y-62550941D02*
X125043848Y-62598560D01*
X125234324Y-62598560D01*
X125329562Y-62550941D01*
X125377181Y-62455703D01*
X125377181Y-62074751D01*
X125329562Y-61979513D01*
X125234324Y-61931894D01*
X125043848Y-61931894D01*
X124948610Y-61979513D01*
X124900991Y-62074751D01*
X124900991Y-62169989D01*
X125377181Y-62265227D01*
X124329562Y-62598560D02*
X124424800Y-62550941D01*
X124472419Y-62455703D01*
X124472419Y-61598560D01*
X123996229Y-61693799D02*
X123948610Y-61646180D01*
X123853372Y-61598560D01*
X123615276Y-61598560D01*
X123520038Y-61646180D01*
X123472419Y-61693799D01*
X123424800Y-61789037D01*
X123424800Y-61884275D01*
X123472419Y-62027132D01*
X124043848Y-62598560D01*
X123424800Y-62598560D01*
X144171771Y-65850941D02*
X144028914Y-65898560D01*
X143790818Y-65898560D01*
X143695580Y-65850941D01*
X143647961Y-65803322D01*
X143600342Y-65708084D01*
X143600342Y-65612846D01*
X143647961Y-65517608D01*
X143695580Y-65469989D01*
X143790818Y-65422370D01*
X143981295Y-65374751D01*
X144076533Y-65327132D01*
X144124152Y-65279513D01*
X144171771Y-65184275D01*
X144171771Y-65089037D01*
X144124152Y-64993799D01*
X144076533Y-64946180D01*
X143981295Y-64898560D01*
X143743199Y-64898560D01*
X143600342Y-64946180D01*
X143267009Y-64898560D02*
X143028914Y-65898560D01*
X142838438Y-65184275D01*
X142647961Y-65898560D01*
X142409866Y-64898560D01*
X142124152Y-64898560D02*
X141505104Y-64898560D01*
X141838438Y-65279513D01*
X141695580Y-65279513D01*
X141600342Y-65327132D01*
X141552723Y-65374751D01*
X141505104Y-65469989D01*
X141505104Y-65708084D01*
X141552723Y-65803322D01*
X141600342Y-65850941D01*
X141695580Y-65898560D01*
X141981295Y-65898560D01*
X142076533Y-65850941D01*
X142124152Y-65803322D01*
X133096771Y-66075941D02*
X132953914Y-66123560D01*
X132715818Y-66123560D01*
X132620580Y-66075941D01*
X132572961Y-66028322D01*
X132525342Y-65933084D01*
X132525342Y-65837846D01*
X132572961Y-65742608D01*
X132620580Y-65694989D01*
X132715818Y-65647370D01*
X132906295Y-65599751D01*
X133001533Y-65552132D01*
X133049152Y-65504513D01*
X133096771Y-65409275D01*
X133096771Y-65314037D01*
X133049152Y-65218799D01*
X133001533Y-65171180D01*
X132906295Y-65123560D01*
X132668199Y-65123560D01*
X132525342Y-65171180D01*
X132192009Y-65123560D02*
X131953914Y-66123560D01*
X131763438Y-65409275D01*
X131572961Y-66123560D01*
X131334866Y-65123560D01*
X130525342Y-65456894D02*
X130525342Y-66123560D01*
X130763438Y-65075941D02*
X131001533Y-65790227D01*
X130382485Y-65790227D01*
D12*
X115770514Y-129138637D02*
X115816476Y-129092675D01*
X115862438Y-128954789D01*
X115862438Y-128862865D01*
X115816476Y-128724980D01*
X115724552Y-128633056D01*
X115632628Y-128587094D01*
X115448780Y-128541132D01*
X115310895Y-128541132D01*
X115127047Y-128587094D01*
X115035123Y-128633056D01*
X114943200Y-128724980D01*
X114897238Y-128862865D01*
X114897238Y-128954789D01*
X114943200Y-129092675D01*
X114989161Y-129138637D01*
X114897238Y-129414408D02*
X115862438Y-129736141D01*
X114897238Y-130057875D01*
X115494742Y-130379608D02*
X115494742Y-131114999D01*
X115770514Y-132126161D02*
X115816476Y-132080199D01*
X115862438Y-131942313D01*
X115862438Y-131850389D01*
X115816476Y-131712503D01*
X115724552Y-131620580D01*
X115632628Y-131574618D01*
X115448780Y-131528656D01*
X115310895Y-131528656D01*
X115127047Y-131574618D01*
X115035123Y-131620580D01*
X114943200Y-131712503D01*
X114897238Y-131850389D01*
X114897238Y-131942313D01*
X114943200Y-132080199D01*
X114989161Y-132126161D01*
X114897238Y-132401932D02*
X114897238Y-132953475D01*
X115862438Y-132677703D02*
X114897238Y-132677703D01*
X115862438Y-133734827D02*
X115862438Y-133275208D01*
X114897238Y-133275208D01*
X114897238Y-133964637D02*
X114897238Y-134562141D01*
X115264933Y-134240408D01*
X115264933Y-134378294D01*
X115310895Y-134470218D01*
X115356857Y-134516180D01*
X115448780Y-134562141D01*
X115678590Y-134562141D01*
X115770514Y-134516180D01*
X115816476Y-134470218D01*
X115862438Y-134378294D01*
X115862438Y-134102522D01*
X115816476Y-134010599D01*
X115770514Y-133964637D01*
X104831154Y-129413637D02*
X104877116Y-129367675D01*
X104923078Y-129229789D01*
X104923078Y-129137865D01*
X104877116Y-128999980D01*
X104785192Y-128908056D01*
X104693268Y-128862094D01*
X104509420Y-128816132D01*
X104371535Y-128816132D01*
X104187687Y-128862094D01*
X104095763Y-128908056D01*
X104003840Y-128999980D01*
X103957878Y-129137865D01*
X103957878Y-129229789D01*
X104003840Y-129367675D01*
X104049801Y-129413637D01*
X103957878Y-129689408D02*
X104923078Y-130011141D01*
X103957878Y-130332875D01*
X104555382Y-130654608D02*
X104555382Y-131389999D01*
X104831154Y-132401161D02*
X104877116Y-132355199D01*
X104923078Y-132217313D01*
X104923078Y-132125389D01*
X104877116Y-131987503D01*
X104785192Y-131895580D01*
X104693268Y-131849618D01*
X104509420Y-131803656D01*
X104371535Y-131803656D01*
X104187687Y-131849618D01*
X104095763Y-131895580D01*
X104003840Y-131987503D01*
X103957878Y-132125389D01*
X103957878Y-132217313D01*
X104003840Y-132355199D01*
X104049801Y-132401161D01*
X103957878Y-132676932D02*
X103957878Y-133228475D01*
X104923078Y-132952703D02*
X103957878Y-132952703D01*
X104923078Y-134009827D02*
X104923078Y-133550208D01*
X103957878Y-133550208D01*
X104279611Y-134745218D02*
X104923078Y-134745218D01*
X103911916Y-134515408D02*
X104601344Y-134285599D01*
X104601344Y-134883103D01*
D13*
X162706933Y-69028560D02*
X162706933Y-68028560D01*
X162468838Y-68028560D01*
X162325980Y-68076180D01*
X162230742Y-68171418D01*
X162183123Y-68266656D01*
X162135504Y-68457132D01*
X162135504Y-68599989D01*
X162183123Y-68790465D01*
X162230742Y-68885703D01*
X162325980Y-68980941D01*
X162468838Y-69028560D01*
X162706933Y-69028560D01*
X161230742Y-68028560D02*
X161706933Y-68028560D01*
X161754552Y-68504751D01*
X161706933Y-68457132D01*
X161611695Y-68409513D01*
X161373599Y-68409513D01*
X161278361Y-68457132D01*
X161230742Y-68504751D01*
X161183123Y-68599989D01*
X161183123Y-68838084D01*
X161230742Y-68933322D01*
X161278361Y-68980941D01*
X161373599Y-69028560D01*
X161611695Y-69028560D01*
X161706933Y-68980941D01*
X161754552Y-68933322D01*
X162706933Y-74362560D02*
X162706933Y-73362560D01*
X162468838Y-73362560D01*
X162325980Y-73410180D01*
X162230742Y-73505418D01*
X162183123Y-73600656D01*
X162135504Y-73791132D01*
X162135504Y-73933989D01*
X162183123Y-74124465D01*
X162230742Y-74219703D01*
X162325980Y-74314941D01*
X162468838Y-74362560D01*
X162706933Y-74362560D01*
X161278361Y-73362560D02*
X161468838Y-73362560D01*
X161564076Y-73410180D01*
X161611695Y-73457799D01*
X161706933Y-73600656D01*
X161754552Y-73791132D01*
X161754552Y-74172084D01*
X161706933Y-74267322D01*
X161659314Y-74314941D01*
X161564076Y-74362560D01*
X161373599Y-74362560D01*
X161278361Y-74314941D01*
X161230742Y-74267322D01*
X161183123Y-74172084D01*
X161183123Y-73933989D01*
X161230742Y-73838751D01*
X161278361Y-73791132D01*
X161373599Y-73743513D01*
X161564076Y-73743513D01*
X161659314Y-73791132D01*
X161706933Y-73838751D01*
X161754552Y-73933989D01*
X162706933Y-79747360D02*
X162706933Y-78747360D01*
X162468838Y-78747360D01*
X162325980Y-78794980D01*
X162230742Y-78890218D01*
X162183123Y-78985456D01*
X162135504Y-79175932D01*
X162135504Y-79318789D01*
X162183123Y-79509265D01*
X162230742Y-79604503D01*
X162325980Y-79699741D01*
X162468838Y-79747360D01*
X162706933Y-79747360D01*
X161802171Y-78747360D02*
X161135504Y-78747360D01*
X161564076Y-79747360D01*
X162705267Y-85248560D02*
X162705267Y-84248560D01*
X162467172Y-84248560D01*
X162324314Y-84296180D01*
X162229076Y-84391418D01*
X162181457Y-84486656D01*
X162133838Y-84677132D01*
X162133838Y-84819989D01*
X162181457Y-85010465D01*
X162229076Y-85105703D01*
X162324314Y-85200941D01*
X162467172Y-85248560D01*
X162705267Y-85248560D01*
X161562410Y-84677132D02*
X161657648Y-84629513D01*
X161705267Y-84581894D01*
X161752886Y-84486656D01*
X161752886Y-84439037D01*
X161705267Y-84343799D01*
X161657648Y-84296180D01*
X161562410Y-84248560D01*
X161371933Y-84248560D01*
X161276695Y-84296180D01*
X161229076Y-84343799D01*
X161181457Y-84439037D01*
X161181457Y-84486656D01*
X161229076Y-84581894D01*
X161276695Y-84629513D01*
X161371933Y-84677132D01*
X161562410Y-84677132D01*
X161657648Y-84724751D01*
X161705267Y-84772370D01*
X161752886Y-84867608D01*
X161752886Y-85058084D01*
X161705267Y-85153322D01*
X161657648Y-85200941D01*
X161562410Y-85248560D01*
X161371933Y-85248560D01*
X161276695Y-85200941D01*
X161229076Y-85153322D01*
X161181457Y-85058084D01*
X161181457Y-84867608D01*
X161229076Y-84772370D01*
X161276695Y-84724751D01*
X161371933Y-84677132D01*
X118714133Y-68977760D02*
X118714133Y-67977760D01*
X118476038Y-67977760D01*
X118333180Y-68025380D01*
X118237942Y-68120618D01*
X118190323Y-68215856D01*
X118142704Y-68406332D01*
X118142704Y-68549189D01*
X118190323Y-68739665D01*
X118237942Y-68834903D01*
X118333180Y-68930141D01*
X118476038Y-68977760D01*
X118714133Y-68977760D01*
X117666514Y-68977760D02*
X117476038Y-68977760D01*
X117380799Y-68930141D01*
X117333180Y-68882522D01*
X117237942Y-68739665D01*
X117190323Y-68549189D01*
X117190323Y-68168237D01*
X117237942Y-68072999D01*
X117285561Y-68025380D01*
X117380799Y-67977760D01*
X117571276Y-67977760D01*
X117666514Y-68025380D01*
X117714133Y-68072999D01*
X117761752Y-68168237D01*
X117761752Y-68406332D01*
X117714133Y-68501570D01*
X117666514Y-68549189D01*
X117571276Y-68596808D01*
X117380799Y-68596808D01*
X117285561Y-68549189D01*
X117237942Y-68501570D01*
X117190323Y-68406332D01*
X118936323Y-74413360D02*
X118936323Y-73413360D01*
X118698228Y-73413360D01*
X118555371Y-73460980D01*
X118460133Y-73556218D01*
X118412514Y-73651456D01*
X118364895Y-73841932D01*
X118364895Y-73984789D01*
X118412514Y-74175265D01*
X118460133Y-74270503D01*
X118555371Y-74365741D01*
X118698228Y-74413360D01*
X118936323Y-74413360D01*
X117412514Y-74413360D02*
X117983942Y-74413360D01*
X117698228Y-74413360D02*
X117698228Y-73413360D01*
X117793466Y-73556218D01*
X117888704Y-73651456D01*
X117983942Y-73699075D01*
X116793466Y-73413360D02*
X116698228Y-73413360D01*
X116602990Y-73460980D01*
X116555371Y-73508599D01*
X116507752Y-73603837D01*
X116460133Y-73794313D01*
X116460133Y-74032408D01*
X116507752Y-74222884D01*
X116555371Y-74318122D01*
X116602990Y-74365741D01*
X116698228Y-74413360D01*
X116793466Y-74413360D01*
X116888704Y-74365741D01*
X116936323Y-74318122D01*
X116983942Y-74222884D01*
X117031561Y-74032408D01*
X117031561Y-73794313D01*
X116983942Y-73603837D01*
X116936323Y-73508599D01*
X116888704Y-73460980D01*
X116793466Y-73413360D01*
X118936323Y-79848960D02*
X118936323Y-78848960D01*
X118698228Y-78848960D01*
X118555371Y-78896580D01*
X118460133Y-78991818D01*
X118412514Y-79087056D01*
X118364895Y-79277532D01*
X118364895Y-79420389D01*
X118412514Y-79610865D01*
X118460133Y-79706103D01*
X118555371Y-79801341D01*
X118698228Y-79848960D01*
X118936323Y-79848960D01*
X117412514Y-79848960D02*
X117983942Y-79848960D01*
X117698228Y-79848960D02*
X117698228Y-78848960D01*
X117793466Y-78991818D01*
X117888704Y-79087056D01*
X117983942Y-79134675D01*
X116460133Y-79848960D02*
X117031561Y-79848960D01*
X116745847Y-79848960D02*
X116745847Y-78848960D01*
X116841085Y-78991818D01*
X116936323Y-79087056D01*
X117031561Y-79134675D01*
X118987123Y-85335360D02*
X118987123Y-84335360D01*
X118749028Y-84335360D01*
X118606171Y-84382980D01*
X118510933Y-84478218D01*
X118463314Y-84573456D01*
X118415695Y-84763932D01*
X118415695Y-84906789D01*
X118463314Y-85097265D01*
X118510933Y-85192503D01*
X118606171Y-85287741D01*
X118749028Y-85335360D01*
X118987123Y-85335360D01*
X117463314Y-85335360D02*
X118034742Y-85335360D01*
X117749028Y-85335360D02*
X117749028Y-84335360D01*
X117844266Y-84478218D01*
X117939504Y-84573456D01*
X118034742Y-84621075D01*
X117082361Y-84430599D02*
X117034742Y-84382980D01*
X116939504Y-84335360D01*
X116701409Y-84335360D01*
X116606171Y-84382980D01*
X116558552Y-84430599D01*
X116510933Y-84525837D01*
X116510933Y-84621075D01*
X116558552Y-84763932D01*
X117129980Y-85335360D01*
X116510933Y-85335360D01*
X151324476Y-62550941D02*
X151229238Y-62598560D01*
X151038762Y-62598560D01*
X150943524Y-62550941D01*
X150895905Y-62455703D01*
X150895905Y-62408084D01*
X150943524Y-62312846D01*
X151038762Y-62265227D01*
X151181619Y-62265227D01*
X151276857Y-62217608D01*
X151324476Y-62122370D01*
X151324476Y-62074751D01*
X151276857Y-61979513D01*
X151181619Y-61931894D01*
X151038762Y-61931894D01*
X150943524Y-61979513D01*
X150562571Y-61931894D02*
X150372095Y-62598560D01*
X150181619Y-62122370D01*
X149991143Y-62598560D01*
X149800666Y-61931894D01*
X149419714Y-62217608D02*
X148657809Y-62217608D01*
X148229238Y-62550941D02*
X148134000Y-62598560D01*
X147943524Y-62598560D01*
X147848285Y-62550941D01*
X147800666Y-62455703D01*
X147800666Y-62408084D01*
X147848285Y-62312846D01*
X147943524Y-62265227D01*
X148086381Y-62265227D01*
X148181619Y-62217608D01*
X148229238Y-62122370D01*
X148229238Y-62074751D01*
X148181619Y-61979513D01*
X148086381Y-61931894D01*
X147943524Y-61931894D01*
X147848285Y-61979513D01*
X146991143Y-62550941D02*
X147086381Y-62598560D01*
X147276857Y-62598560D01*
X147372095Y-62550941D01*
X147419714Y-62455703D01*
X147419714Y-62074751D01*
X147372095Y-61979513D01*
X147276857Y-61931894D01*
X147086381Y-61931894D01*
X146991143Y-61979513D01*
X146943524Y-62074751D01*
X146943524Y-62169989D01*
X147419714Y-62265227D01*
X146372095Y-62598560D02*
X146467333Y-62550941D01*
X146514952Y-62455703D01*
X146514952Y-61598560D01*
X145467333Y-62598560D02*
X146038762Y-62598560D01*
X145753047Y-62598560D02*
X145753047Y-61598560D01*
X145848285Y-61741418D01*
X145943524Y-61836656D01*
X146038762Y-61884275D01*
D14*
X127781705Y-88750220D02*
X127781705Y-87736760D01*
X127395625Y-87736760D01*
X127299105Y-87785020D01*
X127250845Y-87833280D01*
X127202585Y-87929800D01*
X127202585Y-88074580D01*
X127250845Y-88171100D01*
X127299105Y-88219360D01*
X127395625Y-88267620D01*
X127781705Y-88267620D01*
X126768245Y-88750220D02*
X126768245Y-87736760D01*
X126430425Y-88460660D01*
X126092605Y-87736760D01*
X126092605Y-88750220D01*
X125658265Y-87833280D02*
X125610005Y-87785020D01*
X125513485Y-87736760D01*
X125272185Y-87736760D01*
X125175665Y-87785020D01*
X125127405Y-87833280D01*
X125079145Y-87929800D01*
X125079145Y-88026320D01*
X125127405Y-88171100D01*
X125706525Y-88750220D01*
X125079145Y-88750220D01*
X150141951Y-88989220D02*
X150479771Y-88506620D01*
X150721071Y-88989220D02*
X150721071Y-87975760D01*
X150334991Y-87975760D01*
X150238471Y-88024020D01*
X150190211Y-88072280D01*
X150141951Y-88168800D01*
X150141951Y-88313580D01*
X150190211Y-88410100D01*
X150238471Y-88458360D01*
X150334991Y-88506620D01*
X150721071Y-88506620D01*
X149755871Y-88699660D02*
X149273271Y-88699660D01*
X149852391Y-88989220D02*
X149514571Y-87975760D01*
X149176751Y-88989220D01*
X148983711Y-87975760D02*
X148404591Y-87975760D01*
X148694151Y-88989220D02*
X148694151Y-87975760D01*
X148066771Y-88989220D02*
X148066771Y-87975760D01*
X147391131Y-87975760D02*
X147198091Y-87975760D01*
X147101571Y-88024020D01*
X147005051Y-88120540D01*
X146956791Y-88313580D01*
X146956791Y-88651400D01*
X147005051Y-88844440D01*
X147101571Y-88940960D01*
X147198091Y-88989220D01*
X147391131Y-88989220D01*
X147487651Y-88940960D01*
X147584171Y-88844440D01*
X147632431Y-88651400D01*
X147632431Y-88313580D01*
X147584171Y-88120540D01*
X147487651Y-88024020D01*
X147391131Y-87975760D01*
X145991591Y-88989220D02*
X146570711Y-88989220D01*
X146281151Y-88989220D02*
X146281151Y-87975760D01*
X146377671Y-88120540D01*
X146474191Y-88217060D01*
X146570711Y-88265320D01*
X106295218Y-88496220D02*
X106633038Y-88013620D01*
X106874338Y-88496220D02*
X106874338Y-87482760D01*
X106488258Y-87482760D01*
X106391738Y-87531020D01*
X106343478Y-87579280D01*
X106295218Y-87675800D01*
X106295218Y-87820580D01*
X106343478Y-87917100D01*
X106391738Y-87965360D01*
X106488258Y-88013620D01*
X106874338Y-88013620D01*
X105909138Y-88206660D02*
X105426538Y-88206660D01*
X106005658Y-88496220D02*
X105667838Y-87482760D01*
X105330018Y-88496220D01*
X105136978Y-87482760D02*
X104557858Y-87482760D01*
X104847418Y-88496220D02*
X104847418Y-87482760D01*
X104220038Y-88496220D02*
X104220038Y-87482760D01*
X103544398Y-87482760D02*
X103351358Y-87482760D01*
X103254838Y-87531020D01*
X103158318Y-87627540D01*
X103110058Y-87820580D01*
X103110058Y-88158400D01*
X103158318Y-88351440D01*
X103254838Y-88447960D01*
X103351358Y-88496220D01*
X103544398Y-88496220D01*
X103640918Y-88447960D01*
X103737438Y-88351440D01*
X103785698Y-88158400D01*
X103785698Y-87820580D01*
X103737438Y-87627540D01*
X103640918Y-87531020D01*
X103544398Y-87482760D01*
X102723978Y-87579280D02*
X102675718Y-87531020D01*
X102579198Y-87482760D01*
X102337898Y-87482760D01*
X102241378Y-87531020D01*
X102193118Y-87579280D01*
X102144858Y-87675800D01*
X102144858Y-87772320D01*
X102193118Y-87917100D01*
X102772238Y-88496220D01*
X102144858Y-88496220D01*
X171969438Y-89122920D02*
X171969438Y-88109460D01*
X171583358Y-88109460D01*
X171486838Y-88157720D01*
X171438578Y-88205980D01*
X171390318Y-88302500D01*
X171390318Y-88447280D01*
X171438578Y-88543800D01*
X171486838Y-88592060D01*
X171583358Y-88640320D01*
X171969438Y-88640320D01*
X170955978Y-89122920D02*
X170955978Y-88109460D01*
X170618158Y-88833360D01*
X170280338Y-88109460D01*
X170280338Y-89122920D01*
X169266878Y-89122920D02*
X169845998Y-89122920D01*
X169556438Y-89122920D02*
X169556438Y-88109460D01*
X169652958Y-88254240D01*
X169749478Y-88350760D01*
X169845998Y-88399020D01*
D13*
X202341666Y-63928214D02*
X202341666Y-64404404D01*
X202627380Y-63832976D02*
X201627380Y-64166309D01*
X202627380Y-64499642D01*
X202627380Y-65356785D02*
X202627380Y-64785357D01*
X202627380Y-65071071D02*
X201627380Y-65071071D01*
X201770238Y-64975833D01*
X201865476Y-64880595D01*
X201913095Y-64785357D01*
X218879523Y-141522380D02*
X218212857Y-142522380D01*
X218212857Y-141522380D02*
X218879523Y-142522380D01*
X217308095Y-142522380D02*
X217879523Y-142522380D01*
X217593809Y-142522380D02*
X217593809Y-141522380D01*
X217689047Y-141665238D01*
X217784285Y-141760476D01*
X217879523Y-141808095D01*
X153592337Y-135067380D02*
X153592337Y-134067380D01*
X153354242Y-134067380D01*
X153211384Y-134115000D01*
X153116146Y-134210238D01*
X153068527Y-134305476D01*
X153020908Y-134495952D01*
X153020908Y-134638809D01*
X153068527Y-134829285D01*
X153116146Y-134924523D01*
X153211384Y-135019761D01*
X153354242Y-135067380D01*
X153592337Y-135067380D01*
X152163765Y-134400714D02*
X152163765Y-135067380D01*
X152401861Y-134019761D02*
X152639956Y-134734047D01*
X152020908Y-134734047D01*
X173586838Y-72067608D02*
X173634457Y-72162846D01*
X173634457Y-72353322D01*
X173586838Y-72448560D01*
X173491600Y-72496180D01*
X173443981Y-72496180D01*
X173348743Y-72448560D01*
X173301124Y-72353322D01*
X173301124Y-72210465D01*
X173253505Y-72115227D01*
X173158267Y-72067608D01*
X173110648Y-72067608D01*
X173015410Y-72115227D01*
X172967791Y-72210465D01*
X172967791Y-72353322D01*
X173015410Y-72448560D01*
X172967791Y-72829513D02*
X173634457Y-73019989D01*
X173158267Y-73210465D01*
X173634457Y-73400941D01*
X172967791Y-73591418D01*
X173253505Y-73972370D02*
X173253505Y-74734275D01*
X173586838Y-75162846D02*
X173634457Y-75258084D01*
X173634457Y-75448560D01*
X173586838Y-75543799D01*
X173491600Y-75591418D01*
X173443981Y-75591418D01*
X173348743Y-75543799D01*
X173301124Y-75448560D01*
X173301124Y-75305703D01*
X173253505Y-75210465D01*
X173158267Y-75162846D01*
X173110648Y-75162846D01*
X173015410Y-75210465D01*
X172967791Y-75305703D01*
X172967791Y-75448560D01*
X173015410Y-75543799D01*
X173586838Y-76400941D02*
X173634457Y-76305703D01*
X173634457Y-76115227D01*
X173586838Y-76019989D01*
X173491600Y-75972370D01*
X173110648Y-75972370D01*
X173015410Y-76019989D01*
X172967791Y-76115227D01*
X172967791Y-76305703D01*
X173015410Y-76400941D01*
X173110648Y-76448560D01*
X173205886Y-76448560D01*
X173301124Y-75972370D01*
X173634457Y-77019989D02*
X173586838Y-76924751D01*
X173491600Y-76877132D01*
X172634457Y-76877132D01*
X172634457Y-77305703D02*
X172634457Y-77924751D01*
X173015410Y-77591418D01*
X173015410Y-77734275D01*
X173063029Y-77829513D01*
X173110648Y-77877132D01*
X173205886Y-77924751D01*
X173443981Y-77924751D01*
X173539219Y-77877132D01*
X173586838Y-77829513D01*
X173634457Y-77734275D01*
X173634457Y-77448560D01*
X173586838Y-77353322D01*
X173539219Y-77305703D01*
X101971961Y-72067608D02*
X102019580Y-72162846D01*
X102019580Y-72353322D01*
X101971961Y-72448560D01*
X101876723Y-72496180D01*
X101829104Y-72496180D01*
X101733866Y-72448560D01*
X101686247Y-72353322D01*
X101686247Y-72210465D01*
X101638628Y-72115227D01*
X101543390Y-72067608D01*
X101495771Y-72067608D01*
X101400533Y-72115227D01*
X101352914Y-72210465D01*
X101352914Y-72353322D01*
X101400533Y-72448560D01*
X101352914Y-72829513D02*
X102019580Y-73019989D01*
X101543390Y-73210465D01*
X102019580Y-73400941D01*
X101352914Y-73591418D01*
X101638628Y-73972370D02*
X101638628Y-74734275D01*
X101971961Y-75162846D02*
X102019580Y-75258084D01*
X102019580Y-75448560D01*
X101971961Y-75543799D01*
X101876723Y-75591418D01*
X101829104Y-75591418D01*
X101733866Y-75543799D01*
X101686247Y-75448560D01*
X101686247Y-75305703D01*
X101638628Y-75210465D01*
X101543390Y-75162846D01*
X101495771Y-75162846D01*
X101400533Y-75210465D01*
X101352914Y-75305703D01*
X101352914Y-75448560D01*
X101400533Y-75543799D01*
X101971961Y-76400941D02*
X102019580Y-76305703D01*
X102019580Y-76115227D01*
X101971961Y-76019989D01*
X101876723Y-75972370D01*
X101495771Y-75972370D01*
X101400533Y-76019989D01*
X101352914Y-76115227D01*
X101352914Y-76305703D01*
X101400533Y-76400941D01*
X101495771Y-76448560D01*
X101591009Y-76448560D01*
X101686247Y-75972370D01*
X102019580Y-77019989D02*
X101971961Y-76924751D01*
X101876723Y-76877132D01*
X101019580Y-76877132D01*
X101352914Y-77829513D02*
X102019580Y-77829513D01*
X100971961Y-77591418D02*
X101686247Y-77353322D01*
X101686247Y-77972370D01*
D16*
X145912082Y-158358929D02*
X146412082Y-158358929D01*
X137412082Y-148358929D02*
X137412082Y-147858929D01*
X146412082Y-158358929D02*
X146412082Y-157858929D01*
X146412082Y-148358929D02*
X146412082Y-147858929D01*
X146412082Y-147858929D02*
X145912082Y-147858929D01*
X137412082Y-158358929D02*
X137912082Y-158358929D01*
X137412082Y-147858929D02*
X137912082Y-147858929D01*
X137412082Y-157858929D02*
X137412082Y-158358929D01*
X144602803Y-152358929D02*
G75*
G03*
X144602803Y-152358929I-2690721J0D01*
G01*
X113100602Y-158358929D02*
X113600602Y-158358929D01*
X113600602Y-158358929D02*
X113600602Y-157858929D01*
X104600602Y-157858929D02*
X104600602Y-158358929D01*
X104600602Y-148358929D02*
X104600602Y-147858929D01*
X113600602Y-148358929D02*
X113600602Y-147858929D01*
X104600602Y-147858929D02*
X105100602Y-147858929D01*
X104600602Y-158358929D02*
X105100602Y-158358929D01*
X113600602Y-147858929D02*
X113100602Y-147858929D01*
X111791323Y-152358929D02*
G75*
G03*
X111791323Y-152358929I-2690721J0D01*
G01*
X148349242Y-147858929D02*
X148849242Y-147858929D01*
X157349242Y-158358929D02*
X157349242Y-157858929D01*
X157349242Y-148358929D02*
X157349242Y-147858929D01*
X148349242Y-148358929D02*
X148349242Y-147858929D01*
X148349242Y-158358929D02*
X148849242Y-158358929D01*
X157349242Y-147858929D02*
X156849242Y-147858929D01*
X148349242Y-157858929D02*
X148349242Y-158358929D01*
X156849242Y-158358929D02*
X157349242Y-158358929D01*
X155539963Y-152358929D02*
G75*
G03*
X155539963Y-152358929I-2690721J0D01*
G01*
X124537762Y-158358929D02*
X124537762Y-157858929D01*
X115537762Y-148358929D02*
X115537762Y-147858929D01*
X124537762Y-147858929D02*
X124037762Y-147858929D01*
X124537762Y-148358929D02*
X124537762Y-147858929D01*
X115537762Y-147858929D02*
X116037762Y-147858929D01*
X115537762Y-157858929D02*
X115537762Y-158358929D01*
X115537762Y-158358929D02*
X116037762Y-158358929D01*
X124037762Y-158358929D02*
X124537762Y-158358929D01*
X122728483Y-152358929D02*
G75*
G03*
X122728483Y-152358929I-2690721J0D01*
G01*
X126474922Y-147858929D02*
X126974922Y-147858929D01*
X126474922Y-148358929D02*
X126474922Y-147858929D01*
X135474922Y-158358929D02*
X135474922Y-157858929D01*
X134974922Y-158358929D02*
X135474922Y-158358929D01*
X135474922Y-148358929D02*
X135474922Y-147858929D01*
X135474922Y-147858929D02*
X134974922Y-147858929D01*
X126474922Y-158358929D02*
X126974922Y-158358929D01*
X126474922Y-157858929D02*
X126474922Y-158358929D01*
X133665643Y-152358929D02*
G75*
G03*
X133665643Y-152358929I-2690721J0D01*
G01*
X93663438Y-143126929D02*
X93663438Y-143626929D01*
X102663438Y-133126929D02*
X102163438Y-133126929D01*
X102663438Y-133626929D02*
X102663438Y-133126929D01*
X93663438Y-133626929D02*
X93663438Y-133126929D01*
X102663438Y-143626929D02*
X102663438Y-143126929D01*
X93663438Y-143626929D02*
X94163438Y-143626929D01*
X93663438Y-133126929D02*
X94163438Y-133126929D01*
X102163438Y-143626929D02*
X102663438Y-143626929D01*
X100854159Y-137626929D02*
G75*
G03*
X100854159Y-137626929I-2690721J0D01*
G01*
X159786402Y-143126929D02*
X159786402Y-143626929D01*
X159786402Y-133626929D02*
X159786402Y-133126929D01*
X168286402Y-143626929D02*
X168786402Y-143626929D01*
X168786402Y-133626929D02*
X168786402Y-133126929D01*
X168786402Y-143626929D02*
X168786402Y-143126929D01*
X168786402Y-133126929D02*
X168286402Y-133126929D01*
X159786402Y-133126929D02*
X160286402Y-133126929D01*
X159786402Y-143626929D02*
X160286402Y-143626929D01*
X166977123Y-137626929D02*
G75*
G03*
X166977123Y-137626929I-2690721J0D01*
G01*
X93663438Y-157846180D02*
X93663438Y-158346180D01*
X102663438Y-158346180D02*
X102663438Y-157846180D01*
X102163438Y-158346180D02*
X102663438Y-158346180D01*
X93663438Y-158346180D02*
X94163438Y-158346180D01*
X102663438Y-147846180D02*
X102163438Y-147846180D01*
X93663438Y-147846180D02*
X94163438Y-147846180D01*
X102663438Y-148346180D02*
X102663438Y-147846180D01*
X93663438Y-148346180D02*
X93663438Y-147846180D01*
X100854159Y-152346180D02*
G75*
G03*
X100854159Y-152346180I-2690721J0D01*
G01*
X126474922Y-133126929D02*
X126974922Y-133126929D01*
X126474922Y-143126929D02*
X126474922Y-143626929D01*
X135474922Y-133126929D02*
X134974922Y-133126929D01*
X134974922Y-143626929D02*
X135474922Y-143626929D01*
X126474922Y-133626929D02*
X126474922Y-133126929D01*
X135474922Y-133626929D02*
X135474922Y-133126929D01*
X135474922Y-143626929D02*
X135474922Y-143126929D01*
X126474922Y-143626929D02*
X126974922Y-143626929D01*
X133665643Y-137626929D02*
G75*
G03*
X133665643Y-137626929I-2690721J0D01*
G01*
X146412082Y-143626929D02*
X146412082Y-143126929D01*
X146412082Y-133126929D02*
X145912082Y-133126929D01*
X137412082Y-133626929D02*
X137412082Y-133126929D01*
X137412082Y-133126929D02*
X137912082Y-133126929D01*
X145912082Y-143626929D02*
X146412082Y-143626929D01*
X137412082Y-143626929D02*
X137912082Y-143626929D01*
X137412082Y-143126929D02*
X137412082Y-143626929D01*
X146412082Y-133626929D02*
X146412082Y-133126929D01*
X144602803Y-137626929D02*
G75*
G03*
X144602803Y-137626929I-2690721J0D01*
G01*
D17*
X192090000Y-83365000D02*
X192155000Y-83365000D01*
X198495000Y-79835000D02*
X198560000Y-79835000D01*
X192090000Y-79835000D02*
X192090000Y-83365000D01*
X198495000Y-83365000D02*
X198560000Y-83365000D01*
X192155000Y-78510000D02*
X192155000Y-79835000D01*
X192090000Y-79835000D02*
X192155000Y-79835000D01*
X198560000Y-79835000D02*
X198560000Y-83365000D01*
D18*
X166100338Y-122082280D02*
X165550338Y-122082280D01*
X165550338Y-111882280D02*
X165550338Y-114082280D01*
X166100338Y-122632280D02*
X166100338Y-122082280D01*
X174850338Y-122082280D02*
X174850338Y-118882280D01*
X174300338Y-111882280D02*
X174850338Y-111882280D01*
X165550338Y-111882280D02*
X166100338Y-111882280D01*
X166100338Y-111882280D02*
X166100338Y-111332280D01*
X174850338Y-122082280D02*
X174300338Y-122082280D01*
X174300338Y-111332280D02*
X166100338Y-111332280D01*
X174300338Y-122082280D02*
X174300338Y-122632280D01*
X166100338Y-122632280D02*
X174300338Y-122632280D01*
X165550338Y-118882280D02*
X165550338Y-122082280D01*
X174850338Y-114082280D02*
X174850338Y-111882280D01*
X174300338Y-111332280D02*
X174300338Y-111882280D01*
D19*
X171216338Y-116732280D02*
G75*
G03*
X171216338Y-116732280I-1016000J0D01*
G01*
X171597338Y-116732280D02*
G75*
G03*
X171597338Y-116732280I-1397000J0D01*
G01*
D18*
X122168338Y-122695780D02*
X122168338Y-122145780D01*
X122168338Y-122695780D02*
X130368338Y-122695780D01*
X130368338Y-122145780D02*
X130368338Y-122695780D01*
X130918338Y-122145780D02*
X130368338Y-122145780D01*
X130918338Y-122145780D02*
X130918338Y-118945780D01*
X130918338Y-114145780D02*
X130918338Y-111945780D01*
X122168338Y-122145780D02*
X121618338Y-122145780D01*
X121618338Y-118945780D02*
X121618338Y-122145780D01*
X122168338Y-111945780D02*
X122168338Y-111395780D01*
X121618338Y-111945780D02*
X121618338Y-114145780D01*
X130368338Y-111945780D02*
X130918338Y-111945780D01*
X130368338Y-111395780D02*
X130368338Y-111945780D01*
X130368338Y-111395780D02*
X122168338Y-111395780D01*
X121618338Y-111945780D02*
X122168338Y-111945780D01*
D19*
X127284338Y-116795780D02*
G75*
G03*
X127284338Y-116795780I-1016000J0D01*
G01*
X127665338Y-116795780D02*
G75*
G03*
X127665338Y-116795780I-1397000J0D01*
G01*
D18*
X152334338Y-111395780D02*
X144134338Y-111395780D01*
X143584338Y-111945780D02*
X144134338Y-111945780D01*
X143584338Y-118945780D02*
X143584338Y-122145780D01*
X152884338Y-114145780D02*
X152884338Y-111945780D01*
X144134338Y-122695780D02*
X144134338Y-122145780D01*
X144134338Y-122145780D02*
X143584338Y-122145780D01*
X152884338Y-122145780D02*
X152334338Y-122145780D01*
X144134338Y-122695780D02*
X152334338Y-122695780D01*
X144134338Y-111945780D02*
X144134338Y-111395780D01*
X152334338Y-122145780D02*
X152334338Y-122695780D01*
X152884338Y-122145780D02*
X152884338Y-118945780D01*
X152334338Y-111395780D02*
X152334338Y-111945780D01*
X152334338Y-111945780D02*
X152884338Y-111945780D01*
X143584338Y-111945780D02*
X143584338Y-114145780D01*
D19*
X149250338Y-116795780D02*
G75*
G03*
X149250338Y-116795780I-1016000J0D01*
G01*
X149631338Y-116795780D02*
G75*
G03*
X149631338Y-116795780I-1397000J0D01*
G01*
D17*
X177273562Y-134876180D02*
X175073562Y-134876180D01*
X179343562Y-140046180D02*
X179343562Y-135646180D01*
X175073562Y-141116180D02*
X177273562Y-141116180D01*
X173103562Y-140646180D02*
X173103562Y-135446180D01*
X177637776Y-137996180D02*
G75*
G03*
X177637776Y-137996180I-1414214J0D01*
G01*
D18*
X100202338Y-122097280D02*
X99652338Y-122097280D01*
X108402338Y-122097280D02*
X108402338Y-122647280D01*
X108952338Y-122097280D02*
X108952338Y-118897280D01*
X100202338Y-122647280D02*
X108402338Y-122647280D01*
X108952338Y-114097280D02*
X108952338Y-111897280D01*
X108402338Y-111347280D02*
X100202338Y-111347280D01*
X108402338Y-111347280D02*
X108402338Y-111897280D01*
X100202338Y-122647280D02*
X100202338Y-122097280D01*
X99652338Y-111897280D02*
X99652338Y-114097280D01*
X99652338Y-111897280D02*
X100202338Y-111897280D01*
X100202338Y-111897280D02*
X100202338Y-111347280D01*
X108952338Y-122097280D02*
X108402338Y-122097280D01*
X108402338Y-111897280D02*
X108952338Y-111897280D01*
X99652338Y-118897280D02*
X99652338Y-122097280D01*
D19*
X105318338Y-116747280D02*
G75*
G03*
X105318338Y-116747280I-1016000J0D01*
G01*
X105699338Y-116747280D02*
G75*
G03*
X105699338Y-116747280I-1397000J0D01*
G01*
D16*
X171223562Y-150358929D02*
X171223562Y-152358929D01*
X171223562Y-156358929D02*
X173223562Y-158358929D01*
X179223562Y-154358929D02*
X181223562Y-156358929D01*
X181223562Y-154358929D02*
X181223562Y-152358929D01*
X181223562Y-156358929D02*
X181223562Y-154358929D01*
X175223562Y-158358929D02*
X171223562Y-154358929D01*
X181223562Y-152358929D02*
X181223562Y-150358929D01*
X173223562Y-154358929D02*
X171223562Y-152358929D01*
X179223562Y-152358929D02*
X181223562Y-154358929D01*
X179223562Y-158358929D02*
X181223562Y-158358929D01*
X171223562Y-158358929D02*
X173223562Y-158358929D01*
X171223562Y-156358929D02*
X171223562Y-158358929D01*
X171223562Y-148358929D02*
X171223562Y-150358929D01*
X171223562Y-147858929D02*
X171223562Y-148358929D01*
X179223562Y-156358929D02*
X181223562Y-158358929D01*
X171223562Y-154358929D02*
X171223562Y-156358929D01*
X179223562Y-148358929D02*
X181223562Y-150358929D01*
X181223562Y-158358929D02*
X181223562Y-156358929D01*
X181223562Y-150358929D02*
X181223562Y-147858929D01*
X179223562Y-158358929D02*
X177223562Y-156358929D01*
X173223562Y-150358929D02*
X171223562Y-148358929D01*
X181223562Y-147858929D02*
X171223562Y-147858929D01*
X179223562Y-150358929D02*
X181223562Y-152358929D01*
X173223562Y-158358929D02*
X175223562Y-158358929D01*
X175223562Y-158358929D02*
X179223562Y-158358929D01*
X171223562Y-152358929D02*
X171223562Y-154358929D01*
X173223562Y-152358929D02*
X171223562Y-150358929D01*
X178914283Y-152358929D02*
G75*
G03*
X178914283Y-152358929I-2690721J0D01*
G01*
X169286402Y-154358929D02*
X169286402Y-152358929D01*
X159286402Y-152358929D02*
X159286402Y-154358929D01*
X169286402Y-156358929D02*
X169286402Y-154358929D01*
X159286402Y-150358929D02*
X159286402Y-152358929D01*
X159286402Y-158358929D02*
X161286402Y-158358929D01*
X169286402Y-150358929D02*
X169286402Y-147858929D01*
X167286402Y-158358929D02*
X165286402Y-156358929D01*
X167286402Y-154358929D02*
X169286402Y-156358929D01*
X159286402Y-156358929D02*
X159286402Y-158358929D01*
X163286402Y-158358929D02*
X159286402Y-154358929D01*
X161286402Y-150358929D02*
X159286402Y-148358929D01*
X167286402Y-152358929D02*
X169286402Y-154358929D01*
X161286402Y-154358929D02*
X159286402Y-152358929D01*
X169286402Y-147858929D02*
X159286402Y-147858929D01*
X169286402Y-152358929D02*
X169286402Y-150358929D01*
X161286402Y-158358929D02*
X163286402Y-158358929D01*
X159286402Y-156358929D02*
X161286402Y-158358929D01*
X159286402Y-147858929D02*
X159286402Y-148358929D01*
X167286402Y-148358929D02*
X169286402Y-150358929D01*
X161286402Y-152358929D02*
X159286402Y-150358929D01*
X159286402Y-148358929D02*
X159286402Y-150358929D01*
X163286402Y-158358929D02*
X167286402Y-158358929D01*
X159286402Y-154358929D02*
X159286402Y-156358929D01*
X167286402Y-150358929D02*
X169286402Y-152358929D01*
X167286402Y-156358929D02*
X169286402Y-158358929D01*
X169286402Y-158358929D02*
X169286402Y-156358929D01*
X167286402Y-158358929D02*
X169286402Y-158358929D01*
X166977123Y-152358929D02*
G75*
G03*
X166977123Y-152358929I-2690721J0D01*
G01*
D18*
X232470544Y-149268180D02*
X228706264Y-149268180D01*
X243273164Y-156740860D02*
X243273164Y-150192740D01*
X223826924Y-149567900D02*
X222348644Y-149567900D01*
X235053724Y-156116020D02*
X238820544Y-156116020D01*
X235053724Y-157665420D02*
X235053724Y-156116020D01*
X222348644Y-149567900D02*
X222348644Y-149268180D01*
X228706264Y-149268180D02*
X223826924Y-149268180D01*
X244398384Y-149268180D02*
X239064384Y-149268180D01*
X238828164Y-156740860D02*
X243273164Y-156740860D01*
X238820544Y-157665420D02*
X244398384Y-157665420D01*
X228706264Y-150192740D02*
X217903644Y-150192740D01*
X217903644Y-150192740D02*
X217903644Y-156740860D01*
X239064384Y-149567900D02*
X237586104Y-149567900D01*
X239064384Y-149268180D02*
X239064384Y-149567900D01*
X232470544Y-150817580D02*
X228706264Y-150817580D01*
X222356264Y-157665420D02*
X222356264Y-156116020D01*
X232470544Y-149268180D02*
X232470544Y-150817580D01*
X216778424Y-149268180D02*
X216778424Y-157665420D01*
X222348644Y-149268180D02*
X216778424Y-149268180D01*
X238820544Y-156116020D02*
X238820544Y-157665420D01*
X237586104Y-149268180D02*
X232470544Y-149268180D01*
X243273164Y-150192740D02*
X232470544Y-150192740D01*
X237586104Y-149567900D02*
X237586104Y-149268180D01*
X222356264Y-157665420D02*
X226123084Y-157665420D01*
X216778424Y-157665420D02*
X222356264Y-157665420D01*
X223826924Y-149268180D02*
X223826924Y-149567900D01*
X226123084Y-156116020D02*
X226123084Y-157665420D01*
X217903644Y-156740860D02*
X222348644Y-156740860D01*
X226123084Y-157665420D02*
X235053724Y-157665420D01*
X235053724Y-157665420D02*
X238820544Y-157665420D01*
X222356264Y-156116020D02*
X226123084Y-156116020D01*
X228706264Y-150817580D02*
X228706264Y-149268180D01*
X244398384Y-157665420D02*
X244398384Y-149268180D01*
X226125624Y-156740860D02*
X235051184Y-156740860D01*
D17*
X123703372Y-54726180D02*
X128903372Y-54726180D01*
X123233372Y-56696180D02*
X123233372Y-58896180D01*
X124303372Y-60966180D02*
X128703372Y-60966180D01*
X129473372Y-58896180D02*
X129473372Y-56696180D01*
X127767586Y-57846180D02*
G75*
G03*
X127767586Y-57846180I-1414214J0D01*
G01*
X148395905Y-75246180D02*
X148395905Y-74246180D01*
X144895905Y-68646180D02*
X142495905Y-68646180D01*
X152495905Y-82546180D02*
X152495905Y-81946180D01*
X154295905Y-68646180D02*
X151895905Y-68646180D01*
X152495905Y-81946180D02*
X152195905Y-82246180D01*
X148895905Y-74746180D02*
X147895905Y-74746180D01*
X152195905Y-82246180D02*
X152495905Y-82546180D01*
X154295905Y-80846180D02*
X142495905Y-80846180D01*
X142495905Y-76746180D02*
X142495905Y-80846180D01*
X149695905Y-68646180D02*
X147095905Y-68646180D01*
X154295905Y-72746180D02*
X154295905Y-68646180D01*
X142495905Y-68646180D02*
X142495905Y-72746180D01*
X154295905Y-76746180D02*
X154295905Y-80846180D01*
X151395905Y-74746180D02*
G75*
G03*
X151395905Y-74746180I-3000000J0D01*
G01*
X130453372Y-82546180D02*
X130453372Y-81946180D01*
X127653372Y-68646180D02*
X125053372Y-68646180D01*
X132253372Y-68646180D02*
X129853372Y-68646180D01*
X120453372Y-76746180D02*
X120453372Y-80846180D01*
X132253372Y-76746180D02*
X132253372Y-80846180D01*
X130153372Y-82246180D02*
X130453372Y-82546180D01*
X132253372Y-72746180D02*
X132253372Y-68646180D01*
X120453372Y-68646180D02*
X120453372Y-72746180D01*
X126853372Y-74746180D02*
X125853372Y-74746180D01*
X132253372Y-80846180D02*
X120453372Y-80846180D01*
X122853372Y-68646180D02*
X120453372Y-68646180D01*
X130453372Y-81946180D02*
X130153372Y-82246180D01*
X126353372Y-75246180D02*
X126353372Y-74246180D01*
X129353372Y-74746180D02*
G75*
G03*
X129353372Y-74746180I-3000000J0D01*
G01*
D16*
X124537762Y-133626929D02*
X124537762Y-133126929D01*
X115537762Y-143126929D02*
X115537762Y-143626929D01*
X115537762Y-133626929D02*
X115537762Y-133126929D01*
X124037762Y-143626929D02*
X124537762Y-143626929D01*
X115537762Y-143626929D02*
X116037762Y-143626929D01*
X124537762Y-133126929D02*
X124037762Y-133126929D01*
X124537762Y-143626929D02*
X124537762Y-143126929D01*
X115537762Y-133126929D02*
X116037762Y-133126929D01*
X122728483Y-137626929D02*
G75*
G03*
X122728483Y-137626929I-2690721J0D01*
G01*
X104600602Y-143126929D02*
X104600602Y-143626929D01*
X113600602Y-133126929D02*
X113100602Y-133126929D01*
X104600602Y-143626929D02*
X105100602Y-143626929D01*
X113100602Y-143626929D02*
X113600602Y-143626929D01*
X104600602Y-133626929D02*
X104600602Y-133126929D01*
X104600602Y-133126929D02*
X105100602Y-133126929D01*
X113600602Y-133626929D02*
X113600602Y-133126929D01*
X113600602Y-143626929D02*
X113600602Y-143126929D01*
X111791323Y-137626929D02*
G75*
G03*
X111791323Y-137626929I-2690721J0D01*
G01*
D17*
X157847172Y-65741180D02*
X157847172Y-65585180D01*
X157847172Y-68057180D02*
X157847172Y-67901180D01*
X157847172Y-68056696D02*
G75*
G03*
X161079507Y-67899788I1560000J1235516D01*
G01*
X158366211Y-67901180D02*
G75*
G03*
X160448302Y-67901017I1040961J1080000D01*
G01*
X161079507Y-65742572D02*
G75*
G03*
X157847172Y-65585664I-1672335J-1078608D01*
G01*
X160448302Y-65741343D02*
G75*
G03*
X158366211Y-65741180I-1041130J-1079837D01*
G01*
X157847172Y-73507180D02*
X157847172Y-73351180D01*
X157847172Y-71191180D02*
X157847172Y-71035180D01*
X161079507Y-71192572D02*
G75*
G03*
X157847172Y-71035664I-1672335J-1078608D01*
G01*
X158366211Y-73351180D02*
G75*
G03*
X160448302Y-73351017I1040961J1080000D01*
G01*
X157847172Y-73506696D02*
G75*
G03*
X161079507Y-73349788I1560000J1235516D01*
G01*
X160448302Y-71191343D02*
G75*
G03*
X158366211Y-71191180I-1041130J-1079837D01*
G01*
X157847172Y-78957180D02*
X157847172Y-78801180D01*
X157847172Y-76641180D02*
X157847172Y-76485180D01*
X157847172Y-78956696D02*
G75*
G03*
X161079507Y-78799788I1560000J1235516D01*
G01*
X160448302Y-76641343D02*
G75*
G03*
X158366211Y-76641180I-1041130J-1079837D01*
G01*
X158366211Y-78801180D02*
G75*
G03*
X160448302Y-78801017I1040961J1080000D01*
G01*
X161079507Y-76642572D02*
G75*
G03*
X157847172Y-76485664I-1672335J-1078608D01*
G01*
X157847172Y-82091180D02*
X157847172Y-81935180D01*
X157847172Y-84407180D02*
X157847172Y-84251180D01*
X160448302Y-82091343D02*
G75*
G03*
X158366211Y-82091180I-1041130J-1079837D01*
G01*
X157847172Y-84406696D02*
G75*
G03*
X161079507Y-84249788I1560000J1235516D01*
G01*
X161079507Y-82092572D02*
G75*
G03*
X157847172Y-81935664I-1672335J-1078608D01*
G01*
X158366211Y-84251180D02*
G75*
G03*
X160448302Y-84251017I1040961J1080000D01*
G01*
X116902105Y-67901180D02*
X116902105Y-68057180D01*
X116902105Y-65585180D02*
X116902105Y-65741180D01*
X113669770Y-67899788D02*
G75*
G03*
X116902105Y-68056696I1672335J1078608D01*
G01*
X116902105Y-65585664D02*
G75*
G03*
X113669770Y-65742572I-1560000J-1235516D01*
G01*
X114300975Y-67901017D02*
G75*
G03*
X116383066Y-67901180I1041130J1079837D01*
G01*
X116383066Y-65741180D02*
G75*
G03*
X114300975Y-65741343I-1040961J-1080000D01*
G01*
X116902105Y-71035180D02*
X116902105Y-71191180D01*
X116902105Y-73351180D02*
X116902105Y-73507180D01*
X114300975Y-73351017D02*
G75*
G03*
X116383066Y-73351180I1041130J1079837D01*
G01*
X116902105Y-71035664D02*
G75*
G03*
X113669770Y-71192572I-1560000J-1235516D01*
G01*
X116383066Y-71191180D02*
G75*
G03*
X114300975Y-71191343I-1040961J-1080000D01*
G01*
X113669770Y-73349788D02*
G75*
G03*
X116902105Y-73506696I1672335J1078608D01*
G01*
X116902105Y-78801180D02*
X116902105Y-78957180D01*
X116902105Y-76485180D02*
X116902105Y-76641180D01*
X116902105Y-76485664D02*
G75*
G03*
X113669770Y-76642572I-1560000J-1235516D01*
G01*
X113669770Y-78799788D02*
G75*
G03*
X116902105Y-78956696I1672335J1078608D01*
G01*
X114300975Y-78801017D02*
G75*
G03*
X116383066Y-78801180I1041130J1079837D01*
G01*
X116383066Y-76641180D02*
G75*
G03*
X114300975Y-76641343I-1040961J-1080000D01*
G01*
X116902105Y-81935180D02*
X116902105Y-82091180D01*
X116902105Y-84251180D02*
X116902105Y-84407180D01*
X116383066Y-82091180D02*
G75*
G03*
X114300975Y-82091343I-1040961J-1080000D01*
G01*
X116902105Y-81935664D02*
G75*
G03*
X113669770Y-82092572I-1560000J-1235516D01*
G01*
X113669770Y-84249788D02*
G75*
G03*
X116902105Y-84406696I1672335J1078608D01*
G01*
X114300975Y-84251017D02*
G75*
G03*
X116383066Y-84251180I1041130J1079837D01*
G01*
X145745905Y-54726180D02*
X150945905Y-54726180D01*
X151515905Y-58896180D02*
X151515905Y-56696180D01*
X145275905Y-56696180D02*
X145275905Y-58896180D01*
X146345905Y-60966180D02*
X150745905Y-60966180D01*
X149810119Y-57846180D02*
G75*
G03*
X149810119Y-57846180I-1414214J0D01*
G01*
D18*
X131003373Y-100483480D02*
X131003373Y-97283480D01*
X131003373Y-100483480D02*
X130453373Y-100483480D01*
X122253373Y-100483480D02*
X121703373Y-100483480D01*
X122253373Y-101033480D02*
X130453373Y-101033480D01*
X130453373Y-89733480D02*
X130453373Y-90283480D01*
X131003373Y-92483480D02*
X131003373Y-90283480D01*
X130453373Y-90283480D02*
X131003373Y-90283480D01*
X122253373Y-90283480D02*
X122253373Y-89733480D01*
X122253373Y-101033480D02*
X122253373Y-100483480D01*
X121703373Y-90283480D02*
X121703373Y-92483480D01*
X130453373Y-100483480D02*
X130453373Y-101033480D01*
X121703373Y-90283480D02*
X122253373Y-90283480D01*
X121703373Y-97283480D02*
X121703373Y-100483480D01*
X130453373Y-89733480D02*
X122253373Y-89733480D01*
D19*
X127750373Y-95133480D02*
G75*
G03*
X127750373Y-95133480I-1397000J0D01*
G01*
X127369373Y-95133480D02*
G75*
G03*
X127369373Y-95133480I-1016000J0D01*
G01*
D18*
X152495905Y-89733480D02*
X144295905Y-89733480D01*
X143745905Y-90283480D02*
X143745905Y-92483480D01*
X153045905Y-92483480D02*
X153045905Y-90283480D01*
X153045905Y-100483480D02*
X152495905Y-100483480D01*
X144295905Y-90283480D02*
X144295905Y-89733480D01*
X152495905Y-89733480D02*
X152495905Y-90283480D01*
X144295905Y-101033480D02*
X152495905Y-101033480D01*
X144295905Y-101033480D02*
X144295905Y-100483480D01*
X153045905Y-100483480D02*
X153045905Y-97283480D01*
X152495905Y-100483480D02*
X152495905Y-101033480D01*
X143745905Y-90283480D02*
X144295905Y-90283480D01*
X144295905Y-100483480D02*
X143745905Y-100483480D01*
X143745905Y-97283480D02*
X143745905Y-100483480D01*
X152495905Y-90283480D02*
X153045905Y-90283480D01*
D19*
X149792905Y-95133480D02*
G75*
G03*
X149792905Y-95133480I-1397000J0D01*
G01*
X149411905Y-95133480D02*
G75*
G03*
X149411905Y-95133480I-1016000J0D01*
G01*
D18*
X99660838Y-90283480D02*
X99660838Y-92483480D01*
X108960838Y-100483480D02*
X108410838Y-100483480D01*
X100210838Y-101033480D02*
X108410838Y-101033480D01*
X108960838Y-100483480D02*
X108960838Y-97283480D01*
X99660838Y-97283480D02*
X99660838Y-100483480D01*
X100210838Y-101033480D02*
X100210838Y-100483480D01*
X100210838Y-90283480D02*
X100210838Y-89733480D01*
X108410838Y-100483480D02*
X108410838Y-101033480D01*
X108410838Y-89733480D02*
X108410838Y-90283480D01*
X108960838Y-92483480D02*
X108960838Y-90283480D01*
X108410838Y-89733480D02*
X100210838Y-89733480D01*
X100210838Y-100483480D02*
X99660838Y-100483480D01*
X108410838Y-90283480D02*
X108960838Y-90283480D01*
X99660838Y-90283480D02*
X100210838Y-90283480D01*
D19*
X105326838Y-95133480D02*
G75*
G03*
X105326838Y-95133480I-1016000J0D01*
G01*
X105707838Y-95133480D02*
G75*
G03*
X105707838Y-95133480I-1397000J0D01*
G01*
D18*
X175088438Y-100483480D02*
X174538438Y-100483480D01*
X175088438Y-100483480D02*
X175088438Y-97283480D01*
X165788438Y-90283480D02*
X166338438Y-90283480D01*
X166338438Y-101033480D02*
X174538438Y-101033480D01*
X175088438Y-92483480D02*
X175088438Y-90283480D01*
X166338438Y-100483480D02*
X165788438Y-100483480D01*
X165788438Y-97283480D02*
X165788438Y-100483480D01*
X166338438Y-90283480D02*
X166338438Y-89733480D01*
X174538438Y-90283480D02*
X175088438Y-90283480D01*
X174538438Y-89733480D02*
X174538438Y-90283480D01*
X165788438Y-90283480D02*
X165788438Y-92483480D01*
X166338438Y-101033480D02*
X166338438Y-100483480D01*
X174538438Y-89733480D02*
X166338438Y-89733480D01*
X174538438Y-100483480D02*
X174538438Y-101033480D01*
D19*
X171835438Y-95133480D02*
G75*
G03*
X171835438Y-95133480I-1397000J0D01*
G01*
X171454438Y-95133480D02*
G75*
G03*
X171454438Y-95133480I-1016000J0D01*
G01*
D17*
X204375000Y-71022500D02*
X255375000Y-71022500D01*
X203175000Y-68642500D02*
X204375000Y-68642500D01*
X204075000Y-55442500D02*
X206475000Y-55442500D01*
X204375000Y-73542500D02*
X255375000Y-73542500D01*
X204375000Y-55742500D02*
X204375000Y-73542500D01*
X203175000Y-60642500D02*
X203175000Y-68642500D01*
X204375000Y-58222500D02*
X255375000Y-58222500D01*
X204375000Y-60642500D02*
X203175000Y-60642500D01*
X255375000Y-73542500D02*
X255375000Y-55742500D01*
X255375000Y-55742500D02*
X204375000Y-55742500D01*
X204075000Y-57742500D02*
X204075000Y-55442500D01*
X210760000Y-125780000D02*
X225380000Y-125780000D01*
X211410000Y-141260000D02*
X224730000Y-141260000D01*
X225380000Y-125780000D02*
X225380000Y-126300000D01*
X211410000Y-126300000D02*
X211410000Y-134410000D01*
X210760000Y-126300000D02*
X210760000Y-125780000D01*
X224730000Y-134410000D02*
X224730000Y-126300000D01*
X213670000Y-141480000D02*
X215470000Y-141480000D01*
X225380000Y-126300000D02*
X224730000Y-126300000D01*
X211410000Y-126300000D02*
X210760000Y-126300000D01*
X211410000Y-141260000D02*
X211410000Y-137930000D01*
X224730000Y-141260000D02*
X224730000Y-137930000D01*
X154414242Y-136339000D02*
X154414242Y-136495000D01*
X154414242Y-138655000D02*
X154414242Y-138811000D01*
X153895203Y-136495000D02*
G75*
G03*
X151813112Y-136495163I-1040961J-1080000D01*
G01*
X151181907Y-138653608D02*
G75*
G03*
X154414242Y-138810516I1672335J1078608D01*
G01*
X154414242Y-136339484D02*
G75*
G03*
X151181907Y-136496392I-1560000J-1235516D01*
G01*
X151813112Y-138654837D02*
G75*
G03*
X153895203Y-138655000I1041130J1079837D01*
G01*
X165762077Y-77646180D02*
X165762077Y-72446180D01*
X172002077Y-77046180D02*
X172002077Y-72646180D01*
X169932077Y-71876180D02*
X167732077Y-71876180D01*
X167732077Y-78116180D02*
X169932077Y-78116180D01*
X170296291Y-74996180D02*
G75*
G03*
X170296291Y-74996180I-1414214J0D01*
G01*
X102747200Y-72946180D02*
X102747200Y-77346180D01*
X104817200Y-78116180D02*
X107017200Y-78116180D01*
X107017200Y-71876180D02*
X104817200Y-71876180D01*
X108987200Y-72346180D02*
X108987200Y-77546180D01*
X107281414Y-74996180D02*
G75*
G03*
X107281414Y-74996180I-1414214J0D01*
G01*
%LPC*%
D20*
X141912082Y-157358929D03*
X141912082Y-148858929D03*
X141912082Y-145858929D03*
X109100602Y-157358929D03*
X109100602Y-148858929D03*
X109100602Y-145858929D03*
X152849242Y-157358929D03*
X152849242Y-148858929D03*
X152849242Y-145858929D03*
X120037762Y-157358929D03*
X120037762Y-148858929D03*
X120037762Y-145858929D03*
X130974922Y-157358929D03*
X130974922Y-148858929D03*
X130974922Y-145858929D03*
X98163438Y-142626929D03*
X98163438Y-134126929D03*
X98163438Y-131126929D03*
X164286402Y-142626929D03*
X164286402Y-134126929D03*
X164286402Y-131126929D03*
X98163438Y-157346180D03*
X98163438Y-148846180D03*
X98163438Y-145846180D03*
X130974922Y-142626929D03*
X130974922Y-134126929D03*
X130974922Y-131126929D03*
X141912082Y-142626929D03*
X141912082Y-134126929D03*
X141912082Y-131126929D03*
D21*
X192785000Y-79650000D03*
X192785000Y-83550000D03*
X194055000Y-79650000D03*
X194055000Y-83550000D03*
X195325000Y-79650000D03*
X195325000Y-83550000D03*
X196595000Y-79650000D03*
X196595000Y-83550000D03*
X197865000Y-79650000D03*
X197865000Y-83550000D03*
D22*
X172700338Y-123732280D03*
D20*
X170200338Y-123732280D03*
X167700338Y-123732280D03*
D23*
X174700338Y-116732280D03*
X165700338Y-116732280D03*
D22*
X128768338Y-123795780D03*
D20*
X126268338Y-123795780D03*
X123768338Y-123795780D03*
D23*
X130768338Y-116795780D03*
X121768338Y-116795780D03*
D22*
X150734338Y-123795780D03*
D20*
X148234338Y-123795780D03*
X145734338Y-123795780D03*
D23*
X152734338Y-116795780D03*
X143734338Y-116795780D03*
D24*
X178473562Y-141246180D03*
D25*
X178473562Y-134746180D03*
X173973562Y-141246180D03*
X173973562Y-134746180D03*
D22*
X106802338Y-123747280D03*
D20*
X104302338Y-123747280D03*
X101802338Y-123747280D03*
D23*
X108802338Y-116747280D03*
X99802338Y-116747280D03*
D20*
X176223562Y-157358929D03*
X176223562Y-148858929D03*
X176223562Y-145858929D03*
X164286402Y-157358929D03*
X164286402Y-148858929D03*
X164286402Y-145858929D03*
D26*
X221698404Y-152196800D03*
X221698404Y-154736800D03*
X224238404Y-152196800D03*
X224238404Y-154736800D03*
X226778404Y-152196800D03*
X226778404Y-154736800D03*
X229318404Y-152196800D03*
X229318404Y-154736800D03*
X231858404Y-152196800D03*
X231858404Y-154736800D03*
X234398404Y-152196800D03*
X234398404Y-154736800D03*
X236938404Y-152196800D03*
X236938404Y-154736800D03*
X239478404Y-152196800D03*
X239478404Y-154736800D03*
D24*
X123103372Y-60096180D03*
D25*
X129603372Y-60096180D03*
X123103372Y-55596180D03*
X129603372Y-55596180D03*
D27*
X150895905Y-82246180D03*
D28*
X145895905Y-82246180D03*
X148395905Y-82246180D03*
D29*
X153995905Y-74746180D03*
X142795905Y-74746180D03*
D28*
X145895905Y-67746180D03*
X150895905Y-67746180D03*
D27*
X128853372Y-82246180D03*
D28*
X123853372Y-82246180D03*
X126353372Y-82246180D03*
D29*
X120753372Y-74746180D03*
X131953372Y-74746180D03*
D28*
X123853372Y-67746180D03*
X128853372Y-67746180D03*
D20*
X120037762Y-142626929D03*
X120037762Y-134126929D03*
X120037762Y-131126929D03*
X109100602Y-142626929D03*
X109100602Y-134126929D03*
X109100602Y-131126929D03*
D30*
X156867172Y-66821180D03*
D31*
X159407172Y-66821180D03*
X161947172Y-66821180D03*
D30*
X156867172Y-72271180D03*
D31*
X159407172Y-72271180D03*
X161947172Y-72271180D03*
D30*
X156867172Y-77721180D03*
D31*
X159407172Y-77721180D03*
X161947172Y-77721180D03*
D30*
X156867172Y-83171180D03*
D31*
X159407172Y-83171180D03*
X161947172Y-83171180D03*
D30*
X117882105Y-66821180D03*
D31*
X115342105Y-66821180D03*
X112802105Y-66821180D03*
D30*
X117882105Y-72271180D03*
D31*
X115342105Y-72271180D03*
X112802105Y-72271180D03*
D30*
X117882105Y-77721180D03*
D31*
X115342105Y-77721180D03*
X112802105Y-77721180D03*
D30*
X117882105Y-83171180D03*
D31*
X115342105Y-83171180D03*
X112802105Y-83171180D03*
D24*
X145145905Y-60096180D03*
D25*
X151645905Y-60096180D03*
X145145905Y-55596180D03*
X151645905Y-55596180D03*
D22*
X128853373Y-102133480D03*
D20*
X126353373Y-102133480D03*
X123853373Y-102133480D03*
D23*
X130853373Y-95133480D03*
X121853373Y-95133480D03*
D22*
X150895905Y-102133480D03*
D20*
X148395905Y-102133480D03*
X145895905Y-102133480D03*
D23*
X152895905Y-95133480D03*
X143895905Y-95133480D03*
D22*
X106810838Y-102133480D03*
D20*
X104310838Y-102133480D03*
X101810838Y-102133480D03*
D23*
X108810838Y-95133480D03*
X99810838Y-95133480D03*
D22*
X172938438Y-102133480D03*
D20*
X170438438Y-102133480D03*
X167938438Y-102133480D03*
D23*
X174938438Y-95133480D03*
X165938438Y-95133480D03*
D24*
X205775000Y-57022500D03*
D25*
X208315000Y-57022500D03*
X210855000Y-57022500D03*
X213395000Y-57022500D03*
X215935000Y-57022500D03*
X218475000Y-57022500D03*
X221015000Y-57022500D03*
X223555000Y-57022500D03*
X226095000Y-57022500D03*
X228635000Y-57022500D03*
X231175000Y-57022500D03*
X233715000Y-57022500D03*
X236255000Y-57022500D03*
X238795000Y-57022500D03*
X241335000Y-57022500D03*
X243875000Y-57022500D03*
X246415000Y-57022500D03*
X248955000Y-57022500D03*
X251495000Y-57022500D03*
X254035000Y-57022500D03*
X254035000Y-72262500D03*
X251495000Y-72262500D03*
X248955000Y-72262500D03*
X246415000Y-72262500D03*
X243875000Y-72262500D03*
X241335000Y-72262500D03*
X238795000Y-72262500D03*
X236255000Y-72262500D03*
X233715000Y-72262500D03*
X231175000Y-72262500D03*
X228635000Y-72262500D03*
X226095000Y-72262500D03*
X223555000Y-72262500D03*
X221015000Y-72262500D03*
X218475000Y-72262500D03*
X215935000Y-72262500D03*
X213395000Y-72262500D03*
X210855000Y-72262500D03*
X208315000Y-72262500D03*
X205775000Y-72262500D03*
D32*
X214570000Y-138880000D03*
D33*
X217070000Y-138880000D03*
X219070000Y-138880000D03*
X221570000Y-138880000D03*
D34*
X211500000Y-136170000D03*
X224640000Y-136170000D03*
D30*
X154124242Y-137575000D03*
D31*
X151584242Y-137575000D03*
D24*
X171132077Y-78246180D03*
D25*
X171132077Y-71746180D03*
X166632077Y-78246180D03*
X166632077Y-71746180D03*
D24*
X103617200Y-71746180D03*
D25*
X103617200Y-78246180D03*
X108117200Y-71746180D03*
X108117200Y-78246180D03*
M02*
