%TF.GenerationSoftware,KiCad,Pcbnew,(6.0.10)*%
%TF.CreationDate,2023-02-08T13:12:10+00:00*%
%TF.ProjectId,frontpanel(1),66726f6e-7470-4616-9e65-6c2831292e6b,rev?*%
%TF.SameCoordinates,Original*%
%TF.FileFunction,Legend,Bot*%
%TF.FilePolarity,Positive*%
%FSLAX46Y46*%
G04 Gerber Fmt 4.6, Leading zero omitted, Abs format (unit mm)*
G04 Created by KiCad (PCBNEW (6.0.10)) date 2023-02-08 13:12:10*
%MOMM*%
%LPD*%
G01*
G04 APERTURE LIST*
%ADD10C,0.300000*%
G04 APERTURE END LIST*
%LPC*%
D10*
X237947200Y-122986800D02*
X237947200Y-121208800D01*
X237185200Y-122986800D02*
X237947200Y-122986800D01*
X239471200Y-121208800D02*
X239471200Y-122986800D01*
X239471200Y-122986800D02*
X240233200Y-122986800D01*
X237947200Y-121208800D02*
X239471200Y-121208800D01*
%TO.C,G\u002A\u002A\u002A*%
G36*
X75103691Y-59826511D02*
G01*
X74853650Y-59826511D01*
X74853650Y-59493123D01*
X75103691Y-59493123D01*
X75103691Y-59826511D01*
G37*
G36*
X75103691Y-57972041D02*
G01*
X74853650Y-57972041D01*
X74853650Y-57638653D01*
X75103691Y-57638653D01*
X75103691Y-57972041D01*
G37*
G36*
X76666448Y-59368103D02*
G01*
X76416407Y-59368103D01*
X76416407Y-59034715D01*
X76666448Y-59034715D01*
X76666448Y-59368103D01*
G37*
G36*
X76656029Y-58565888D02*
G01*
X76668201Y-58888858D01*
X76416407Y-58888858D01*
X76416407Y-58553390D01*
X76656029Y-58565888D01*
G37*
G36*
X74332732Y-60326593D02*
G01*
X74082691Y-60326593D01*
X74082691Y-57555306D01*
X74332732Y-57555306D01*
X74332732Y-60326593D01*
G37*
G36*
X76666448Y-59826511D02*
G01*
X76416407Y-59826511D01*
X76416407Y-59493123D01*
X76666448Y-59493123D01*
X76666448Y-59826511D01*
G37*
G36*
X75103691Y-59368103D02*
G01*
X74853650Y-59368103D01*
X74853650Y-59034715D01*
X75103691Y-59034715D01*
X75103691Y-59368103D01*
G37*
G36*
X76666448Y-58430449D02*
G01*
X76416407Y-58430449D01*
X76416407Y-58097061D01*
X76666448Y-58097061D01*
X76666448Y-58430449D01*
G37*
G36*
X76666448Y-60284920D02*
G01*
X76416407Y-60284920D01*
X76416407Y-59951532D01*
X76666448Y-59951532D01*
X76666448Y-60284920D01*
G37*
G36*
X76666448Y-57972041D02*
G01*
X76416407Y-57972041D01*
X76416407Y-57638653D01*
X76666448Y-57638653D01*
X76666448Y-57972041D01*
G37*
G36*
X75895488Y-60326593D02*
G01*
X75624610Y-60326593D01*
X75624610Y-57555306D01*
X75895488Y-57555306D01*
X75895488Y-60326593D01*
G37*
G36*
X77437407Y-60326593D02*
G01*
X77187366Y-60326593D01*
X77187366Y-57555306D01*
X77437407Y-57555306D01*
X77437407Y-60326593D01*
G37*
G36*
X75103691Y-58888858D02*
G01*
X74851897Y-58888858D01*
X74864069Y-58565888D01*
X75103691Y-58553390D01*
X75103691Y-58888858D01*
G37*
G36*
X75103691Y-58430449D02*
G01*
X74853650Y-58430449D01*
X74853650Y-58097061D01*
X75103691Y-58097061D01*
X75103691Y-58430449D01*
G37*
G36*
X75103691Y-60284920D02*
G01*
X74853650Y-60284920D01*
X74853650Y-59951532D01*
X75103691Y-59951532D01*
X75103691Y-60284920D01*
G37*
G36*
X74660827Y-68496682D02*
G01*
X74687524Y-68503428D01*
X74708069Y-68525220D01*
X74728367Y-68570388D01*
X74754327Y-68647261D01*
X74776116Y-68712610D01*
X74917137Y-69059971D01*
X75097166Y-69398814D01*
X75314146Y-69725617D01*
X75566021Y-70036860D01*
X75669806Y-70147741D01*
X75844297Y-70316516D01*
X76050497Y-70499173D01*
X76285189Y-70692891D01*
X76545154Y-70894851D01*
X76928234Y-71184270D01*
X74588898Y-71184270D01*
X74588898Y-68496330D01*
X74647307Y-68496330D01*
X74660827Y-68496682D01*
G37*
G36*
X121494297Y-75279650D02*
G01*
X120681831Y-76092317D01*
X120586380Y-76187719D01*
X120439640Y-76334085D01*
X120303445Y-76469574D01*
X120180494Y-76591523D01*
X120073481Y-76697269D01*
X119985103Y-76784151D01*
X119918058Y-76849505D01*
X119875040Y-76890670D01*
X119858747Y-76904984D01*
X119850815Y-76898392D01*
X119816181Y-76865645D01*
X119756614Y-76807818D01*
X119674794Y-76727555D01*
X119573400Y-76627504D01*
X119455112Y-76510311D01*
X119322609Y-76378620D01*
X119178571Y-76235079D01*
X119025677Y-76082334D01*
X118203225Y-75259684D01*
X118525694Y-74948775D01*
X118848163Y-74637867D01*
X118755990Y-74542791D01*
X118705781Y-74486942D01*
X118685495Y-74452742D01*
X118693479Y-74437036D01*
X118712507Y-74430400D01*
X118776216Y-74409444D01*
X118861206Y-74382540D01*
X118959846Y-74351987D01*
X119064505Y-74320085D01*
X119167551Y-74289133D01*
X119261352Y-74261431D01*
X119338276Y-74239279D01*
X119390694Y-74224977D01*
X119410972Y-74220824D01*
X119411213Y-74223258D01*
X119406352Y-74255024D01*
X119394105Y-74317138D01*
X119376245Y-74401752D01*
X119354543Y-74501018D01*
X119330772Y-74607089D01*
X119306706Y-74712116D01*
X119284117Y-74808250D01*
X119264776Y-74887645D01*
X119250457Y-74942452D01*
X119242933Y-74964822D01*
X119231479Y-74961010D01*
X119196642Y-74936061D01*
X119148264Y-74894880D01*
X119061784Y-74816750D01*
X118608228Y-75268900D01*
X119233487Y-75894158D01*
X119858745Y-76519417D01*
X120478560Y-75899602D01*
X121098376Y-75279787D01*
X120379780Y-74560964D01*
X119661184Y-73842142D01*
X119760086Y-73743241D01*
X119858987Y-73644340D01*
X121494297Y-75279650D01*
G37*
G36*
X120212971Y-75244989D02*
G01*
X120212575Y-75291411D01*
X120209862Y-75370362D01*
X120205141Y-75427684D01*
X120199079Y-75453357D01*
X120190254Y-75456644D01*
X120146823Y-75462090D01*
X120076969Y-75465847D01*
X119990712Y-75467248D01*
X119796236Y-75467248D01*
X119796236Y-75050513D01*
X120212971Y-75050513D01*
X120212971Y-75244989D01*
G37*
G36*
X120754726Y-75244989D02*
G01*
X120754312Y-75291327D01*
X120751463Y-75370464D01*
X120746502Y-75428063D01*
X120740131Y-75454061D01*
X120730021Y-75457546D01*
X120685023Y-75461990D01*
X120613896Y-75463857D01*
X120526554Y-75462743D01*
X120327573Y-75456829D01*
X120315645Y-75050513D01*
X120754726Y-75050513D01*
X120754726Y-75244989D01*
G37*
G36*
X121494297Y-69829650D02*
G01*
X120681831Y-70642317D01*
X120586380Y-70737719D01*
X120439640Y-70884085D01*
X120303445Y-71019574D01*
X120180494Y-71141523D01*
X120073481Y-71247269D01*
X119985103Y-71334151D01*
X119918058Y-71399505D01*
X119875040Y-71440670D01*
X119858747Y-71454984D01*
X119850815Y-71448392D01*
X119816181Y-71415645D01*
X119756614Y-71357818D01*
X119674794Y-71277555D01*
X119573400Y-71177504D01*
X119455112Y-71060311D01*
X119322609Y-70928620D01*
X119178571Y-70785079D01*
X119025677Y-70632334D01*
X118203225Y-69809684D01*
X118525694Y-69498775D01*
X118848163Y-69187867D01*
X118755990Y-69092791D01*
X118705781Y-69036942D01*
X118685495Y-69002742D01*
X118693479Y-68987036D01*
X118712507Y-68980400D01*
X118776216Y-68959444D01*
X118861206Y-68932540D01*
X118959846Y-68901987D01*
X119064505Y-68870085D01*
X119167551Y-68839133D01*
X119261352Y-68811431D01*
X119338276Y-68789279D01*
X119390694Y-68774977D01*
X119410972Y-68770824D01*
X119411213Y-68773258D01*
X119406352Y-68805024D01*
X119394105Y-68867138D01*
X119376245Y-68951752D01*
X119354543Y-69051018D01*
X119330772Y-69157089D01*
X119306706Y-69262116D01*
X119284117Y-69358250D01*
X119264776Y-69437645D01*
X119250457Y-69492452D01*
X119242933Y-69514822D01*
X119231479Y-69511010D01*
X119196642Y-69486061D01*
X119148264Y-69444880D01*
X119061784Y-69366750D01*
X118608228Y-69818900D01*
X119233487Y-70444158D01*
X119858745Y-71069417D01*
X120478560Y-70449602D01*
X121098376Y-69829787D01*
X120379780Y-69110964D01*
X119661184Y-68392142D01*
X119760086Y-68293241D01*
X119858987Y-68194340D01*
X121494297Y-69829650D01*
G37*
G36*
X120754726Y-69794989D02*
G01*
X120754312Y-69841327D01*
X120751463Y-69920464D01*
X120746502Y-69978063D01*
X120740131Y-70004061D01*
X120730021Y-70007546D01*
X120685023Y-70011990D01*
X120613896Y-70013857D01*
X120526554Y-70012743D01*
X120327573Y-70006829D01*
X120315645Y-69600513D01*
X120754726Y-69600513D01*
X120754726Y-69794989D01*
G37*
G36*
X120311745Y-60000640D02*
G01*
X120322712Y-60023813D01*
X120346923Y-60067119D01*
X120362644Y-60084299D01*
X120370669Y-60078376D01*
X120392401Y-60039376D01*
X120421758Y-59968705D01*
X120456903Y-59871958D01*
X120496000Y-59754730D01*
X120537212Y-59622617D01*
X120578704Y-59481213D01*
X120618640Y-59336113D01*
X120655182Y-59192912D01*
X120660413Y-59171660D01*
X120683073Y-59086999D01*
X120701434Y-59035794D01*
X120718260Y-59011771D01*
X120736314Y-59008654D01*
X120772165Y-59017629D01*
X120827595Y-59030503D01*
X120866987Y-59046374D01*
X120884896Y-59069050D01*
X120884259Y-59081242D01*
X120873836Y-59144328D01*
X120852349Y-59237137D01*
X120822025Y-59352356D01*
X120785089Y-59482674D01*
X120743765Y-59620777D01*
X120700279Y-59759352D01*
X120656858Y-59891087D01*
X120615725Y-60008668D01*
X120579106Y-60104782D01*
X120549227Y-60172117D01*
X120536517Y-60197310D01*
X120520933Y-60233949D01*
X120524522Y-60248436D01*
X120546997Y-60250993D01*
X120584008Y-60241677D01*
X120643697Y-60195171D01*
X120708355Y-60111892D01*
X120776691Y-59994393D01*
X120847417Y-59845226D01*
X120919243Y-59666945D01*
X120990880Y-59462103D01*
X121061037Y-59233253D01*
X121062351Y-59228693D01*
X121090074Y-59136265D01*
X121114604Y-59061245D01*
X121133324Y-59011226D01*
X121143615Y-58993798D01*
X121148041Y-58994808D01*
X121183951Y-59001596D01*
X121239422Y-59011257D01*
X121258168Y-59014867D01*
X121304091Y-59028586D01*
X121322468Y-59042391D01*
X121321405Y-59051669D01*
X121310506Y-59098872D01*
X121289838Y-59174167D01*
X121261904Y-59269437D01*
X121229206Y-59376565D01*
X121194246Y-59487436D01*
X121159526Y-59593931D01*
X121127549Y-59687934D01*
X121100818Y-59761329D01*
X121070859Y-59835383D01*
X121020078Y-59949883D01*
X120965412Y-60063056D01*
X120911634Y-60165532D01*
X120863519Y-60247945D01*
X120853446Y-60262109D01*
X120825840Y-60300926D01*
X120733556Y-60385902D01*
X120633627Y-60439663D01*
X120534222Y-60457166D01*
X120440775Y-60436495D01*
X120429020Y-60431604D01*
X120382185Y-60425932D01*
X120326227Y-60446913D01*
X120269072Y-60470694D01*
X120192713Y-60476508D01*
X120111007Y-60447427D01*
X120074993Y-60430630D01*
X120042182Y-60426633D01*
X120013067Y-60444708D01*
X119988722Y-60463242D01*
X119947243Y-60486252D01*
X119881234Y-60496431D01*
X119804129Y-60471188D01*
X119730694Y-60405759D01*
X119662157Y-60300941D01*
X119648398Y-60274185D01*
X119612946Y-60197379D01*
X119578815Y-60110185D01*
X119545004Y-60008761D01*
X119510507Y-59889264D01*
X119474320Y-59747851D01*
X119435441Y-59580680D01*
X119392864Y-59383907D01*
X119373658Y-59290386D01*
X119575726Y-59290386D01*
X119582450Y-59337427D01*
X119598621Y-59420638D01*
X119624403Y-59539080D01*
X119660818Y-59690562D01*
X119703379Y-59847980D01*
X119746543Y-59989709D01*
X119787722Y-60107293D01*
X119824328Y-60192278D01*
X119833024Y-60208835D01*
X119861245Y-60255864D01*
X119881528Y-60280268D01*
X119903650Y-60286924D01*
X119908830Y-60264490D01*
X119897191Y-60224690D01*
X120168461Y-60224690D01*
X120168633Y-60255207D01*
X120175329Y-60261892D01*
X120184160Y-60264490D01*
X120209108Y-60271830D01*
X120215629Y-60271607D01*
X120228638Y-60262109D01*
X120213804Y-60230987D01*
X120192636Y-60206747D01*
X120173329Y-60214365D01*
X120168461Y-60224690D01*
X119897191Y-60224690D01*
X119892598Y-60208986D01*
X119854753Y-60119192D01*
X119825099Y-60051735D01*
X119777877Y-59932957D01*
X119732928Y-59802949D01*
X119686924Y-59651805D01*
X119636536Y-59469615D01*
X119610596Y-59375673D01*
X119589963Y-59308570D01*
X119578285Y-59280454D01*
X119575726Y-59290386D01*
X119373658Y-59290386D01*
X119354370Y-59196461D01*
X119554618Y-59196461D01*
X119559592Y-59224349D01*
X119566705Y-59224026D01*
X119570536Y-59197001D01*
X119567199Y-59176519D01*
X119557947Y-59184412D01*
X119554618Y-59196461D01*
X119354370Y-59196461D01*
X119345587Y-59153690D01*
X119333424Y-59092277D01*
X119533781Y-59092277D01*
X119538755Y-59120165D01*
X119545868Y-59119842D01*
X119549699Y-59092817D01*
X119546363Y-59072335D01*
X119537110Y-59080228D01*
X119533781Y-59092277D01*
X119333424Y-59092277D01*
X119313157Y-58989951D01*
X119514123Y-58989951D01*
X119516616Y-59014679D01*
X119522884Y-59017939D01*
X119530508Y-59000788D01*
X119529004Y-58989757D01*
X119516616Y-58986897D01*
X119514123Y-58989951D01*
X119313157Y-58989951D01*
X119292606Y-58886186D01*
X119284950Y-58848385D01*
X119698506Y-58848385D01*
X119703367Y-58886402D01*
X119717765Y-58956854D01*
X119727906Y-59000788D01*
X119739821Y-59052405D01*
X119749748Y-59092817D01*
X119767657Y-59165722D01*
X119775679Y-59197001D01*
X119799393Y-59289472D01*
X119833149Y-59416322D01*
X119867048Y-59538938D01*
X119899209Y-59649987D01*
X119927753Y-59742135D01*
X119933989Y-59761124D01*
X119966678Y-59854948D01*
X119996279Y-59931128D01*
X120019751Y-59982263D01*
X120034055Y-60000952D01*
X120046198Y-59992181D01*
X120046953Y-59959148D01*
X120033190Y-59898292D01*
X120004108Y-59806192D01*
X119958908Y-59679429D01*
X119949023Y-59652046D01*
X119912718Y-59545213D01*
X119871414Y-59416391D01*
X119829474Y-59279408D01*
X119791261Y-59148092D01*
X119769277Y-59070896D01*
X119741478Y-58975993D01*
X119719178Y-58903120D01*
X119704242Y-58858323D01*
X119698537Y-58847647D01*
X119698506Y-58848385D01*
X119284950Y-58848385D01*
X119271419Y-58781583D01*
X119680817Y-58781583D01*
X119683310Y-58806312D01*
X119689578Y-58809571D01*
X119697202Y-58792420D01*
X119695698Y-58781389D01*
X119683310Y-58778529D01*
X119680817Y-58781583D01*
X119271419Y-58781583D01*
X119254537Y-58698236D01*
X119659980Y-58698236D01*
X119662474Y-58722965D01*
X119668741Y-58726224D01*
X119676365Y-58709073D01*
X119674861Y-58698042D01*
X119662474Y-58695182D01*
X119659980Y-58698236D01*
X119254537Y-58698236D01*
X119244172Y-58647064D01*
X119193389Y-58417838D01*
X119145952Y-58228080D01*
X119101591Y-58076720D01*
X119060036Y-57962688D01*
X119027806Y-57886022D01*
X118977089Y-57969369D01*
X118943068Y-58030356D01*
X118881882Y-58160765D01*
X118816579Y-58322918D01*
X118749412Y-58511073D01*
X118682634Y-58719492D01*
X118663223Y-58783133D01*
X118632290Y-58883502D01*
X118606663Y-58965346D01*
X118588581Y-59021538D01*
X118580284Y-59044955D01*
X118565207Y-59049141D01*
X118522377Y-59046883D01*
X118468195Y-59038501D01*
X118418902Y-59026649D01*
X118390734Y-59013981D01*
X118389513Y-59012407D01*
X118386637Y-58997109D01*
X118389152Y-58965843D01*
X118397900Y-58914545D01*
X118413721Y-58839152D01*
X118437456Y-58735601D01*
X118469944Y-58599831D01*
X118512028Y-58427777D01*
X118539471Y-58319110D01*
X118594590Y-58119895D01*
X118647122Y-57957912D01*
X118698152Y-57830292D01*
X118748766Y-57734168D01*
X118800049Y-57666672D01*
X118825283Y-57641160D01*
X118861310Y-57611849D01*
X118901390Y-57594195D01*
X118958038Y-57583494D01*
X119043772Y-57575039D01*
X119117836Y-57570385D01*
X119217242Y-57574393D01*
X119296092Y-57596910D01*
X119366569Y-57642218D01*
X119440857Y-57714599D01*
X119450006Y-57724751D01*
X119518675Y-57814205D01*
X119586017Y-57926793D01*
X119653274Y-58065530D01*
X119721686Y-58233430D01*
X119792495Y-58433508D01*
X119866941Y-58668779D01*
X119878629Y-58709073D01*
X119902804Y-58792420D01*
X119946265Y-58942257D01*
X119958112Y-58984467D01*
X119996798Y-59120832D01*
X120033575Y-59248387D01*
X120066146Y-59359292D01*
X120092217Y-59445707D01*
X120109492Y-59499792D01*
X120148436Y-59613316D01*
X120193054Y-59395608D01*
X120205997Y-59331940D01*
X120225379Y-59234733D01*
X120241376Y-59152318D01*
X120251439Y-59097699D01*
X120254224Y-59081931D01*
X120266050Y-59039076D01*
X120286747Y-59025107D01*
X120327615Y-59029980D01*
X120378267Y-59038540D01*
X120418674Y-59042461D01*
X120429946Y-59045289D01*
X120441341Y-59062406D01*
X120444987Y-59098177D01*
X120440381Y-59156203D01*
X120427022Y-59240085D01*
X120404408Y-59353425D01*
X120372036Y-59499823D01*
X120329404Y-59682880D01*
X120309868Y-59766241D01*
X120293734Y-59841522D01*
X120286377Y-59893196D01*
X120287275Y-59930669D01*
X120294796Y-59959148D01*
X120295906Y-59963349D01*
X120311745Y-60000640D01*
G37*
G36*
X120326768Y-57523008D02*
G01*
X120386430Y-57554095D01*
X120432722Y-57606225D01*
X120477863Y-57697763D01*
X120493418Y-57796188D01*
X120480907Y-57893043D01*
X120441850Y-57979871D01*
X120377768Y-58048212D01*
X120290181Y-58089608D01*
X120275378Y-58093318D01*
X120233655Y-58100703D01*
X120198693Y-58095669D01*
X120148021Y-58076077D01*
X120068267Y-58025540D01*
X120008488Y-57947872D01*
X119977912Y-57854957D01*
X119977813Y-57755492D01*
X120009465Y-57658174D01*
X120074142Y-57571698D01*
X120119694Y-57534638D01*
X120169375Y-57516163D01*
X120239836Y-57512471D01*
X120326768Y-57523008D01*
G37*
G36*
X120878292Y-57503607D02*
G01*
X120952324Y-57530979D01*
X121023761Y-57578079D01*
X121074809Y-57634313D01*
X121103234Y-57702372D01*
X121112462Y-57798268D01*
X121094827Y-57895160D01*
X121053870Y-57982874D01*
X120993131Y-58051241D01*
X120916152Y-58090088D01*
X120827258Y-58094697D01*
X120744261Y-58065654D01*
X120675361Y-58009055D01*
X120625083Y-57931929D01*
X120597956Y-57841306D01*
X120598504Y-57744214D01*
X120631256Y-57647684D01*
X120652074Y-57616575D01*
X120712034Y-57559195D01*
X120783334Y-57516976D01*
X120850167Y-57500542D01*
X120878292Y-57503607D01*
G37*
G36*
X120965484Y-63027379D02*
G01*
X120987171Y-63039977D01*
X121055571Y-63105885D01*
X121095880Y-63190226D01*
X121109024Y-63284085D01*
X121095929Y-63378548D01*
X121057520Y-63464699D01*
X120994724Y-63533626D01*
X120908465Y-63576413D01*
X120894412Y-63579778D01*
X120803662Y-63579398D01*
X120720420Y-63544657D01*
X120651960Y-63481888D01*
X120605551Y-63397427D01*
X120588466Y-63297610D01*
X120599203Y-63209241D01*
X120638830Y-63117012D01*
X120701634Y-63048150D01*
X120781254Y-63007216D01*
X120871325Y-62998772D01*
X120965484Y-63027379D01*
G37*
G36*
X120636733Y-63752712D02*
G01*
X120711297Y-63800679D01*
X120766189Y-63875008D01*
X120793555Y-63963883D01*
X120793505Y-64058663D01*
X120766147Y-64150706D01*
X120711590Y-64231372D01*
X120629942Y-64292020D01*
X120618256Y-64297585D01*
X120564270Y-64316491D01*
X120526174Y-64319719D01*
X120500072Y-64312483D01*
X120448733Y-64297948D01*
X120442574Y-64295813D01*
X120396827Y-64267215D01*
X120350588Y-64222753D01*
X120338764Y-64207840D01*
X120292883Y-64119243D01*
X120278646Y-64026736D01*
X120292108Y-63936804D01*
X120329321Y-63855931D01*
X120386337Y-63790601D01*
X120459210Y-63747299D01*
X120543991Y-63732508D01*
X120636733Y-63752712D01*
G37*
G36*
X119966158Y-64515076D02*
G01*
X119999342Y-64630462D01*
X120037406Y-64760931D01*
X120071073Y-64874294D01*
X120098614Y-64964800D01*
X120118298Y-65026699D01*
X120128396Y-65054241D01*
X120135667Y-65065939D01*
X120142226Y-65068503D01*
X120149367Y-65056344D01*
X120158588Y-65024228D01*
X120171381Y-64966924D01*
X120189244Y-64879197D01*
X120213671Y-64755817D01*
X120230364Y-64674852D01*
X120248500Y-64595035D01*
X120263299Y-64538598D01*
X120272615Y-64514336D01*
X120278403Y-64511927D01*
X120315969Y-64511629D01*
X120372215Y-64520243D01*
X120458096Y-64538426D01*
X120438332Y-64636703D01*
X120433255Y-64661390D01*
X120417963Y-64733664D01*
X120396879Y-64831766D01*
X120372090Y-64946014D01*
X120345683Y-65066721D01*
X120322116Y-65174636D01*
X120302439Y-65269065D01*
X120290612Y-65336286D01*
X120285983Y-65383557D01*
X120287901Y-65418136D01*
X120295539Y-65446621D01*
X120295716Y-65447280D01*
X120308776Y-65478247D01*
X120318060Y-65497822D01*
X120342708Y-65540864D01*
X120359660Y-65558032D01*
X120362367Y-65556934D01*
X120380022Y-65529435D01*
X120406045Y-65469881D01*
X120438304Y-65384862D01*
X120474670Y-65280968D01*
X120513010Y-65164789D01*
X120551192Y-65042915D01*
X120587086Y-64921936D01*
X120618560Y-64808441D01*
X120643484Y-64709021D01*
X120659724Y-64630265D01*
X120662577Y-64614561D01*
X120676383Y-64556796D01*
X120690190Y-64520174D01*
X120715867Y-64505821D01*
X120764126Y-64503175D01*
X120818099Y-64511715D01*
X120862035Y-64528816D01*
X120880180Y-64551850D01*
X120879806Y-64560820D01*
X120870419Y-64620975D01*
X120850078Y-64711075D01*
X120821025Y-64823504D01*
X120785500Y-64950646D01*
X120745744Y-65084888D01*
X120703999Y-65218613D01*
X120662505Y-65344206D01*
X120623503Y-65454052D01*
X120589235Y-65540536D01*
X120563838Y-65600245D01*
X120538512Y-65664741D01*
X120528247Y-65702526D01*
X120531498Y-65720291D01*
X120546721Y-65724726D01*
X120547138Y-65724724D01*
X120590414Y-65706224D01*
X120644436Y-65656088D01*
X120703882Y-65581024D01*
X120763430Y-65487743D01*
X120817757Y-65382956D01*
X120820626Y-65376684D01*
X120861584Y-65279206D01*
X120909445Y-65153812D01*
X120960263Y-65011825D01*
X121010086Y-64864568D01*
X121054968Y-64723366D01*
X121090958Y-64599542D01*
X121098996Y-64571530D01*
X121117166Y-64517769D01*
X121131084Y-64488632D01*
X121155750Y-64484242D01*
X121202739Y-64489367D01*
X121256019Y-64500728D01*
X121299665Y-64514923D01*
X121317752Y-64528545D01*
X121315584Y-64548148D01*
X121301377Y-64610148D01*
X121276025Y-64699727D01*
X121242004Y-64809570D01*
X121201789Y-64932360D01*
X121157853Y-65060784D01*
X121112671Y-65187526D01*
X121068718Y-65305269D01*
X121028467Y-65406699D01*
X120994394Y-65484501D01*
X120917286Y-65629502D01*
X120843043Y-65735842D01*
X120832237Y-65751320D01*
X120824117Y-65762951D01*
X120727941Y-65858615D01*
X120630023Y-65915534D01*
X120531629Y-65932749D01*
X120434024Y-65909301D01*
X120422946Y-65904556D01*
X120377513Y-65897543D01*
X120329593Y-65919720D01*
X120265496Y-65946567D01*
X120178261Y-65949985D01*
X120098682Y-65920681D01*
X120062732Y-65900866D01*
X120033083Y-65903081D01*
X119992422Y-65931099D01*
X119952417Y-65956779D01*
X119877669Y-65973500D01*
X119804095Y-65949194D01*
X119732097Y-65884282D01*
X119662081Y-65779183D01*
X119594450Y-65634318D01*
X119529610Y-65450107D01*
X119524889Y-65434784D01*
X119498678Y-65344543D01*
X119472197Y-65243627D01*
X119444319Y-65126970D01*
X119413917Y-64989505D01*
X119379862Y-64826165D01*
X119346041Y-64656961D01*
X119551862Y-64656961D01*
X119552612Y-64695517D01*
X119563445Y-64766236D01*
X119582546Y-64861894D01*
X119608101Y-64975268D01*
X119638293Y-65099134D01*
X119671309Y-65226268D01*
X119705333Y-65349449D01*
X119738551Y-65461451D01*
X119769147Y-65555052D01*
X119795307Y-65623029D01*
X119810500Y-65655396D01*
X119848172Y-65719459D01*
X119881424Y-65754146D01*
X119905955Y-65754353D01*
X119906896Y-65751320D01*
X119899786Y-65719676D01*
X119891937Y-65698424D01*
X120163745Y-65698424D01*
X120163917Y-65728941D01*
X120170613Y-65735625D01*
X120204392Y-65745563D01*
X120210913Y-65745340D01*
X120223922Y-65735842D01*
X120209088Y-65704721D01*
X120187920Y-65680481D01*
X120168613Y-65688098D01*
X120163745Y-65698424D01*
X119891937Y-65698424D01*
X119878861Y-65663016D01*
X119847603Y-65591081D01*
X119824178Y-65536138D01*
X119783395Y-65427422D01*
X119738545Y-65296040D01*
X119692988Y-65152680D01*
X119650083Y-65008032D01*
X119613188Y-64872785D01*
X119585664Y-64757628D01*
X119572308Y-64701721D01*
X119559742Y-64662586D01*
X119552241Y-64655633D01*
X119551862Y-64656961D01*
X119346041Y-64656961D01*
X119341028Y-64631883D01*
X119332278Y-64586847D01*
X119529065Y-64586847D01*
X119534039Y-64614735D01*
X119541152Y-64614412D01*
X119544983Y-64587387D01*
X119541647Y-64566905D01*
X119532394Y-64574798D01*
X119529065Y-64586847D01*
X119332278Y-64586847D01*
X119312479Y-64484940D01*
X119504955Y-64484940D01*
X119515373Y-64495358D01*
X119525792Y-64484940D01*
X119515373Y-64474521D01*
X119504955Y-64484940D01*
X119312479Y-64484940D01*
X119296286Y-64401593D01*
X119286435Y-64351367D01*
X119697150Y-64351367D01*
X119704844Y-64401046D01*
X119721345Y-64479473D01*
X119722627Y-64484940D01*
X119744959Y-64580176D01*
X119746756Y-64587387D01*
X119773994Y-64696686D01*
X119806756Y-64822531D01*
X119841551Y-64951240D01*
X119876686Y-65076342D01*
X119910468Y-65191365D01*
X119941204Y-65289839D01*
X119967200Y-65365292D01*
X119985870Y-65410626D01*
X120010128Y-65456796D01*
X120027371Y-65474685D01*
X120033734Y-65474047D01*
X120042239Y-65466642D01*
X120043165Y-65446621D01*
X120035235Y-65408654D01*
X120017169Y-65347413D01*
X119987686Y-65257570D01*
X119945507Y-65133795D01*
X119943501Y-65127944D01*
X119899067Y-64994082D01*
X119852588Y-64847238D01*
X119809458Y-64704807D01*
X119775071Y-64584184D01*
X119771038Y-64569391D01*
X119744836Y-64476305D01*
X119722436Y-64401681D01*
X119706102Y-64352799D01*
X119698102Y-64336939D01*
X119697150Y-64351367D01*
X119286435Y-64351367D01*
X119277584Y-64306236D01*
X119270915Y-64274296D01*
X119674923Y-64274296D01*
X119679897Y-64302184D01*
X119687010Y-64301861D01*
X119690841Y-64274836D01*
X119687504Y-64254354D01*
X119678252Y-64262247D01*
X119674923Y-64274296D01*
X119270915Y-64274296D01*
X119253899Y-64192806D01*
X119655264Y-64192806D01*
X119657758Y-64217535D01*
X119664025Y-64220794D01*
X119671649Y-64203643D01*
X119670145Y-64192612D01*
X119657758Y-64189752D01*
X119655264Y-64192806D01*
X119253899Y-64192806D01*
X119235781Y-64106037D01*
X119194352Y-63924329D01*
X119154234Y-63764341D01*
X119116367Y-63629302D01*
X119081689Y-63522440D01*
X119051136Y-63446984D01*
X119025649Y-63406162D01*
X119006164Y-63403202D01*
X118994979Y-63416965D01*
X118958570Y-63478007D01*
X118913984Y-63569897D01*
X118863797Y-63686018D01*
X118810582Y-63819752D01*
X118756914Y-63964481D01*
X118705368Y-64113587D01*
X118658520Y-64260453D01*
X118618942Y-64398462D01*
X118580827Y-64541189D01*
X118497914Y-64527930D01*
X118461896Y-64521733D01*
X118409961Y-64508135D01*
X118385741Y-64489920D01*
X118379770Y-64461790D01*
X118382206Y-64439812D01*
X118394135Y-64378071D01*
X118414346Y-64288149D01*
X118440988Y-64177190D01*
X118472209Y-64052341D01*
X118506155Y-63920748D01*
X118540976Y-63789556D01*
X118574818Y-63665911D01*
X118605830Y-63556959D01*
X118632159Y-63469845D01*
X118651953Y-63411717D01*
X118655073Y-63403752D01*
X118695639Y-63314259D01*
X118742424Y-63229783D01*
X118785922Y-63167646D01*
X118791336Y-63161327D01*
X118826031Y-63123086D01*
X118857359Y-63098994D01*
X118896552Y-63084718D01*
X118954837Y-63075927D01*
X119043444Y-63068286D01*
X119144614Y-63062731D01*
X119227484Y-63067506D01*
X119293281Y-63087482D01*
X119354497Y-63126621D01*
X119423624Y-63188885D01*
X119447139Y-63214537D01*
X119506233Y-63296745D01*
X119570942Y-63406641D01*
X119636835Y-63535795D01*
X119699480Y-63675779D01*
X119754447Y-63818163D01*
X119768295Y-63858926D01*
X119798554Y-63953164D01*
X119835988Y-64074190D01*
X119875042Y-64203643D01*
X119878080Y-64213712D01*
X119896136Y-64274836D01*
X119922309Y-64363438D01*
X119966158Y-64515076D01*
G37*
G36*
X120308497Y-63008381D02*
G01*
X120387441Y-63054828D01*
X120426349Y-63096912D01*
X120471078Y-63184326D01*
X120486524Y-63280662D01*
X120474385Y-63376910D01*
X120436358Y-63464067D01*
X120374139Y-63533123D01*
X120289425Y-63575074D01*
X120275636Y-63578365D01*
X120180484Y-63579412D01*
X120096534Y-63542857D01*
X120028639Y-63471935D01*
X119981651Y-63369882D01*
X119969714Y-63304831D01*
X119978748Y-63211311D01*
X120015120Y-63128941D01*
X120072556Y-63062591D01*
X120144780Y-63017134D01*
X120225519Y-62997439D01*
X120308497Y-63008381D01*
G37*
G36*
X75763717Y-62834351D02*
G01*
X75793115Y-62870922D01*
X75843112Y-62941514D01*
X75909492Y-63039562D01*
X75988043Y-63158501D01*
X76074551Y-63291765D01*
X76164802Y-63432789D01*
X76254584Y-63575007D01*
X76339681Y-63711854D01*
X76415881Y-63836765D01*
X76478970Y-63943173D01*
X76524734Y-64024515D01*
X76592462Y-64157262D01*
X76671292Y-64329125D01*
X76738863Y-64495877D01*
X76791579Y-64647833D01*
X76825845Y-64775307D01*
X76838066Y-64868612D01*
X76833930Y-64962481D01*
X76790504Y-65183495D01*
X76703516Y-65387734D01*
X76577597Y-65569306D01*
X76417378Y-65722316D01*
X76227490Y-65840870D01*
X76012566Y-65919074D01*
X76008591Y-65920053D01*
X75786655Y-65949885D01*
X75570781Y-65933213D01*
X75366323Y-65874254D01*
X75178633Y-65777224D01*
X75013064Y-65646341D01*
X74874970Y-65485821D01*
X74769703Y-65299882D01*
X74702618Y-65092740D01*
X74679066Y-64868612D01*
X74686741Y-64798230D01*
X74716642Y-64677180D01*
X74765754Y-64529597D01*
X74830481Y-64365168D01*
X74907227Y-64193578D01*
X74992399Y-64024515D01*
X75008980Y-63994290D01*
X75062430Y-63901770D01*
X75131460Y-63786903D01*
X75211856Y-63656252D01*
X75299405Y-63516384D01*
X75389892Y-63373864D01*
X75479104Y-63235258D01*
X75562828Y-63107130D01*
X75636850Y-62996046D01*
X75696956Y-62908572D01*
X75738933Y-62851273D01*
X75758566Y-62830715D01*
X75763717Y-62834351D01*
G37*
G36*
X76550420Y-74269934D02*
G01*
X76987991Y-74269934D01*
X76987991Y-74915873D01*
X76581901Y-74915873D01*
X75878548Y-75618999D01*
X75175194Y-76322124D01*
X75175194Y-76728670D01*
X74529255Y-76728670D01*
X74529255Y-75645159D01*
X74737622Y-75645159D01*
X74737622Y-76082731D01*
X74956178Y-76082731D01*
X75649115Y-75390026D01*
X76342052Y-74697320D01*
X76342052Y-73853199D01*
X76550420Y-73853199D01*
X76550420Y-74269934D01*
G37*
%TD*%
M02*
