%TF.GenerationSoftware,KiCad,Pcbnew,(6.0.10)*%
<<<<<<< HEAD
%TF.CreationDate,2023-02-08T13:31:10+00:00*%
=======
%TF.CreationDate,2023-02-08T13:12:10+00:00*%
>>>>>>> b10c0fa601ba5ec4f87fb5594a798798840687e0
%TF.ProjectId,frontpanel(1),66726f6e-7470-4616-9e65-6c2831292e6b,rev?*%
%TF.SameCoordinates,Original*%
%TF.FileFunction,Soldermask,Bot*%
%TF.FilePolarity,Negative*%
%FSLAX46Y46*%
G04 Gerber Fmt 4.6, Leading zero omitted, Abs format (unit mm)*
<<<<<<< HEAD
G04 Created by KiCad (PCBNEW (6.0.10)) date 2023-02-08 13:31:10*
=======
G04 Created by KiCad (PCBNEW (6.0.10)) date 2023-02-08 13:12:10*
>>>>>>> b10c0fa601ba5ec4f87fb5594a798798840687e0
%MOMM*%
%LPD*%
G01*
G04 APERTURE LIST*
%ADD10C,0.300000*%
G04 APERTURE END LIST*
D10*
<<<<<<< HEAD
X121920000Y-129942800D02*
X121920000Y-128164800D01*
X121158000Y-129942800D02*
X121920000Y-129942800D01*
X123444000Y-128164800D02*
X123444000Y-129942800D01*
X123444000Y-129942800D02*
X124206000Y-129942800D01*
X121920000Y-128164800D02*
X123444000Y-128164800D01*
%TO.C,G\u002A\u002A\u002A*%
G36*
X115464291Y-59365711D02*
G01*
X115214250Y-59365711D01*
X115214250Y-59032323D01*
X115464291Y-59032323D01*
X115464291Y-59365711D01*
G37*
G36*
X115464291Y-57511241D02*
G01*
X115214250Y-57511241D01*
X115214250Y-57177853D01*
X115464291Y-57177853D01*
X115464291Y-57511241D01*
G37*
G36*
X117027048Y-58907303D02*
G01*
X116777007Y-58907303D01*
X116777007Y-58573915D01*
X117027048Y-58573915D01*
X117027048Y-58907303D01*
G37*
G36*
X117016629Y-58105088D02*
G01*
X117028801Y-58428058D01*
X116777007Y-58428058D01*
X116777007Y-58092590D01*
X117016629Y-58105088D01*
G37*
G36*
X114693332Y-59865793D02*
G01*
X114443291Y-59865793D01*
X114443291Y-57094506D01*
X114693332Y-57094506D01*
X114693332Y-59865793D01*
G37*
G36*
X117027048Y-59365711D02*
G01*
X116777007Y-59365711D01*
X116777007Y-59032323D01*
X117027048Y-59032323D01*
X117027048Y-59365711D01*
G37*
G36*
X115464291Y-58907303D02*
G01*
X115214250Y-58907303D01*
X115214250Y-58573915D01*
X115464291Y-58573915D01*
X115464291Y-58907303D01*
G37*
G36*
X117027048Y-57969649D02*
G01*
X116777007Y-57969649D01*
X116777007Y-57636261D01*
X117027048Y-57636261D01*
X117027048Y-57969649D01*
G37*
G36*
X117027048Y-59824120D02*
G01*
X116777007Y-59824120D01*
X116777007Y-59490732D01*
X117027048Y-59490732D01*
X117027048Y-59824120D01*
G37*
G36*
X117027048Y-57511241D02*
G01*
X116777007Y-57511241D01*
X116777007Y-57177853D01*
X117027048Y-57177853D01*
X117027048Y-57511241D01*
G37*
G36*
X116256088Y-59865793D02*
G01*
X115985210Y-59865793D01*
X115985210Y-57094506D01*
X116256088Y-57094506D01*
X116256088Y-59865793D01*
G37*
G36*
X117798007Y-59865793D02*
G01*
X117547966Y-59865793D01*
X117547966Y-57094506D01*
X117798007Y-57094506D01*
X117798007Y-59865793D01*
G37*
G36*
X115464291Y-58428058D02*
G01*
X115212497Y-58428058D01*
X115224669Y-58105088D01*
X115464291Y-58092590D01*
X115464291Y-58428058D01*
G37*
G36*
X115464291Y-57969649D02*
G01*
X115214250Y-57969649D01*
X115214250Y-57636261D01*
X115464291Y-57636261D01*
X115464291Y-57969649D01*
G37*
G36*
X115464291Y-59824120D02*
G01*
X115214250Y-59824120D01*
X115214250Y-59490732D01*
X115464291Y-59490732D01*
X115464291Y-59824120D01*
G37*
G36*
X115021427Y-68035882D02*
G01*
X115048124Y-68042628D01*
X115068669Y-68064420D01*
X115088967Y-68109588D01*
X115114927Y-68186461D01*
X115136716Y-68251810D01*
X115277737Y-68599171D01*
X115457766Y-68938014D01*
X115674746Y-69264817D01*
X115926621Y-69576060D01*
X116030406Y-69686941D01*
X116204897Y-69855716D01*
X116411097Y-70038373D01*
X116645789Y-70232091D01*
X116905754Y-70434051D01*
X117288834Y-70723470D01*
X114949498Y-70723470D01*
X114949498Y-68035530D01*
X115007907Y-68035530D01*
X115021427Y-68035882D01*
G37*
G36*
X161860621Y-74818850D02*
G01*
X161048155Y-75631517D01*
X160952704Y-75726919D01*
X160805964Y-75873285D01*
X160669769Y-76008774D01*
X160546818Y-76130723D01*
X160439805Y-76236469D01*
X160351427Y-76323351D01*
X160284382Y-76388705D01*
X160241364Y-76429870D01*
X160225071Y-76444184D01*
X160217139Y-76437592D01*
X160182505Y-76404845D01*
X160122938Y-76347018D01*
X160041118Y-76266755D01*
X159939724Y-76166704D01*
X159821436Y-76049511D01*
X159688933Y-75917820D01*
X159544895Y-75774279D01*
X159392001Y-75621534D01*
X158569549Y-74798884D01*
X158892018Y-74487975D01*
X159214487Y-74177067D01*
X159122314Y-74081991D01*
X159072105Y-74026142D01*
X159051819Y-73991942D01*
X159059803Y-73976236D01*
X159078831Y-73969600D01*
X159142540Y-73948644D01*
X159227530Y-73921740D01*
X159326170Y-73891187D01*
X159430829Y-73859285D01*
X159533875Y-73828333D01*
X159627676Y-73800631D01*
X159704600Y-73778479D01*
X159757018Y-73764177D01*
X159777296Y-73760024D01*
X159777537Y-73762458D01*
X159772676Y-73794224D01*
X159760429Y-73856338D01*
X159742569Y-73940952D01*
X159720867Y-74040218D01*
X159697096Y-74146289D01*
X159673030Y-74251316D01*
X159650441Y-74347450D01*
X159631100Y-74426845D01*
X159616781Y-74481652D01*
X159609257Y-74504022D01*
X159597803Y-74500210D01*
X159562966Y-74475261D01*
X159514588Y-74434080D01*
X159428108Y-74355950D01*
X158974552Y-74808100D01*
X159599811Y-75433358D01*
X160225069Y-76058617D01*
X160844884Y-75438802D01*
X161464700Y-74818987D01*
X160746104Y-74100164D01*
X160027508Y-73381342D01*
X160126410Y-73282441D01*
X160225311Y-73183540D01*
X161860621Y-74818850D01*
G37*
G36*
X160579295Y-74784189D02*
G01*
X160578899Y-74830611D01*
X160576186Y-74909562D01*
X160571465Y-74966884D01*
X160565403Y-74992557D01*
X160556578Y-74995844D01*
X160513147Y-75001290D01*
X160443293Y-75005047D01*
X160357036Y-75006448D01*
X160162560Y-75006448D01*
X160162560Y-74589713D01*
X160579295Y-74589713D01*
X160579295Y-74784189D01*
G37*
G36*
X161121050Y-74784189D02*
G01*
X161120636Y-74830527D01*
X161117787Y-74909664D01*
X161112826Y-74967263D01*
X161106455Y-74993261D01*
X161096345Y-74996746D01*
X161051347Y-75001190D01*
X160980220Y-75003057D01*
X160892878Y-75001943D01*
X160693897Y-74996029D01*
X160681969Y-74589713D01*
X161121050Y-74589713D01*
X161121050Y-74784189D01*
G37*
G36*
X161860621Y-69368850D02*
G01*
X161048155Y-70181517D01*
X160952704Y-70276919D01*
X160805964Y-70423285D01*
X160669769Y-70558774D01*
X160546818Y-70680723D01*
X160439805Y-70786469D01*
X160351427Y-70873351D01*
X160284382Y-70938705D01*
X160241364Y-70979870D01*
X160225071Y-70994184D01*
X160217139Y-70987592D01*
X160182505Y-70954845D01*
X160122938Y-70897018D01*
X160041118Y-70816755D01*
X159939724Y-70716704D01*
X159821436Y-70599511D01*
X159688933Y-70467820D01*
X159544895Y-70324279D01*
X159392001Y-70171534D01*
X158569549Y-69348884D01*
X158892018Y-69037975D01*
X159214487Y-68727067D01*
X159122314Y-68631991D01*
X159072105Y-68576142D01*
X159051819Y-68541942D01*
X159059803Y-68526236D01*
X159078831Y-68519600D01*
X159142540Y-68498644D01*
X159227530Y-68471740D01*
X159326170Y-68441187D01*
X159430829Y-68409285D01*
X159533875Y-68378333D01*
X159627676Y-68350631D01*
X159704600Y-68328479D01*
X159757018Y-68314177D01*
X159777296Y-68310024D01*
X159777537Y-68312458D01*
X159772676Y-68344224D01*
X159760429Y-68406338D01*
X159742569Y-68490952D01*
X159720867Y-68590218D01*
X159697096Y-68696289D01*
X159673030Y-68801316D01*
X159650441Y-68897450D01*
X159631100Y-68976845D01*
X159616781Y-69031652D01*
X159609257Y-69054022D01*
X159597803Y-69050210D01*
X159562966Y-69025261D01*
X159514588Y-68984080D01*
X159428108Y-68905950D01*
X158974552Y-69358100D01*
X159599811Y-69983358D01*
X160225069Y-70608617D01*
X160844884Y-69988802D01*
X161464700Y-69368987D01*
X160746104Y-68650164D01*
X160027508Y-67931342D01*
X160126410Y-67832441D01*
X160225311Y-67733540D01*
X161860621Y-69368850D01*
G37*
G36*
X161121050Y-69334189D02*
G01*
X161120636Y-69380527D01*
X161117787Y-69459664D01*
X161112826Y-69517263D01*
X161106455Y-69543261D01*
X161096345Y-69546746D01*
X161051347Y-69551190D01*
X160980220Y-69553057D01*
X160892878Y-69551943D01*
X160693897Y-69546029D01*
X160681969Y-69139713D01*
X161121050Y-69139713D01*
X161121050Y-69334189D01*
G37*
G36*
X160666554Y-59539840D02*
G01*
X160677521Y-59563013D01*
X160701732Y-59606319D01*
X160717453Y-59623499D01*
X160725478Y-59617576D01*
X160747210Y-59578576D01*
X160776567Y-59507905D01*
X160811712Y-59411158D01*
X160850809Y-59293930D01*
X160892021Y-59161817D01*
X160933513Y-59020413D01*
X160973449Y-58875313D01*
X161009991Y-58732112D01*
X161015222Y-58710860D01*
X161037882Y-58626199D01*
X161056243Y-58574994D01*
X161073069Y-58550971D01*
X161091123Y-58547854D01*
X161126974Y-58556829D01*
X161182404Y-58569703D01*
X161221796Y-58585574D01*
X161239705Y-58608250D01*
X161239068Y-58620442D01*
X161228645Y-58683528D01*
X161207158Y-58776337D01*
X161176834Y-58891556D01*
X161139898Y-59021874D01*
X161098574Y-59159977D01*
X161055088Y-59298552D01*
X161011667Y-59430287D01*
X160970534Y-59547868D01*
X160933915Y-59643982D01*
X160904036Y-59711317D01*
X160891326Y-59736510D01*
X160875742Y-59773149D01*
X160879331Y-59787636D01*
X160901806Y-59790193D01*
X160938817Y-59780877D01*
X160998506Y-59734371D01*
X161063164Y-59651092D01*
X161131500Y-59533593D01*
X161202226Y-59384426D01*
X161274052Y-59206145D01*
X161345689Y-59001303D01*
X161415846Y-58772453D01*
X161417160Y-58767893D01*
X161444883Y-58675465D01*
X161469413Y-58600445D01*
X161488133Y-58550426D01*
X161498424Y-58532998D01*
X161502850Y-58534008D01*
X161538760Y-58540796D01*
X161594231Y-58550457D01*
X161612977Y-58554067D01*
X161658900Y-58567786D01*
X161677277Y-58581591D01*
X161676214Y-58590869D01*
X161665315Y-58638072D01*
X161644647Y-58713367D01*
X161616713Y-58808637D01*
X161584015Y-58915765D01*
X161549055Y-59026636D01*
X161514335Y-59133131D01*
X161482358Y-59227134D01*
X161455627Y-59300529D01*
X161425668Y-59374583D01*
X161374887Y-59489083D01*
X161320221Y-59602256D01*
X161266443Y-59704732D01*
X161218328Y-59787145D01*
X161208255Y-59801309D01*
X161180649Y-59840126D01*
X161088365Y-59925102D01*
X160988436Y-59978863D01*
X160889031Y-59996366D01*
X160795584Y-59975695D01*
X160783829Y-59970804D01*
X160736994Y-59965132D01*
X160681036Y-59986113D01*
X160623881Y-60009894D01*
X160547522Y-60015708D01*
X160465816Y-59986627D01*
X160429802Y-59969830D01*
X160396991Y-59965833D01*
X160367876Y-59983908D01*
X160343531Y-60002442D01*
X160302052Y-60025452D01*
X160236043Y-60035631D01*
X160158938Y-60010388D01*
X160085503Y-59944959D01*
X160016966Y-59840141D01*
X160003207Y-59813385D01*
X159967755Y-59736579D01*
X159933624Y-59649385D01*
X159899813Y-59547961D01*
X159865316Y-59428464D01*
X159829129Y-59287051D01*
X159790250Y-59119880D01*
X159747673Y-58923107D01*
X159728467Y-58829586D01*
X159930535Y-58829586D01*
X159937259Y-58876627D01*
X159953430Y-58959838D01*
X159979212Y-59078280D01*
X160015627Y-59229762D01*
X160058188Y-59387180D01*
X160101352Y-59528909D01*
X160142531Y-59646493D01*
X160179137Y-59731478D01*
X160187833Y-59748035D01*
X160216054Y-59795064D01*
X160236337Y-59819468D01*
X160258459Y-59826124D01*
X160263639Y-59803690D01*
X160252000Y-59763890D01*
X160523270Y-59763890D01*
X160523442Y-59794407D01*
X160530138Y-59801092D01*
X160538969Y-59803690D01*
X160563917Y-59811030D01*
X160570438Y-59810807D01*
X160583447Y-59801309D01*
X160568613Y-59770187D01*
X160547445Y-59745947D01*
X160528138Y-59753565D01*
X160523270Y-59763890D01*
X160252000Y-59763890D01*
X160247407Y-59748186D01*
X160209562Y-59658392D01*
X160179908Y-59590935D01*
X160132686Y-59472157D01*
X160087737Y-59342149D01*
X160041733Y-59191005D01*
X159991345Y-59008815D01*
X159965405Y-58914873D01*
X159944772Y-58847770D01*
X159933094Y-58819654D01*
X159930535Y-58829586D01*
X159728467Y-58829586D01*
X159709179Y-58735661D01*
X159909427Y-58735661D01*
X159914401Y-58763549D01*
X159921514Y-58763226D01*
X159925345Y-58736201D01*
X159922008Y-58715719D01*
X159912756Y-58723612D01*
X159909427Y-58735661D01*
X159709179Y-58735661D01*
X159700396Y-58692890D01*
X159688233Y-58631477D01*
X159888590Y-58631477D01*
X159893564Y-58659365D01*
X159900677Y-58659042D01*
X159904508Y-58632017D01*
X159901172Y-58611535D01*
X159891919Y-58619428D01*
X159888590Y-58631477D01*
X159688233Y-58631477D01*
X159667966Y-58529151D01*
X159868932Y-58529151D01*
X159871425Y-58553879D01*
X159877693Y-58557139D01*
X159885317Y-58539988D01*
X159883813Y-58528957D01*
X159871425Y-58526097D01*
X159868932Y-58529151D01*
X159667966Y-58529151D01*
X159647415Y-58425386D01*
X159639759Y-58387585D01*
X160053315Y-58387585D01*
X160058176Y-58425602D01*
X160072574Y-58496054D01*
X160082715Y-58539988D01*
X160094630Y-58591605D01*
X160104557Y-58632017D01*
X160122466Y-58704922D01*
X160130488Y-58736201D01*
X160154202Y-58828672D01*
X160187958Y-58955522D01*
X160221857Y-59078138D01*
X160254018Y-59189187D01*
X160282562Y-59281335D01*
X160288798Y-59300324D01*
X160321487Y-59394148D01*
X160351088Y-59470328D01*
X160374560Y-59521463D01*
X160388864Y-59540152D01*
X160401007Y-59531381D01*
X160401762Y-59498348D01*
X160387999Y-59437492D01*
X160358917Y-59345392D01*
X160313717Y-59218629D01*
X160303832Y-59191246D01*
X160267527Y-59084413D01*
X160226223Y-58955591D01*
X160184283Y-58818608D01*
X160146070Y-58687292D01*
X160124086Y-58610096D01*
X160096287Y-58515193D01*
X160073987Y-58442320D01*
X160059051Y-58397523D01*
X160053346Y-58386847D01*
X160053315Y-58387585D01*
X159639759Y-58387585D01*
X159626228Y-58320783D01*
X160035626Y-58320783D01*
X160038119Y-58345512D01*
X160044387Y-58348771D01*
X160052011Y-58331620D01*
X160050507Y-58320589D01*
X160038119Y-58317729D01*
X160035626Y-58320783D01*
X159626228Y-58320783D01*
X159609346Y-58237436D01*
X160014789Y-58237436D01*
X160017283Y-58262165D01*
X160023550Y-58265424D01*
X160031174Y-58248273D01*
X160029670Y-58237242D01*
X160017283Y-58234382D01*
X160014789Y-58237436D01*
X159609346Y-58237436D01*
X159598981Y-58186264D01*
X159548198Y-57957038D01*
X159500761Y-57767280D01*
X159456400Y-57615920D01*
X159414845Y-57501888D01*
X159382615Y-57425222D01*
X159331898Y-57508569D01*
X159297877Y-57569556D01*
X159236691Y-57699965D01*
X159171388Y-57862118D01*
X159104221Y-58050273D01*
X159037443Y-58258692D01*
X159018032Y-58322333D01*
X158987099Y-58422702D01*
X158961472Y-58504546D01*
X158943390Y-58560738D01*
X158935093Y-58584155D01*
X158920016Y-58588341D01*
X158877186Y-58586083D01*
X158823004Y-58577701D01*
X158773711Y-58565849D01*
X158745543Y-58553181D01*
X158744322Y-58551607D01*
X158741446Y-58536309D01*
X158743961Y-58505043D01*
X158752709Y-58453745D01*
X158768530Y-58378352D01*
X158792265Y-58274801D01*
X158824753Y-58139031D01*
X158866837Y-57966977D01*
X158894280Y-57858310D01*
X158949399Y-57659095D01*
X159001931Y-57497112D01*
X159052961Y-57369492D01*
X159103575Y-57273368D01*
X159154858Y-57205872D01*
X159180092Y-57180360D01*
X159216119Y-57151049D01*
X159256199Y-57133395D01*
X159312847Y-57122694D01*
X159398581Y-57114239D01*
X159472645Y-57109585D01*
X159572051Y-57113593D01*
X159650901Y-57136110D01*
X159721378Y-57181418D01*
X159795666Y-57253799D01*
X159804815Y-57263951D01*
X159873484Y-57353405D01*
X159940826Y-57465993D01*
X160008083Y-57604730D01*
X160076495Y-57772630D01*
X160147304Y-57972708D01*
X160221750Y-58207979D01*
X160233438Y-58248273D01*
X160257613Y-58331620D01*
X160301074Y-58481457D01*
X160312921Y-58523667D01*
X160351607Y-58660032D01*
X160388384Y-58787587D01*
X160420955Y-58898492D01*
X160447026Y-58984907D01*
X160464301Y-59038992D01*
X160503245Y-59152516D01*
X160547863Y-58934808D01*
X160560806Y-58871140D01*
X160580188Y-58773933D01*
X160596185Y-58691518D01*
X160606248Y-58636899D01*
X160609033Y-58621131D01*
X160620859Y-58578276D01*
X160641556Y-58564307D01*
X160682424Y-58569180D01*
X160733076Y-58577740D01*
X160773483Y-58581661D01*
X160784755Y-58584489D01*
X160796150Y-58601606D01*
X160799796Y-58637377D01*
X160795190Y-58695403D01*
X160781831Y-58779285D01*
X160759217Y-58892625D01*
X160726845Y-59039023D01*
X160684213Y-59222080D01*
X160664677Y-59305441D01*
X160648543Y-59380722D01*
X160641186Y-59432396D01*
X160642084Y-59469869D01*
X160649605Y-59498348D01*
X160650715Y-59502549D01*
X160666554Y-59539840D01*
G37*
G36*
X160681577Y-57062208D02*
G01*
X160741239Y-57093295D01*
X160787531Y-57145425D01*
X160832672Y-57236963D01*
X160848227Y-57335388D01*
X160835716Y-57432243D01*
X160796659Y-57519071D01*
X160732577Y-57587412D01*
X160644990Y-57628808D01*
X160630187Y-57632518D01*
X160588464Y-57639903D01*
X160553502Y-57634869D01*
X160502830Y-57615277D01*
X160423076Y-57564740D01*
X160363297Y-57487072D01*
X160332721Y-57394157D01*
X160332622Y-57294692D01*
X160364274Y-57197374D01*
X160428951Y-57110898D01*
X160474503Y-57073838D01*
X160524184Y-57055363D01*
X160594645Y-57051671D01*
X160681577Y-57062208D01*
G37*
G36*
X161233101Y-57042807D02*
G01*
X161307133Y-57070179D01*
X161378570Y-57117279D01*
X161429618Y-57173513D01*
X161458043Y-57241572D01*
X161467271Y-57337468D01*
X161449636Y-57434360D01*
X161408679Y-57522074D01*
X161347940Y-57590441D01*
X161270961Y-57629288D01*
X161182067Y-57633897D01*
X161099070Y-57604854D01*
X161030170Y-57548255D01*
X160979892Y-57471129D01*
X160952765Y-57380506D01*
X160953313Y-57283414D01*
X160986065Y-57186884D01*
X161006883Y-57155775D01*
X161066843Y-57098395D01*
X161138143Y-57056176D01*
X161204976Y-57039742D01*
X161233101Y-57042807D01*
G37*
G36*
X161326084Y-62566579D02*
G01*
X161347771Y-62579177D01*
X161416171Y-62645085D01*
X161456480Y-62729426D01*
X161469624Y-62823285D01*
X161456529Y-62917748D01*
X161418120Y-63003899D01*
X161355324Y-63072826D01*
X161269065Y-63115613D01*
X161255012Y-63118978D01*
X161164262Y-63118598D01*
X161081020Y-63083857D01*
X161012560Y-63021088D01*
X160966151Y-62936627D01*
X160949066Y-62836810D01*
X160959803Y-62748441D01*
X160999430Y-62656212D01*
X161062234Y-62587350D01*
X161141854Y-62546416D01*
X161231925Y-62537972D01*
X161326084Y-62566579D01*
G37*
G36*
X160997333Y-63291912D02*
G01*
X161071897Y-63339879D01*
X161126789Y-63414208D01*
X161154155Y-63503083D01*
X161154105Y-63597863D01*
X161126747Y-63689906D01*
X161072190Y-63770572D01*
X160990542Y-63831220D01*
X160978856Y-63836785D01*
X160924870Y-63855691D01*
X160886774Y-63858919D01*
X160860672Y-63851683D01*
X160809333Y-63837148D01*
X160803174Y-63835013D01*
X160757427Y-63806415D01*
X160711188Y-63761953D01*
X160699364Y-63747040D01*
X160653483Y-63658443D01*
X160639246Y-63565936D01*
X160652708Y-63476004D01*
X160689921Y-63395131D01*
X160746937Y-63329801D01*
X160819810Y-63286499D01*
X160904591Y-63271708D01*
X160997333Y-63291912D01*
G37*
G36*
X160326758Y-64054276D02*
G01*
X160359942Y-64169662D01*
X160398006Y-64300131D01*
X160431673Y-64413494D01*
X160459214Y-64504000D01*
X160478898Y-64565899D01*
X160488996Y-64593441D01*
X160496267Y-64605139D01*
X160502826Y-64607703D01*
X160509967Y-64595544D01*
X160519188Y-64563428D01*
X160531981Y-64506124D01*
X160549844Y-64418397D01*
X160574271Y-64295017D01*
X160590964Y-64214052D01*
X160609100Y-64134235D01*
X160623899Y-64077798D01*
X160633215Y-64053536D01*
X160639003Y-64051127D01*
X160676569Y-64050829D01*
X160732815Y-64059443D01*
X160818696Y-64077626D01*
X160798932Y-64175903D01*
X160793855Y-64200590D01*
X160778563Y-64272864D01*
X160757479Y-64370966D01*
X160732690Y-64485214D01*
X160706283Y-64605921D01*
X160682716Y-64713836D01*
X160663039Y-64808265D01*
X160651212Y-64875486D01*
X160646583Y-64922757D01*
X160648501Y-64957336D01*
X160656139Y-64985821D01*
X160656316Y-64986480D01*
X160669376Y-65017447D01*
X160678660Y-65037022D01*
X160703308Y-65080064D01*
X160720260Y-65097232D01*
X160722967Y-65096134D01*
X160740622Y-65068635D01*
X160766645Y-65009081D01*
X160798904Y-64924062D01*
X160835270Y-64820168D01*
X160873610Y-64703989D01*
X160911792Y-64582115D01*
X160947686Y-64461136D01*
X160979160Y-64347641D01*
X161004084Y-64248221D01*
X161020324Y-64169465D01*
X161023177Y-64153761D01*
X161036983Y-64095996D01*
X161050790Y-64059374D01*
X161076467Y-64045021D01*
X161124726Y-64042375D01*
X161178699Y-64050915D01*
X161222635Y-64068016D01*
X161240780Y-64091050D01*
X161240406Y-64100020D01*
X161231019Y-64160175D01*
X161210678Y-64250275D01*
X161181625Y-64362704D01*
X161146100Y-64489846D01*
X161106344Y-64624088D01*
X161064599Y-64757813D01*
X161023105Y-64883406D01*
X160984103Y-64993252D01*
X160949835Y-65079736D01*
X160924438Y-65139445D01*
X160899112Y-65203941D01*
X160888847Y-65241726D01*
X160892098Y-65259491D01*
X160907321Y-65263926D01*
X160907738Y-65263924D01*
X160951014Y-65245424D01*
X161005036Y-65195288D01*
X161064482Y-65120224D01*
X161124030Y-65026943D01*
X161178357Y-64922156D01*
X161181226Y-64915884D01*
X161222184Y-64818406D01*
X161270045Y-64693012D01*
X161320863Y-64551025D01*
X161370686Y-64403768D01*
X161415568Y-64262566D01*
X161451558Y-64138742D01*
X161459596Y-64110730D01*
X161477766Y-64056969D01*
X161491684Y-64027832D01*
X161516350Y-64023442D01*
X161563339Y-64028567D01*
X161616619Y-64039928D01*
X161660265Y-64054123D01*
X161678352Y-64067745D01*
X161676184Y-64087348D01*
X161661977Y-64149348D01*
X161636625Y-64238927D01*
X161602604Y-64348770D01*
X161562389Y-64471560D01*
X161518453Y-64599984D01*
X161473271Y-64726726D01*
X161429318Y-64844469D01*
X161389067Y-64945899D01*
X161354994Y-65023701D01*
X161277886Y-65168702D01*
X161203643Y-65275042D01*
X161192837Y-65290520D01*
X161184717Y-65302151D01*
X161088541Y-65397815D01*
X160990623Y-65454734D01*
X160892229Y-65471949D01*
X160794624Y-65448501D01*
X160783546Y-65443756D01*
X160738113Y-65436743D01*
X160690193Y-65458920D01*
X160626096Y-65485767D01*
X160538861Y-65489185D01*
X160459282Y-65459881D01*
X160423332Y-65440066D01*
X160393683Y-65442281D01*
X160353022Y-65470299D01*
X160313017Y-65495979D01*
X160238269Y-65512700D01*
X160164695Y-65488394D01*
X160092697Y-65423482D01*
X160022681Y-65318383D01*
X159955050Y-65173518D01*
X159890210Y-64989307D01*
X159885489Y-64973984D01*
X159859278Y-64883743D01*
X159832797Y-64782827D01*
X159804919Y-64666170D01*
X159774517Y-64528705D01*
X159740462Y-64365365D01*
X159706641Y-64196161D01*
X159912462Y-64196161D01*
X159913212Y-64234717D01*
X159924045Y-64305436D01*
X159943146Y-64401094D01*
X159968701Y-64514468D01*
X159998893Y-64638334D01*
X160031909Y-64765468D01*
X160065933Y-64888649D01*
X160099151Y-65000651D01*
X160129747Y-65094252D01*
X160155907Y-65162229D01*
X160171100Y-65194596D01*
X160208772Y-65258659D01*
X160242024Y-65293346D01*
X160266555Y-65293553D01*
X160267496Y-65290520D01*
X160260386Y-65258876D01*
X160252537Y-65237624D01*
X160524345Y-65237624D01*
X160524517Y-65268141D01*
X160531213Y-65274825D01*
X160564992Y-65284763D01*
X160571513Y-65284540D01*
X160584522Y-65275042D01*
X160569688Y-65243921D01*
X160548520Y-65219681D01*
X160529213Y-65227298D01*
X160524345Y-65237624D01*
X160252537Y-65237624D01*
X160239461Y-65202216D01*
X160208203Y-65130281D01*
X160184778Y-65075338D01*
X160143995Y-64966622D01*
X160099145Y-64835240D01*
X160053588Y-64691880D01*
X160010683Y-64547232D01*
X159973788Y-64411985D01*
X159946264Y-64296828D01*
X159932908Y-64240921D01*
X159920342Y-64201786D01*
X159912841Y-64194833D01*
X159912462Y-64196161D01*
X159706641Y-64196161D01*
X159701628Y-64171083D01*
X159692878Y-64126047D01*
X159889665Y-64126047D01*
X159894639Y-64153935D01*
X159901752Y-64153612D01*
X159905583Y-64126587D01*
X159902247Y-64106105D01*
X159892994Y-64113998D01*
X159889665Y-64126047D01*
X159692878Y-64126047D01*
X159673079Y-64024140D01*
X159865555Y-64024140D01*
X159875973Y-64034558D01*
X159886392Y-64024140D01*
X159875973Y-64013721D01*
X159865555Y-64024140D01*
X159673079Y-64024140D01*
X159656886Y-63940793D01*
X159647035Y-63890567D01*
X160057750Y-63890567D01*
X160065444Y-63940246D01*
X160081945Y-64018673D01*
X160083227Y-64024140D01*
X160105559Y-64119376D01*
X160107356Y-64126587D01*
X160134594Y-64235886D01*
X160167356Y-64361731D01*
X160202151Y-64490440D01*
X160237286Y-64615542D01*
X160271068Y-64730565D01*
X160301804Y-64829039D01*
X160327800Y-64904492D01*
X160346470Y-64949826D01*
X160370728Y-64995996D01*
X160387971Y-65013885D01*
X160394334Y-65013247D01*
X160402839Y-65005842D01*
X160403765Y-64985821D01*
X160395835Y-64947854D01*
X160377769Y-64886613D01*
X160348286Y-64796770D01*
X160306107Y-64672995D01*
X160304101Y-64667144D01*
X160259667Y-64533282D01*
X160213188Y-64386438D01*
X160170058Y-64244007D01*
X160135671Y-64123384D01*
X160131638Y-64108591D01*
X160105436Y-64015505D01*
X160083036Y-63940881D01*
X160066702Y-63891999D01*
X160058702Y-63876139D01*
X160057750Y-63890567D01*
X159647035Y-63890567D01*
X159638184Y-63845436D01*
X159631515Y-63813496D01*
X160035523Y-63813496D01*
X160040497Y-63841384D01*
X160047610Y-63841061D01*
X160051441Y-63814036D01*
X160048104Y-63793554D01*
X160038852Y-63801447D01*
X160035523Y-63813496D01*
X159631515Y-63813496D01*
X159614499Y-63732006D01*
X160015864Y-63732006D01*
X160018358Y-63756735D01*
X160024625Y-63759994D01*
X160032249Y-63742843D01*
X160030745Y-63731812D01*
X160018358Y-63728952D01*
X160015864Y-63732006D01*
X159614499Y-63732006D01*
X159596381Y-63645237D01*
X159554952Y-63463529D01*
X159514834Y-63303541D01*
X159476967Y-63168502D01*
X159442289Y-63061640D01*
X159411736Y-62986184D01*
X159386249Y-62945362D01*
X159366764Y-62942402D01*
X159355579Y-62956165D01*
X159319170Y-63017207D01*
X159274584Y-63109097D01*
X159224397Y-63225218D01*
X159171182Y-63358952D01*
X159117514Y-63503681D01*
X159065968Y-63652787D01*
X159019120Y-63799653D01*
X158979542Y-63937662D01*
X158941427Y-64080389D01*
X158858514Y-64067130D01*
X158822496Y-64060933D01*
X158770561Y-64047335D01*
X158746341Y-64029120D01*
X158740370Y-64000990D01*
X158742806Y-63979012D01*
X158754735Y-63917271D01*
X158774946Y-63827349D01*
X158801588Y-63716390D01*
X158832809Y-63591541D01*
X158866755Y-63459948D01*
X158901576Y-63328756D01*
X158935418Y-63205111D01*
X158966430Y-63096159D01*
X158992759Y-63009045D01*
X159012553Y-62950917D01*
X159015673Y-62942952D01*
X159056239Y-62853459D01*
X159103024Y-62768983D01*
X159146522Y-62706846D01*
X159151936Y-62700527D01*
X159186631Y-62662286D01*
X159217959Y-62638194D01*
X159257152Y-62623918D01*
X159315437Y-62615127D01*
X159404044Y-62607486D01*
X159505214Y-62601931D01*
X159588084Y-62606706D01*
X159653881Y-62626682D01*
X159715097Y-62665821D01*
X159784224Y-62728085D01*
X159807739Y-62753737D01*
X159866833Y-62835945D01*
X159931542Y-62945841D01*
X159997435Y-63074995D01*
X160060080Y-63214979D01*
X160115047Y-63357363D01*
X160128895Y-63398126D01*
X160159154Y-63492364D01*
X160196588Y-63613390D01*
X160235642Y-63742843D01*
X160238680Y-63752912D01*
X160256736Y-63814036D01*
X160282909Y-63902638D01*
X160326758Y-64054276D01*
G37*
G36*
X160669097Y-62547581D02*
G01*
X160748041Y-62594028D01*
X160786949Y-62636112D01*
X160831678Y-62723526D01*
X160847124Y-62819862D01*
X160834985Y-62916110D01*
X160796958Y-63003267D01*
X160734739Y-63072323D01*
X160650025Y-63114274D01*
X160636236Y-63117565D01*
X160541084Y-63118612D01*
X160457134Y-63082057D01*
X160389239Y-63011135D01*
X160342251Y-62909082D01*
X160330314Y-62844031D01*
X160339348Y-62750511D01*
X160375720Y-62668141D01*
X160433156Y-62601791D01*
X160505380Y-62556334D01*
X160586119Y-62536639D01*
X160669097Y-62547581D01*
G37*
G36*
X116124317Y-62373551D02*
G01*
X116153715Y-62410122D01*
X116203712Y-62480714D01*
X116270092Y-62578762D01*
X116348643Y-62697701D01*
X116435151Y-62830965D01*
X116525402Y-62971989D01*
X116615184Y-63114207D01*
X116700281Y-63251054D01*
X116776481Y-63375965D01*
X116839570Y-63482373D01*
X116885334Y-63563715D01*
X116953062Y-63696462D01*
X117031892Y-63868325D01*
X117099463Y-64035077D01*
X117152179Y-64187033D01*
X117186445Y-64314507D01*
X117198666Y-64407812D01*
X117194530Y-64501681D01*
X117151104Y-64722695D01*
X117064116Y-64926934D01*
X116938197Y-65108506D01*
X116777978Y-65261516D01*
X116588090Y-65380070D01*
X116373166Y-65458274D01*
X116369191Y-65459253D01*
X116147255Y-65489085D01*
X115931381Y-65472413D01*
X115726923Y-65413454D01*
X115539233Y-65316424D01*
X115373664Y-65185541D01*
X115235570Y-65025021D01*
X115130303Y-64839082D01*
X115063218Y-64631940D01*
X115039666Y-64407812D01*
X115047341Y-64337430D01*
X115077242Y-64216380D01*
X115126354Y-64068797D01*
X115191081Y-63904368D01*
X115267827Y-63732778D01*
X115352999Y-63563715D01*
X115369580Y-63533490D01*
X115423030Y-63440970D01*
X115492060Y-63326103D01*
X115572456Y-63195452D01*
X115660005Y-63055584D01*
X115750492Y-62913064D01*
X115839704Y-62774458D01*
X115923428Y-62646330D01*
X115997450Y-62535246D01*
X116057556Y-62447772D01*
X116099533Y-62390473D01*
X116119166Y-62369915D01*
X116124317Y-62373551D01*
G37*
G36*
X116911020Y-73809134D02*
G01*
X117348591Y-73809134D01*
X117348591Y-74455073D01*
X116942501Y-74455073D01*
X116239148Y-75158199D01*
X115535794Y-75861324D01*
X115535794Y-76267870D01*
X114889855Y-76267870D01*
X114889855Y-75184359D01*
X115098222Y-75184359D01*
X115098222Y-75621931D01*
X115316778Y-75621931D01*
X116009715Y-74929226D01*
X116702652Y-74236520D01*
X116702652Y-73392399D01*
X116911020Y-73392399D01*
X116911020Y-73809134D01*
=======
X237947200Y-122986800D02*
X237947200Y-121208800D01*
X237185200Y-122986800D02*
X237947200Y-122986800D01*
X239471200Y-121208800D02*
X239471200Y-122986800D01*
X239471200Y-122986800D02*
X240233200Y-122986800D01*
X237947200Y-121208800D02*
X239471200Y-121208800D01*
%TO.C,G\u002A\u002A\u002A*%
G36*
X75103691Y-59826511D02*
G01*
X74853650Y-59826511D01*
X74853650Y-59493123D01*
X75103691Y-59493123D01*
X75103691Y-59826511D01*
G37*
G36*
X75103691Y-57972041D02*
G01*
X74853650Y-57972041D01*
X74853650Y-57638653D01*
X75103691Y-57638653D01*
X75103691Y-57972041D01*
G37*
G36*
X76666448Y-59368103D02*
G01*
X76416407Y-59368103D01*
X76416407Y-59034715D01*
X76666448Y-59034715D01*
X76666448Y-59368103D01*
G37*
G36*
X76656029Y-58565888D02*
G01*
X76668201Y-58888858D01*
X76416407Y-58888858D01*
X76416407Y-58553390D01*
X76656029Y-58565888D01*
G37*
G36*
X74332732Y-60326593D02*
G01*
X74082691Y-60326593D01*
X74082691Y-57555306D01*
X74332732Y-57555306D01*
X74332732Y-60326593D01*
G37*
G36*
X76666448Y-59826511D02*
G01*
X76416407Y-59826511D01*
X76416407Y-59493123D01*
X76666448Y-59493123D01*
X76666448Y-59826511D01*
G37*
G36*
X75103691Y-59368103D02*
G01*
X74853650Y-59368103D01*
X74853650Y-59034715D01*
X75103691Y-59034715D01*
X75103691Y-59368103D01*
G37*
G36*
X76666448Y-58430449D02*
G01*
X76416407Y-58430449D01*
X76416407Y-58097061D01*
X76666448Y-58097061D01*
X76666448Y-58430449D01*
G37*
G36*
X76666448Y-60284920D02*
G01*
X76416407Y-60284920D01*
X76416407Y-59951532D01*
X76666448Y-59951532D01*
X76666448Y-60284920D01*
G37*
G36*
X76666448Y-57972041D02*
G01*
X76416407Y-57972041D01*
X76416407Y-57638653D01*
X76666448Y-57638653D01*
X76666448Y-57972041D01*
G37*
G36*
X75895488Y-60326593D02*
G01*
X75624610Y-60326593D01*
X75624610Y-57555306D01*
X75895488Y-57555306D01*
X75895488Y-60326593D01*
G37*
G36*
X77437407Y-60326593D02*
G01*
X77187366Y-60326593D01*
X77187366Y-57555306D01*
X77437407Y-57555306D01*
X77437407Y-60326593D01*
G37*
G36*
X75103691Y-58888858D02*
G01*
X74851897Y-58888858D01*
X74864069Y-58565888D01*
X75103691Y-58553390D01*
X75103691Y-58888858D01*
G37*
G36*
X75103691Y-58430449D02*
G01*
X74853650Y-58430449D01*
X74853650Y-58097061D01*
X75103691Y-58097061D01*
X75103691Y-58430449D01*
G37*
G36*
X75103691Y-60284920D02*
G01*
X74853650Y-60284920D01*
X74853650Y-59951532D01*
X75103691Y-59951532D01*
X75103691Y-60284920D01*
G37*
G36*
X74660827Y-68496682D02*
G01*
X74687524Y-68503428D01*
X74708069Y-68525220D01*
X74728367Y-68570388D01*
X74754327Y-68647261D01*
X74776116Y-68712610D01*
X74917137Y-69059971D01*
X75097166Y-69398814D01*
X75314146Y-69725617D01*
X75566021Y-70036860D01*
X75669806Y-70147741D01*
X75844297Y-70316516D01*
X76050497Y-70499173D01*
X76285189Y-70692891D01*
X76545154Y-70894851D01*
X76928234Y-71184270D01*
X74588898Y-71184270D01*
X74588898Y-68496330D01*
X74647307Y-68496330D01*
X74660827Y-68496682D01*
G37*
G36*
X121494297Y-75279650D02*
G01*
X120681831Y-76092317D01*
X120586380Y-76187719D01*
X120439640Y-76334085D01*
X120303445Y-76469574D01*
X120180494Y-76591523D01*
X120073481Y-76697269D01*
X119985103Y-76784151D01*
X119918058Y-76849505D01*
X119875040Y-76890670D01*
X119858747Y-76904984D01*
X119850815Y-76898392D01*
X119816181Y-76865645D01*
X119756614Y-76807818D01*
X119674794Y-76727555D01*
X119573400Y-76627504D01*
X119455112Y-76510311D01*
X119322609Y-76378620D01*
X119178571Y-76235079D01*
X119025677Y-76082334D01*
X118203225Y-75259684D01*
X118525694Y-74948775D01*
X118848163Y-74637867D01*
X118755990Y-74542791D01*
X118705781Y-74486942D01*
X118685495Y-74452742D01*
X118693479Y-74437036D01*
X118712507Y-74430400D01*
X118776216Y-74409444D01*
X118861206Y-74382540D01*
X118959846Y-74351987D01*
X119064505Y-74320085D01*
X119167551Y-74289133D01*
X119261352Y-74261431D01*
X119338276Y-74239279D01*
X119390694Y-74224977D01*
X119410972Y-74220824D01*
X119411213Y-74223258D01*
X119406352Y-74255024D01*
X119394105Y-74317138D01*
X119376245Y-74401752D01*
X119354543Y-74501018D01*
X119330772Y-74607089D01*
X119306706Y-74712116D01*
X119284117Y-74808250D01*
X119264776Y-74887645D01*
X119250457Y-74942452D01*
X119242933Y-74964822D01*
X119231479Y-74961010D01*
X119196642Y-74936061D01*
X119148264Y-74894880D01*
X119061784Y-74816750D01*
X118608228Y-75268900D01*
X119233487Y-75894158D01*
X119858745Y-76519417D01*
X120478560Y-75899602D01*
X121098376Y-75279787D01*
X120379780Y-74560964D01*
X119661184Y-73842142D01*
X119760086Y-73743241D01*
X119858987Y-73644340D01*
X121494297Y-75279650D01*
G37*
G36*
X120212971Y-75244989D02*
G01*
X120212575Y-75291411D01*
X120209862Y-75370362D01*
X120205141Y-75427684D01*
X120199079Y-75453357D01*
X120190254Y-75456644D01*
X120146823Y-75462090D01*
X120076969Y-75465847D01*
X119990712Y-75467248D01*
X119796236Y-75467248D01*
X119796236Y-75050513D01*
X120212971Y-75050513D01*
X120212971Y-75244989D01*
G37*
G36*
X120754726Y-75244989D02*
G01*
X120754312Y-75291327D01*
X120751463Y-75370464D01*
X120746502Y-75428063D01*
X120740131Y-75454061D01*
X120730021Y-75457546D01*
X120685023Y-75461990D01*
X120613896Y-75463857D01*
X120526554Y-75462743D01*
X120327573Y-75456829D01*
X120315645Y-75050513D01*
X120754726Y-75050513D01*
X120754726Y-75244989D01*
G37*
G36*
X121494297Y-69829650D02*
G01*
X120681831Y-70642317D01*
X120586380Y-70737719D01*
X120439640Y-70884085D01*
X120303445Y-71019574D01*
X120180494Y-71141523D01*
X120073481Y-71247269D01*
X119985103Y-71334151D01*
X119918058Y-71399505D01*
X119875040Y-71440670D01*
X119858747Y-71454984D01*
X119850815Y-71448392D01*
X119816181Y-71415645D01*
X119756614Y-71357818D01*
X119674794Y-71277555D01*
X119573400Y-71177504D01*
X119455112Y-71060311D01*
X119322609Y-70928620D01*
X119178571Y-70785079D01*
X119025677Y-70632334D01*
X118203225Y-69809684D01*
X118525694Y-69498775D01*
X118848163Y-69187867D01*
X118755990Y-69092791D01*
X118705781Y-69036942D01*
X118685495Y-69002742D01*
X118693479Y-68987036D01*
X118712507Y-68980400D01*
X118776216Y-68959444D01*
X118861206Y-68932540D01*
X118959846Y-68901987D01*
X119064505Y-68870085D01*
X119167551Y-68839133D01*
X119261352Y-68811431D01*
X119338276Y-68789279D01*
X119390694Y-68774977D01*
X119410972Y-68770824D01*
X119411213Y-68773258D01*
X119406352Y-68805024D01*
X119394105Y-68867138D01*
X119376245Y-68951752D01*
X119354543Y-69051018D01*
X119330772Y-69157089D01*
X119306706Y-69262116D01*
X119284117Y-69358250D01*
X119264776Y-69437645D01*
X119250457Y-69492452D01*
X119242933Y-69514822D01*
X119231479Y-69511010D01*
X119196642Y-69486061D01*
X119148264Y-69444880D01*
X119061784Y-69366750D01*
X118608228Y-69818900D01*
X119233487Y-70444158D01*
X119858745Y-71069417D01*
X120478560Y-70449602D01*
X121098376Y-69829787D01*
X120379780Y-69110964D01*
X119661184Y-68392142D01*
X119760086Y-68293241D01*
X119858987Y-68194340D01*
X121494297Y-69829650D01*
G37*
G36*
X120754726Y-69794989D02*
G01*
X120754312Y-69841327D01*
X120751463Y-69920464D01*
X120746502Y-69978063D01*
X120740131Y-70004061D01*
X120730021Y-70007546D01*
X120685023Y-70011990D01*
X120613896Y-70013857D01*
X120526554Y-70012743D01*
X120327573Y-70006829D01*
X120315645Y-69600513D01*
X120754726Y-69600513D01*
X120754726Y-69794989D01*
G37*
G36*
X120311745Y-60000640D02*
G01*
X120322712Y-60023813D01*
X120346923Y-60067119D01*
X120362644Y-60084299D01*
X120370669Y-60078376D01*
X120392401Y-60039376D01*
X120421758Y-59968705D01*
X120456903Y-59871958D01*
X120496000Y-59754730D01*
X120537212Y-59622617D01*
X120578704Y-59481213D01*
X120618640Y-59336113D01*
X120655182Y-59192912D01*
X120660413Y-59171660D01*
X120683073Y-59086999D01*
X120701434Y-59035794D01*
X120718260Y-59011771D01*
X120736314Y-59008654D01*
X120772165Y-59017629D01*
X120827595Y-59030503D01*
X120866987Y-59046374D01*
X120884896Y-59069050D01*
X120884259Y-59081242D01*
X120873836Y-59144328D01*
X120852349Y-59237137D01*
X120822025Y-59352356D01*
X120785089Y-59482674D01*
X120743765Y-59620777D01*
X120700279Y-59759352D01*
X120656858Y-59891087D01*
X120615725Y-60008668D01*
X120579106Y-60104782D01*
X120549227Y-60172117D01*
X120536517Y-60197310D01*
X120520933Y-60233949D01*
X120524522Y-60248436D01*
X120546997Y-60250993D01*
X120584008Y-60241677D01*
X120643697Y-60195171D01*
X120708355Y-60111892D01*
X120776691Y-59994393D01*
X120847417Y-59845226D01*
X120919243Y-59666945D01*
X120990880Y-59462103D01*
X121061037Y-59233253D01*
X121062351Y-59228693D01*
X121090074Y-59136265D01*
X121114604Y-59061245D01*
X121133324Y-59011226D01*
X121143615Y-58993798D01*
X121148041Y-58994808D01*
X121183951Y-59001596D01*
X121239422Y-59011257D01*
X121258168Y-59014867D01*
X121304091Y-59028586D01*
X121322468Y-59042391D01*
X121321405Y-59051669D01*
X121310506Y-59098872D01*
X121289838Y-59174167D01*
X121261904Y-59269437D01*
X121229206Y-59376565D01*
X121194246Y-59487436D01*
X121159526Y-59593931D01*
X121127549Y-59687934D01*
X121100818Y-59761329D01*
X121070859Y-59835383D01*
X121020078Y-59949883D01*
X120965412Y-60063056D01*
X120911634Y-60165532D01*
X120863519Y-60247945D01*
X120853446Y-60262109D01*
X120825840Y-60300926D01*
X120733556Y-60385902D01*
X120633627Y-60439663D01*
X120534222Y-60457166D01*
X120440775Y-60436495D01*
X120429020Y-60431604D01*
X120382185Y-60425932D01*
X120326227Y-60446913D01*
X120269072Y-60470694D01*
X120192713Y-60476508D01*
X120111007Y-60447427D01*
X120074993Y-60430630D01*
X120042182Y-60426633D01*
X120013067Y-60444708D01*
X119988722Y-60463242D01*
X119947243Y-60486252D01*
X119881234Y-60496431D01*
X119804129Y-60471188D01*
X119730694Y-60405759D01*
X119662157Y-60300941D01*
X119648398Y-60274185D01*
X119612946Y-60197379D01*
X119578815Y-60110185D01*
X119545004Y-60008761D01*
X119510507Y-59889264D01*
X119474320Y-59747851D01*
X119435441Y-59580680D01*
X119392864Y-59383907D01*
X119373658Y-59290386D01*
X119575726Y-59290386D01*
X119582450Y-59337427D01*
X119598621Y-59420638D01*
X119624403Y-59539080D01*
X119660818Y-59690562D01*
X119703379Y-59847980D01*
X119746543Y-59989709D01*
X119787722Y-60107293D01*
X119824328Y-60192278D01*
X119833024Y-60208835D01*
X119861245Y-60255864D01*
X119881528Y-60280268D01*
X119903650Y-60286924D01*
X119908830Y-60264490D01*
X119897191Y-60224690D01*
X120168461Y-60224690D01*
X120168633Y-60255207D01*
X120175329Y-60261892D01*
X120184160Y-60264490D01*
X120209108Y-60271830D01*
X120215629Y-60271607D01*
X120228638Y-60262109D01*
X120213804Y-60230987D01*
X120192636Y-60206747D01*
X120173329Y-60214365D01*
X120168461Y-60224690D01*
X119897191Y-60224690D01*
X119892598Y-60208986D01*
X119854753Y-60119192D01*
X119825099Y-60051735D01*
X119777877Y-59932957D01*
X119732928Y-59802949D01*
X119686924Y-59651805D01*
X119636536Y-59469615D01*
X119610596Y-59375673D01*
X119589963Y-59308570D01*
X119578285Y-59280454D01*
X119575726Y-59290386D01*
X119373658Y-59290386D01*
X119354370Y-59196461D01*
X119554618Y-59196461D01*
X119559592Y-59224349D01*
X119566705Y-59224026D01*
X119570536Y-59197001D01*
X119567199Y-59176519D01*
X119557947Y-59184412D01*
X119554618Y-59196461D01*
X119354370Y-59196461D01*
X119345587Y-59153690D01*
X119333424Y-59092277D01*
X119533781Y-59092277D01*
X119538755Y-59120165D01*
X119545868Y-59119842D01*
X119549699Y-59092817D01*
X119546363Y-59072335D01*
X119537110Y-59080228D01*
X119533781Y-59092277D01*
X119333424Y-59092277D01*
X119313157Y-58989951D01*
X119514123Y-58989951D01*
X119516616Y-59014679D01*
X119522884Y-59017939D01*
X119530508Y-59000788D01*
X119529004Y-58989757D01*
X119516616Y-58986897D01*
X119514123Y-58989951D01*
X119313157Y-58989951D01*
X119292606Y-58886186D01*
X119284950Y-58848385D01*
X119698506Y-58848385D01*
X119703367Y-58886402D01*
X119717765Y-58956854D01*
X119727906Y-59000788D01*
X119739821Y-59052405D01*
X119749748Y-59092817D01*
X119767657Y-59165722D01*
X119775679Y-59197001D01*
X119799393Y-59289472D01*
X119833149Y-59416322D01*
X119867048Y-59538938D01*
X119899209Y-59649987D01*
X119927753Y-59742135D01*
X119933989Y-59761124D01*
X119966678Y-59854948D01*
X119996279Y-59931128D01*
X120019751Y-59982263D01*
X120034055Y-60000952D01*
X120046198Y-59992181D01*
X120046953Y-59959148D01*
X120033190Y-59898292D01*
X120004108Y-59806192D01*
X119958908Y-59679429D01*
X119949023Y-59652046D01*
X119912718Y-59545213D01*
X119871414Y-59416391D01*
X119829474Y-59279408D01*
X119791261Y-59148092D01*
X119769277Y-59070896D01*
X119741478Y-58975993D01*
X119719178Y-58903120D01*
X119704242Y-58858323D01*
X119698537Y-58847647D01*
X119698506Y-58848385D01*
X119284950Y-58848385D01*
X119271419Y-58781583D01*
X119680817Y-58781583D01*
X119683310Y-58806312D01*
X119689578Y-58809571D01*
X119697202Y-58792420D01*
X119695698Y-58781389D01*
X119683310Y-58778529D01*
X119680817Y-58781583D01*
X119271419Y-58781583D01*
X119254537Y-58698236D01*
X119659980Y-58698236D01*
X119662474Y-58722965D01*
X119668741Y-58726224D01*
X119676365Y-58709073D01*
X119674861Y-58698042D01*
X119662474Y-58695182D01*
X119659980Y-58698236D01*
X119254537Y-58698236D01*
X119244172Y-58647064D01*
X119193389Y-58417838D01*
X119145952Y-58228080D01*
X119101591Y-58076720D01*
X119060036Y-57962688D01*
X119027806Y-57886022D01*
X118977089Y-57969369D01*
X118943068Y-58030356D01*
X118881882Y-58160765D01*
X118816579Y-58322918D01*
X118749412Y-58511073D01*
X118682634Y-58719492D01*
X118663223Y-58783133D01*
X118632290Y-58883502D01*
X118606663Y-58965346D01*
X118588581Y-59021538D01*
X118580284Y-59044955D01*
X118565207Y-59049141D01*
X118522377Y-59046883D01*
X118468195Y-59038501D01*
X118418902Y-59026649D01*
X118390734Y-59013981D01*
X118389513Y-59012407D01*
X118386637Y-58997109D01*
X118389152Y-58965843D01*
X118397900Y-58914545D01*
X118413721Y-58839152D01*
X118437456Y-58735601D01*
X118469944Y-58599831D01*
X118512028Y-58427777D01*
X118539471Y-58319110D01*
X118594590Y-58119895D01*
X118647122Y-57957912D01*
X118698152Y-57830292D01*
X118748766Y-57734168D01*
X118800049Y-57666672D01*
X118825283Y-57641160D01*
X118861310Y-57611849D01*
X118901390Y-57594195D01*
X118958038Y-57583494D01*
X119043772Y-57575039D01*
X119117836Y-57570385D01*
X119217242Y-57574393D01*
X119296092Y-57596910D01*
X119366569Y-57642218D01*
X119440857Y-57714599D01*
X119450006Y-57724751D01*
X119518675Y-57814205D01*
X119586017Y-57926793D01*
X119653274Y-58065530D01*
X119721686Y-58233430D01*
X119792495Y-58433508D01*
X119866941Y-58668779D01*
X119878629Y-58709073D01*
X119902804Y-58792420D01*
X119946265Y-58942257D01*
X119958112Y-58984467D01*
X119996798Y-59120832D01*
X120033575Y-59248387D01*
X120066146Y-59359292D01*
X120092217Y-59445707D01*
X120109492Y-59499792D01*
X120148436Y-59613316D01*
X120193054Y-59395608D01*
X120205997Y-59331940D01*
X120225379Y-59234733D01*
X120241376Y-59152318D01*
X120251439Y-59097699D01*
X120254224Y-59081931D01*
X120266050Y-59039076D01*
X120286747Y-59025107D01*
X120327615Y-59029980D01*
X120378267Y-59038540D01*
X120418674Y-59042461D01*
X120429946Y-59045289D01*
X120441341Y-59062406D01*
X120444987Y-59098177D01*
X120440381Y-59156203D01*
X120427022Y-59240085D01*
X120404408Y-59353425D01*
X120372036Y-59499823D01*
X120329404Y-59682880D01*
X120309868Y-59766241D01*
X120293734Y-59841522D01*
X120286377Y-59893196D01*
X120287275Y-59930669D01*
X120294796Y-59959148D01*
X120295906Y-59963349D01*
X120311745Y-60000640D01*
G37*
G36*
X120326768Y-57523008D02*
G01*
X120386430Y-57554095D01*
X120432722Y-57606225D01*
X120477863Y-57697763D01*
X120493418Y-57796188D01*
X120480907Y-57893043D01*
X120441850Y-57979871D01*
X120377768Y-58048212D01*
X120290181Y-58089608D01*
X120275378Y-58093318D01*
X120233655Y-58100703D01*
X120198693Y-58095669D01*
X120148021Y-58076077D01*
X120068267Y-58025540D01*
X120008488Y-57947872D01*
X119977912Y-57854957D01*
X119977813Y-57755492D01*
X120009465Y-57658174D01*
X120074142Y-57571698D01*
X120119694Y-57534638D01*
X120169375Y-57516163D01*
X120239836Y-57512471D01*
X120326768Y-57523008D01*
G37*
G36*
X120878292Y-57503607D02*
G01*
X120952324Y-57530979D01*
X121023761Y-57578079D01*
X121074809Y-57634313D01*
X121103234Y-57702372D01*
X121112462Y-57798268D01*
X121094827Y-57895160D01*
X121053870Y-57982874D01*
X120993131Y-58051241D01*
X120916152Y-58090088D01*
X120827258Y-58094697D01*
X120744261Y-58065654D01*
X120675361Y-58009055D01*
X120625083Y-57931929D01*
X120597956Y-57841306D01*
X120598504Y-57744214D01*
X120631256Y-57647684D01*
X120652074Y-57616575D01*
X120712034Y-57559195D01*
X120783334Y-57516976D01*
X120850167Y-57500542D01*
X120878292Y-57503607D01*
G37*
G36*
X120965484Y-63027379D02*
G01*
X120987171Y-63039977D01*
X121055571Y-63105885D01*
X121095880Y-63190226D01*
X121109024Y-63284085D01*
X121095929Y-63378548D01*
X121057520Y-63464699D01*
X120994724Y-63533626D01*
X120908465Y-63576413D01*
X120894412Y-63579778D01*
X120803662Y-63579398D01*
X120720420Y-63544657D01*
X120651960Y-63481888D01*
X120605551Y-63397427D01*
X120588466Y-63297610D01*
X120599203Y-63209241D01*
X120638830Y-63117012D01*
X120701634Y-63048150D01*
X120781254Y-63007216D01*
X120871325Y-62998772D01*
X120965484Y-63027379D01*
G37*
G36*
X120636733Y-63752712D02*
G01*
X120711297Y-63800679D01*
X120766189Y-63875008D01*
X120793555Y-63963883D01*
X120793505Y-64058663D01*
X120766147Y-64150706D01*
X120711590Y-64231372D01*
X120629942Y-64292020D01*
X120618256Y-64297585D01*
X120564270Y-64316491D01*
X120526174Y-64319719D01*
X120500072Y-64312483D01*
X120448733Y-64297948D01*
X120442574Y-64295813D01*
X120396827Y-64267215D01*
X120350588Y-64222753D01*
X120338764Y-64207840D01*
X120292883Y-64119243D01*
X120278646Y-64026736D01*
X120292108Y-63936804D01*
X120329321Y-63855931D01*
X120386337Y-63790601D01*
X120459210Y-63747299D01*
X120543991Y-63732508D01*
X120636733Y-63752712D01*
G37*
G36*
X119966158Y-64515076D02*
G01*
X119999342Y-64630462D01*
X120037406Y-64760931D01*
X120071073Y-64874294D01*
X120098614Y-64964800D01*
X120118298Y-65026699D01*
X120128396Y-65054241D01*
X120135667Y-65065939D01*
X120142226Y-65068503D01*
X120149367Y-65056344D01*
X120158588Y-65024228D01*
X120171381Y-64966924D01*
X120189244Y-64879197D01*
X120213671Y-64755817D01*
X120230364Y-64674852D01*
X120248500Y-64595035D01*
X120263299Y-64538598D01*
X120272615Y-64514336D01*
X120278403Y-64511927D01*
X120315969Y-64511629D01*
X120372215Y-64520243D01*
X120458096Y-64538426D01*
X120438332Y-64636703D01*
X120433255Y-64661390D01*
X120417963Y-64733664D01*
X120396879Y-64831766D01*
X120372090Y-64946014D01*
X120345683Y-65066721D01*
X120322116Y-65174636D01*
X120302439Y-65269065D01*
X120290612Y-65336286D01*
X120285983Y-65383557D01*
X120287901Y-65418136D01*
X120295539Y-65446621D01*
X120295716Y-65447280D01*
X120308776Y-65478247D01*
X120318060Y-65497822D01*
X120342708Y-65540864D01*
X120359660Y-65558032D01*
X120362367Y-65556934D01*
X120380022Y-65529435D01*
X120406045Y-65469881D01*
X120438304Y-65384862D01*
X120474670Y-65280968D01*
X120513010Y-65164789D01*
X120551192Y-65042915D01*
X120587086Y-64921936D01*
X120618560Y-64808441D01*
X120643484Y-64709021D01*
X120659724Y-64630265D01*
X120662577Y-64614561D01*
X120676383Y-64556796D01*
X120690190Y-64520174D01*
X120715867Y-64505821D01*
X120764126Y-64503175D01*
X120818099Y-64511715D01*
X120862035Y-64528816D01*
X120880180Y-64551850D01*
X120879806Y-64560820D01*
X120870419Y-64620975D01*
X120850078Y-64711075D01*
X120821025Y-64823504D01*
X120785500Y-64950646D01*
X120745744Y-65084888D01*
X120703999Y-65218613D01*
X120662505Y-65344206D01*
X120623503Y-65454052D01*
X120589235Y-65540536D01*
X120563838Y-65600245D01*
X120538512Y-65664741D01*
X120528247Y-65702526D01*
X120531498Y-65720291D01*
X120546721Y-65724726D01*
X120547138Y-65724724D01*
X120590414Y-65706224D01*
X120644436Y-65656088D01*
X120703882Y-65581024D01*
X120763430Y-65487743D01*
X120817757Y-65382956D01*
X120820626Y-65376684D01*
X120861584Y-65279206D01*
X120909445Y-65153812D01*
X120960263Y-65011825D01*
X121010086Y-64864568D01*
X121054968Y-64723366D01*
X121090958Y-64599542D01*
X121098996Y-64571530D01*
X121117166Y-64517769D01*
X121131084Y-64488632D01*
X121155750Y-64484242D01*
X121202739Y-64489367D01*
X121256019Y-64500728D01*
X121299665Y-64514923D01*
X121317752Y-64528545D01*
X121315584Y-64548148D01*
X121301377Y-64610148D01*
X121276025Y-64699727D01*
X121242004Y-64809570D01*
X121201789Y-64932360D01*
X121157853Y-65060784D01*
X121112671Y-65187526D01*
X121068718Y-65305269D01*
X121028467Y-65406699D01*
X120994394Y-65484501D01*
X120917286Y-65629502D01*
X120843043Y-65735842D01*
X120832237Y-65751320D01*
X120824117Y-65762951D01*
X120727941Y-65858615D01*
X120630023Y-65915534D01*
X120531629Y-65932749D01*
X120434024Y-65909301D01*
X120422946Y-65904556D01*
X120377513Y-65897543D01*
X120329593Y-65919720D01*
X120265496Y-65946567D01*
X120178261Y-65949985D01*
X120098682Y-65920681D01*
X120062732Y-65900866D01*
X120033083Y-65903081D01*
X119992422Y-65931099D01*
X119952417Y-65956779D01*
X119877669Y-65973500D01*
X119804095Y-65949194D01*
X119732097Y-65884282D01*
X119662081Y-65779183D01*
X119594450Y-65634318D01*
X119529610Y-65450107D01*
X119524889Y-65434784D01*
X119498678Y-65344543D01*
X119472197Y-65243627D01*
X119444319Y-65126970D01*
X119413917Y-64989505D01*
X119379862Y-64826165D01*
X119346041Y-64656961D01*
X119551862Y-64656961D01*
X119552612Y-64695517D01*
X119563445Y-64766236D01*
X119582546Y-64861894D01*
X119608101Y-64975268D01*
X119638293Y-65099134D01*
X119671309Y-65226268D01*
X119705333Y-65349449D01*
X119738551Y-65461451D01*
X119769147Y-65555052D01*
X119795307Y-65623029D01*
X119810500Y-65655396D01*
X119848172Y-65719459D01*
X119881424Y-65754146D01*
X119905955Y-65754353D01*
X119906896Y-65751320D01*
X119899786Y-65719676D01*
X119891937Y-65698424D01*
X120163745Y-65698424D01*
X120163917Y-65728941D01*
X120170613Y-65735625D01*
X120204392Y-65745563D01*
X120210913Y-65745340D01*
X120223922Y-65735842D01*
X120209088Y-65704721D01*
X120187920Y-65680481D01*
X120168613Y-65688098D01*
X120163745Y-65698424D01*
X119891937Y-65698424D01*
X119878861Y-65663016D01*
X119847603Y-65591081D01*
X119824178Y-65536138D01*
X119783395Y-65427422D01*
X119738545Y-65296040D01*
X119692988Y-65152680D01*
X119650083Y-65008032D01*
X119613188Y-64872785D01*
X119585664Y-64757628D01*
X119572308Y-64701721D01*
X119559742Y-64662586D01*
X119552241Y-64655633D01*
X119551862Y-64656961D01*
X119346041Y-64656961D01*
X119341028Y-64631883D01*
X119332278Y-64586847D01*
X119529065Y-64586847D01*
X119534039Y-64614735D01*
X119541152Y-64614412D01*
X119544983Y-64587387D01*
X119541647Y-64566905D01*
X119532394Y-64574798D01*
X119529065Y-64586847D01*
X119332278Y-64586847D01*
X119312479Y-64484940D01*
X119504955Y-64484940D01*
X119515373Y-64495358D01*
X119525792Y-64484940D01*
X119515373Y-64474521D01*
X119504955Y-64484940D01*
X119312479Y-64484940D01*
X119296286Y-64401593D01*
X119286435Y-64351367D01*
X119697150Y-64351367D01*
X119704844Y-64401046D01*
X119721345Y-64479473D01*
X119722627Y-64484940D01*
X119744959Y-64580176D01*
X119746756Y-64587387D01*
X119773994Y-64696686D01*
X119806756Y-64822531D01*
X119841551Y-64951240D01*
X119876686Y-65076342D01*
X119910468Y-65191365D01*
X119941204Y-65289839D01*
X119967200Y-65365292D01*
X119985870Y-65410626D01*
X120010128Y-65456796D01*
X120027371Y-65474685D01*
X120033734Y-65474047D01*
X120042239Y-65466642D01*
X120043165Y-65446621D01*
X120035235Y-65408654D01*
X120017169Y-65347413D01*
X119987686Y-65257570D01*
X119945507Y-65133795D01*
X119943501Y-65127944D01*
X119899067Y-64994082D01*
X119852588Y-64847238D01*
X119809458Y-64704807D01*
X119775071Y-64584184D01*
X119771038Y-64569391D01*
X119744836Y-64476305D01*
X119722436Y-64401681D01*
X119706102Y-64352799D01*
X119698102Y-64336939D01*
X119697150Y-64351367D01*
X119286435Y-64351367D01*
X119277584Y-64306236D01*
X119270915Y-64274296D01*
X119674923Y-64274296D01*
X119679897Y-64302184D01*
X119687010Y-64301861D01*
X119690841Y-64274836D01*
X119687504Y-64254354D01*
X119678252Y-64262247D01*
X119674923Y-64274296D01*
X119270915Y-64274296D01*
X119253899Y-64192806D01*
X119655264Y-64192806D01*
X119657758Y-64217535D01*
X119664025Y-64220794D01*
X119671649Y-64203643D01*
X119670145Y-64192612D01*
X119657758Y-64189752D01*
X119655264Y-64192806D01*
X119253899Y-64192806D01*
X119235781Y-64106037D01*
X119194352Y-63924329D01*
X119154234Y-63764341D01*
X119116367Y-63629302D01*
X119081689Y-63522440D01*
X119051136Y-63446984D01*
X119025649Y-63406162D01*
X119006164Y-63403202D01*
X118994979Y-63416965D01*
X118958570Y-63478007D01*
X118913984Y-63569897D01*
X118863797Y-63686018D01*
X118810582Y-63819752D01*
X118756914Y-63964481D01*
X118705368Y-64113587D01*
X118658520Y-64260453D01*
X118618942Y-64398462D01*
X118580827Y-64541189D01*
X118497914Y-64527930D01*
X118461896Y-64521733D01*
X118409961Y-64508135D01*
X118385741Y-64489920D01*
X118379770Y-64461790D01*
X118382206Y-64439812D01*
X118394135Y-64378071D01*
X118414346Y-64288149D01*
X118440988Y-64177190D01*
X118472209Y-64052341D01*
X118506155Y-63920748D01*
X118540976Y-63789556D01*
X118574818Y-63665911D01*
X118605830Y-63556959D01*
X118632159Y-63469845D01*
X118651953Y-63411717D01*
X118655073Y-63403752D01*
X118695639Y-63314259D01*
X118742424Y-63229783D01*
X118785922Y-63167646D01*
X118791336Y-63161327D01*
X118826031Y-63123086D01*
X118857359Y-63098994D01*
X118896552Y-63084718D01*
X118954837Y-63075927D01*
X119043444Y-63068286D01*
X119144614Y-63062731D01*
X119227484Y-63067506D01*
X119293281Y-63087482D01*
X119354497Y-63126621D01*
X119423624Y-63188885D01*
X119447139Y-63214537D01*
X119506233Y-63296745D01*
X119570942Y-63406641D01*
X119636835Y-63535795D01*
X119699480Y-63675779D01*
X119754447Y-63818163D01*
X119768295Y-63858926D01*
X119798554Y-63953164D01*
X119835988Y-64074190D01*
X119875042Y-64203643D01*
X119878080Y-64213712D01*
X119896136Y-64274836D01*
X119922309Y-64363438D01*
X119966158Y-64515076D01*
G37*
G36*
X120308497Y-63008381D02*
G01*
X120387441Y-63054828D01*
X120426349Y-63096912D01*
X120471078Y-63184326D01*
X120486524Y-63280662D01*
X120474385Y-63376910D01*
X120436358Y-63464067D01*
X120374139Y-63533123D01*
X120289425Y-63575074D01*
X120275636Y-63578365D01*
X120180484Y-63579412D01*
X120096534Y-63542857D01*
X120028639Y-63471935D01*
X119981651Y-63369882D01*
X119969714Y-63304831D01*
X119978748Y-63211311D01*
X120015120Y-63128941D01*
X120072556Y-63062591D01*
X120144780Y-63017134D01*
X120225519Y-62997439D01*
X120308497Y-63008381D01*
G37*
G36*
X75763717Y-62834351D02*
G01*
X75793115Y-62870922D01*
X75843112Y-62941514D01*
X75909492Y-63039562D01*
X75988043Y-63158501D01*
X76074551Y-63291765D01*
X76164802Y-63432789D01*
X76254584Y-63575007D01*
X76339681Y-63711854D01*
X76415881Y-63836765D01*
X76478970Y-63943173D01*
X76524734Y-64024515D01*
X76592462Y-64157262D01*
X76671292Y-64329125D01*
X76738863Y-64495877D01*
X76791579Y-64647833D01*
X76825845Y-64775307D01*
X76838066Y-64868612D01*
X76833930Y-64962481D01*
X76790504Y-65183495D01*
X76703516Y-65387734D01*
X76577597Y-65569306D01*
X76417378Y-65722316D01*
X76227490Y-65840870D01*
X76012566Y-65919074D01*
X76008591Y-65920053D01*
X75786655Y-65949885D01*
X75570781Y-65933213D01*
X75366323Y-65874254D01*
X75178633Y-65777224D01*
X75013064Y-65646341D01*
X74874970Y-65485821D01*
X74769703Y-65299882D01*
X74702618Y-65092740D01*
X74679066Y-64868612D01*
X74686741Y-64798230D01*
X74716642Y-64677180D01*
X74765754Y-64529597D01*
X74830481Y-64365168D01*
X74907227Y-64193578D01*
X74992399Y-64024515D01*
X75008980Y-63994290D01*
X75062430Y-63901770D01*
X75131460Y-63786903D01*
X75211856Y-63656252D01*
X75299405Y-63516384D01*
X75389892Y-63373864D01*
X75479104Y-63235258D01*
X75562828Y-63107130D01*
X75636850Y-62996046D01*
X75696956Y-62908572D01*
X75738933Y-62851273D01*
X75758566Y-62830715D01*
X75763717Y-62834351D01*
G37*
G36*
X76550420Y-74269934D02*
G01*
X76987991Y-74269934D01*
X76987991Y-74915873D01*
X76581901Y-74915873D01*
X75878548Y-75618999D01*
X75175194Y-76322124D01*
X75175194Y-76728670D01*
X74529255Y-76728670D01*
X74529255Y-75645159D01*
X74737622Y-75645159D01*
X74737622Y-76082731D01*
X74956178Y-76082731D01*
X75649115Y-75390026D01*
X76342052Y-74697320D01*
X76342052Y-73853199D01*
X76550420Y-73853199D01*
X76550420Y-74269934D01*
>>>>>>> b10c0fa601ba5ec4f87fb5594a798798840687e0
G37*
%TD*%
M02*
