%TF.GenerationSoftware,KiCad,Pcbnew,(6.0.10)*%
<<<<<<< HEAD
%TF.CreationDate,2023-02-08T13:31:10+00:00*%
=======
%TF.CreationDate,2023-02-08T13:12:10+00:00*%
>>>>>>> b10c0fa601ba5ec4f87fb5594a798798840687e0
%TF.ProjectId,frontpanel(1),66726f6e-7470-4616-9e65-6c2831292e6b,rev?*%
%TF.SameCoordinates,Original*%
%TF.FileFunction,Profile,NP*%
%FSLAX46Y46*%
G04 Gerber Fmt 4.6, Leading zero omitted, Abs format (unit mm)*
<<<<<<< HEAD
G04 Created by KiCad (PCBNEW (6.0.10)) date 2023-02-08 13:31:10*
=======
G04 Created by KiCad (PCBNEW (6.0.10)) date 2023-02-08 13:12:10*
>>>>>>> b10c0fa601ba5ec4f87fb5594a798798840687e0
%MOMM*%
%LPD*%
G01*
G04 APERTURE LIST*
%TA.AperFunction,Profile*%
%ADD10C,0.050000*%
%TD*%
<<<<<<< HEAD
%TA.AperFunction,Profile*%
%ADD11C,0.152400*%
%TD*%
%TA.AperFunction,Profile*%
%ADD12C,0.200000*%
%TD*%
G04 APERTURE END LIST*
D10*
X169435736Y-129295949D02*
G75*
G03*
X169435736Y-129295949I-3000000J0D01*
G01*
X152682965Y-86791800D02*
G75*
G03*
X152682965Y-86791800I-3500000J0D01*
G01*
X130640433Y-86791800D02*
G75*
G03*
X130640433Y-86791800I-3500000J0D01*
G01*
X125687096Y-144027949D02*
G75*
G03*
X125687096Y-144027949I-3000000J0D01*
G01*
X158498576Y-144027949D02*
G75*
G03*
X158498576Y-144027949I-3000000J0D01*
G01*
X174746800Y-86791800D02*
G75*
G03*
X174746800Y-86791800I-3500000J0D01*
G01*
X180372900Y-144027949D02*
G75*
G03*
X180372900Y-144027949I-3000000J0D01*
G01*
X169435736Y-144027949D02*
G75*
G03*
X169435736Y-144027949I-3000000J0D01*
G01*
X180372900Y-129295949D02*
G75*
G03*
X180372900Y-129295949I-3000000J0D01*
G01*
X108597900Y-86791800D02*
G75*
G03*
X108597900Y-86791800I-3500000J0D01*
G01*
X151682966Y-49504500D02*
G75*
G03*
X151682966Y-49504500I-2500000J0D01*
G01*
X102312776Y-144027949D02*
G75*
G03*
X102312776Y-144027949I-3000000J0D01*
G01*
X114249936Y-129295949D02*
G75*
G03*
X114249936Y-129295949I-3000000J0D01*
G01*
X147561416Y-144027949D02*
G75*
G03*
X147561416Y-144027949I-3000000J0D01*
G01*
X152768000Y-108464800D02*
G75*
G03*
X152768000Y-108464800I-3500000J0D01*
G01*
X130802000Y-108464800D02*
G75*
G03*
X130802000Y-108464800I-3500000J0D01*
G01*
X174734000Y-108416300D02*
G75*
G03*
X174734000Y-108416300I-3500000J0D01*
G01*
X108836000Y-108401300D02*
G75*
G03*
X108836000Y-108401300I-3500000J0D01*
G01*
D11*
X183972200Y-34311800D02*
X183972200Y-162811800D01*
X92659200Y-34311800D02*
X183972200Y-34311800D01*
X92659200Y-162811800D02*
X92659200Y-34311800D01*
X183972200Y-162811800D02*
X92659200Y-162811800D01*
D10*
X136624256Y-144027949D02*
G75*
G03*
X136624256Y-144027949I-3000000J0D01*
G01*
X114249936Y-144027949D02*
G75*
G03*
X114249936Y-144027949I-3000000J0D01*
G01*
X158498576Y-129295949D02*
G75*
G03*
X158498576Y-129295949I-3000000J0D01*
G01*
X101812776Y-129654500D02*
G75*
G03*
X101812776Y-129654500I-2500000J0D01*
G01*
X147561416Y-129285249D02*
G75*
G03*
X147561416Y-129285249I-3000000J0D01*
G01*
X152686900Y-66404700D02*
G75*
G03*
X152686900Y-66404700I-3500000J0D01*
G01*
X129640433Y-49504500D02*
G75*
G03*
X129640433Y-49504500I-2500000J0D01*
G01*
D12*
X101759200Y-159811800D02*
G75*
G03*
X101759200Y-159811800I-1600000J0D01*
G01*
X101840971Y-37311800D02*
G75*
G03*
X101840971Y-37311800I-1600000J0D01*
G01*
X178072200Y-159811800D02*
G75*
G03*
X178072200Y-159811800I-1600000J0D01*
G01*
D10*
X136624256Y-129285249D02*
G75*
G03*
X136624256Y-129285249I-3000000J0D01*
G01*
D12*
X178040971Y-37311800D02*
G75*
G03*
X178040971Y-37311800I-1600000J0D01*
G01*
D10*
X130639700Y-66404700D02*
G75*
G03*
X130639700Y-66404700I-3500000J0D01*
=======
G04 APERTURE END LIST*
D10*
X125195460Y-99246055D02*
G75*
G03*
X125195460Y-99246055I-3500000J0D01*
G01*
X100498085Y-99245900D02*
G75*
G03*
X100498085Y-99245900I-3500000J0D01*
G01*
X149892425Y-99245725D02*
G75*
G03*
X149892425Y-99245725I-3500000J0D01*
G01*
X75800915Y-99245742D02*
G75*
G03*
X75800915Y-99245742I-3500000J0D01*
G01*
X111322366Y-49965300D02*
G75*
G03*
X111322366Y-49965300I-2500000J0D01*
G01*
X125356107Y-135120844D02*
G75*
G03*
X125356107Y-135120844I-3500000J0D01*
G01*
X100658937Y-135120844D02*
G75*
G03*
X100658937Y-135120844I-3500000J0D01*
G01*
X150053277Y-135120844D02*
G75*
G03*
X150053277Y-135120844I-3500000J0D01*
G01*
X75961871Y-135120844D02*
G75*
G03*
X75961871Y-135120844I-3500000J0D01*
G01*
X226379767Y-133345440D02*
G75*
G03*
X226379767Y-133345440I-2500000J0D01*
G01*
X226379767Y-89796458D02*
G75*
G03*
X226379767Y-89796458I-2500000J0D01*
G01*
X112326300Y-66865500D02*
G75*
G03*
X112326300Y-66865500I-3500000J0D01*
G01*
X89279833Y-49965300D02*
G75*
G03*
X89279833Y-49965300I-2500000J0D01*
G01*
X241096800Y-89996120D02*
G75*
G03*
X241096800Y-89996120I-2500000J0D01*
G01*
X226379767Y-100533956D02*
G75*
G03*
X226379767Y-100533956I-2500000J0D01*
G01*
X226379767Y-68121800D02*
G75*
G03*
X226379767Y-68121800I-2500000J0D01*
G01*
X62234353Y-39789800D02*
X62234353Y-150457600D01*
X247061767Y-150457600D02*
X247061767Y-39789800D01*
X226379767Y-57184640D02*
G75*
G03*
X226379767Y-57184640I-2500000J0D01*
G01*
X247061767Y-39789800D02*
X62234353Y-39789800D01*
X241096800Y-79058960D02*
G75*
G03*
X241096800Y-79058960I-2500000J0D01*
G01*
X226379767Y-144282600D02*
G75*
G03*
X226379767Y-144282600I-2500000J0D01*
G01*
X226375600Y-46247476D02*
G75*
G03*
X226375600Y-46247476I-2500000J0D01*
G01*
X199286767Y-99246055D02*
G75*
G03*
X199286767Y-99246055I-3500000J0D01*
G01*
X241096800Y-100533956D02*
G75*
G03*
X241096800Y-100533956I-2500000J0D01*
G01*
X174750447Y-135120844D02*
G75*
G03*
X174750447Y-135120844I-3500000J0D01*
G01*
X174589595Y-66618618D02*
G75*
G03*
X174589595Y-66618618I-3500000J0D01*
G01*
X241096800Y-144282600D02*
G75*
G03*
X241096800Y-144282600I-2500000J0D01*
G01*
X241096800Y-57184640D02*
G75*
G03*
X241096800Y-57184640I-2500000J0D01*
G01*
X241096800Y-133345440D02*
G75*
G03*
X241096800Y-133345440I-2500000J0D01*
G01*
X199286767Y-66618618D02*
G75*
G03*
X199286767Y-66618618I-3500000J0D01*
G01*
X241096800Y-68121800D02*
G75*
G03*
X241096800Y-68121800I-2500000J0D01*
G01*
X226379767Y-111471120D02*
G75*
G03*
X226379767Y-111471120I-2500000J0D01*
G01*
X174589595Y-99246055D02*
G75*
G03*
X174589595Y-99246055I-3500000J0D01*
G01*
X199447619Y-135120844D02*
G75*
G03*
X199447619Y-135120844I-3500000J0D01*
G01*
X226379767Y-79058960D02*
G75*
G03*
X226379767Y-79058960I-2500000J0D01*
G01*
X90279100Y-66865500D02*
G75*
G03*
X90279100Y-66865500I-3500000J0D01*
G01*
X149805881Y-66618618D02*
G75*
G03*
X149805881Y-66618618I-3500000J0D01*
G01*
X62234353Y-150457600D02*
X247061767Y-150457600D01*
X241096800Y-46247476D02*
G75*
G03*
X241096800Y-46247476I-2500000J0D01*
G01*
X241096800Y-111471120D02*
G75*
G03*
X241096800Y-111471120I-2500000J0D01*
>>>>>>> b10c0fa601ba5ec4f87fb5594a798798840687e0
G01*
M02*
