%TF.GenerationSoftware,KiCad,Pcbnew,(6.0.10)*%
%TF.CreationDate,2023-02-08T13:31:10+00:00*%
%TF.ProjectId,frontpanel(1),66726f6e-7470-4616-9e65-6c2831292e6b,rev?*%
%TF.SameCoordinates,Original*%
%TF.FileFunction,Profile,NP*%
%FSLAX46Y46*%
G04 Gerber Fmt 4.6, Leading zero omitted, Abs format (unit mm)*
G04 Created by KiCad (PCBNEW (6.0.10)) date 2023-02-08 13:31:10*
%MOMM*%
%LPD*%
G01*
G04 APERTURE LIST*
%TA.AperFunction,Profile*%
%ADD10C,0.050000*%
%TD*%
%TA.AperFunction,Profile*%
%ADD11C,0.152400*%
%TD*%
%TA.AperFunction,Profile*%
%ADD12C,0.200000*%
%TD*%
G04 APERTURE END LIST*
D10*
X169435736Y-129295949D02*
G75*
G03*
X169435736Y-129295949I-3000000J0D01*
G01*
X152682965Y-86791800D02*
G75*
G03*
X152682965Y-86791800I-3500000J0D01*
G01*
X130640433Y-86791800D02*
G75*
G03*
X130640433Y-86791800I-3500000J0D01*
G01*
X125687096Y-144027949D02*
G75*
G03*
X125687096Y-144027949I-3000000J0D01*
G01*
X158498576Y-144027949D02*
G75*
G03*
X158498576Y-144027949I-3000000J0D01*
G01*
X174746800Y-86791800D02*
G75*
G03*
X174746800Y-86791800I-3500000J0D01*
G01*
X180372900Y-144027949D02*
G75*
G03*
X180372900Y-144027949I-3000000J0D01*
G01*
X169435736Y-144027949D02*
G75*
G03*
X169435736Y-144027949I-3000000J0D01*
G01*
X180372900Y-129295949D02*
G75*
G03*
X180372900Y-129295949I-3000000J0D01*
G01*
X108597900Y-86791800D02*
G75*
G03*
X108597900Y-86791800I-3500000J0D01*
G01*
X151682966Y-49504500D02*
G75*
G03*
X151682966Y-49504500I-2500000J0D01*
G01*
X102312776Y-144027949D02*
G75*
G03*
X102312776Y-144027949I-3000000J0D01*
G01*
X114249936Y-129295949D02*
G75*
G03*
X114249936Y-129295949I-3000000J0D01*
G01*
X147561416Y-144027949D02*
G75*
G03*
X147561416Y-144027949I-3000000J0D01*
G01*
X152768000Y-108464800D02*
G75*
G03*
X152768000Y-108464800I-3500000J0D01*
G01*
X130802000Y-108464800D02*
G75*
G03*
X130802000Y-108464800I-3500000J0D01*
G01*
X174734000Y-108416300D02*
G75*
G03*
X174734000Y-108416300I-3500000J0D01*
G01*
X108836000Y-108401300D02*
G75*
G03*
X108836000Y-108401300I-3500000J0D01*
G01*
D11*
X183972200Y-34311800D02*
X183972200Y-162811800D01*
X92659200Y-34311800D02*
X183972200Y-34311800D01*
X92659200Y-162811800D02*
X92659200Y-34311800D01*
X183972200Y-162811800D02*
X92659200Y-162811800D01*
D10*
X136624256Y-144027949D02*
G75*
G03*
X136624256Y-144027949I-3000000J0D01*
G01*
X114249936Y-144027949D02*
G75*
G03*
X114249936Y-144027949I-3000000J0D01*
G01*
X158498576Y-129295949D02*
G75*
G03*
X158498576Y-129295949I-3000000J0D01*
G01*
X101812776Y-129654500D02*
G75*
G03*
X101812776Y-129654500I-2500000J0D01*
G01*
X147561416Y-129285249D02*
G75*
G03*
X147561416Y-129285249I-3000000J0D01*
G01*
X152686900Y-66404700D02*
G75*
G03*
X152686900Y-66404700I-3500000J0D01*
G01*
X129640433Y-49504500D02*
G75*
G03*
X129640433Y-49504500I-2500000J0D01*
G01*
D12*
X101759200Y-159811800D02*
G75*
G03*
X101759200Y-159811800I-1600000J0D01*
G01*
X101840971Y-37311800D02*
G75*
G03*
X101840971Y-37311800I-1600000J0D01*
G01*
X178072200Y-159811800D02*
G75*
G03*
X178072200Y-159811800I-1600000J0D01*
G01*
D10*
X136624256Y-129285249D02*
G75*
G03*
X136624256Y-129285249I-3000000J0D01*
G01*
D12*
X178040971Y-37311800D02*
G75*
G03*
X178040971Y-37311800I-1600000J0D01*
G01*
D10*
X130639700Y-66404700D02*
G75*
G03*
X130639700Y-66404700I-3500000J0D01*
G01*
M02*
