%TF.GenerationSoftware,KiCad,Pcbnew,(6.0.10)*%
%TF.CreationDate,2023-02-08T13:31:10+00:00*%
%TF.ProjectId,frontpanel(1),66726f6e-7470-4616-9e65-6c2831292e6b,rev?*%
%TF.SameCoordinates,Original*%
%TF.FileFunction,Soldermask,Top*%
%TF.FilePolarity,Negative*%
%FSLAX46Y46*%
G04 Gerber Fmt 4.6, Leading zero omitted, Abs format (unit mm)*
G04 Created by KiCad (PCBNEW (6.0.10)) date 2023-02-08 13:31:10*
%MOMM*%
%LPD*%
G01*
G04 APERTURE LIST*
%ADD10C,0.300000*%
G04 APERTURE END LIST*
D10*
X121158000Y-129942800D02*
X121920000Y-129942800D01*
X121920000Y-129942800D02*
X121920000Y-128164800D01*
X123444000Y-129942800D02*
X124206000Y-129942800D01*
X123444000Y-128164800D02*
X123444000Y-129942800D01*
X121920000Y-128164800D02*
X123444000Y-128164800D01*
%TO.C,G\u002A\u002A\u002A*%
G36*
X114693332Y-59865793D02*
G01*
X114443291Y-59865793D01*
X114443291Y-57094506D01*
X114693332Y-57094506D01*
X114693332Y-59865793D01*
G37*
G36*
X117798007Y-59865793D02*
G01*
X117547966Y-59865793D01*
X117547966Y-57094506D01*
X117798007Y-57094506D01*
X117798007Y-59865793D01*
G37*
G36*
X117027048Y-58907303D02*
G01*
X116777007Y-58907303D01*
X116777007Y-58573915D01*
X117027048Y-58573915D01*
X117027048Y-58907303D01*
G37*
G36*
X115464291Y-59824120D02*
G01*
X115214250Y-59824120D01*
X115214250Y-59490732D01*
X115464291Y-59490732D01*
X115464291Y-59824120D01*
G37*
G36*
X115464291Y-58907303D02*
G01*
X115214250Y-58907303D01*
X115214250Y-58573915D01*
X115464291Y-58573915D01*
X115464291Y-58907303D01*
G37*
G36*
X115464291Y-59365711D02*
G01*
X115214250Y-59365711D01*
X115214250Y-59032323D01*
X115464291Y-59032323D01*
X115464291Y-59365711D01*
G37*
G36*
X117027048Y-59824120D02*
G01*
X116777007Y-59824120D01*
X116777007Y-59490732D01*
X117027048Y-59490732D01*
X117027048Y-59824120D01*
G37*
G36*
X117027048Y-57511241D02*
G01*
X116777007Y-57511241D01*
X116777007Y-57177853D01*
X117027048Y-57177853D01*
X117027048Y-57511241D01*
G37*
G36*
X115464291Y-57969649D02*
G01*
X115214250Y-57969649D01*
X115214250Y-57636261D01*
X115464291Y-57636261D01*
X115464291Y-57969649D01*
G37*
G36*
X116256088Y-59865793D02*
G01*
X115985210Y-59865793D01*
X115985210Y-57094506D01*
X116256088Y-57094506D01*
X116256088Y-59865793D01*
G37*
G36*
X115464291Y-58428058D02*
G01*
X115212497Y-58428058D01*
X115224669Y-58105088D01*
X115464291Y-58092590D01*
X115464291Y-58428058D01*
G37*
G36*
X117027048Y-59365711D02*
G01*
X116777007Y-59365711D01*
X116777007Y-59032323D01*
X117027048Y-59032323D01*
X117027048Y-59365711D01*
G37*
G36*
X115464291Y-57511241D02*
G01*
X115214250Y-57511241D01*
X115214250Y-57177853D01*
X115464291Y-57177853D01*
X115464291Y-57511241D01*
G37*
G36*
X117027048Y-57969649D02*
G01*
X116777007Y-57969649D01*
X116777007Y-57636261D01*
X117027048Y-57636261D01*
X117027048Y-57969649D01*
G37*
G36*
X117016629Y-58105088D02*
G01*
X117028801Y-58428058D01*
X116777007Y-58428058D01*
X116777007Y-58092590D01*
X117016629Y-58105088D01*
G37*
G36*
X161860621Y-74818850D02*
G01*
X161048155Y-75631517D01*
X160896213Y-75783309D01*
X160753140Y-75925880D01*
X160621630Y-76056568D01*
X160504381Y-76172710D01*
X160404090Y-76271644D01*
X160323453Y-76350708D01*
X160265165Y-76407239D01*
X160231924Y-76438576D01*
X160225071Y-76444184D01*
X160208787Y-76429868D01*
X160165762Y-76388685D01*
X160098673Y-76323280D01*
X160010202Y-76236301D01*
X159903027Y-76130391D01*
X159779828Y-76008199D01*
X159643284Y-75872369D01*
X159496076Y-75725549D01*
X159392001Y-75621534D01*
X158569550Y-74798884D01*
X158892018Y-74487975D01*
X159214487Y-74177067D01*
X159122314Y-74081991D01*
X159071818Y-74025777D01*
X159051773Y-73991744D01*
X159059803Y-73976236D01*
X159111957Y-73958562D01*
X159188690Y-73933946D01*
X159282369Y-73904687D01*
X159385364Y-73873086D01*
X159490043Y-73841441D01*
X159588774Y-73812053D01*
X159673926Y-73787221D01*
X159737868Y-73769246D01*
X159772967Y-73760426D01*
X159777296Y-73760024D01*
X159774975Y-73781241D01*
X159764742Y-73835143D01*
X159748366Y-73913880D01*
X159727623Y-74009606D01*
X159704283Y-74114471D01*
X159680119Y-74220629D01*
X159656905Y-74320231D01*
X159636412Y-74405428D01*
X159620413Y-74468374D01*
X159610681Y-74501219D01*
X159609257Y-74504022D01*
X159590788Y-74495816D01*
X159551614Y-74466085D01*
X159514588Y-74434080D01*
X159428108Y-74355950D01*
X158974552Y-74808100D01*
X159599811Y-75433358D01*
X160225069Y-76058617D01*
X160844884Y-75438802D01*
X161464700Y-74818987D01*
X160746104Y-74100164D01*
X160027508Y-73381342D01*
X160126409Y-73282441D01*
X160225311Y-73183540D01*
X161860621Y-74818850D01*
G37*
G36*
X160568876Y-74996029D02*
G01*
X160162560Y-75007957D01*
X160162560Y-74589713D01*
X160580804Y-74589713D01*
X160568876Y-74996029D01*
G37*
G36*
X161116596Y-74792871D02*
G01*
X161110632Y-74996029D01*
X160911650Y-75001943D01*
X160824308Y-75003057D01*
X160753181Y-75001190D01*
X160708184Y-74996746D01*
X160698074Y-74993261D01*
X160691703Y-74967263D01*
X160686742Y-74909664D01*
X160683892Y-74830527D01*
X160683478Y-74784189D01*
X160683478Y-74589713D01*
X161122559Y-74589713D01*
X161116596Y-74792871D01*
G37*
G36*
X115038655Y-68038632D02*
G01*
X115060921Y-68053495D01*
X115080611Y-68088447D01*
X115103632Y-68151819D01*
X115114926Y-68186461D01*
X115248456Y-68535020D01*
X115421376Y-68875716D01*
X115631630Y-69205028D01*
X115877162Y-69519436D01*
X115926620Y-69576060D01*
X116076400Y-69733150D01*
X116260195Y-69906141D01*
X116474787Y-70092215D01*
X116716960Y-70288553D01*
X116905753Y-70434051D01*
X117288834Y-70723470D01*
X114949498Y-70723470D01*
X114949498Y-68035530D01*
X115007906Y-68035530D01*
X115038655Y-68038632D01*
G37*
G36*
X159680429Y-58562682D02*
G01*
X159663536Y-58475462D01*
X160084779Y-58475462D01*
X160085614Y-58498936D01*
X160096119Y-58555602D01*
X160114548Y-58638574D01*
X160139154Y-58740964D01*
X160168190Y-58855885D01*
X160199910Y-58976451D01*
X160232568Y-59095775D01*
X160264416Y-59206969D01*
X160293708Y-59303148D01*
X160298419Y-59317853D01*
X160335597Y-59425725D01*
X160366834Y-59502075D01*
X160390905Y-59544807D01*
X160406589Y-59551826D01*
X160412663Y-59521036D01*
X160412677Y-59513683D01*
X160405355Y-59479079D01*
X160386057Y-59416378D01*
X160358189Y-59336212D01*
X160340885Y-59289688D01*
X160308925Y-59199782D01*
X160270633Y-59082910D01*
X160230223Y-58952422D01*
X160191907Y-58821670D01*
X160181476Y-58784481D01*
X160151135Y-58677370D01*
X160124211Y-58586772D01*
X160102750Y-58519221D01*
X160088797Y-58481251D01*
X160084779Y-58475462D01*
X159663536Y-58475462D01*
X159652516Y-58418563D01*
X159651364Y-58412808D01*
X160060521Y-58412808D01*
X160064352Y-58439834D01*
X160071465Y-58440157D01*
X160076439Y-58412269D01*
X160073110Y-58400219D01*
X160063858Y-58392327D01*
X160060521Y-58412808D01*
X159651364Y-58412808D01*
X159634673Y-58329461D01*
X160039684Y-58329461D01*
X160043515Y-58356487D01*
X160050628Y-58356810D01*
X160055602Y-58328922D01*
X160052273Y-58316872D01*
X160043021Y-58308980D01*
X160039684Y-58329461D01*
X159634673Y-58329461D01*
X159618330Y-58247851D01*
X160017203Y-58247851D01*
X160027621Y-58258269D01*
X160038039Y-58247851D01*
X160027621Y-58237432D01*
X160017203Y-58247851D01*
X159618330Y-58247851D01*
X159616526Y-58238841D01*
X159578939Y-58065306D01*
X159541089Y-57903074D01*
X159504313Y-57757259D01*
X159469945Y-57632979D01*
X159439322Y-57535349D01*
X159413779Y-57469484D01*
X159397831Y-57443032D01*
X159376063Y-57446086D01*
X159344530Y-57485293D01*
X159304898Y-57556734D01*
X159258829Y-57656485D01*
X159207989Y-57780626D01*
X159154042Y-57925236D01*
X159098652Y-58086392D01*
X159043485Y-58260173D01*
X159025269Y-58320779D01*
X158996129Y-58418330D01*
X158971187Y-58500313D01*
X158952814Y-58559053D01*
X158943376Y-58586875D01*
X158942806Y-58588011D01*
X158921034Y-58589220D01*
X158871872Y-58584563D01*
X158841836Y-58580436D01*
X158780878Y-58567471D01*
X158752193Y-58549071D01*
X158746161Y-58525986D01*
X158751170Y-58490303D01*
X158765001Y-58421701D01*
X158785857Y-58327561D01*
X158811943Y-58215261D01*
X158841464Y-58092182D01*
X158872623Y-57965703D01*
X158903625Y-57843204D01*
X158932674Y-57732065D01*
X158957975Y-57639665D01*
X158977732Y-57573384D01*
X158978618Y-57570656D01*
X159028372Y-57435583D01*
X159082531Y-57318421D01*
X159137262Y-57226341D01*
X159188735Y-57166512D01*
X159198710Y-57158760D01*
X159259785Y-57132159D01*
X159347459Y-57113277D01*
X159447176Y-57103285D01*
X159544379Y-57103357D01*
X159624513Y-57114662D01*
X159648452Y-57122561D01*
X159729909Y-57170654D01*
X159808666Y-57246114D01*
X159885705Y-57350927D01*
X159962007Y-57487076D01*
X160038555Y-57656546D01*
X160116332Y-57861322D01*
X160196319Y-58103388D01*
X160279499Y-58384729D01*
X160287875Y-58414545D01*
X160342331Y-58608395D01*
X160387012Y-58765264D01*
X160423006Y-58888402D01*
X160451398Y-58981062D01*
X160473274Y-59046496D01*
X160489720Y-59087954D01*
X160501822Y-59108690D01*
X160510667Y-59111954D01*
X160517237Y-59101289D01*
X160526804Y-59065365D01*
X160541948Y-58998275D01*
X160560542Y-58909808D01*
X160579313Y-58815652D01*
X160599776Y-58712308D01*
X160615389Y-58643097D01*
X160629001Y-58601197D01*
X160643463Y-58579786D01*
X160661625Y-58572042D01*
X160681478Y-58571105D01*
X160742142Y-58575981D01*
X160780070Y-58583199D01*
X160795081Y-58587463D01*
X160805933Y-58594317D01*
X160812034Y-58608458D01*
X160812791Y-58634582D01*
X160807613Y-58677387D01*
X160795908Y-58741569D01*
X160777082Y-58831825D01*
X160750546Y-58952852D01*
X160715705Y-59109347D01*
X160711196Y-59129576D01*
X160635424Y-59469545D01*
X160721634Y-59643913D01*
X160777898Y-59518893D01*
X160804185Y-59452151D01*
X160837719Y-59354877D01*
X160875561Y-59236946D01*
X160914769Y-59108235D01*
X160952404Y-58978619D01*
X160985525Y-58857974D01*
X161011193Y-58756178D01*
X161026152Y-58684996D01*
X161041763Y-58611112D01*
X161062783Y-58571055D01*
X161097632Y-58557088D01*
X161154732Y-58561474D01*
X161159741Y-58562262D01*
X161221162Y-58578516D01*
X161245618Y-58602847D01*
X161246467Y-58609948D01*
X161239778Y-58663375D01*
X161221401Y-58748767D01*
X161193547Y-58858804D01*
X161158429Y-58986165D01*
X161118260Y-59123528D01*
X161075251Y-59263572D01*
X161031614Y-59398977D01*
X160989563Y-59522421D01*
X160951308Y-59626583D01*
X160919063Y-59704142D01*
X160910423Y-59722051D01*
X160887604Y-59771937D01*
X160885740Y-59795083D01*
X160900742Y-59800189D01*
X160955513Y-59780276D01*
X161016583Y-59722696D01*
X161082295Y-59630690D01*
X161150989Y-59507498D01*
X161221007Y-59356360D01*
X161290689Y-59180517D01*
X161358378Y-58983207D01*
X161414152Y-58797329D01*
X161441572Y-58703005D01*
X161466343Y-58623427D01*
X161485673Y-58567212D01*
X161496490Y-58543258D01*
X161523448Y-58537970D01*
X161571537Y-58543855D01*
X161624907Y-58557042D01*
X161667708Y-58573659D01*
X161684143Y-58589090D01*
X161678562Y-58614503D01*
X161663361Y-58671450D01*
X161640850Y-58751535D01*
X161613342Y-58846363D01*
X161612896Y-58847879D01*
X161525189Y-59127404D01*
X161438413Y-59366223D01*
X161352080Y-59565282D01*
X161265706Y-59725523D01*
X161178804Y-59847892D01*
X161090890Y-59933333D01*
X161037018Y-59967487D01*
X160939603Y-60002988D01*
X160852103Y-60002284D01*
X160800605Y-59984850D01*
X160754194Y-59972478D01*
X160704014Y-59983290D01*
X160676664Y-59995269D01*
X160605059Y-60022924D01*
X160547422Y-60025346D01*
X160484648Y-60002661D01*
X160472682Y-59996623D01*
X160426226Y-59976429D01*
X160396586Y-59978547D01*
X160374742Y-59994304D01*
X160301596Y-60033098D01*
X160219245Y-60035814D01*
X160150168Y-60008174D01*
X160102922Y-59969407D01*
X160057922Y-59914116D01*
X160014349Y-59839682D01*
X159971384Y-59743488D01*
X159928206Y-59622913D01*
X159883995Y-59475340D01*
X159837932Y-59298149D01*
X159789196Y-59088721D01*
X159736969Y-58844439D01*
X159734614Y-58832706D01*
X159937512Y-58832706D01*
X159942222Y-58869763D01*
X159957190Y-58947163D01*
X159982522Y-59064900D01*
X159987934Y-59089230D01*
X160029111Y-59261349D01*
X160071854Y-59417836D01*
X160114691Y-59554848D01*
X160156147Y-59668543D01*
X160194750Y-59755079D01*
X160229024Y-59810615D01*
X160257496Y-59831307D01*
X160270569Y-59826035D01*
X160278104Y-59793118D01*
X160275364Y-59787351D01*
X160522711Y-59787351D01*
X160543589Y-59813724D01*
X160570783Y-59821025D01*
X160589904Y-59814880D01*
X160581089Y-59789460D01*
X160575284Y-59779872D01*
X160548516Y-59754146D01*
X160531082Y-59757220D01*
X160522711Y-59787351D01*
X160275364Y-59787351D01*
X160260244Y-59755534D01*
X160223335Y-59685649D01*
X160179614Y-59581687D01*
X160131455Y-59450217D01*
X160081231Y-59297810D01*
X160031314Y-59131037D01*
X160019191Y-59087980D01*
X159983901Y-58963627D01*
X159958456Y-58879634D01*
X159942958Y-58835995D01*
X159937512Y-58832706D01*
X159734614Y-58832706D01*
X159715512Y-58737514D01*
X159916309Y-58737514D01*
X159919583Y-58767095D01*
X159926819Y-58763560D01*
X159929571Y-58720900D01*
X159926819Y-58711468D01*
X159919213Y-58708851D01*
X159916309Y-58737514D01*
X159715512Y-58737514D01*
X159696348Y-58642013D01*
X159893827Y-58642013D01*
X159897658Y-58669038D01*
X159904771Y-58669361D01*
X159909745Y-58641473D01*
X159906416Y-58629424D01*
X159897164Y-58621531D01*
X159893827Y-58642013D01*
X159696348Y-58642013D01*
X159680429Y-58562682D01*
G37*
G36*
X160667953Y-57050455D02*
G01*
X160731335Y-57075980D01*
X160799547Y-57143726D01*
X160840523Y-57233037D01*
X160853808Y-57333549D01*
X160838944Y-57434896D01*
X160795477Y-57526714D01*
X160753287Y-57574923D01*
X160698371Y-57604300D01*
X160623096Y-57621610D01*
X160547820Y-57623653D01*
X160505167Y-57613923D01*
X160463644Y-57586098D01*
X160416243Y-57540881D01*
X160407021Y-57530339D01*
X160355234Y-57442382D01*
X160335271Y-57347097D01*
X160344203Y-57252520D01*
X160379104Y-57166687D01*
X160437046Y-57097634D01*
X160515102Y-57053396D01*
X160585176Y-57041335D01*
X160667953Y-57050455D01*
G37*
G36*
X161307215Y-57057304D02*
G01*
X161380763Y-57105264D01*
X161434419Y-57175516D01*
X161466643Y-57260143D01*
X161475893Y-57351225D01*
X161460629Y-57440842D01*
X161419311Y-57521075D01*
X161350399Y-57584005D01*
X161324020Y-57598370D01*
X161247933Y-57626945D01*
X161184595Y-57628218D01*
X161115031Y-57601910D01*
X161101999Y-57595092D01*
X161026050Y-57534680D01*
X160978482Y-57455954D01*
X160957690Y-57366789D01*
X160962066Y-57275062D01*
X160990003Y-57188650D01*
X161039896Y-57115428D01*
X161110137Y-57063273D01*
X161199120Y-57040060D01*
X161215316Y-57039558D01*
X161307215Y-57057304D01*
G37*
G36*
X161261244Y-62543071D02*
G01*
X161343683Y-62577058D01*
X161410623Y-62639109D01*
X161455020Y-62724813D01*
X161469906Y-62822256D01*
X161453784Y-62928224D01*
X161409402Y-63016791D01*
X161343035Y-63082197D01*
X161260958Y-63118682D01*
X161169444Y-63120483D01*
X161149985Y-63116017D01*
X161064062Y-63073218D01*
X161001258Y-63004008D01*
X160962777Y-62917422D01*
X160949825Y-62822498D01*
X160963610Y-62728270D01*
X161005335Y-62643776D01*
X161076209Y-62578051D01*
X161078041Y-62576923D01*
X161170349Y-62541556D01*
X161261244Y-62543071D01*
G37*
G36*
X161002990Y-63295128D02*
G01*
X161072748Y-63342180D01*
X161125586Y-63413715D01*
X161154221Y-63508496D01*
X161157277Y-63555717D01*
X161140774Y-63660923D01*
X161095574Y-63748722D01*
X161028147Y-63813377D01*
X160944958Y-63849150D01*
X160852475Y-63850304D01*
X160830982Y-63845188D01*
X160748945Y-63801547D01*
X160687350Y-63728925D01*
X160650647Y-63636825D01*
X160643287Y-63534752D01*
X160655463Y-63470453D01*
X160700512Y-63376517D01*
X160765076Y-63313254D01*
X160841868Y-63279427D01*
X160923602Y-63273798D01*
X161002990Y-63295128D01*
G37*
G36*
X159672979Y-64024544D02*
G01*
X159865554Y-64024544D01*
X159875973Y-64034962D01*
X159886391Y-64024544D01*
X159875973Y-64014125D01*
X159865554Y-64024544D01*
X159672979Y-64024544D01*
X159655619Y-63936575D01*
X159646521Y-63889105D01*
X159643998Y-63876543D01*
X160058701Y-63876543D01*
X160058829Y-63900920D01*
X160069010Y-63958809D01*
X160087552Y-64043740D01*
X160112760Y-64149242D01*
X160142942Y-64268842D01*
X160176405Y-64396071D01*
X160211454Y-64524456D01*
X160246397Y-64647528D01*
X160279540Y-64758815D01*
X160309190Y-64851845D01*
X160327800Y-64904896D01*
X160355533Y-64967891D01*
X160380951Y-65006726D01*
X160399667Y-65016643D01*
X160407297Y-64992885D01*
X160407310Y-64991160D01*
X160400834Y-64964184D01*
X160383004Y-64905404D01*
X160356222Y-64822354D01*
X160322886Y-64722569D01*
X160306107Y-64673399D01*
X160261909Y-64540607D01*
X160215404Y-64393991D01*
X160171988Y-64250946D01*
X160137053Y-64128866D01*
X160135670Y-64123788D01*
X160109102Y-64028604D01*
X160086000Y-63950811D01*
X160068633Y-63897690D01*
X160059267Y-63876522D01*
X160058701Y-63876543D01*
X159643998Y-63876543D01*
X159631524Y-63814440D01*
X160033893Y-63814440D01*
X160037724Y-63841465D01*
X160044837Y-63841788D01*
X160049811Y-63813900D01*
X160046482Y-63801851D01*
X160037230Y-63793958D01*
X160033893Y-63814440D01*
X159631524Y-63814440D01*
X159617224Y-63743247D01*
X160011412Y-63743247D01*
X160019035Y-63760398D01*
X160025303Y-63757139D01*
X160027797Y-63732410D01*
X160025303Y-63729356D01*
X160012915Y-63732216D01*
X160011412Y-63743247D01*
X159617224Y-63743247D01*
X159608245Y-63698545D01*
X159568961Y-63520986D01*
X159529782Y-63360193D01*
X159491822Y-63219930D01*
X159456193Y-63103964D01*
X159424009Y-63016058D01*
X159396383Y-62959977D01*
X159374427Y-62939487D01*
X159366764Y-62942806D01*
X159334149Y-62990351D01*
X159292375Y-63071266D01*
X159244019Y-63178933D01*
X159191654Y-63306735D01*
X159137855Y-63448054D01*
X159085197Y-63596273D01*
X159036255Y-63744774D01*
X158993603Y-63886938D01*
X158979542Y-63938066D01*
X158941427Y-64080793D01*
X158858513Y-64067534D01*
X158790561Y-64054280D01*
X158754699Y-64038860D01*
X158741465Y-64015973D01*
X158740370Y-64001394D01*
X158745746Y-63962415D01*
X158760640Y-63890490D01*
X158783200Y-63792764D01*
X158811574Y-63676383D01*
X158843908Y-63548492D01*
X158878352Y-63416239D01*
X158913052Y-63286768D01*
X158946157Y-63167225D01*
X158975815Y-63064756D01*
X159000172Y-62986507D01*
X159012553Y-62951321D01*
X159052057Y-62862242D01*
X159098665Y-62776569D01*
X159142869Y-62711623D01*
X159146521Y-62707250D01*
X159182496Y-62666823D01*
X159213626Y-62641116D01*
X159251140Y-62625795D01*
X159306269Y-62616529D01*
X159390242Y-62608985D01*
X159404044Y-62607890D01*
X159503654Y-62601958D01*
X159572678Y-62603380D01*
X159621671Y-62612869D01*
X159649165Y-62624413D01*
X159731168Y-62679232D01*
X159809732Y-62758051D01*
X159885994Y-62863225D01*
X159961093Y-62997107D01*
X160036166Y-63162051D01*
X160112350Y-63360412D01*
X160190784Y-63594542D01*
X160272605Y-63866796D01*
X160305006Y-63981402D01*
X160362699Y-64186199D01*
X160410504Y-64350748D01*
X160448487Y-64475267D01*
X160476719Y-64559974D01*
X160495266Y-64605086D01*
X160503180Y-64612813D01*
X160510118Y-64590436D01*
X160523282Y-64535017D01*
X160540908Y-64454412D01*
X160561230Y-64356480D01*
X160565485Y-64335395D01*
X160586570Y-64234445D01*
X160605982Y-64148818D01*
X160621789Y-64086536D01*
X160632061Y-64055619D01*
X160633241Y-64053940D01*
X160660370Y-64050271D01*
X160711849Y-64055850D01*
X160732814Y-64059847D01*
X160818695Y-64078030D01*
X160798932Y-64176307D01*
X160787591Y-64230799D01*
X160769344Y-64316297D01*
X160746276Y-64423118D01*
X160720475Y-64541576D01*
X160706282Y-64606325D01*
X160679371Y-64729805D01*
X160660865Y-64819865D01*
X160650115Y-64883763D01*
X160646470Y-64928757D01*
X160649278Y-64962105D01*
X160657889Y-64991064D01*
X160669375Y-65017851D01*
X160694815Y-65067152D01*
X160715500Y-65095191D01*
X160720260Y-65097636D01*
X160735635Y-65078637D01*
X160759881Y-65026032D01*
X160790865Y-64946412D01*
X160826456Y-64846367D01*
X160864523Y-64732486D01*
X160902934Y-64611359D01*
X160939559Y-64489576D01*
X160972265Y-64373727D01*
X160998921Y-64270403D01*
X161017396Y-64186192D01*
X161020324Y-64169869D01*
X161033237Y-64109936D01*
X161047574Y-64066002D01*
X161050790Y-64059778D01*
X161080146Y-64044664D01*
X161129559Y-64043126D01*
X161183276Y-64052540D01*
X161225544Y-64070280D01*
X161240780Y-64091454D01*
X161234293Y-64143465D01*
X161216325Y-64227211D01*
X161189118Y-64335076D01*
X161154913Y-64459445D01*
X161115950Y-64592702D01*
X161074471Y-64727233D01*
X161032717Y-64855423D01*
X160992927Y-64969655D01*
X160957345Y-65062315D01*
X160949834Y-65080140D01*
X160913843Y-65165684D01*
X160893920Y-65220149D01*
X160888522Y-65250226D01*
X160896104Y-65262605D01*
X160907321Y-65264330D01*
X160950442Y-65246236D01*
X161004371Y-65196426D01*
X161063784Y-65121611D01*
X161123361Y-65028503D01*
X161177779Y-64923811D01*
X161178357Y-64922560D01*
X161218589Y-64827814D01*
X161266043Y-64704242D01*
X161316768Y-64563168D01*
X161366818Y-64415916D01*
X161412241Y-64273811D01*
X161449091Y-64148174D01*
X161451557Y-64139146D01*
X161469771Y-64079469D01*
X161486312Y-64037290D01*
X161491683Y-64028236D01*
X161516828Y-64023858D01*
X161563992Y-64029080D01*
X161617249Y-64040498D01*
X161660677Y-64054706D01*
X161678352Y-64068149D01*
X161671279Y-64111988D01*
X161651710Y-64187403D01*
X161622120Y-64287079D01*
X161584983Y-64403701D01*
X161542773Y-64529953D01*
X161497966Y-64658521D01*
X161453034Y-64782087D01*
X161410454Y-64893338D01*
X161372699Y-64984958D01*
X161354994Y-65024105D01*
X161265443Y-65189430D01*
X161171792Y-65317799D01*
X161075305Y-65408253D01*
X160977248Y-65459831D01*
X160878886Y-65471575D01*
X160794624Y-65448905D01*
X160746701Y-65436290D01*
X160701269Y-65452368D01*
X160690193Y-65459324D01*
X160610039Y-65489293D01*
X160522863Y-65486601D01*
X160459282Y-65460285D01*
X160421619Y-65439946D01*
X160391884Y-65443554D01*
X160353021Y-65470703D01*
X160284627Y-65507782D01*
X160215422Y-65507212D01*
X160146178Y-65475685D01*
X160097665Y-65436661D01*
X160051083Y-65378620D01*
X160005661Y-65299118D01*
X159960632Y-65195715D01*
X159915226Y-65065966D01*
X159868674Y-64907431D01*
X159820206Y-64717667D01*
X159769054Y-64494231D01*
X159714448Y-64234681D01*
X159710328Y-64213806D01*
X159911930Y-64213806D01*
X159920383Y-64270836D01*
X159935885Y-64353641D01*
X159956898Y-64454897D01*
X159981886Y-64567278D01*
X160009311Y-64683460D01*
X160037637Y-64796117D01*
X160045713Y-64826758D01*
X160088446Y-64974262D01*
X160131285Y-65098585D01*
X160172493Y-65195987D01*
X160210335Y-65262723D01*
X160243076Y-65295053D01*
X160262741Y-65294789D01*
X160262333Y-65272575D01*
X160259685Y-65264128D01*
X160523384Y-65264128D01*
X160551998Y-65284049D01*
X160564992Y-65285167D01*
X160584119Y-65278944D01*
X160575147Y-65253331D01*
X160569687Y-65244325D01*
X160544985Y-65218633D01*
X160529212Y-65227702D01*
X160523384Y-65264128D01*
X160259685Y-65264128D01*
X160246648Y-65222538D01*
X160218852Y-65154227D01*
X160208731Y-65131828D01*
X160172549Y-65044338D01*
X160130032Y-64927060D01*
X160084560Y-64790728D01*
X160039514Y-64646080D01*
X159998273Y-64503851D01*
X159964217Y-64374778D01*
X159946995Y-64300502D01*
X159932025Y-64238481D01*
X159919052Y-64198692D01*
X159912062Y-64189876D01*
X159911930Y-64213806D01*
X159710328Y-64213806D01*
X159693196Y-64126991D01*
X159888036Y-64126991D01*
X159891867Y-64154016D01*
X159898980Y-64154339D01*
X159903954Y-64126451D01*
X159900625Y-64114402D01*
X159891373Y-64106509D01*
X159888036Y-64126991D01*
X159693196Y-64126991D01*
X159672979Y-64024544D01*
G37*
G36*
X160664753Y-62549582D02*
G01*
X160743888Y-62592271D01*
X160803128Y-62665078D01*
X160837772Y-62762898D01*
X160844882Y-62840236D01*
X160841204Y-62912348D01*
X160825399Y-62962621D01*
X160790310Y-63010592D01*
X160777162Y-63025080D01*
X160692615Y-63094128D01*
X160604213Y-63122153D01*
X160511438Y-63110210D01*
X160432296Y-63064000D01*
X160373674Y-62989572D01*
X160339610Y-62896982D01*
X160334140Y-62796287D01*
X160353265Y-62716139D01*
X160407889Y-62623409D01*
X160486066Y-62564992D01*
X160570423Y-62542117D01*
X160664753Y-62549582D01*
G37*
G36*
X116911019Y-73809134D02*
G01*
X117348591Y-73809134D01*
X117348591Y-74455073D01*
X116942045Y-74455073D01*
X116238919Y-75158427D01*
X115535794Y-75861780D01*
X115535794Y-76267870D01*
X114889855Y-76267870D01*
X114889855Y-75184359D01*
X115098222Y-75184359D01*
X115098222Y-75621931D01*
X115317241Y-75621931D01*
X116009947Y-74928994D01*
X116702652Y-74236057D01*
X116702652Y-73392399D01*
X116911019Y-73392399D01*
X116911019Y-73809134D01*
G37*
G36*
X116138799Y-62390473D02*
G01*
X116180776Y-62447772D01*
X116240882Y-62535246D01*
X116314904Y-62646330D01*
X116398628Y-62774458D01*
X116487840Y-62913064D01*
X116578327Y-63055584D01*
X116665876Y-63195452D01*
X116746272Y-63326103D01*
X116815302Y-63440970D01*
X116868752Y-63533490D01*
X116885333Y-63563715D01*
X116970505Y-63732778D01*
X117047251Y-63904368D01*
X117111978Y-64068797D01*
X117161090Y-64216380D01*
X117190991Y-64337430D01*
X117198666Y-64407812D01*
X117175114Y-64631940D01*
X117108029Y-64839082D01*
X117002762Y-65025021D01*
X116864668Y-65185541D01*
X116699099Y-65316424D01*
X116511409Y-65413454D01*
X116306951Y-65472413D01*
X116091077Y-65489085D01*
X115869141Y-65459253D01*
X115865166Y-65458274D01*
X115650242Y-65380070D01*
X115460354Y-65261516D01*
X115300135Y-65108506D01*
X115174216Y-64926934D01*
X115087228Y-64722695D01*
X115043802Y-64501681D01*
X115039666Y-64407812D01*
X115051887Y-64314507D01*
X115086153Y-64187033D01*
X115138869Y-64035077D01*
X115206440Y-63868325D01*
X115285270Y-63696462D01*
X115352998Y-63563715D01*
X115398762Y-63482373D01*
X115461851Y-63375965D01*
X115538051Y-63251054D01*
X115623148Y-63114207D01*
X115712930Y-62971989D01*
X115803181Y-62830965D01*
X115889689Y-62697701D01*
X115968240Y-62578762D01*
X116034620Y-62480714D01*
X116084617Y-62410122D01*
X116114015Y-62373551D01*
X116119166Y-62369915D01*
X116138799Y-62390473D01*
G37*
G36*
X161116596Y-69342871D02*
G01*
X161110632Y-69546029D01*
X160911650Y-69551943D01*
X160824308Y-69553057D01*
X160753181Y-69551190D01*
X160708184Y-69546746D01*
X160698074Y-69543261D01*
X160691703Y-69517263D01*
X160686742Y-69459664D01*
X160683892Y-69380527D01*
X160683478Y-69334189D01*
X160683478Y-69139713D01*
X161122559Y-69139713D01*
X161116596Y-69342871D01*
G37*
G36*
X161860621Y-69368850D02*
G01*
X161048155Y-70181517D01*
X160896213Y-70333309D01*
X160753140Y-70475880D01*
X160621630Y-70606568D01*
X160504381Y-70722710D01*
X160404090Y-70821644D01*
X160323453Y-70900708D01*
X160265165Y-70957239D01*
X160231924Y-70988576D01*
X160225071Y-70994184D01*
X160208787Y-70979868D01*
X160165762Y-70938685D01*
X160098673Y-70873280D01*
X160010202Y-70786301D01*
X159903027Y-70680391D01*
X159779828Y-70558199D01*
X159643284Y-70422369D01*
X159496076Y-70275549D01*
X159392001Y-70171534D01*
X158569550Y-69348884D01*
X158892018Y-69037975D01*
X159214487Y-68727067D01*
X159122314Y-68631991D01*
X159071818Y-68575777D01*
X159051773Y-68541744D01*
X159059803Y-68526236D01*
X159111957Y-68508562D01*
X159188690Y-68483946D01*
X159282369Y-68454687D01*
X159385364Y-68423086D01*
X159490043Y-68391441D01*
X159588774Y-68362053D01*
X159673926Y-68337221D01*
X159737868Y-68319246D01*
X159772967Y-68310426D01*
X159777296Y-68310024D01*
X159774975Y-68331241D01*
X159764742Y-68385143D01*
X159748366Y-68463880D01*
X159727623Y-68559606D01*
X159704283Y-68664471D01*
X159680119Y-68770629D01*
X159656905Y-68870231D01*
X159636412Y-68955428D01*
X159620413Y-69018374D01*
X159610681Y-69051219D01*
X159609257Y-69054022D01*
X159590788Y-69045816D01*
X159551614Y-69016085D01*
X159514588Y-68984080D01*
X159428108Y-68905950D01*
X158974552Y-69358100D01*
X159599811Y-69983358D01*
X160225069Y-70608617D01*
X160844884Y-69988802D01*
X161464700Y-69368987D01*
X160746104Y-68650164D01*
X160027508Y-67931342D01*
X160126409Y-67832441D01*
X160225311Y-67733540D01*
X161860621Y-69368850D01*
G37*
G36*
X161121050Y-69334189D02*
G01*
X161120636Y-69380527D01*
X161117787Y-69459664D01*
X161112826Y-69517263D01*
X161106455Y-69543261D01*
X161096345Y-69546746D01*
X161051347Y-69551190D01*
X160980220Y-69553057D01*
X160892878Y-69551943D01*
X160693897Y-69546029D01*
X160681969Y-69139713D01*
X161121050Y-69139713D01*
X161121050Y-69334189D01*
G37*
G36*
X161860621Y-69368850D02*
G01*
X161048155Y-70181517D01*
X160952704Y-70276919D01*
X160805964Y-70423285D01*
X160669769Y-70558774D01*
X160546818Y-70680723D01*
X160439805Y-70786469D01*
X160351427Y-70873351D01*
X160284382Y-70938705D01*
X160241364Y-70979870D01*
X160225071Y-70994184D01*
X160217139Y-70987592D01*
X160182505Y-70954845D01*
X160122938Y-70897018D01*
X160041118Y-70816755D01*
X159939724Y-70716704D01*
X159821436Y-70599511D01*
X159688933Y-70467820D01*
X159544895Y-70324279D01*
X159392001Y-70171534D01*
X158569549Y-69348884D01*
X158892018Y-69037975D01*
X159214487Y-68727067D01*
X159122314Y-68631991D01*
X159072105Y-68576142D01*
X159051819Y-68541942D01*
X159059803Y-68526236D01*
X159078831Y-68519600D01*
X159142540Y-68498644D01*
X159227530Y-68471740D01*
X159326170Y-68441187D01*
X159430829Y-68409285D01*
X159533875Y-68378333D01*
X159627676Y-68350631D01*
X159704600Y-68328479D01*
X159757018Y-68314177D01*
X159777296Y-68310024D01*
X159777537Y-68312458D01*
X159772676Y-68344224D01*
X159760429Y-68406338D01*
X159742569Y-68490952D01*
X159720867Y-68590218D01*
X159697096Y-68696289D01*
X159673030Y-68801316D01*
X159650441Y-68897450D01*
X159631100Y-68976845D01*
X159616781Y-69031652D01*
X159609257Y-69054022D01*
X159597803Y-69050210D01*
X159562966Y-69025261D01*
X159514588Y-68984080D01*
X159428108Y-68905950D01*
X158974552Y-69358100D01*
X159599811Y-69983358D01*
X160225069Y-70608617D01*
X160844884Y-69988802D01*
X161464700Y-69368987D01*
X160746104Y-68650164D01*
X160027508Y-67931342D01*
X160126410Y-67832441D01*
X160225311Y-67733540D01*
X161860621Y-69368850D01*
G37*
%TD*%
M02*
