%TF.GenerationSoftware,KiCad,Pcbnew,(6.0.10)*%
%TF.CreationDate,2023-02-08T13:12:10+00:00*%
%TF.ProjectId,frontpanel(1),66726f6e-7470-4616-9e65-6c2831292e6b,rev?*%
%TF.SameCoordinates,Original*%
%TF.FileFunction,Soldermask,Top*%
%TF.FilePolarity,Negative*%
%FSLAX46Y46*%
G04 Gerber Fmt 4.6, Leading zero omitted, Abs format (unit mm)*
G04 Created by KiCad (PCBNEW (6.0.10)) date 2023-02-08 13:12:10*
%MOMM*%
%LPD*%
G01*
G04 APERTURE LIST*
%ADD10C,0.300000*%
G04 APERTURE END LIST*
D10*
X237180800Y-122981200D02*
X237942800Y-122981200D01*
X237942800Y-122981200D02*
X237942800Y-121203200D01*
X239466800Y-122981200D02*
X240228800Y-122981200D01*
X239466800Y-121203200D02*
X239466800Y-122981200D01*
X237942800Y-121203200D02*
X239466800Y-121203200D01*
%TO.C,G\u002A\u002A\u002A*%
G36*
X74332732Y-60326593D02*
G01*
X74082691Y-60326593D01*
X74082691Y-57555306D01*
X74332732Y-57555306D01*
X74332732Y-60326593D01*
G37*
G36*
X77437407Y-60326593D02*
G01*
X77187366Y-60326593D01*
X77187366Y-57555306D01*
X77437407Y-57555306D01*
X77437407Y-60326593D01*
G37*
G36*
X76666448Y-59368103D02*
G01*
X76416407Y-59368103D01*
X76416407Y-59034715D01*
X76666448Y-59034715D01*
X76666448Y-59368103D01*
G37*
G36*
X75103691Y-60284920D02*
G01*
X74853650Y-60284920D01*
X74853650Y-59951532D01*
X75103691Y-59951532D01*
X75103691Y-60284920D01*
G37*
G36*
X75103691Y-59368103D02*
G01*
X74853650Y-59368103D01*
X74853650Y-59034715D01*
X75103691Y-59034715D01*
X75103691Y-59368103D01*
G37*
G36*
X75103691Y-59826511D02*
G01*
X74853650Y-59826511D01*
X74853650Y-59493123D01*
X75103691Y-59493123D01*
X75103691Y-59826511D01*
G37*
G36*
X76666448Y-60284920D02*
G01*
X76416407Y-60284920D01*
X76416407Y-59951532D01*
X76666448Y-59951532D01*
X76666448Y-60284920D01*
G37*
G36*
X76666448Y-57972041D02*
G01*
X76416407Y-57972041D01*
X76416407Y-57638653D01*
X76666448Y-57638653D01*
X76666448Y-57972041D01*
G37*
G36*
X75103691Y-58430449D02*
G01*
X74853650Y-58430449D01*
X74853650Y-58097061D01*
X75103691Y-58097061D01*
X75103691Y-58430449D01*
G37*
G36*
X75895488Y-60326593D02*
G01*
X75624610Y-60326593D01*
X75624610Y-57555306D01*
X75895488Y-57555306D01*
X75895488Y-60326593D01*
G37*
G36*
X75103691Y-58888858D02*
G01*
X74851897Y-58888858D01*
X74864069Y-58565888D01*
X75103691Y-58553390D01*
X75103691Y-58888858D01*
G37*
G36*
X76666448Y-59826511D02*
G01*
X76416407Y-59826511D01*
X76416407Y-59493123D01*
X76666448Y-59493123D01*
X76666448Y-59826511D01*
G37*
G36*
X75103691Y-57972041D02*
G01*
X74853650Y-57972041D01*
X74853650Y-57638653D01*
X75103691Y-57638653D01*
X75103691Y-57972041D01*
G37*
G36*
X76666448Y-58430449D02*
G01*
X76416407Y-58430449D01*
X76416407Y-58097061D01*
X76666448Y-58097061D01*
X76666448Y-58430449D01*
G37*
G36*
X76656029Y-58565888D02*
G01*
X76668201Y-58888858D01*
X76416407Y-58888858D01*
X76416407Y-58553390D01*
X76656029Y-58565888D01*
G37*
G36*
X121500021Y-75279650D02*
G01*
X120687555Y-76092317D01*
X120535613Y-76244109D01*
X120392540Y-76386680D01*
X120261030Y-76517368D01*
X120143781Y-76633510D01*
X120043490Y-76732444D01*
X119962853Y-76811508D01*
X119904565Y-76868039D01*
X119871324Y-76899376D01*
X119864471Y-76904984D01*
X119848187Y-76890668D01*
X119805162Y-76849485D01*
X119738073Y-76784080D01*
X119649602Y-76697101D01*
X119542427Y-76591191D01*
X119419228Y-76468999D01*
X119282684Y-76333169D01*
X119135476Y-76186349D01*
X119031401Y-76082334D01*
X118208950Y-75259684D01*
X118531418Y-74948775D01*
X118853887Y-74637867D01*
X118761714Y-74542791D01*
X118711218Y-74486577D01*
X118691173Y-74452544D01*
X118699203Y-74437036D01*
X118751357Y-74419362D01*
X118828090Y-74394746D01*
X118921769Y-74365487D01*
X119024764Y-74333886D01*
X119129443Y-74302241D01*
X119228174Y-74272853D01*
X119313326Y-74248021D01*
X119377268Y-74230046D01*
X119412367Y-74221226D01*
X119416696Y-74220824D01*
X119414375Y-74242041D01*
X119404142Y-74295943D01*
X119387766Y-74374680D01*
X119367023Y-74470406D01*
X119343683Y-74575271D01*
X119319519Y-74681429D01*
X119296305Y-74781031D01*
X119275812Y-74866228D01*
X119259813Y-74929174D01*
X119250081Y-74962019D01*
X119248657Y-74964822D01*
X119230188Y-74956616D01*
X119191014Y-74926885D01*
X119153988Y-74894880D01*
X119067508Y-74816750D01*
X118613952Y-75268900D01*
X119239211Y-75894158D01*
X119864469Y-76519417D01*
X120484284Y-75899602D01*
X121104100Y-75279787D01*
X120385504Y-74560964D01*
X119666908Y-73842142D01*
X119765809Y-73743241D01*
X119864711Y-73644340D01*
X121500021Y-75279650D01*
G37*
G36*
X120208276Y-75456829D02*
G01*
X119801960Y-75468757D01*
X119801960Y-75050513D01*
X120220204Y-75050513D01*
X120208276Y-75456829D01*
G37*
G36*
X120755996Y-75253671D02*
G01*
X120750032Y-75456829D01*
X120551050Y-75462743D01*
X120463708Y-75463857D01*
X120392581Y-75461990D01*
X120347584Y-75457546D01*
X120337474Y-75454061D01*
X120331103Y-75428063D01*
X120326142Y-75370464D01*
X120323292Y-75291327D01*
X120322878Y-75244989D01*
X120322878Y-75050513D01*
X120761959Y-75050513D01*
X120755996Y-75253671D01*
G37*
G36*
X74678055Y-68499432D02*
G01*
X74700321Y-68514295D01*
X74720011Y-68549247D01*
X74743032Y-68612619D01*
X74754326Y-68647261D01*
X74887856Y-68995820D01*
X75060776Y-69336516D01*
X75271030Y-69665828D01*
X75516562Y-69980236D01*
X75566020Y-70036860D01*
X75715800Y-70193950D01*
X75899595Y-70366941D01*
X76114187Y-70553015D01*
X76356360Y-70749353D01*
X76545153Y-70894851D01*
X76928234Y-71184270D01*
X74588898Y-71184270D01*
X74588898Y-68496330D01*
X74647306Y-68496330D01*
X74678055Y-68499432D01*
G37*
G36*
X119319829Y-59023482D02*
G01*
X119302936Y-58936262D01*
X119724179Y-58936262D01*
X119725014Y-58959736D01*
X119735519Y-59016402D01*
X119753948Y-59099374D01*
X119778554Y-59201764D01*
X119807590Y-59316685D01*
X119839310Y-59437251D01*
X119871968Y-59556575D01*
X119903816Y-59667769D01*
X119933108Y-59763948D01*
X119937819Y-59778653D01*
X119974997Y-59886525D01*
X120006234Y-59962875D01*
X120030305Y-60005607D01*
X120045989Y-60012626D01*
X120052063Y-59981836D01*
X120052077Y-59974483D01*
X120044755Y-59939879D01*
X120025457Y-59877178D01*
X119997589Y-59797012D01*
X119980285Y-59750488D01*
X119948325Y-59660582D01*
X119910033Y-59543710D01*
X119869623Y-59413222D01*
X119831307Y-59282470D01*
X119820876Y-59245281D01*
X119790535Y-59138170D01*
X119763611Y-59047572D01*
X119742150Y-58980021D01*
X119728197Y-58942051D01*
X119724179Y-58936262D01*
X119302936Y-58936262D01*
X119291916Y-58879363D01*
X119290764Y-58873608D01*
X119699921Y-58873608D01*
X119703752Y-58900634D01*
X119710865Y-58900957D01*
X119715839Y-58873069D01*
X119712510Y-58861019D01*
X119703258Y-58853127D01*
X119699921Y-58873608D01*
X119290764Y-58873608D01*
X119274073Y-58790261D01*
X119679084Y-58790261D01*
X119682915Y-58817287D01*
X119690028Y-58817610D01*
X119695002Y-58789722D01*
X119691673Y-58777672D01*
X119682421Y-58769780D01*
X119679084Y-58790261D01*
X119274073Y-58790261D01*
X119257730Y-58708651D01*
X119656603Y-58708651D01*
X119667021Y-58719069D01*
X119677439Y-58708651D01*
X119667021Y-58698232D01*
X119656603Y-58708651D01*
X119257730Y-58708651D01*
X119255926Y-58699641D01*
X119218339Y-58526106D01*
X119180489Y-58363874D01*
X119143713Y-58218059D01*
X119109345Y-58093779D01*
X119078722Y-57996149D01*
X119053179Y-57930284D01*
X119037231Y-57903832D01*
X119015463Y-57906886D01*
X118983930Y-57946093D01*
X118944298Y-58017534D01*
X118898229Y-58117285D01*
X118847389Y-58241426D01*
X118793442Y-58386036D01*
X118738052Y-58547192D01*
X118682885Y-58720973D01*
X118664669Y-58781579D01*
X118635529Y-58879130D01*
X118610587Y-58961113D01*
X118592214Y-59019853D01*
X118582776Y-59047675D01*
X118582206Y-59048811D01*
X118560434Y-59050020D01*
X118511272Y-59045363D01*
X118481236Y-59041236D01*
X118420278Y-59028271D01*
X118391593Y-59009871D01*
X118385561Y-58986786D01*
X118390570Y-58951103D01*
X118404401Y-58882501D01*
X118425257Y-58788361D01*
X118451343Y-58676061D01*
X118480864Y-58552982D01*
X118512023Y-58426503D01*
X118543025Y-58304004D01*
X118572074Y-58192865D01*
X118597375Y-58100465D01*
X118617132Y-58034184D01*
X118618018Y-58031456D01*
X118667772Y-57896383D01*
X118721931Y-57779221D01*
X118776662Y-57687141D01*
X118828135Y-57627312D01*
X118838110Y-57619560D01*
X118899185Y-57592959D01*
X118986859Y-57574077D01*
X119086576Y-57564085D01*
X119183779Y-57564157D01*
X119263913Y-57575462D01*
X119287852Y-57583361D01*
X119369309Y-57631454D01*
X119448066Y-57706914D01*
X119525105Y-57811727D01*
X119601407Y-57947876D01*
X119677955Y-58117346D01*
X119755732Y-58322122D01*
X119835719Y-58564188D01*
X119918899Y-58845529D01*
X119927275Y-58875345D01*
X119981731Y-59069195D01*
X120026412Y-59226064D01*
X120062406Y-59349202D01*
X120090798Y-59441862D01*
X120112674Y-59507296D01*
X120129120Y-59548754D01*
X120141222Y-59569490D01*
X120150067Y-59572754D01*
X120156637Y-59562089D01*
X120166204Y-59526165D01*
X120181348Y-59459075D01*
X120199942Y-59370608D01*
X120218713Y-59276452D01*
X120239176Y-59173108D01*
X120254789Y-59103897D01*
X120268401Y-59061997D01*
X120282863Y-59040586D01*
X120301025Y-59032842D01*
X120320878Y-59031905D01*
X120381542Y-59036781D01*
X120419470Y-59043999D01*
X120434481Y-59048263D01*
X120445333Y-59055117D01*
X120451434Y-59069258D01*
X120452191Y-59095382D01*
X120447013Y-59138187D01*
X120435308Y-59202369D01*
X120416482Y-59292625D01*
X120389946Y-59413652D01*
X120355105Y-59570147D01*
X120350596Y-59590376D01*
X120274824Y-59930345D01*
X120361034Y-60104713D01*
X120417298Y-59979693D01*
X120443585Y-59912951D01*
X120477119Y-59815677D01*
X120514961Y-59697746D01*
X120554169Y-59569035D01*
X120591804Y-59439419D01*
X120624925Y-59318774D01*
X120650593Y-59216978D01*
X120665552Y-59145796D01*
X120681163Y-59071912D01*
X120702183Y-59031855D01*
X120737032Y-59017888D01*
X120794132Y-59022274D01*
X120799141Y-59023062D01*
X120860562Y-59039316D01*
X120885018Y-59063647D01*
X120885867Y-59070748D01*
X120879178Y-59124175D01*
X120860801Y-59209567D01*
X120832947Y-59319604D01*
X120797829Y-59446965D01*
X120757660Y-59584328D01*
X120714651Y-59724372D01*
X120671014Y-59859777D01*
X120628963Y-59983221D01*
X120590708Y-60087383D01*
X120558463Y-60164942D01*
X120549823Y-60182851D01*
X120527004Y-60232737D01*
X120525140Y-60255883D01*
X120540142Y-60260989D01*
X120594913Y-60241076D01*
X120655983Y-60183496D01*
X120721695Y-60091490D01*
X120790389Y-59968298D01*
X120860407Y-59817160D01*
X120930089Y-59641317D01*
X120997778Y-59444007D01*
X121053552Y-59258129D01*
X121080972Y-59163805D01*
X121105743Y-59084227D01*
X121125073Y-59028012D01*
X121135890Y-59004058D01*
X121162848Y-58998770D01*
X121210937Y-59004655D01*
X121264307Y-59017842D01*
X121307108Y-59034459D01*
X121323543Y-59049890D01*
X121317962Y-59075303D01*
X121302761Y-59132250D01*
X121280250Y-59212335D01*
X121252742Y-59307163D01*
X121252296Y-59308679D01*
X121164589Y-59588204D01*
X121077813Y-59827023D01*
X120991480Y-60026082D01*
X120905106Y-60186323D01*
X120818204Y-60308692D01*
X120730290Y-60394133D01*
X120676418Y-60428287D01*
X120579003Y-60463788D01*
X120491503Y-60463084D01*
X120440005Y-60445650D01*
X120393594Y-60433278D01*
X120343414Y-60444090D01*
X120316064Y-60456069D01*
X120244459Y-60483724D01*
X120186822Y-60486146D01*
X120124048Y-60463461D01*
X120112082Y-60457423D01*
X120065626Y-60437229D01*
X120035986Y-60439347D01*
X120014142Y-60455104D01*
X119940996Y-60493898D01*
X119858645Y-60496614D01*
X119789568Y-60468974D01*
X119742322Y-60430207D01*
X119697322Y-60374916D01*
X119653749Y-60300482D01*
X119610784Y-60204288D01*
X119567606Y-60083713D01*
X119523395Y-59936140D01*
X119477332Y-59758949D01*
X119428596Y-59549521D01*
X119376369Y-59305239D01*
X119374014Y-59293506D01*
X119576912Y-59293506D01*
X119581622Y-59330563D01*
X119596590Y-59407963D01*
X119621922Y-59525700D01*
X119627334Y-59550030D01*
X119668511Y-59722149D01*
X119711254Y-59878636D01*
X119754091Y-60015648D01*
X119795547Y-60129343D01*
X119834150Y-60215879D01*
X119868424Y-60271415D01*
X119896896Y-60292107D01*
X119909969Y-60286835D01*
X119917504Y-60253918D01*
X119914764Y-60248151D01*
X120162111Y-60248151D01*
X120182989Y-60274524D01*
X120210183Y-60281825D01*
X120229304Y-60275680D01*
X120220489Y-60250260D01*
X120214684Y-60240672D01*
X120187916Y-60214946D01*
X120170482Y-60218020D01*
X120162111Y-60248151D01*
X119914764Y-60248151D01*
X119899644Y-60216334D01*
X119862735Y-60146449D01*
X119819014Y-60042487D01*
X119770855Y-59911017D01*
X119720631Y-59758610D01*
X119670714Y-59591837D01*
X119658591Y-59548780D01*
X119623301Y-59424427D01*
X119597856Y-59340434D01*
X119582358Y-59296795D01*
X119576912Y-59293506D01*
X119374014Y-59293506D01*
X119354912Y-59198314D01*
X119555709Y-59198314D01*
X119558983Y-59227895D01*
X119566219Y-59224360D01*
X119568971Y-59181700D01*
X119566219Y-59172268D01*
X119558613Y-59169651D01*
X119555709Y-59198314D01*
X119354912Y-59198314D01*
X119335748Y-59102813D01*
X119533227Y-59102813D01*
X119537058Y-59129838D01*
X119544171Y-59130161D01*
X119549145Y-59102273D01*
X119545816Y-59090224D01*
X119536564Y-59082331D01*
X119533227Y-59102813D01*
X119335748Y-59102813D01*
X119319829Y-59023482D01*
G37*
G36*
X120307353Y-57511255D02*
G01*
X120370735Y-57536780D01*
X120438947Y-57604526D01*
X120479923Y-57693837D01*
X120493208Y-57794349D01*
X120478344Y-57895696D01*
X120434877Y-57987514D01*
X120392687Y-58035723D01*
X120337771Y-58065100D01*
X120262496Y-58082410D01*
X120187220Y-58084453D01*
X120144567Y-58074723D01*
X120103044Y-58046898D01*
X120055643Y-58001681D01*
X120046421Y-57991139D01*
X119994634Y-57903182D01*
X119974671Y-57807897D01*
X119983603Y-57713320D01*
X120018504Y-57627487D01*
X120076446Y-57558434D01*
X120154502Y-57514196D01*
X120224576Y-57502135D01*
X120307353Y-57511255D01*
G37*
G36*
X120946615Y-57518104D02*
G01*
X121020163Y-57566064D01*
X121073819Y-57636316D01*
X121106043Y-57720943D01*
X121115293Y-57812025D01*
X121100029Y-57901642D01*
X121058711Y-57981875D01*
X120989799Y-58044805D01*
X120963420Y-58059170D01*
X120887333Y-58087745D01*
X120823995Y-58089018D01*
X120754431Y-58062710D01*
X120741399Y-58055892D01*
X120665450Y-57995480D01*
X120617882Y-57916754D01*
X120597090Y-57827589D01*
X120601466Y-57735862D01*
X120629403Y-57649450D01*
X120679296Y-57576228D01*
X120749537Y-57524073D01*
X120838520Y-57500860D01*
X120854716Y-57500358D01*
X120946615Y-57518104D01*
G37*
G36*
X120900644Y-63003871D02*
G01*
X120983083Y-63037858D01*
X121050023Y-63099909D01*
X121094420Y-63185613D01*
X121109306Y-63283056D01*
X121093184Y-63389024D01*
X121048802Y-63477591D01*
X120982435Y-63542997D01*
X120900358Y-63579482D01*
X120808844Y-63581283D01*
X120789385Y-63576817D01*
X120703462Y-63534018D01*
X120640658Y-63464808D01*
X120602177Y-63378222D01*
X120589225Y-63283298D01*
X120603010Y-63189070D01*
X120644735Y-63104576D01*
X120715609Y-63038851D01*
X120717441Y-63037723D01*
X120809749Y-63002356D01*
X120900644Y-63003871D01*
G37*
G36*
X120642390Y-63755928D02*
G01*
X120712148Y-63802980D01*
X120764986Y-63874515D01*
X120793621Y-63969296D01*
X120796677Y-64016517D01*
X120780174Y-64121723D01*
X120734974Y-64209522D01*
X120667547Y-64274177D01*
X120584358Y-64309950D01*
X120491875Y-64311104D01*
X120470382Y-64305988D01*
X120388345Y-64262347D01*
X120326750Y-64189725D01*
X120290047Y-64097625D01*
X120282687Y-63995552D01*
X120294863Y-63931253D01*
X120339912Y-63837317D01*
X120404476Y-63774054D01*
X120481268Y-63740227D01*
X120563002Y-63734598D01*
X120642390Y-63755928D01*
G37*
G36*
X119312379Y-64485344D02*
G01*
X119504954Y-64485344D01*
X119515373Y-64495762D01*
X119525791Y-64485344D01*
X119515373Y-64474925D01*
X119504954Y-64485344D01*
X119312379Y-64485344D01*
X119295019Y-64397375D01*
X119285921Y-64349905D01*
X119283398Y-64337343D01*
X119698101Y-64337343D01*
X119698229Y-64361720D01*
X119708410Y-64419609D01*
X119726952Y-64504540D01*
X119752160Y-64610042D01*
X119782342Y-64729642D01*
X119815805Y-64856871D01*
X119850854Y-64985256D01*
X119885797Y-65108328D01*
X119918940Y-65219615D01*
X119948590Y-65312645D01*
X119967200Y-65365696D01*
X119994933Y-65428691D01*
X120020351Y-65467526D01*
X120039067Y-65477443D01*
X120046697Y-65453685D01*
X120046710Y-65451960D01*
X120040234Y-65424984D01*
X120022404Y-65366204D01*
X119995622Y-65283154D01*
X119962286Y-65183369D01*
X119945507Y-65134199D01*
X119901309Y-65001407D01*
X119854804Y-64854791D01*
X119811388Y-64711746D01*
X119776453Y-64589666D01*
X119775070Y-64584588D01*
X119748502Y-64489404D01*
X119725400Y-64411611D01*
X119708033Y-64358490D01*
X119698667Y-64337322D01*
X119698101Y-64337343D01*
X119283398Y-64337343D01*
X119270924Y-64275240D01*
X119673293Y-64275240D01*
X119677124Y-64302265D01*
X119684237Y-64302588D01*
X119689211Y-64274700D01*
X119685882Y-64262651D01*
X119676630Y-64254758D01*
X119673293Y-64275240D01*
X119270924Y-64275240D01*
X119256624Y-64204047D01*
X119650812Y-64204047D01*
X119658435Y-64221198D01*
X119664703Y-64217939D01*
X119667197Y-64193210D01*
X119664703Y-64190156D01*
X119652315Y-64193016D01*
X119650812Y-64204047D01*
X119256624Y-64204047D01*
X119247645Y-64159345D01*
X119208361Y-63981786D01*
X119169182Y-63820993D01*
X119131222Y-63680730D01*
X119095593Y-63564764D01*
X119063409Y-63476858D01*
X119035783Y-63420777D01*
X119013827Y-63400287D01*
X119006164Y-63403606D01*
X118973549Y-63451151D01*
X118931775Y-63532066D01*
X118883419Y-63639733D01*
X118831054Y-63767535D01*
X118777255Y-63908854D01*
X118724597Y-64057073D01*
X118675655Y-64205574D01*
X118633003Y-64347738D01*
X118618942Y-64398866D01*
X118580827Y-64541593D01*
X118497913Y-64528334D01*
X118429961Y-64515080D01*
X118394099Y-64499660D01*
X118380865Y-64476773D01*
X118379770Y-64462194D01*
X118385146Y-64423215D01*
X118400040Y-64351290D01*
X118422600Y-64253564D01*
X118450974Y-64137183D01*
X118483308Y-64009292D01*
X118517752Y-63877039D01*
X118552452Y-63747568D01*
X118585557Y-63628025D01*
X118615215Y-63525556D01*
X118639572Y-63447307D01*
X118651953Y-63412121D01*
X118691457Y-63323042D01*
X118738065Y-63237369D01*
X118782269Y-63172423D01*
X118785921Y-63168050D01*
X118821896Y-63127623D01*
X118853026Y-63101916D01*
X118890540Y-63086595D01*
X118945669Y-63077329D01*
X119029642Y-63069785D01*
X119043444Y-63068690D01*
X119143054Y-63062758D01*
X119212078Y-63064180D01*
X119261071Y-63073669D01*
X119288565Y-63085213D01*
X119370568Y-63140032D01*
X119449132Y-63218851D01*
X119525394Y-63324025D01*
X119600493Y-63457907D01*
X119675566Y-63622851D01*
X119751750Y-63821212D01*
X119830184Y-64055342D01*
X119912005Y-64327596D01*
X119944406Y-64442202D01*
X120002099Y-64646999D01*
X120049904Y-64811548D01*
X120087887Y-64936067D01*
X120116119Y-65020774D01*
X120134666Y-65065886D01*
X120142580Y-65073613D01*
X120149518Y-65051236D01*
X120162682Y-64995817D01*
X120180308Y-64915212D01*
X120200630Y-64817280D01*
X120204885Y-64796195D01*
X120225970Y-64695245D01*
X120245382Y-64609618D01*
X120261189Y-64547336D01*
X120271461Y-64516419D01*
X120272641Y-64514740D01*
X120299770Y-64511071D01*
X120351249Y-64516650D01*
X120372214Y-64520647D01*
X120458095Y-64538830D01*
X120438332Y-64637107D01*
X120426991Y-64691599D01*
X120408744Y-64777097D01*
X120385676Y-64883918D01*
X120359875Y-65002376D01*
X120345682Y-65067125D01*
X120318771Y-65190605D01*
X120300265Y-65280665D01*
X120289515Y-65344563D01*
X120285870Y-65389557D01*
X120288678Y-65422905D01*
X120297289Y-65451864D01*
X120308775Y-65478651D01*
X120334215Y-65527952D01*
X120354900Y-65555991D01*
X120359660Y-65558436D01*
X120375035Y-65539437D01*
X120399281Y-65486832D01*
X120430265Y-65407212D01*
X120465856Y-65307167D01*
X120503923Y-65193286D01*
X120542334Y-65072159D01*
X120578959Y-64950376D01*
X120611665Y-64834527D01*
X120638321Y-64731203D01*
X120656796Y-64646992D01*
X120659724Y-64630669D01*
X120672637Y-64570736D01*
X120686974Y-64526802D01*
X120690190Y-64520578D01*
X120719546Y-64505464D01*
X120768959Y-64503926D01*
X120822676Y-64513340D01*
X120864944Y-64531080D01*
X120880180Y-64552254D01*
X120873693Y-64604265D01*
X120855725Y-64688011D01*
X120828518Y-64795876D01*
X120794313Y-64920245D01*
X120755350Y-65053502D01*
X120713871Y-65188033D01*
X120672117Y-65316223D01*
X120632327Y-65430455D01*
X120596745Y-65523115D01*
X120589234Y-65540940D01*
X120553243Y-65626484D01*
X120533320Y-65680949D01*
X120527922Y-65711026D01*
X120535504Y-65723405D01*
X120546721Y-65725130D01*
X120589842Y-65707036D01*
X120643771Y-65657226D01*
X120703184Y-65582411D01*
X120762761Y-65489303D01*
X120817179Y-65384611D01*
X120817757Y-65383360D01*
X120857989Y-65288614D01*
X120905443Y-65165042D01*
X120956168Y-65023968D01*
X121006218Y-64876716D01*
X121051641Y-64734611D01*
X121088491Y-64608974D01*
X121090957Y-64599946D01*
X121109171Y-64540269D01*
X121125712Y-64498090D01*
X121131083Y-64489036D01*
X121156228Y-64484658D01*
X121203392Y-64489880D01*
X121256649Y-64501298D01*
X121300077Y-64515506D01*
X121317752Y-64528949D01*
X121310679Y-64572788D01*
X121291110Y-64648203D01*
X121261520Y-64747879D01*
X121224383Y-64864501D01*
X121182173Y-64990753D01*
X121137366Y-65119321D01*
X121092434Y-65242887D01*
X121049854Y-65354138D01*
X121012099Y-65445758D01*
X120994394Y-65484905D01*
X120904843Y-65650230D01*
X120811192Y-65778599D01*
X120714705Y-65869053D01*
X120616648Y-65920631D01*
X120518286Y-65932375D01*
X120434024Y-65909705D01*
X120386101Y-65897090D01*
X120340669Y-65913168D01*
X120329593Y-65920124D01*
X120249439Y-65950093D01*
X120162263Y-65947401D01*
X120098682Y-65921085D01*
X120061019Y-65900746D01*
X120031284Y-65904354D01*
X119992421Y-65931503D01*
X119924027Y-65968582D01*
X119854822Y-65968012D01*
X119785578Y-65936485D01*
X119737065Y-65897461D01*
X119690483Y-65839420D01*
X119645061Y-65759918D01*
X119600032Y-65656515D01*
X119554626Y-65526766D01*
X119508074Y-65368231D01*
X119459606Y-65178467D01*
X119408454Y-64955031D01*
X119353848Y-64695481D01*
X119349728Y-64674606D01*
X119551330Y-64674606D01*
X119559783Y-64731636D01*
X119575285Y-64814441D01*
X119596298Y-64915697D01*
X119621286Y-65028078D01*
X119648711Y-65144260D01*
X119677037Y-65256917D01*
X119685113Y-65287558D01*
X119727846Y-65435062D01*
X119770685Y-65559385D01*
X119811893Y-65656787D01*
X119849735Y-65723523D01*
X119882476Y-65755853D01*
X119902141Y-65755589D01*
X119901733Y-65733375D01*
X119899085Y-65724928D01*
X120162784Y-65724928D01*
X120191398Y-65744849D01*
X120204392Y-65745967D01*
X120223519Y-65739744D01*
X120214547Y-65714131D01*
X120209087Y-65705125D01*
X120184385Y-65679433D01*
X120168612Y-65688502D01*
X120162784Y-65724928D01*
X119899085Y-65724928D01*
X119886048Y-65683338D01*
X119858252Y-65615027D01*
X119848131Y-65592628D01*
X119811949Y-65505138D01*
X119769432Y-65387860D01*
X119723960Y-65251528D01*
X119678914Y-65106880D01*
X119637673Y-64964651D01*
X119603617Y-64835578D01*
X119586395Y-64761302D01*
X119571425Y-64699281D01*
X119558452Y-64659492D01*
X119551462Y-64650676D01*
X119551330Y-64674606D01*
X119349728Y-64674606D01*
X119332596Y-64587791D01*
X119527436Y-64587791D01*
X119531267Y-64614816D01*
X119538380Y-64615139D01*
X119543354Y-64587251D01*
X119540025Y-64575202D01*
X119530773Y-64567309D01*
X119527436Y-64587791D01*
X119332596Y-64587791D01*
X119312379Y-64485344D01*
G37*
G36*
X120304153Y-63010382D02*
G01*
X120383288Y-63053071D01*
X120442528Y-63125878D01*
X120477172Y-63223698D01*
X120484282Y-63301036D01*
X120480604Y-63373148D01*
X120464799Y-63423421D01*
X120429710Y-63471392D01*
X120416562Y-63485880D01*
X120332015Y-63554928D01*
X120243613Y-63582953D01*
X120150838Y-63571010D01*
X120071696Y-63524800D01*
X120013074Y-63450372D01*
X119979010Y-63357782D01*
X119973540Y-63257087D01*
X119992665Y-63176939D01*
X120047289Y-63084209D01*
X120125466Y-63025792D01*
X120209823Y-63002917D01*
X120304153Y-63010382D01*
G37*
G36*
X76550419Y-74269934D02*
G01*
X76987991Y-74269934D01*
X76987991Y-74915873D01*
X76581445Y-74915873D01*
X75878319Y-75619227D01*
X75175194Y-76322580D01*
X75175194Y-76728670D01*
X74529255Y-76728670D01*
X74529255Y-75645159D01*
X74737622Y-75645159D01*
X74737622Y-76082731D01*
X74956641Y-76082731D01*
X75649347Y-75389794D01*
X76342052Y-74696857D01*
X76342052Y-73853199D01*
X76550419Y-73853199D01*
X76550419Y-74269934D01*
G37*
G36*
X75778199Y-62851273D02*
G01*
X75820176Y-62908572D01*
X75880282Y-62996046D01*
X75954304Y-63107130D01*
X76038028Y-63235258D01*
X76127240Y-63373864D01*
X76217727Y-63516384D01*
X76305276Y-63656252D01*
X76385672Y-63786903D01*
X76454702Y-63901770D01*
X76508152Y-63994290D01*
X76524733Y-64024515D01*
X76609905Y-64193578D01*
X76686651Y-64365168D01*
X76751378Y-64529597D01*
X76800490Y-64677180D01*
X76830391Y-64798230D01*
X76838066Y-64868612D01*
X76814514Y-65092740D01*
X76747429Y-65299882D01*
X76642162Y-65485821D01*
X76504068Y-65646341D01*
X76338499Y-65777224D01*
X76150809Y-65874254D01*
X75946351Y-65933213D01*
X75730477Y-65949885D01*
X75508541Y-65920053D01*
X75504566Y-65919074D01*
X75289642Y-65840870D01*
X75099754Y-65722316D01*
X74939535Y-65569306D01*
X74813616Y-65387734D01*
X74726628Y-65183495D01*
X74683202Y-64962481D01*
X74679066Y-64868612D01*
X74691287Y-64775307D01*
X74725553Y-64647833D01*
X74778269Y-64495877D01*
X74845840Y-64329125D01*
X74924670Y-64157262D01*
X74992398Y-64024515D01*
X75038162Y-63943173D01*
X75101251Y-63836765D01*
X75177451Y-63711854D01*
X75262548Y-63575007D01*
X75352330Y-63432789D01*
X75442581Y-63291765D01*
X75529089Y-63158501D01*
X75607640Y-63039562D01*
X75674020Y-62941514D01*
X75724017Y-62870922D01*
X75753415Y-62834351D01*
X75758566Y-62830715D01*
X75778199Y-62851273D01*
G37*
G36*
X120755996Y-69803671D02*
G01*
X120750032Y-70006829D01*
X120551050Y-70012743D01*
X120463708Y-70013857D01*
X120392581Y-70011990D01*
X120347584Y-70007546D01*
X120337474Y-70004061D01*
X120331103Y-69978063D01*
X120326142Y-69920464D01*
X120323292Y-69841327D01*
X120322878Y-69794989D01*
X120322878Y-69600513D01*
X120761959Y-69600513D01*
X120755996Y-69803671D01*
G37*
G36*
X121500021Y-69829650D02*
G01*
X120687555Y-70642317D01*
X120535613Y-70794109D01*
X120392540Y-70936680D01*
X120261030Y-71067368D01*
X120143781Y-71183510D01*
X120043490Y-71282444D01*
X119962853Y-71361508D01*
X119904565Y-71418039D01*
X119871324Y-71449376D01*
X119864471Y-71454984D01*
X119848187Y-71440668D01*
X119805162Y-71399485D01*
X119738073Y-71334080D01*
X119649602Y-71247101D01*
X119542427Y-71141191D01*
X119419228Y-71018999D01*
X119282684Y-70883169D01*
X119135476Y-70736349D01*
X119031401Y-70632334D01*
X118208950Y-69809684D01*
X118531418Y-69498775D01*
X118853887Y-69187867D01*
X118761714Y-69092791D01*
X118711218Y-69036577D01*
X118691173Y-69002544D01*
X118699203Y-68987036D01*
X118751357Y-68969362D01*
X118828090Y-68944746D01*
X118921769Y-68915487D01*
X119024764Y-68883886D01*
X119129443Y-68852241D01*
X119228174Y-68822853D01*
X119313326Y-68798021D01*
X119377268Y-68780046D01*
X119412367Y-68771226D01*
X119416696Y-68770824D01*
X119414375Y-68792041D01*
X119404142Y-68845943D01*
X119387766Y-68924680D01*
X119367023Y-69020406D01*
X119343683Y-69125271D01*
X119319519Y-69231429D01*
X119296305Y-69331031D01*
X119275812Y-69416228D01*
X119259813Y-69479174D01*
X119250081Y-69512019D01*
X119248657Y-69514822D01*
X119230188Y-69506616D01*
X119191014Y-69476885D01*
X119153988Y-69444880D01*
X119067508Y-69366750D01*
X118613952Y-69818900D01*
X119239211Y-70444158D01*
X119864469Y-71069417D01*
X120484284Y-70449602D01*
X121104100Y-69829787D01*
X120385504Y-69110964D01*
X119666908Y-68392142D01*
X119765809Y-68293241D01*
X119864711Y-68194340D01*
X121500021Y-69829650D01*
G37*
G36*
X120760450Y-69794989D02*
G01*
X120760036Y-69841327D01*
X120757187Y-69920464D01*
X120752226Y-69978063D01*
X120745855Y-70004061D01*
X120735745Y-70007546D01*
X120690747Y-70011990D01*
X120619620Y-70013857D01*
X120532278Y-70012743D01*
X120333297Y-70006829D01*
X120321369Y-69600513D01*
X120760450Y-69600513D01*
X120760450Y-69794989D01*
G37*
G36*
X121500021Y-69829650D02*
G01*
X120687555Y-70642317D01*
X120592104Y-70737719D01*
X120445364Y-70884085D01*
X120309169Y-71019574D01*
X120186218Y-71141523D01*
X120079205Y-71247269D01*
X119990827Y-71334151D01*
X119923782Y-71399505D01*
X119880764Y-71440670D01*
X119864471Y-71454984D01*
X119856539Y-71448392D01*
X119821905Y-71415645D01*
X119762338Y-71357818D01*
X119680518Y-71277555D01*
X119579124Y-71177504D01*
X119460836Y-71060311D01*
X119328333Y-70928620D01*
X119184295Y-70785079D01*
X119031401Y-70632334D01*
X118208949Y-69809684D01*
X118531418Y-69498775D01*
X118853887Y-69187867D01*
X118761714Y-69092791D01*
X118711505Y-69036942D01*
X118691219Y-69002742D01*
X118699203Y-68987036D01*
X118718231Y-68980400D01*
X118781940Y-68959444D01*
X118866930Y-68932540D01*
X118965570Y-68901987D01*
X119070229Y-68870085D01*
X119173275Y-68839133D01*
X119267076Y-68811431D01*
X119344000Y-68789279D01*
X119396418Y-68774977D01*
X119416696Y-68770824D01*
X119416937Y-68773258D01*
X119412076Y-68805024D01*
X119399829Y-68867138D01*
X119381969Y-68951752D01*
X119360267Y-69051018D01*
X119336496Y-69157089D01*
X119312430Y-69262116D01*
X119289841Y-69358250D01*
X119270500Y-69437645D01*
X119256181Y-69492452D01*
X119248657Y-69514822D01*
X119237203Y-69511010D01*
X119202366Y-69486061D01*
X119153988Y-69444880D01*
X119067508Y-69366750D01*
X118613952Y-69818900D01*
X119239211Y-70444158D01*
X119864469Y-71069417D01*
X120484284Y-70449602D01*
X121104100Y-69829787D01*
X120385504Y-69110964D01*
X119666908Y-68392142D01*
X119765810Y-68293241D01*
X119864711Y-68194340D01*
X121500021Y-69829650D01*
G37*
%TD*%
M02*
